ISO-10303-21;
HEADER;
/* Generated by software containing ST-Developer
 * from STEP Tools, Inc. (www.steptools.com) 
 */

FILE_DESCRIPTION(
/* description */ (''),
/* implementation_level */ '2;1');

FILE_NAME(
/* name */ 'shootex base.step',
/* time_stamp */ '2026-05-27T12:22:15+05:30',
/* author */ (''),
/* organization */ (''),
/* preprocessor_version */ 'ST-DEVELOPER v20.1',
/* originating_system */ 'Autodesk Translation Framework v15.8.0.0',
/* authorisation */ '');

FILE_SCHEMA (('AUTOMOTIVE_DESIGN { 1 0 10303 214 3 1 1 }'));
ENDSEC;

DATA;
#10=MECHANICAL_DESIGN_GEOMETRIC_PRESENTATION_REPRESENTATION('',(#13,#14,
#15,#16,#17),#1051);
#11=SHAPE_REPRESENTATION_RELATIONSHIP('SRR','None',#1058,#12);
#12=ADVANCED_BREP_SHAPE_REPRESENTATION('',(#18,#19,#20,#21,#22),#1050);
#13=STYLED_ITEM('',(#1068),#18);
#14=STYLED_ITEM('',(#1068),#19);
#15=STYLED_ITEM('',(#1068),#20);
#16=STYLED_ITEM('',(#1068),#21);
#17=STYLED_ITEM('',(#1069),#22);
#18=MANIFOLD_SOLID_BREP('Body1',#651);
#19=MANIFOLD_SOLID_BREP('Body2',#652);
#20=MANIFOLD_SOLID_BREP('Body3',#653);
#21=MANIFOLD_SOLID_BREP('Body4',#654);
#22=MANIFOLD_SOLID_BREP('Body5',#655);
#23=FACE_OUTER_BOUND('',#61,.T.);
#24=FACE_OUTER_BOUND('',#62,.T.);
#25=FACE_OUTER_BOUND('',#63,.T.);
#26=FACE_OUTER_BOUND('',#64,.T.);
#27=FACE_OUTER_BOUND('',#65,.T.);
#28=FACE_OUTER_BOUND('',#66,.T.);
#29=FACE_OUTER_BOUND('',#67,.T.);
#30=FACE_OUTER_BOUND('',#68,.T.);
#31=FACE_OUTER_BOUND('',#69,.T.);
#32=FACE_OUTER_BOUND('',#70,.T.);
#33=FACE_OUTER_BOUND('',#71,.T.);
#34=FACE_OUTER_BOUND('',#72,.T.);
#35=FACE_OUTER_BOUND('',#73,.T.);
#36=FACE_OUTER_BOUND('',#74,.T.);
#37=FACE_OUTER_BOUND('',#75,.T.);
#38=FACE_OUTER_BOUND('',#76,.T.);
#39=FACE_OUTER_BOUND('',#77,.T.);
#40=FACE_OUTER_BOUND('',#78,.T.);
#41=FACE_OUTER_BOUND('',#79,.T.);
#42=FACE_OUTER_BOUND('',#80,.T.);
#43=FACE_OUTER_BOUND('',#81,.T.);
#44=FACE_OUTER_BOUND('',#82,.T.);
#45=FACE_OUTER_BOUND('',#83,.T.);
#46=FACE_OUTER_BOUND('',#84,.T.);
#47=FACE_OUTER_BOUND('',#85,.T.);
#48=FACE_OUTER_BOUND('',#86,.T.);
#49=FACE_OUTER_BOUND('',#87,.T.);
#50=FACE_OUTER_BOUND('',#88,.T.);
#51=FACE_OUTER_BOUND('',#89,.T.);
#52=FACE_OUTER_BOUND('',#90,.T.);
#53=FACE_OUTER_BOUND('',#91,.T.);
#54=FACE_OUTER_BOUND('',#92,.T.);
#55=FACE_OUTER_BOUND('',#93,.T.);
#56=FACE_OUTER_BOUND('',#94,.T.);
#57=FACE_OUTER_BOUND('',#95,.T.);
#58=FACE_OUTER_BOUND('',#96,.T.);
#59=FACE_OUTER_BOUND('',#97,.T.);
#60=FACE_OUTER_BOUND('',#98,.T.);
#61=EDGE_LOOP('',(#407,#408,#409,#410));
#62=EDGE_LOOP('',(#411,#412,#413,#414));
#63=EDGE_LOOP('',(#415,#416,#417,#418));
#64=EDGE_LOOP('',(#419,#420,#421,#422));
#65=EDGE_LOOP('',(#423,#424,#425,#426));
#66=EDGE_LOOP('',(#427,#428,#429,#430));
#67=EDGE_LOOP('',(#431,#432,#433,#434));
#68=EDGE_LOOP('',(#435,#436,#437,#438));
#69=EDGE_LOOP('',(#439,#440,#441,#442));
#70=EDGE_LOOP('',(#443,#444,#445,#446));
#71=EDGE_LOOP('',(#447,#448,#449,#450));
#72=EDGE_LOOP('',(#451,#452,#453,#454));
#73=EDGE_LOOP('',(#455,#456,#457,#458));
#74=EDGE_LOOP('',(#459,#460,#461,#462));
#75=EDGE_LOOP('',(#463,#464,#465,#466));
#76=EDGE_LOOP('',(#467,#468,#469,#470));
#77=EDGE_LOOP('',(#471,#472,#473,#474));
#78=EDGE_LOOP('',(#475,#476,#477,#478));
#79=EDGE_LOOP('',(#479,#480,#481,#482));
#80=EDGE_LOOP('',(#483,#484,#485,#486));
#81=EDGE_LOOP('',(#487,#488,#489,#490));
#82=EDGE_LOOP('',(#491,#492,#493,#494));
#83=EDGE_LOOP('',(#495,#496,#497,#498));
#84=EDGE_LOOP('',(#499,#500,#501,#502));
#85=EDGE_LOOP('',(#503,#504,#505,#506));
#86=EDGE_LOOP('',(#507,#508,#509,#510,#511,#512,#513,#514));
#87=EDGE_LOOP('',(#515,#516,#517,#518));
#88=EDGE_LOOP('',(#519,#520,#521,#522));
#89=EDGE_LOOP('',(#523,#524,#525,#526,#527,#528));
#90=EDGE_LOOP('',(#529,#530,#531,#532,#533,#534));
#91=EDGE_LOOP('',(#535,#536,#537,#538,#539,#540));
#92=EDGE_LOOP('',(#541,#542,#543,#544));
#93=EDGE_LOOP('',(#545,#546,#547,#548));
#94=EDGE_LOOP('',(#549,#550,#551,#552));
#95=EDGE_LOOP('',(#553,#554,#555,#556));
#96=EDGE_LOOP('',(#557,#558,#559,#560));
#97=EDGE_LOOP('',(#561,#562,#563,#564,#565,#566));
#98=EDGE_LOOP('',(#567,#568,#569,#570,#571,#572,#573,#574));
#99=LINE('',#873,#183);
#100=LINE('',#875,#184);
#101=LINE('',#877,#185);
#102=LINE('',#878,#186);
#103=LINE('',#882,#187);
#104=LINE('',#884,#188);
#105=LINE('',#886,#189);
#106=LINE('',#887,#190);
#107=LINE('',#889,#191);
#108=LINE('',#890,#192);
#109=LINE('',#892,#193);
#110=LINE('',#894,#194);
#111=LINE('',#899,#195);
#112=LINE('',#901,#196);
#113=LINE('',#903,#197);
#114=LINE('',#904,#198);
#115=LINE('',#908,#199);
#116=LINE('',#910,#200);
#117=LINE('',#912,#201);
#118=LINE('',#913,#202);
#119=LINE('',#915,#203);
#120=LINE('',#916,#204);
#121=LINE('',#918,#205);
#122=LINE('',#920,#206);
#123=LINE('',#925,#207);
#124=LINE('',#927,#208);
#125=LINE('',#929,#209);
#126=LINE('',#930,#210);
#127=LINE('',#934,#211);
#128=LINE('',#936,#212);
#129=LINE('',#938,#213);
#130=LINE('',#939,#214);
#131=LINE('',#941,#215);
#132=LINE('',#942,#216);
#133=LINE('',#944,#217);
#134=LINE('',#946,#218);
#135=LINE('',#951,#219);
#136=LINE('',#953,#220);
#137=LINE('',#955,#221);
#138=LINE('',#956,#222);
#139=LINE('',#960,#223);
#140=LINE('',#962,#224);
#141=LINE('',#964,#225);
#142=LINE('',#965,#226);
#143=LINE('',#967,#227);
#144=LINE('',#968,#228);
#145=LINE('',#970,#229);
#146=LINE('',#972,#230);
#147=LINE('',#977,#231);
#148=LINE('',#979,#232);
#149=LINE('',#981,#233);
#150=LINE('',#982,#234);
#151=LINE('',#986,#235);
#152=LINE('',#988,#236);
#153=LINE('',#990,#237);
#154=LINE('',#992,#238);
#155=LINE('',#993,#239);
#156=LINE('',#995,#240);
#157=LINE('',#996,#241);
#158=LINE('',#999,#242);
#159=LINE('',#1001,#243);
#160=LINE('',#1002,#244);
#161=LINE('',#1005,#245);
#162=LINE('',#1007,#246);
#163=LINE('',#1008,#247);
#164=LINE('',#1011,#248);
#165=LINE('',#1013,#249);
#166=LINE('',#1014,#250);
#167=LINE('',#1017,#251);
#168=LINE('',#1019,#252);
#169=LINE('',#1021,#253);
#170=LINE('',#1022,#254);
#171=LINE('',#1025,#255);
#172=LINE('',#1027,#256);
#173=LINE('',#1028,#257);
#174=LINE('',#1030,#258);
#175=LINE('',#1031,#259);
#176=LINE('',#1035,#260);
#177=LINE('',#1036,#261);
#178=LINE('',#1039,#262);
#179=LINE('',#1041,#263);
#180=LINE('',#1042,#264);
#181=LINE('',#1044,#265);
#182=LINE('',#1046,#266);
#183=VECTOR('',#711,0.350099998712541);
#184=VECTOR('',#712,0.525);
#185=VECTOR('',#713,0.350099998712541);
#186=VECTOR('',#714,0.525);
#187=VECTOR('',#717,0.350099998712541);
#188=VECTOR('',#718,0.525);
#189=VECTOR('',#719,0.350099998712541);
#190=VECTOR('',#720,0.525);
#191=VECTOR('',#723,0.525);
#192=VECTOR('',#724,0.525);
#193=VECTOR('',#727,0.525);
#194=VECTOR('',#730,0.525);
#195=VECTOR('',#735,0.35);
#196=VECTOR('',#736,0.525);
#197=VECTOR('',#737,0.35);
#198=VECTOR('',#738,0.525);
#199=VECTOR('',#741,0.35);
#200=VECTOR('',#742,0.525);
#201=VECTOR('',#743,0.35);
#202=VECTOR('',#744,0.525);
#203=VECTOR('',#747,0.525);
#204=VECTOR('',#748,0.525);
#205=VECTOR('',#751,0.525);
#206=VECTOR('',#754,0.525);
#207=VECTOR('',#759,0.35);
#208=VECTOR('',#760,0.525);
#209=VECTOR('',#761,0.35);
#210=VECTOR('',#762,0.525);
#211=VECTOR('',#765,0.35);
#212=VECTOR('',#766,0.525);
#213=VECTOR('',#767,0.35);
#214=VECTOR('',#768,0.525);
#215=VECTOR('',#771,0.525);
#216=VECTOR('',#772,0.525);
#217=VECTOR('',#775,0.525);
#218=VECTOR('',#778,0.525);
#219=VECTOR('',#783,0.35);
#220=VECTOR('',#784,0.525);
#221=VECTOR('',#785,0.35);
#222=VECTOR('',#786,0.525);
#223=VECTOR('',#789,0.35);
#224=VECTOR('',#790,0.525);
#225=VECTOR('',#791,0.35);
#226=VECTOR('',#792,0.525);
#227=VECTOR('',#795,0.525);
#228=VECTOR('',#796,0.525);
#229=VECTOR('',#799,0.525);
#230=VECTOR('',#802,0.525);
#231=VECTOR('',#807,1.);
#232=VECTOR('',#808,11.5615436416185);
#233=VECTOR('',#809,1.);
#234=VECTOR('',#810,1.);
#235=VECTOR('',#813,1.);
#236=VECTOR('',#814,11.5615436416185);
#237=VECTOR('',#815,1.);
#238=VECTOR('',#816,1.);
#239=VECTOR('',#817,1.);
#240=VECTOR('',#818,1.);
#241=VECTOR('',#819,1.);
#242=VECTOR('',#822,1.);
#243=VECTOR('',#823,1.);
#244=VECTOR('',#824,1.);
#245=VECTOR('',#827,1.00085);
#246=VECTOR('',#828,9.85085);
#247=VECTOR('',#829,1.00085);
#248=VECTOR('',#832,1.);
#249=VECTOR('',#833,1.00085);
#250=VECTOR('',#834,9.8425668885167);
#251=VECTOR('',#837,0.45);
#252=VECTOR('',#838,10.2);
#253=VECTOR('',#839,0.45);
#254=VECTOR('',#840,10.2);
#255=VECTOR('',#843,9.8425668885167);
#256=VECTOR('',#844,1.00085);
#257=VECTOR('',#845,1.);
#258=VECTOR('',#848,1.);
#259=VECTOR('',#849,9.85085);
#260=VECTOR('',#854,0.45);
#261=VECTOR('',#855,10.);
#262=VECTOR('',#858,10.);
#263=VECTOR('',#859,0.45);
#264=VECTOR('',#860,10.);
#265=VECTOR('',#863,10.2);
#266=VECTOR('',#866,10.2);
#267=VERTEX_POINT('',#871);
#268=VERTEX_POINT('',#872);
#269=VERTEX_POINT('',#874);
#270=VERTEX_POINT('',#876);
#271=VERTEX_POINT('',#880);
#272=VERTEX_POINT('',#881);
#273=VERTEX_POINT('',#883);
#274=VERTEX_POINT('',#885);
#275=VERTEX_POINT('',#897);
#276=VERTEX_POINT('',#898);
#277=VERTEX_POINT('',#900);
#278=VERTEX_POINT('',#902);
#279=VERTEX_POINT('',#906);
#280=VERTEX_POINT('',#907);
#281=VERTEX_POINT('',#909);
#282=VERTEX_POINT('',#911);
#283=VERTEX_POINT('',#923);
#284=VERTEX_POINT('',#924);
#285=VERTEX_POINT('',#926);
#286=VERTEX_POINT('',#928);
#287=VERTEX_POINT('',#932);
#288=VERTEX_POINT('',#933);
#289=VERTEX_POINT('',#935);
#290=VERTEX_POINT('',#937);
#291=VERTEX_POINT('',#949);
#292=VERTEX_POINT('',#950);
#293=VERTEX_POINT('',#952);
#294=VERTEX_POINT('',#954);
#295=VERTEX_POINT('',#958);
#296=VERTEX_POINT('',#959);
#297=VERTEX_POINT('',#961);
#298=VERTEX_POINT('',#963);
#299=VERTEX_POINT('',#975);
#300=VERTEX_POINT('',#976);
#301=VERTEX_POINT('',#978);
#302=VERTEX_POINT('',#980);
#303=VERTEX_POINT('',#984);
#304=VERTEX_POINT('',#985);
#305=VERTEX_POINT('',#987);
#306=VERTEX_POINT('',#989);
#307=VERTEX_POINT('',#991);
#308=VERTEX_POINT('',#994);
#309=VERTEX_POINT('',#998);
#310=VERTEX_POINT('',#1000);
#311=VERTEX_POINT('',#1004);
#312=VERTEX_POINT('',#1006);
#313=VERTEX_POINT('',#1010);
#314=VERTEX_POINT('',#1012);
#315=VERTEX_POINT('',#1016);
#316=VERTEX_POINT('',#1018);
#317=VERTEX_POINT('',#1020);
#318=VERTEX_POINT('',#1024);
#319=VERTEX_POINT('',#1026);
#320=VERTEX_POINT('',#1034);
#321=VERTEX_POINT('',#1038);
#322=VERTEX_POINT('',#1040);
#323=EDGE_CURVE('',#267,#268,#99,.T.);
#324=EDGE_CURVE('',#268,#269,#100,.T.);
#325=EDGE_CURVE('',#269,#270,#101,.T.);
#326=EDGE_CURVE('',#270,#267,#102,.T.);
#327=EDGE_CURVE('',#271,#272,#103,.T.);
#328=EDGE_CURVE('',#272,#273,#104,.T.);
#329=EDGE_CURVE('',#273,#274,#105,.T.);
#330=EDGE_CURVE('',#274,#271,#106,.T.);
#331=EDGE_CURVE('',#270,#273,#107,.T.);
#332=EDGE_CURVE('',#267,#272,#108,.T.);
#333=EDGE_CURVE('',#269,#274,#109,.T.);
#334=EDGE_CURVE('',#268,#271,#110,.T.);
#335=EDGE_CURVE('',#275,#276,#111,.T.);
#336=EDGE_CURVE('',#276,#277,#112,.T.);
#337=EDGE_CURVE('',#277,#278,#113,.T.);
#338=EDGE_CURVE('',#278,#275,#114,.T.);
#339=EDGE_CURVE('',#279,#280,#115,.T.);
#340=EDGE_CURVE('',#280,#281,#116,.T.);
#341=EDGE_CURVE('',#281,#282,#117,.T.);
#342=EDGE_CURVE('',#282,#279,#118,.T.);
#343=EDGE_CURVE('',#278,#281,#119,.T.);
#344=EDGE_CURVE('',#275,#280,#120,.T.);
#345=EDGE_CURVE('',#277,#282,#121,.T.);
#346=EDGE_CURVE('',#276,#279,#122,.T.);
#347=EDGE_CURVE('',#283,#284,#123,.T.);
#348=EDGE_CURVE('',#284,#285,#124,.T.);
#349=EDGE_CURVE('',#285,#286,#125,.T.);
#350=EDGE_CURVE('',#286,#283,#126,.T.);
#351=EDGE_CURVE('',#287,#288,#127,.T.);
#352=EDGE_CURVE('',#288,#289,#128,.T.);
#353=EDGE_CURVE('',#289,#290,#129,.T.);
#354=EDGE_CURVE('',#290,#287,#130,.T.);
#355=EDGE_CURVE('',#286,#289,#131,.T.);
#356=EDGE_CURVE('',#283,#288,#132,.T.);
#357=EDGE_CURVE('',#285,#290,#133,.T.);
#358=EDGE_CURVE('',#284,#287,#134,.T.);
#359=EDGE_CURVE('',#291,#292,#135,.T.);
#360=EDGE_CURVE('',#292,#293,#136,.T.);
#361=EDGE_CURVE('',#293,#294,#137,.T.);
#362=EDGE_CURVE('',#294,#291,#138,.T.);
#363=EDGE_CURVE('',#295,#296,#139,.T.);
#364=EDGE_CURVE('',#296,#297,#140,.T.);
#365=EDGE_CURVE('',#297,#298,#141,.T.);
#366=EDGE_CURVE('',#298,#295,#142,.T.);
#367=EDGE_CURVE('',#294,#297,#143,.T.);
#368=EDGE_CURVE('',#291,#296,#144,.T.);
#369=EDGE_CURVE('',#293,#298,#145,.T.);
#370=EDGE_CURVE('',#292,#295,#146,.T.);
#371=EDGE_CURVE('',#299,#300,#147,.T.);
#372=EDGE_CURVE('',#301,#299,#148,.T.);
#373=EDGE_CURVE('',#302,#301,#149,.T.);
#374=EDGE_CURVE('',#300,#302,#150,.T.);
#375=EDGE_CURVE('',#303,#304,#151,.T.);
#376=EDGE_CURVE('',#303,#305,#152,.T.);
#377=EDGE_CURVE('',#306,#305,#153,.T.);
#378=EDGE_CURVE('',#307,#306,#154,.T.);
#379=EDGE_CURVE('',#301,#307,#155,.T.);
#380=EDGE_CURVE('',#308,#299,#156,.T.);
#381=EDGE_CURVE('',#304,#308,#157,.T.);
#382=EDGE_CURVE('',#309,#303,#158,.T.);
#383=EDGE_CURVE('',#310,#309,#159,.T.);
#384=EDGE_CURVE('',#305,#310,#160,.T.);
#385=EDGE_CURVE('',#311,#308,#161,.T.);
#386=EDGE_CURVE('',#312,#311,#162,.T.);
#387=EDGE_CURVE('',#304,#312,#163,.T.);
#388=EDGE_CURVE('',#313,#300,#164,.T.);
#389=EDGE_CURVE('',#313,#314,#165,.T.);
#390=EDGE_CURVE('',#311,#314,#166,.T.);
#391=EDGE_CURVE('',#315,#307,#167,.T.);
#392=EDGE_CURVE('',#315,#316,#168,.T.);
#393=EDGE_CURVE('',#317,#316,#169,.T.);
#394=EDGE_CURVE('',#302,#317,#170,.T.);
#395=EDGE_CURVE('',#312,#318,#171,.T.);
#396=EDGE_CURVE('',#318,#319,#172,.T.);
#397=EDGE_CURVE('',#309,#319,#173,.T.);
#398=EDGE_CURVE('',#319,#313,#174,.T.);
#399=EDGE_CURVE('',#314,#318,#175,.T.);
#400=EDGE_CURVE('',#306,#320,#176,.T.);
#401=EDGE_CURVE('',#320,#315,#177,.T.);
#402=EDGE_CURVE('',#316,#321,#178,.T.);
#403=EDGE_CURVE('',#321,#322,#179,.T.);
#404=EDGE_CURVE('',#322,#317,#180,.T.);
#405=EDGE_CURVE('',#320,#321,#181,.T.);
#406=EDGE_CURVE('',#310,#322,#182,.T.);
#407=ORIENTED_EDGE('',*,*,#323,.T.);
#408=ORIENTED_EDGE('',*,*,#324,.T.);
#409=ORIENTED_EDGE('',*,*,#325,.T.);
#410=ORIENTED_EDGE('',*,*,#326,.T.);
#411=ORIENTED_EDGE('',*,*,#327,.T.);
#412=ORIENTED_EDGE('',*,*,#328,.T.);
#413=ORIENTED_EDGE('',*,*,#329,.T.);
#414=ORIENTED_EDGE('',*,*,#330,.T.);
#415=ORIENTED_EDGE('',*,*,#331,.T.);
#416=ORIENTED_EDGE('',*,*,#328,.F.);
#417=ORIENTED_EDGE('',*,*,#332,.F.);
#418=ORIENTED_EDGE('',*,*,#326,.F.);
#419=ORIENTED_EDGE('',*,*,#333,.T.);
#420=ORIENTED_EDGE('',*,*,#329,.F.);
#421=ORIENTED_EDGE('',*,*,#331,.F.);
#422=ORIENTED_EDGE('',*,*,#325,.F.);
#423=ORIENTED_EDGE('',*,*,#334,.T.);
#424=ORIENTED_EDGE('',*,*,#330,.F.);
#425=ORIENTED_EDGE('',*,*,#333,.F.);
#426=ORIENTED_EDGE('',*,*,#324,.F.);
#427=ORIENTED_EDGE('',*,*,#332,.T.);
#428=ORIENTED_EDGE('',*,*,#327,.F.);
#429=ORIENTED_EDGE('',*,*,#334,.F.);
#430=ORIENTED_EDGE('',*,*,#323,.F.);
#431=ORIENTED_EDGE('',*,*,#335,.T.);
#432=ORIENTED_EDGE('',*,*,#336,.T.);
#433=ORIENTED_EDGE('',*,*,#337,.T.);
#434=ORIENTED_EDGE('',*,*,#338,.T.);
#435=ORIENTED_EDGE('',*,*,#339,.T.);
#436=ORIENTED_EDGE('',*,*,#340,.T.);
#437=ORIENTED_EDGE('',*,*,#341,.T.);
#438=ORIENTED_EDGE('',*,*,#342,.T.);
#439=ORIENTED_EDGE('',*,*,#343,.T.);
#440=ORIENTED_EDGE('',*,*,#340,.F.);
#441=ORIENTED_EDGE('',*,*,#344,.F.);
#442=ORIENTED_EDGE('',*,*,#338,.F.);
#443=ORIENTED_EDGE('',*,*,#345,.T.);
#444=ORIENTED_EDGE('',*,*,#341,.F.);
#445=ORIENTED_EDGE('',*,*,#343,.F.);
#446=ORIENTED_EDGE('',*,*,#337,.F.);
#447=ORIENTED_EDGE('',*,*,#346,.T.);
#448=ORIENTED_EDGE('',*,*,#342,.F.);
#449=ORIENTED_EDGE('',*,*,#345,.F.);
#450=ORIENTED_EDGE('',*,*,#336,.F.);
#451=ORIENTED_EDGE('',*,*,#344,.T.);
#452=ORIENTED_EDGE('',*,*,#339,.F.);
#453=ORIENTED_EDGE('',*,*,#346,.F.);
#454=ORIENTED_EDGE('',*,*,#335,.F.);
#455=ORIENTED_EDGE('',*,*,#347,.T.);
#456=ORIENTED_EDGE('',*,*,#348,.T.);
#457=ORIENTED_EDGE('',*,*,#349,.T.);
#458=ORIENTED_EDGE('',*,*,#350,.T.);
#459=ORIENTED_EDGE('',*,*,#351,.T.);
#460=ORIENTED_EDGE('',*,*,#352,.T.);
#461=ORIENTED_EDGE('',*,*,#353,.T.);
#462=ORIENTED_EDGE('',*,*,#354,.T.);
#463=ORIENTED_EDGE('',*,*,#355,.T.);
#464=ORIENTED_EDGE('',*,*,#352,.F.);
#465=ORIENTED_EDGE('',*,*,#356,.F.);
#466=ORIENTED_EDGE('',*,*,#350,.F.);
#467=ORIENTED_EDGE('',*,*,#357,.T.);
#468=ORIENTED_EDGE('',*,*,#353,.F.);
#469=ORIENTED_EDGE('',*,*,#355,.F.);
#470=ORIENTED_EDGE('',*,*,#349,.F.);
#471=ORIENTED_EDGE('',*,*,#358,.T.);
#472=ORIENTED_EDGE('',*,*,#354,.F.);
#473=ORIENTED_EDGE('',*,*,#357,.F.);
#474=ORIENTED_EDGE('',*,*,#348,.F.);
#475=ORIENTED_EDGE('',*,*,#356,.T.);
#476=ORIENTED_EDGE('',*,*,#351,.F.);
#477=ORIENTED_EDGE('',*,*,#358,.F.);
#478=ORIENTED_EDGE('',*,*,#347,.F.);
#479=ORIENTED_EDGE('',*,*,#359,.T.);
#480=ORIENTED_EDGE('',*,*,#360,.T.);
#481=ORIENTED_EDGE('',*,*,#361,.T.);
#482=ORIENTED_EDGE('',*,*,#362,.T.);
#483=ORIENTED_EDGE('',*,*,#363,.T.);
#484=ORIENTED_EDGE('',*,*,#364,.T.);
#485=ORIENTED_EDGE('',*,*,#365,.T.);
#486=ORIENTED_EDGE('',*,*,#366,.T.);
#487=ORIENTED_EDGE('',*,*,#367,.T.);
#488=ORIENTED_EDGE('',*,*,#364,.F.);
#489=ORIENTED_EDGE('',*,*,#368,.F.);
#490=ORIENTED_EDGE('',*,*,#362,.F.);
#491=ORIENTED_EDGE('',*,*,#369,.T.);
#492=ORIENTED_EDGE('',*,*,#365,.F.);
#493=ORIENTED_EDGE('',*,*,#367,.F.);
#494=ORIENTED_EDGE('',*,*,#361,.F.);
#495=ORIENTED_EDGE('',*,*,#370,.T.);
#496=ORIENTED_EDGE('',*,*,#366,.F.);
#497=ORIENTED_EDGE('',*,*,#369,.F.);
#498=ORIENTED_EDGE('',*,*,#360,.F.);
#499=ORIENTED_EDGE('',*,*,#368,.T.);
#500=ORIENTED_EDGE('',*,*,#363,.F.);
#501=ORIENTED_EDGE('',*,*,#370,.F.);
#502=ORIENTED_EDGE('',*,*,#359,.F.);
#503=ORIENTED_EDGE('',*,*,#371,.F.);
#504=ORIENTED_EDGE('',*,*,#372,.F.);
#505=ORIENTED_EDGE('',*,*,#373,.F.);
#506=ORIENTED_EDGE('',*,*,#374,.F.);
#507=ORIENTED_EDGE('',*,*,#375,.F.);
#508=ORIENTED_EDGE('',*,*,#376,.T.);
#509=ORIENTED_EDGE('',*,*,#377,.F.);
#510=ORIENTED_EDGE('',*,*,#378,.F.);
#511=ORIENTED_EDGE('',*,*,#379,.F.);
#512=ORIENTED_EDGE('',*,*,#372,.T.);
#513=ORIENTED_EDGE('',*,*,#380,.F.);
#514=ORIENTED_EDGE('',*,*,#381,.F.);
#515=ORIENTED_EDGE('',*,*,#382,.F.);
#516=ORIENTED_EDGE('',*,*,#383,.F.);
#517=ORIENTED_EDGE('',*,*,#384,.F.);
#518=ORIENTED_EDGE('',*,*,#376,.F.);
#519=ORIENTED_EDGE('',*,*,#381,.T.);
#520=ORIENTED_EDGE('',*,*,#385,.F.);
#521=ORIENTED_EDGE('',*,*,#386,.F.);
#522=ORIENTED_EDGE('',*,*,#387,.F.);
#523=ORIENTED_EDGE('',*,*,#380,.T.);
#524=ORIENTED_EDGE('',*,*,#371,.T.);
#525=ORIENTED_EDGE('',*,*,#388,.F.);
#526=ORIENTED_EDGE('',*,*,#389,.T.);
#527=ORIENTED_EDGE('',*,*,#390,.F.);
#528=ORIENTED_EDGE('',*,*,#385,.T.);
#529=ORIENTED_EDGE('',*,*,#373,.T.);
#530=ORIENTED_EDGE('',*,*,#379,.T.);
#531=ORIENTED_EDGE('',*,*,#391,.F.);
#532=ORIENTED_EDGE('',*,*,#392,.T.);
#533=ORIENTED_EDGE('',*,*,#393,.F.);
#534=ORIENTED_EDGE('',*,*,#394,.F.);
#535=ORIENTED_EDGE('',*,*,#375,.T.);
#536=ORIENTED_EDGE('',*,*,#387,.T.);
#537=ORIENTED_EDGE('',*,*,#395,.T.);
#538=ORIENTED_EDGE('',*,*,#396,.T.);
#539=ORIENTED_EDGE('',*,*,#397,.F.);
#540=ORIENTED_EDGE('',*,*,#382,.T.);
#541=ORIENTED_EDGE('',*,*,#398,.F.);
#542=ORIENTED_EDGE('',*,*,#396,.F.);
#543=ORIENTED_EDGE('',*,*,#399,.F.);
#544=ORIENTED_EDGE('',*,*,#389,.F.);
#545=ORIENTED_EDGE('',*,*,#395,.F.);
#546=ORIENTED_EDGE('',*,*,#386,.T.);
#547=ORIENTED_EDGE('',*,*,#390,.T.);
#548=ORIENTED_EDGE('',*,*,#399,.T.);
#549=ORIENTED_EDGE('',*,*,#378,.T.);
#550=ORIENTED_EDGE('',*,*,#400,.T.);
#551=ORIENTED_EDGE('',*,*,#401,.T.);
#552=ORIENTED_EDGE('',*,*,#391,.T.);
#553=ORIENTED_EDGE('',*,*,#393,.T.);
#554=ORIENTED_EDGE('',*,*,#402,.T.);
#555=ORIENTED_EDGE('',*,*,#403,.T.);
#556=ORIENTED_EDGE('',*,*,#404,.T.);
#557=ORIENTED_EDGE('',*,*,#405,.T.);
#558=ORIENTED_EDGE('',*,*,#402,.F.);
#559=ORIENTED_EDGE('',*,*,#392,.F.);
#560=ORIENTED_EDGE('',*,*,#401,.F.);
#561=ORIENTED_EDGE('',*,*,#384,.T.);
#562=ORIENTED_EDGE('',*,*,#406,.T.);
#563=ORIENTED_EDGE('',*,*,#403,.F.);
#564=ORIENTED_EDGE('',*,*,#405,.F.);
#565=ORIENTED_EDGE('',*,*,#400,.F.);
#566=ORIENTED_EDGE('',*,*,#377,.T.);
#567=ORIENTED_EDGE('',*,*,#383,.T.);
#568=ORIENTED_EDGE('',*,*,#397,.T.);
#569=ORIENTED_EDGE('',*,*,#398,.T.);
#570=ORIENTED_EDGE('',*,*,#388,.T.);
#571=ORIENTED_EDGE('',*,*,#374,.T.);
#572=ORIENTED_EDGE('',*,*,#394,.T.);
#573=ORIENTED_EDGE('',*,*,#404,.F.);
#574=ORIENTED_EDGE('',*,*,#406,.F.);
#575=PLANE('',#669);
#576=PLANE('',#670);
#577=PLANE('',#671);
#578=PLANE('',#672);
#579=PLANE('',#673);
#580=PLANE('',#674);
#581=PLANE('',#675);
#582=PLANE('',#676);
#583=PLANE('',#677);
#584=PLANE('',#678);
#585=PLANE('',#679);
#586=PLANE('',#680);
#587=PLANE('',#681);
#588=PLANE('',#682);
#589=PLANE('',#683);
#590=PLANE('',#684);
#591=PLANE('',#685);
#592=PLANE('',#686);
#593=PLANE('',#687);
#594=PLANE('',#688);
#595=PLANE('',#689);
#596=PLANE('',#690);
#597=PLANE('',#691);
#598=PLANE('',#692);
#599=PLANE('',#693);
#600=PLANE('',#694);
#601=PLANE('',#695);
#602=PLANE('',#696);
#603=PLANE('',#697);
#604=PLANE('',#698);
#605=PLANE('',#699);
#606=PLANE('',#700);
#607=PLANE('',#701);
#608=PLANE('',#702);
#609=PLANE('',#703);
#610=PLANE('',#704);
#611=PLANE('',#705);
#612=PLANE('',#706);
#613=ADVANCED_FACE('',(#23),#575,.T.);
#614=ADVANCED_FACE('',(#24),#576,.F.);
#615=ADVANCED_FACE('',(#25),#577,.F.);
#616=ADVANCED_FACE('',(#26),#578,.F.);
#617=ADVANCED_FACE('',(#27),#579,.F.);
#618=ADVANCED_FACE('',(#28),#580,.F.);
#619=ADVANCED_FACE('',(#29),#581,.T.);
#620=ADVANCED_FACE('',(#30),#582,.F.);
#621=ADVANCED_FACE('',(#31),#583,.F.);
#622=ADVANCED_FACE('',(#32),#584,.F.);
#623=ADVANCED_FACE('',(#33),#585,.F.);
#624=ADVANCED_FACE('',(#34),#586,.F.);
#625=ADVANCED_FACE('',(#35),#587,.T.);
#626=ADVANCED_FACE('',(#36),#588,.F.);
#627=ADVANCED_FACE('',(#37),#589,.F.);
#628=ADVANCED_FACE('',(#38),#590,.F.);
#629=ADVANCED_FACE('',(#39),#591,.F.);
#630=ADVANCED_FACE('',(#40),#592,.F.);
#631=ADVANCED_FACE('',(#41),#593,.T.);
#632=ADVANCED_FACE('',(#42),#594,.F.);
#633=ADVANCED_FACE('',(#43),#595,.F.);
#634=ADVANCED_FACE('',(#44),#596,.F.);
#635=ADVANCED_FACE('',(#45),#597,.F.);
#636=ADVANCED_FACE('',(#46),#598,.F.);
#637=ADVANCED_FACE('',(#47),#599,.T.);
#638=ADVANCED_FACE('',(#48),#600,.T.);
#639=ADVANCED_FACE('',(#49),#601,.T.);
#640=ADVANCED_FACE('',(#50),#602,.F.);
#641=ADVANCED_FACE('',(#51),#603,.T.);
#642=ADVANCED_FACE('',(#52),#604,.F.);
#643=ADVANCED_FACE('',(#53),#605,.T.);
#644=ADVANCED_FACE('',(#54),#606,.T.);
#645=ADVANCED_FACE('',(#55),#607,.T.);
#646=ADVANCED_FACE('',(#56),#608,.T.);
#647=ADVANCED_FACE('',(#57),#609,.F.);
#648=ADVANCED_FACE('',(#58),#610,.F.);
#649=ADVANCED_FACE('',(#59),#611,.F.);
#650=ADVANCED_FACE('',(#60),#612,.F.);
#651=CLOSED_SHELL('',(#613,#614,#615,#616,#617,#618));
#652=CLOSED_SHELL('',(#619,#620,#621,#622,#623,#624));
#653=CLOSED_SHELL('',(#625,#626,#627,#628,#629,#630));
#654=CLOSED_SHELL('',(#631,#632,#633,#634,#635,#636));
#655=CLOSED_SHELL('',(#637,#638,#639,#640,#641,#642,#643,#644,#645,#646,
#647,#648,#649,#650));
#656=DERIVED_UNIT_ELEMENT(#658,1.);
#657=DERIVED_UNIT_ELEMENT(#1053,-3.);
#658=(
MASS_UNIT()
NAMED_UNIT(*)
SI_UNIT(.KILO.,.GRAM.)
);
#659=DERIVED_UNIT((#656,#657));
#660=MEASURE_REPRESENTATION_ITEM('density measure',
POSITIVE_RATIO_MEASURE(7850.),#659);
#661=PROPERTY_DEFINITION_REPRESENTATION(#666,#663);
#662=PROPERTY_DEFINITION_REPRESENTATION(#667,#664);
#663=REPRESENTATION('material name',(#665),#1050);
#664=REPRESENTATION('density',(#660),#1050);
#665=DESCRIPTIVE_REPRESENTATION_ITEM('Steel','Steel');
#666=PROPERTY_DEFINITION('material property','material name',#1060);
#667=PROPERTY_DEFINITION('material property','density of part',#1060);
#668=AXIS2_PLACEMENT_3D('',#869,#707,#708);
#669=AXIS2_PLACEMENT_3D('',#870,#709,#710);
#670=AXIS2_PLACEMENT_3D('',#879,#715,#716);
#671=AXIS2_PLACEMENT_3D('',#888,#721,#722);
#672=AXIS2_PLACEMENT_3D('',#891,#725,#726);
#673=AXIS2_PLACEMENT_3D('',#893,#728,#729);
#674=AXIS2_PLACEMENT_3D('',#895,#731,#732);
#675=AXIS2_PLACEMENT_3D('',#896,#733,#734);
#676=AXIS2_PLACEMENT_3D('',#905,#739,#740);
#677=AXIS2_PLACEMENT_3D('',#914,#745,#746);
#678=AXIS2_PLACEMENT_3D('',#917,#749,#750);
#679=AXIS2_PLACEMENT_3D('',#919,#752,#753);
#680=AXIS2_PLACEMENT_3D('',#921,#755,#756);
#681=AXIS2_PLACEMENT_3D('',#922,#757,#758);
#682=AXIS2_PLACEMENT_3D('',#931,#763,#764);
#683=AXIS2_PLACEMENT_3D('',#940,#769,#770);
#684=AXIS2_PLACEMENT_3D('',#943,#773,#774);
#685=AXIS2_PLACEMENT_3D('',#945,#776,#777);
#686=AXIS2_PLACEMENT_3D('',#947,#779,#780);
#687=AXIS2_PLACEMENT_3D('',#948,#781,#782);
#688=AXIS2_PLACEMENT_3D('',#957,#787,#788);
#689=AXIS2_PLACEMENT_3D('',#966,#793,#794);
#690=AXIS2_PLACEMENT_3D('',#969,#797,#798);
#691=AXIS2_PLACEMENT_3D('',#971,#800,#801);
#692=AXIS2_PLACEMENT_3D('',#973,#803,#804);
#693=AXIS2_PLACEMENT_3D('',#974,#805,#806);
#694=AXIS2_PLACEMENT_3D('',#983,#811,#812);
#695=AXIS2_PLACEMENT_3D('',#997,#820,#821);
#696=AXIS2_PLACEMENT_3D('',#1003,#825,#826);
#697=AXIS2_PLACEMENT_3D('',#1009,#830,#831);
#698=AXIS2_PLACEMENT_3D('',#1015,#835,#836);
#699=AXIS2_PLACEMENT_3D('',#1023,#841,#842);
#700=AXIS2_PLACEMENT_3D('',#1029,#846,#847);
#701=AXIS2_PLACEMENT_3D('',#1032,#850,#851);
#702=AXIS2_PLACEMENT_3D('',#1033,#852,#853);
#703=AXIS2_PLACEMENT_3D('',#1037,#856,#857);
#704=AXIS2_PLACEMENT_3D('',#1043,#861,#862);
#705=AXIS2_PLACEMENT_3D('',#1045,#864,#865);
#706=AXIS2_PLACEMENT_3D('',#1047,#867,#868);
#707=DIRECTION('axis',(0.,0.,1.));
#708=DIRECTION('refdir',(1.,0.,0.));
#709=DIRECTION('center_axis',(0.,-1.,3.13866880263036E-16));
#710=DIRECTION('ref_axis',(0.,-3.13866880263036E-16,-1.));
#711=DIRECTION('',(0.,3.13866880263036E-16,1.));
#712=DIRECTION('',(-1.,0.,0.));
#713=DIRECTION('',(0.,-3.13866880263036E-16,-1.));
#714=DIRECTION('',(1.,0.,0.));
#715=DIRECTION('center_axis',(0.,-1.,3.13866880263036E-16));
#716=DIRECTION('ref_axis',(0.,-3.13866880263036E-16,-1.));
#717=DIRECTION('',(0.,-3.13866880263036E-16,-1.));
#718=DIRECTION('',(-1.,0.,0.));
#719=DIRECTION('',(0.,3.13866880263036E-16,1.));
#720=DIRECTION('',(1.,0.,0.));
#721=DIRECTION('center_axis',(0.,2.62877828049298E-16,1.));
#722=DIRECTION('ref_axis',(1.,0.,0.));
#723=DIRECTION('',(0.,1.,-2.62877828049298E-16));
#724=DIRECTION('',(0.,1.,-2.62877828049298E-16));
#725=DIRECTION('center_axis',(1.,0.,0.));
#726=DIRECTION('ref_axis',(0.,0.,-1.));
#727=DIRECTION('',(0.,1.,-2.62877828049298E-16));
#728=DIRECTION('center_axis',(0.,-2.62877828049298E-16,-1.));
#729=DIRECTION('ref_axis',(-1.,0.,0.));
#730=DIRECTION('',(0.,1.,-2.62877828049298E-16));
#731=DIRECTION('center_axis',(-1.,0.,0.));
#732=DIRECTION('ref_axis',(0.,0.,1.));
#733=DIRECTION('center_axis',(0.,-1.,3.13893114861083E-16));
#734=DIRECTION('ref_axis',(0.,-3.13893114861083E-16,-1.));
#735=DIRECTION('',(0.,3.13893114861083E-16,1.));
#736=DIRECTION('',(-1.,0.,0.));
#737=DIRECTION('',(0.,-3.13893114861083E-16,-1.));
#738=DIRECTION('',(1.,0.,0.));
#739=DIRECTION('center_axis',(0.,-1.,3.13893114861083E-16));
#740=DIRECTION('ref_axis',(0.,-3.13893114861083E-16,-1.));
#741=DIRECTION('',(0.,-3.13893114861083E-16,-1.));
#742=DIRECTION('',(-1.,0.,0.));
#743=DIRECTION('',(0.,3.13893114861083E-16,1.));
#744=DIRECTION('',(1.,0.,0.));
#745=DIRECTION('center_axis',(0.,2.6286616489661E-16,1.));
#746=DIRECTION('ref_axis',(1.,0.,0.));
#747=DIRECTION('',(0.,1.,-2.6286616489661E-16));
#748=DIRECTION('',(0.,1.,-2.6286616489661E-16));
#749=DIRECTION('center_axis',(1.,0.,0.));
#750=DIRECTION('ref_axis',(0.,0.,-1.));
#751=DIRECTION('',(0.,1.,-2.6286616489661E-16));
#752=DIRECTION('center_axis',(0.,-2.6286616489661E-16,-1.));
#753=DIRECTION('ref_axis',(-1.,0.,0.));
#754=DIRECTION('',(0.,1.,-2.6286616489661E-16));
#755=DIRECTION('center_axis',(-1.,0.,0.));
#756=DIRECTION('ref_axis',(0.,0.,1.));
#757=DIRECTION('center_axis',(0.,-1.,3.13893114861083E-16));
#758=DIRECTION('ref_axis',(0.,-3.13893114861083E-16,-1.));
#759=DIRECTION('',(0.,3.13893114861083E-16,1.));
#760=DIRECTION('',(-1.,0.,0.));
#761=DIRECTION('',(0.,-3.13893114861083E-16,-1.));
#762=DIRECTION('',(1.,0.,0.));
#763=DIRECTION('center_axis',(0.,-1.,3.13893114861083E-16));
#764=DIRECTION('ref_axis',(0.,-3.13893114861083E-16,-1.));
#765=DIRECTION('',(0.,-3.13893114861083E-16,-1.));
#766=DIRECTION('',(-1.,0.,0.));
#767=DIRECTION('',(0.,3.13893114861083E-16,1.));
#768=DIRECTION('',(1.,0.,0.));
#769=DIRECTION('center_axis',(0.,2.6286616489661E-16,1.));
#770=DIRECTION('ref_axis',(1.,0.,0.));
#771=DIRECTION('',(0.,1.,-2.6286616489661E-16));
#772=DIRECTION('',(0.,1.,-2.6286616489661E-16));
#773=DIRECTION('center_axis',(1.,0.,0.));
#774=DIRECTION('ref_axis',(0.,0.,-1.));
#775=DIRECTION('',(0.,1.,-2.6286616489661E-16));
#776=DIRECTION('center_axis',(0.,-2.6286616489661E-16,-1.));
#777=DIRECTION('ref_axis',(-1.,0.,0.));
#778=DIRECTION('',(0.,1.,-2.6286616489661E-16));
#779=DIRECTION('center_axis',(-1.,0.,0.));
#780=DIRECTION('ref_axis',(0.,0.,1.));
#781=DIRECTION('center_axis',(0.,-1.,3.13893114861083E-16));
#782=DIRECTION('ref_axis',(0.,-3.13893114861083E-16,-1.));
#783=DIRECTION('',(0.,3.13893114861083E-16,1.));
#784=DIRECTION('',(-1.,0.,0.));
#785=DIRECTION('',(0.,-3.13893114861083E-16,-1.));
#786=DIRECTION('',(1.,0.,0.));
#787=DIRECTION('center_axis',(0.,-1.,3.13893114861083E-16));
#788=DIRECTION('ref_axis',(0.,-3.13893114861083E-16,-1.));
#789=DIRECTION('',(0.,-3.13893114861083E-16,-1.));
#790=DIRECTION('',(-1.,0.,0.));
#791=DIRECTION('',(0.,3.13893114861083E-16,1.));
#792=DIRECTION('',(1.,0.,0.));
#793=DIRECTION('center_axis',(0.,2.6286616489661E-16,1.));
#794=DIRECTION('ref_axis',(1.,0.,0.));
#795=DIRECTION('',(0.,1.,-2.6286616489661E-16));
#796=DIRECTION('',(0.,1.,-2.6286616489661E-16));
#797=DIRECTION('center_axis',(1.,0.,0.));
#798=DIRECTION('ref_axis',(0.,0.,-1.));
#799=DIRECTION('',(0.,1.,-2.6286616489661E-16));
#800=DIRECTION('center_axis',(0.,-2.6286616489661E-16,-1.));
#801=DIRECTION('ref_axis',(-1.,0.,0.));
#802=DIRECTION('',(0.,1.,-2.6286616489661E-16));
#803=DIRECTION('center_axis',(-1.,0.,0.));
#804=DIRECTION('ref_axis',(0.,0.,1.));
#805=DIRECTION('center_axis',(0.,-1.,2.91326091374973E-16));
#806=DIRECTION('ref_axis',(0.,-2.91326091374973E-16,-1.));
#807=DIRECTION('',(0.,2.91326091374973E-16,1.));
#808=DIRECTION('',(-1.,0.,0.));
#809=DIRECTION('',(0.,-2.91326091374973E-16,-1.));
#810=DIRECTION('',(1.,0.,0.));
#811=DIRECTION('center_axis',(0.,2.76166972586859E-16,1.));
#812=DIRECTION('ref_axis',(1.,0.,0.));
#813=DIRECTION('',(0.,-1.,2.76166972586859E-16));
#814=DIRECTION('',(-1.,0.,0.));
#815=DIRECTION('',(0.,1.,-2.76166972586859E-16));
#816=DIRECTION('',(-1.,0.,0.));
#817=DIRECTION('',(0.,-1.,2.76166972586859E-16));
#818=DIRECTION('',(0.,1.,-2.76166972586859E-16));
#819=DIRECTION('',(1.,0.,0.));
#820=DIRECTION('center_axis',(0.,-1.,2.91326091374973E-16));
#821=DIRECTION('ref_axis',(0.,-2.91326091374973E-16,-1.));
#822=DIRECTION('',(0.,-2.91326091374973E-16,-1.));
#823=DIRECTION('',(1.,0.,0.));
#824=DIRECTION('',(0.,2.91326091374973E-16,1.));
#825=DIRECTION('center_axis',(0.,-1.,8.24046744299426E-16));
#826=DIRECTION('ref_axis',(0.,-8.24046744299426E-16,-1.));
#827=DIRECTION('',(0.,8.24046744299426E-16,1.));
#828=DIRECTION('',(1.,0.,0.));
#829=DIRECTION('',(0.,-8.24046744299426E-16,-1.));
#830=DIRECTION('center_axis',(-1.,0.,0.));
#831=DIRECTION('ref_axis',(0.,0.,1.));
#832=DIRECTION('',(0.,-1.,2.24746031687856E-16));
#833=DIRECTION('',(0.,-8.24046744299426E-16,-1.));
#834=DIRECTION('',(0.,1.,-2.28440614762988E-16));
#835=DIRECTION('center_axis',(-1.,0.,0.));
#836=DIRECTION('ref_axis',(0.,0.,1.));
#837=DIRECTION('',(0.,1.6099776439587E-15,1.));
#838=DIRECTION('',(0.,1.,-2.24746031687856E-16));
#839=DIRECTION('',(0.,-1.6099776439587E-15,-1.));
#840=DIRECTION('',(0.,1.,-2.24746031687856E-16));
#841=DIRECTION('center_axis',(1.,0.,0.));
#842=DIRECTION('ref_axis',(0.,0.,-1.));
#843=DIRECTION('',(0.,1.,-2.28440614762988E-16));
#844=DIRECTION('',(0.,8.24046744299426E-16,1.));
#845=DIRECTION('',(0.,1.,-2.24746031687856E-16));
#846=DIRECTION('center_axis',(0.,-1.,8.24046744299426E-16));
#847=DIRECTION('ref_axis',(0.,-8.24046744299426E-16,-1.));
#848=DIRECTION('',(1.,0.,0.));
#849=DIRECTION('',(-1.,0.,0.));
#850=DIRECTION('center_axis',(0.,2.28440614762988E-16,1.));
#851=DIRECTION('ref_axis',(1.,0.,0.));
#852=DIRECTION('center_axis',(0.,-1.,1.6099776439587E-15));
#853=DIRECTION('ref_axis',(0.,-1.6099776439587E-15,-1.));
#854=DIRECTION('',(0.,-1.6099776439587E-15,-1.));
#855=DIRECTION('',(1.,0.,0.));
#856=DIRECTION('center_axis',(0.,-1.,1.6099776439587E-15));
#857=DIRECTION('ref_axis',(0.,-1.6099776439587E-15,-1.));
#858=DIRECTION('',(-1.,0.,0.));
#859=DIRECTION('',(0.,1.6099776439587E-15,1.));
#860=DIRECTION('',(1.,0.,0.));
#861=DIRECTION('center_axis',(0.,2.24746031687856E-16,1.));
#862=DIRECTION('ref_axis',(1.,0.,0.));
#863=DIRECTION('',(0.,1.,-2.24746031687856E-16));
#864=DIRECTION('center_axis',(1.,0.,0.));
#865=DIRECTION('ref_axis',(0.,0.,-1.));
#866=DIRECTION('',(0.,1.,-2.24746031687856E-16));
#867=DIRECTION('center_axis',(0.,-2.24746031687856E-16,-1.));
#868=DIRECTION('ref_axis',(-1.,0.,0.));
#869=CARTESIAN_POINT('',(0.,0.,0.));
#870=CARTESIAN_POINT('Origin',(93.75,-95.5859985351563,4.00099998712546));
#871=CARTESIAN_POINT('',(99.,-95.5859985351563,0.50000000000005));
#872=CARTESIAN_POINT('',(99.,-95.5859985351563,7.50199997425087));
#873=CARTESIAN_POINT('',(99.,-95.5859985351563,4.00099998712546));
#874=CARTESIAN_POINT('',(88.5,-95.5859985351563,7.50199997425087));
#875=CARTESIAN_POINT('',(93.75,-95.5859985351563,7.50199997425087));
#876=CARTESIAN_POINT('',(88.5,-95.5859985351563,0.50000000000005));
#877=CARTESIAN_POINT('',(88.5,-95.5859985351563,4.00099998712546));
#878=CARTESIAN_POINT('',(93.75,-95.5859985351563,0.50000000000005));
#879=CARTESIAN_POINT('Origin',(93.75,-85.0859985351563,4.00099998712546));
#880=CARTESIAN_POINT('',(99.,-85.0859985351563,7.50199997425086));
#881=CARTESIAN_POINT('',(99.,-85.0859985351563,0.500000000000047));
#882=CARTESIAN_POINT('',(99.,-85.0859985351563,4.00099998712546));
#883=CARTESIAN_POINT('',(88.5,-85.0859985351563,0.500000000000047));
#884=CARTESIAN_POINT('',(93.75,-85.0859985351563,0.500000000000047));
#885=CARTESIAN_POINT('',(88.5,-85.0859985351563,7.50199997425086));
#886=CARTESIAN_POINT('',(88.5,-85.0859985351563,4.00099998712546));
#887=CARTESIAN_POINT('',(93.75,-85.0859985351563,7.50199997425086));
#888=CARTESIAN_POINT('Origin',(93.75,-90.3359985351563,0.500000000000049));
#889=CARTESIAN_POINT('',(88.5,-90.3359985351563,0.500000000000049));
#890=CARTESIAN_POINT('',(99.,-90.3359985351563,0.500000000000049));
#891=CARTESIAN_POINT('Origin',(88.5,-90.3359985351563,4.00099998712546));
#892=CARTESIAN_POINT('',(88.5,-90.3359985351563,7.50199997425086));
#893=CARTESIAN_POINT('Origin',(93.75,-90.3359985351563,7.50199997425086));
#894=CARTESIAN_POINT('',(99.,-90.3359985351563,7.50199997425086));
#895=CARTESIAN_POINT('Origin',(99.,-90.3359985351563,4.00099998712546));
#896=CARTESIAN_POINT('Origin',(93.7164180197522,90.9456764630936,4.00000000000001));
#897=CARTESIAN_POINT('',(98.9664180197522,90.9456764630936,0.500000000000008));
#898=CARTESIAN_POINT('',(98.9664180197522,90.9456764630936,7.50000000000001));
#899=CARTESIAN_POINT('',(98.9664180197522,90.9456764630936,4.00000000000001));
#900=CARTESIAN_POINT('',(88.4664180197522,90.9456764630936,7.50000000000001));
#901=CARTESIAN_POINT('',(93.7164180197522,90.9456764630936,7.50000000000001));
#902=CARTESIAN_POINT('',(88.4664180197522,90.9456764630936,0.500000000000008));
#903=CARTESIAN_POINT('',(88.4664180197522,90.9456764630936,4.00000000000001));
#904=CARTESIAN_POINT('',(93.7164180197522,90.9456764630936,0.500000000000008));
#905=CARTESIAN_POINT('Origin',(93.7164180197522,101.445676463094,4.00000000000001));
#906=CARTESIAN_POINT('',(98.9664180197522,101.445676463094,7.50000000000001));
#907=CARTESIAN_POINT('',(98.9664180197522,101.445676463094,0.500000000000006));
#908=CARTESIAN_POINT('',(98.9664180197522,101.445676463094,4.00000000000001));
#909=CARTESIAN_POINT('',(88.4664180197522,101.445676463094,0.500000000000006));
#910=CARTESIAN_POINT('',(93.7164180197522,101.445676463094,0.500000000000006));
#911=CARTESIAN_POINT('',(88.4664180197522,101.445676463094,7.50000000000001));
#912=CARTESIAN_POINT('',(88.4664180197522,101.445676463094,4.00000000000001));
#913=CARTESIAN_POINT('',(93.7164180197522,101.445676463094,7.50000000000001));
#914=CARTESIAN_POINT('Origin',(93.7164180197522,96.1956764630936,0.500000000000007));
#915=CARTESIAN_POINT('',(88.4664180197522,96.1956764630936,0.500000000000007));
#916=CARTESIAN_POINT('',(98.9664180197522,96.1956764630936,0.500000000000007));
#917=CARTESIAN_POINT('Origin',(88.4664180197522,96.1956764630936,4.00000000000001));
#918=CARTESIAN_POINT('',(88.4664180197522,96.1956764630936,7.50000000000001));
#919=CARTESIAN_POINT('Origin',(93.7164180197522,96.1956764630936,7.50000000000001));
#920=CARTESIAN_POINT('',(98.9664180197522,96.1956764630936,7.50000000000001));
#921=CARTESIAN_POINT('Origin',(98.9664180197522,96.1956764630936,4.00000000000001));
#922=CARTESIAN_POINT('Origin',(-93.75,91.1640014648438,4.00000000000001));
#923=CARTESIAN_POINT('',(-88.5,91.1640014648438,0.500000000000008));
#924=CARTESIAN_POINT('',(-88.5,91.1640014648438,7.50000000000001));
#925=CARTESIAN_POINT('',(-88.5,91.1640014648438,4.00000000000001));
#926=CARTESIAN_POINT('',(-99.,91.1640014648438,7.50000000000001));
#927=CARTESIAN_POINT('',(-93.75,91.1640014648438,7.50000000000001));
#928=CARTESIAN_POINT('',(-99.,91.1640014648438,0.500000000000008));
#929=CARTESIAN_POINT('',(-99.,91.1640014648438,4.00000000000001));
#930=CARTESIAN_POINT('',(-93.75,91.1640014648438,0.500000000000008));
#931=CARTESIAN_POINT('Origin',(-93.75,101.664001464844,4.00000000000001));
#932=CARTESIAN_POINT('',(-88.5,101.664001464844,7.5));
#933=CARTESIAN_POINT('',(-88.5,101.664001464844,0.500000000000005));
#934=CARTESIAN_POINT('',(-88.5,101.664001464844,4.00000000000001));
#935=CARTESIAN_POINT('',(-99.,101.664001464844,0.500000000000005));
#936=CARTESIAN_POINT('',(-93.75,101.664001464844,0.500000000000005));
#937=CARTESIAN_POINT('',(-99.,101.664001464844,7.5));
#938=CARTESIAN_POINT('',(-99.,101.664001464844,4.00000000000001));
#939=CARTESIAN_POINT('',(-93.75,101.664001464844,7.5));
#940=CARTESIAN_POINT('Origin',(-93.75,96.4140014648438,0.500000000000006));
#941=CARTESIAN_POINT('',(-99.,96.4140014648438,0.500000000000006));
#942=CARTESIAN_POINT('',(-88.5,96.4140014648438,0.500000000000006));
#943=CARTESIAN_POINT('Origin',(-99.,96.4140014648438,4.00000000000001));
#944=CARTESIAN_POINT('',(-99.,96.4140014648438,7.50000000000001));
#945=CARTESIAN_POINT('Origin',(-93.75,96.4140014648438,7.50000000000001));
#946=CARTESIAN_POINT('',(-88.5,96.4140014648438,7.50000000000001));
#947=CARTESIAN_POINT('Origin',(-88.5,96.4140014648438,4.00000000000001));
#948=CARTESIAN_POINT('Origin',(-93.0759748567597,-95.4719749165419,4.00000000000005));
#949=CARTESIAN_POINT('',(-87.8259748567597,-95.4719749165419,0.50000000000005));
#950=CARTESIAN_POINT('',(-87.8259748567597,-95.4719749165419,7.50000000000005));
#951=CARTESIAN_POINT('',(-87.8259748567597,-95.4719749165419,4.00000000000005));
#952=CARTESIAN_POINT('',(-98.3259748567597,-95.4719749165419,7.50000000000005));
#953=CARTESIAN_POINT('',(-93.0759748567597,-95.4719749165419,7.50000000000005));
#954=CARTESIAN_POINT('',(-98.3259748567597,-95.4719749165419,0.50000000000005));
#955=CARTESIAN_POINT('',(-98.3259748567597,-95.4719749165419,4.00000000000005));
#956=CARTESIAN_POINT('',(-93.0759748567597,-95.4719749165419,0.50000000000005));
#957=CARTESIAN_POINT('Origin',(-93.0759748567597,-84.9719749165419,4.00000000000005));
#958=CARTESIAN_POINT('',(-87.8259748567597,-84.9719749165419,7.50000000000005));
#959=CARTESIAN_POINT('',(-87.8259748567597,-84.9719749165419,0.500000000000047));
#960=CARTESIAN_POINT('',(-87.8259748567597,-84.9719749165419,4.00000000000005));
#961=CARTESIAN_POINT('',(-98.3259748567597,-84.9719749165419,0.500000000000047));
#962=CARTESIAN_POINT('',(-93.0759748567597,-84.9719749165419,0.500000000000047));
#963=CARTESIAN_POINT('',(-98.3259748567597,-84.9719749165419,7.50000000000005));
#964=CARTESIAN_POINT('',(-98.3259748567597,-84.9719749165419,4.00000000000005));
#965=CARTESIAN_POINT('',(-93.0759748567597,-84.9719749165419,7.50000000000005));
#966=CARTESIAN_POINT('Origin',(-93.0759748567597,-90.2219749165419,0.500000000000049));
#967=CARTESIAN_POINT('',(-98.3259748567597,-90.2219749165419,0.500000000000049));
#968=CARTESIAN_POINT('',(-87.8259748567597,-90.2219749165419,0.500000000000049));
#969=CARTESIAN_POINT('Origin',(-98.3259748567597,-90.2219749165419,4.00000000000005));
#970=CARTESIAN_POINT('',(-98.3259748567597,-90.2219749165419,7.50000000000005));
#971=CARTESIAN_POINT('Origin',(-93.0759748567597,-90.2219749165419,7.50000000000005));
#972=CARTESIAN_POINT('',(-87.8259748567597,-90.2219749165419,7.50000000000005));
#973=CARTESIAN_POINT('Origin',(-87.8259748567597,-90.2219749165419,4.00000000000005));
#974=CARTESIAN_POINT('Origin',(-4.04624277456647,-95.5800182010524,19.9721680448321));
#975=CARTESIAN_POINT('',(98.6377277198207,-95.5800182010524,7.9915000000001));
#976=CARTESIAN_POINT('',(98.6377277198207,-95.5800182010524,9.00000000000009));
#977=CARTESIAN_POINT('',(98.6377277198207,-95.5800182010524,15.4860840224161));
#978=CARTESIAN_POINT('',(100.001965317919,-95.5800182010524,7.9915000000001));
#979=CARTESIAN_POINT('',(-4.04624277456647,-95.5800182010524,7.9915000000001));
#980=CARTESIAN_POINT('',(100.001965317919,-95.5800182010524,9.00000000000009));
#981=CARTESIAN_POINT('',(100.001965317919,-95.5800182010524,12.2360840224161));
#982=CARTESIAN_POINT('',(-2.02213872832372,-95.5800182010524,9.00000000000009));
#983=CARTESIAN_POINT('Origin',(-4.04624277456647,-109.139165985997,7.9915000000001));
#984=CARTESIAN_POINT('',(-98.3792722801794,-95.5800182010524,7.9915000000001));
#985=CARTESIAN_POINT('',(-98.3792722801794,-95.5944985351562,7.9915000000001));
#986=CARTESIAN_POINT('',(-98.3792722801794,-53.153997817993,7.99150000000009));
#987=CARTESIAN_POINT('',(-99.998034682081,-95.5800182010524,7.9915000000001));
#988=CARTESIAN_POINT('',(-4.04624277456647,-95.5800182010524,7.9915000000001));
#989=CARTESIAN_POINT('',(-99.998034682081,-99.5859985351563,7.9915000000001));
#990=CARTESIAN_POINT('',(-99.998034682081,-53.3625822605765,7.99150000000009));
#991=CARTESIAN_POINT('',(100.001965317919,-99.5859985351563,7.9915000000001));
#992=CARTESIAN_POINT('',(-2.02213872832372,-99.5859985351563,7.9915000000001));
#993=CARTESIAN_POINT('',(100.001965317919,-53.3625822605765,7.99150000000009));
#994=CARTESIAN_POINT('',(98.6377277198207,-95.5944985351562,7.9915000000001));
#995=CARTESIAN_POINT('',(98.6377277198207,-53.153997817993,7.99150000000009));
#996=CARTESIAN_POINT('',(-1.95850752737291,-95.5944985351562,7.9915000000001));
#997=CARTESIAN_POINT('Origin',(-4.04624277456647,-95.5800182010524,19.9721680448321));
#998=CARTESIAN_POINT('',(-98.3792722801794,-95.5800182010524,9.00000000000009));
#999=CARTESIAN_POINT('',(-98.3792722801794,-95.5800182010524,15.4860840224161));
#1000=CARTESIAN_POINT('',(-99.998034682081,-95.5800182010524,9.00000000000009));
#1001=CARTESIAN_POINT('',(-2.02213872832372,-95.5800182010524,9.00000000000009));
#1002=CARTESIAN_POINT('',(-99.998034682081,-95.5800182010524,12.2360840224161));
#1003=CARTESIAN_POINT('Origin',(0.129227719820649,-95.5944985351562,11.0000000000001));
#1004=CARTESIAN_POINT('',(98.6377277198207,-95.5944985351563,0.991500000000098));
#1005=CARTESIAN_POINT('',(98.6377277198207,-95.5944985351562,11.0000000000001));
#1006=CARTESIAN_POINT('',(-98.3792722801794,-95.5944985351563,0.991500000000098));
#1007=CARTESIAN_POINT('',(0.129227719820649,-95.5944985351563,0.991500000000098));
#1008=CARTESIAN_POINT('',(-98.3792722801794,-95.5944985351562,11.0000000000001));
#1009=CARTESIAN_POINT('Origin',(98.6377277198207,2.83117035001075,11.0000000000001));
#1010=CARTESIAN_POINT('',(98.6377277198207,101.256839235178,9.00000000000004));
#1011=CARTESIAN_POINT('',(98.6377277198207,2.62258590742725,9.00000000000006));
#1012=CARTESIAN_POINT('',(98.6377277198207,101.256839235178,0.991500000000053));
#1013=CARTESIAN_POINT('',(98.6377277198207,101.256839235178,11.0000000000001));
#1014=CARTESIAN_POINT('',(98.6377277198207,2.83117035001074,0.991500000000075));
#1015=CARTESIAN_POINT('Origin',(100.001965317919,2.41400146484374,4.50000000000006));
#1016=CARTESIAN_POINT('',(100.001965317919,-99.5859985351563,8.24320493520697E-14));
#1017=CARTESIAN_POINT('',(100.001965317919,-99.5859985351563,4.50000000000009));
#1018=CARTESIAN_POINT('',(100.001965317919,104.414001464844,3.6583858887747E-14));
#1019=CARTESIAN_POINT('',(100.001965317919,2.41400146484373,5.95079541199084E-14));
#1020=CARTESIAN_POINT('',(100.001965317919,104.414001464844,9.00000000000004));
#1021=CARTESIAN_POINT('',(100.001965317919,104.414001464844,4.50000000000004));
#1022=CARTESIAN_POINT('',(100.001965317919,2.41400146484375,9.00000000000006));
#1023=CARTESIAN_POINT('Origin',(-98.3792722801794,2.83117035001075,11.0000000000001));
#1024=CARTESIAN_POINT('',(-98.3792722801794,101.256839235178,0.991500000000053));
#1025=CARTESIAN_POINT('',(-98.3792722801794,2.83117035001074,0.991500000000075));
#1026=CARTESIAN_POINT('',(-98.3792722801794,101.256839235178,9.00000000000004));
#1027=CARTESIAN_POINT('',(-98.3792722801794,101.256839235178,11.0000000000001));
#1028=CARTESIAN_POINT('',(-98.3792722801794,2.62258590742725,9.00000000000006));
#1029=CARTESIAN_POINT('Origin',(0.129227719820649,101.256839235178,11.0000000000001));
#1030=CARTESIAN_POINT('',(0.0655965188698347,101.256839235178,9.00000000000004));
#1031=CARTESIAN_POINT('',(0.129227719820649,101.256839235178,0.991500000000053));
#1032=CARTESIAN_POINT('Origin',(0.129227719820649,2.83117035001074,0.991500000000075));
#1033=CARTESIAN_POINT('Origin',(0.0019653179190202,-99.5859985351563,4.50000000000009));
#1034=CARTESIAN_POINT('',(-99.998034682081,-99.5859985351563,8.24320493520697E-14));
#1035=CARTESIAN_POINT('',(-99.998034682081,-99.5859985351563,4.50000000000009));
#1036=CARTESIAN_POINT('',(0.0019653179190202,-99.5859985351563,8.24320493520697E-14));
#1037=CARTESIAN_POINT('Origin',(0.0019653179190202,104.414001464844,4.50000000000004));
#1038=CARTESIAN_POINT('',(-99.998034682081,104.414001464844,3.6583858887747E-14));
#1039=CARTESIAN_POINT('',(0.0019653179190202,104.414001464844,3.6583858887747E-14));
#1040=CARTESIAN_POINT('',(-99.998034682081,104.414001464844,9.00000000000004));
#1041=CARTESIAN_POINT('',(-99.998034682081,104.414001464844,4.50000000000004));
#1042=CARTESIAN_POINT('',(0.0019653179190202,104.414001464844,9.00000000000004));
#1043=CARTESIAN_POINT('Origin',(0.0019653179190202,2.41400146484373,5.95079541199084E-14));
#1044=CARTESIAN_POINT('',(-99.998034682081,2.41400146484373,5.95079541199084E-14));
#1045=CARTESIAN_POINT('Origin',(-99.998034682081,2.41400146484374,4.50000000000006));
#1046=CARTESIAN_POINT('',(-99.998034682081,2.41400146484375,9.00000000000006));
#1047=CARTESIAN_POINT('Origin',(0.0019653179190202,2.41400146484375,9.00000000000006));
#1048=UNCERTAINTY_MEASURE_WITH_UNIT(LENGTH_MEASURE(0.01),#1052,
'DISTANCE_ACCURACY_VALUE',
'Maximum model space distance between geometric entities at asserted c
onnectivities');
#1049=UNCERTAINTY_MEASURE_WITH_UNIT(LENGTH_MEASURE(0.01),#1052,
'DISTANCE_ACCURACY_VALUE',
'Maximum model space distance between geometric entities at asserted c
onnectivities');
#1050=(
GEOMETRIC_REPRESENTATION_CONTEXT(3)
GLOBAL_UNCERTAINTY_ASSIGNED_CONTEXT((#1048))
GLOBAL_UNIT_ASSIGNED_CONTEXT((#1052,#1054,#1055))
REPRESENTATION_CONTEXT('','3D')
);
#1051=(
GEOMETRIC_REPRESENTATION_CONTEXT(3)
GLOBAL_UNCERTAINTY_ASSIGNED_CONTEXT((#1049))
GLOBAL_UNIT_ASSIGNED_CONTEXT((#1052,#1054,#1055))
REPRESENTATION_CONTEXT('','3D')
);
#1052=(
LENGTH_UNIT()
NAMED_UNIT(*)
SI_UNIT(.MILLI.,.METRE.)
);
#1053=(
LENGTH_UNIT()
NAMED_UNIT(*)
SI_UNIT($,.METRE.)
);
#1054=(
NAMED_UNIT(*)
PLANE_ANGLE_UNIT()
SI_UNIT($,.RADIAN.)
);
#1055=(
NAMED_UNIT(*)
SI_UNIT($,.STERADIAN.)
SOLID_ANGLE_UNIT()
);
#1056=SHAPE_DEFINITION_REPRESENTATION(#1057,#1058);
#1057=PRODUCT_DEFINITION_SHAPE('',$,#1060);
#1058=SHAPE_REPRESENTATION('',(#668),#1050);
#1059=PRODUCT_DEFINITION_CONTEXT('part definition',#1064,'design');
#1060=PRODUCT_DEFINITION('FusionComponent','FusionComponent',#1061,#1059);
#1061=PRODUCT_DEFINITION_FORMATION('',$,#1066);
#1062=PRODUCT_RELATED_PRODUCT_CATEGORY('FusionComponent',
'FusionComponent',(#1066));
#1063=APPLICATION_PROTOCOL_DEFINITION('international standard',
'automotive_design',2009,#1064);
#1064=APPLICATION_CONTEXT(
'Core Data for Automotive Mechanical Design Process');
#1065=PRODUCT_CONTEXT('part definition',#1064,'mechanical');
#1066=PRODUCT('FusionComponent','FusionComponent',$,(#1065));
#1067=PRESENTATION_STYLE_ASSIGNMENT((#1070));
#1068=PRESENTATION_STYLE_ASSIGNMENT((#1071));
#1069=PRESENTATION_STYLE_ASSIGNMENT((#1072));
#1070=SURFACE_STYLE_USAGE(.BOTH.,#1073);
#1071=SURFACE_STYLE_USAGE(.BOTH.,#1074);
#1072=SURFACE_STYLE_USAGE(.BOTH.,#1075);
#1073=SURFACE_SIDE_STYLE('',(#1076));
#1074=SURFACE_SIDE_STYLE('',(#1077));
#1075=SURFACE_SIDE_STYLE('',(#1078));
#1076=SURFACE_STYLE_FILL_AREA(#1079);
#1077=SURFACE_STYLE_FILL_AREA(#1080);
#1078=SURFACE_STYLE_FILL_AREA(#1081);
#1079=FILL_AREA_STYLE('Steel - Satin',(#1082));
#1080=FILL_AREA_STYLE('Opaque(233,29,45)',(#1083));
#1081=FILL_AREA_STYLE('Opaque(97,103,106)',(#1084));
#1082=FILL_AREA_STYLE_COLOUR('Steel - Satin',#1085);
#1083=FILL_AREA_STYLE_COLOUR('Opaque(233,29,45)',#1086);
#1084=FILL_AREA_STYLE_COLOUR('Opaque(97,103,106)',#1087);
#1085=COLOUR_RGB('Steel - Satin',0.627450980392157,0.627450980392157,0.627450980392157);
#1086=COLOUR_RGB('Opaque(233,29,45)',0.913725490196078,0.113725490196078,
0.176470588235294);
#1087=COLOUR_RGB('Opaque(97,103,106)',0.380392156862745,0.403921568627451,
0.415686274509804);
ENDSEC;
END-ISO-10303-21;
