ISO-10303-21;
HEADER;
/* Generated by software containing ST-Developer
 * from STEP Tools, Inc. (www.steptools.com) 
 */

FILE_DESCRIPTION(
/* description */ (''),
/* implementation_level */ '2;1');

FILE_NAME(
/* name */ 'Shootex gun body.step',
/* time_stamp */ '2026-05-27T17:54:54+05:30',
/* author */ (''),
/* organization */ (''),
/* preprocessor_version */ 'ST-DEVELOPER v20.1',
/* originating_system */ 'Autodesk Translation Framework v15.8.0.0',
/* authorisation */ '');

FILE_SCHEMA (('AUTOMOTIVE_DESIGN { 1 0 10303 214 3 1 1 }'));
ENDSEC;

DATA;
#10=MECHANICAL_DESIGN_GEOMETRIC_PRESENTATION_REPRESENTATION('',(#17),#1299);
#11=ITEM_DEFINED_TRANSFORMATION($,$,#795,#860);
#12=(
REPRESENTATION_RELATIONSHIP($,$,#1310,#1309)
REPRESENTATION_RELATIONSHIP_WITH_TRANSFORMATION(#11)
SHAPE_REPRESENTATION_RELATIONSHIP()
);
#13=CONTEXT_DEPENDENT_SHAPE_REPRESENTATION(#12,#1308);
#14=NEXT_ASSEMBLY_USAGE_OCCURRENCE('Component1:1','Component1:1',
'Component1:1',#1312,#1313,'Component1:1');
#15=SHAPE_REPRESENTATION_RELATIONSHIP('SRR','None',#1310,#16);
#16=ADVANCED_BREP_SHAPE_REPRESENTATION('',(#18),#1298);
#17=STYLED_ITEM('',(#1324),#18);
#18=MANIFOLD_SOLID_BREP('Body1',#781);
#19=FACE_BOUND('',#128,.T.);
#20=FACE_BOUND('',#129,.T.);
#21=FACE_BOUND('',#130,.T.);
#22=FACE_BOUND('',#131,.T.);
#23=FACE_BOUND('',#133,.T.);
#24=FACE_BOUND('',#142,.T.);
#25=FACE_BOUND('',#144,.T.);
#26=FACE_BOUND('',#145,.T.);
#27=FACE_BOUND('',#146,.T.);
#28=FACE_BOUND('',#147,.T.);
#29=FACE_BOUND('',#148,.T.);
#30=FACE_BOUND('',#155,.T.);
#31=FACE_BOUND('',#162,.T.);
#32=FACE_BOUND('',#165,.T.);
#33=PLANE('',#799);
#34=PLANE('',#803);
#35=PLANE('',#807);
#36=PLANE('',#811);
#37=PLANE('',#815);
#38=PLANE('',#819);
#39=PLANE('',#823);
#40=PLANE('',#827);
#41=PLANE('',#828);
#42=PLANE('',#829);
#43=PLANE('',#830);
#44=PLANE('',#831);
#45=PLANE('',#832);
#46=PLANE('',#833);
#47=PLANE('',#834);
#48=PLANE('',#835);
#49=PLANE('',#836);
#50=PLANE('',#837);
#51=PLANE('',#839);
#52=PLANE('',#840);
#53=PLANE('',#841);
#54=PLANE('',#842);
#55=PLANE('',#843);
#56=PLANE('',#844);
#57=PLANE('',#845);
#58=PLANE('',#847);
#59=PLANE('',#852);
#60=PLANE('',#853);
#61=PLANE('',#854);
#62=PLANE('',#855);
#63=PLANE('',#856);
#64=PLANE('',#857);
#65=PLANE('',#858);
#66=PLANE('',#859);
#67=FACE_OUTER_BOUND('',#111,.T.);
#68=FACE_OUTER_BOUND('',#112,.T.);
#69=FACE_OUTER_BOUND('',#113,.T.);
#70=FACE_OUTER_BOUND('',#114,.T.);
#71=FACE_OUTER_BOUND('',#115,.T.);
#72=FACE_OUTER_BOUND('',#116,.T.);
#73=FACE_OUTER_BOUND('',#117,.T.);
#74=FACE_OUTER_BOUND('',#118,.T.);
#75=FACE_OUTER_BOUND('',#119,.T.);
#76=FACE_OUTER_BOUND('',#120,.T.);
#77=FACE_OUTER_BOUND('',#121,.T.);
#78=FACE_OUTER_BOUND('',#122,.T.);
#79=FACE_OUTER_BOUND('',#123,.T.);
#80=FACE_OUTER_BOUND('',#124,.T.);
#81=FACE_OUTER_BOUND('',#125,.T.);
#82=FACE_OUTER_BOUND('',#126,.T.);
#83=FACE_OUTER_BOUND('',#127,.T.);
#84=FACE_OUTER_BOUND('',#132,.T.);
#85=FACE_OUTER_BOUND('',#134,.T.);
#86=FACE_OUTER_BOUND('',#135,.T.);
#87=FACE_OUTER_BOUND('',#136,.T.);
#88=FACE_OUTER_BOUND('',#137,.T.);
#89=FACE_OUTER_BOUND('',#138,.T.);
#90=FACE_OUTER_BOUND('',#139,.T.);
#91=FACE_OUTER_BOUND('',#140,.T.);
#92=FACE_OUTER_BOUND('',#141,.T.);
#93=FACE_OUTER_BOUND('',#143,.T.);
#94=FACE_OUTER_BOUND('',#149,.T.);
#95=FACE_OUTER_BOUND('',#150,.T.);
#96=FACE_OUTER_BOUND('',#151,.T.);
#97=FACE_OUTER_BOUND('',#152,.T.);
#98=FACE_OUTER_BOUND('',#153,.T.);
#99=FACE_OUTER_BOUND('',#154,.T.);
#100=FACE_OUTER_BOUND('',#156,.T.);
#101=FACE_OUTER_BOUND('',#157,.T.);
#102=FACE_OUTER_BOUND('',#158,.T.);
#103=FACE_OUTER_BOUND('',#159,.T.);
#104=FACE_OUTER_BOUND('',#160,.T.);
#105=FACE_OUTER_BOUND('',#161,.T.);
#106=FACE_OUTER_BOUND('',#163,.T.);
#107=FACE_OUTER_BOUND('',#164,.T.);
#108=FACE_OUTER_BOUND('',#166,.T.);
#109=FACE_OUTER_BOUND('',#167,.T.);
#110=FACE_OUTER_BOUND('',#168,.T.);
#111=EDGE_LOOP('',(#523,#524,#525,#526));
#112=EDGE_LOOP('',(#527));
#113=EDGE_LOOP('',(#528,#529,#530,#531));
#114=EDGE_LOOP('',(#532));
#115=EDGE_LOOP('',(#533,#534,#535,#536));
#116=EDGE_LOOP('',(#537));
#117=EDGE_LOOP('',(#538,#539,#540,#541));
#118=EDGE_LOOP('',(#542));
#119=EDGE_LOOP('',(#543,#544,#545,#546));
#120=EDGE_LOOP('',(#547));
#121=EDGE_LOOP('',(#548,#549,#550,#551));
#122=EDGE_LOOP('',(#552));
#123=EDGE_LOOP('',(#553,#554,#555,#556));
#124=EDGE_LOOP('',(#557));
#125=EDGE_LOOP('',(#558,#559,#560,#561));
#126=EDGE_LOOP('',(#562));
#127=EDGE_LOOP('',(#563,#564,#565,#566,#567,#568,#569,#570));
#128=EDGE_LOOP('',(#571));
#129=EDGE_LOOP('',(#572));
#130=EDGE_LOOP('',(#573));
#131=EDGE_LOOP('',(#574));
#132=EDGE_LOOP('',(#575,#576,#577,#578,#579,#580,#581,#582));
#133=EDGE_LOOP('',(#583,#584,#585,#586));
#134=EDGE_LOOP('',(#587,#588,#589,#590));
#135=EDGE_LOOP('',(#591,#592,#593,#594));
#136=EDGE_LOOP('',(#595,#596,#597,#598,#599,#600,#601,#602));
#137=EDGE_LOOP('',(#603,#604,#605,#606));
#138=EDGE_LOOP('',(#607,#608,#609,#610));
#139=EDGE_LOOP('',(#611,#612,#613,#614));
#140=EDGE_LOOP('',(#615,#616,#617,#618,#619,#620,#621,#622));
#141=EDGE_LOOP('',(#623,#624,#625,#626));
#142=EDGE_LOOP('',(#627));
#143=EDGE_LOOP('',(#628,#629,#630,#631,#632,#633,#634,#635,#636,#637,#638,
#639,#640,#641,#642,#643,#644,#645,#646,#647));
#144=EDGE_LOOP('',(#648));
#145=EDGE_LOOP('',(#649));
#146=EDGE_LOOP('',(#650));
#147=EDGE_LOOP('',(#651));
#148=EDGE_LOOP('',(#652,#653,#654,#655));
#149=EDGE_LOOP('',(#656,#657,#658,#659));
#150=EDGE_LOOP('',(#660,#661,#662,#663));
#151=EDGE_LOOP('',(#664,#665,#666,#667));
#152=EDGE_LOOP('',(#668,#669,#670,#671));
#153=EDGE_LOOP('',(#672,#673,#674,#675));
#154=EDGE_LOOP('',(#676,#677,#678,#679));
#155=EDGE_LOOP('',(#680));
#156=EDGE_LOOP('',(#681,#682,#683,#684));
#157=EDGE_LOOP('',(#685,#686,#687,#688));
#158=EDGE_LOOP('',(#689,#690,#691,#692));
#159=EDGE_LOOP('',(#693,#694,#695,#696));
#160=EDGE_LOOP('',(#697,#698,#699,#700));
#161=EDGE_LOOP('',(#701,#702,#703,#704));
#162=EDGE_LOOP('',(#705));
#163=EDGE_LOOP('',(#706,#707,#708,#709));
#164=EDGE_LOOP('',(#710,#711,#712,#713));
#165=EDGE_LOOP('',(#714));
#166=EDGE_LOOP('',(#715,#716,#717,#718));
#167=EDGE_LOOP('',(#719,#720,#721,#722));
#168=EDGE_LOOP('',(#723,#724,#725,#726));
#169=LINE('',#1083,#251);
#170=LINE('',#1090,#252);
#171=LINE('',#1097,#253);
#172=LINE('',#1104,#254);
#173=LINE('',#1111,#255);
#174=LINE('',#1118,#256);
#175=LINE('',#1125,#257);
#176=LINE('',#1132,#258);
#177=LINE('',#1138,#259);
#178=LINE('',#1140,#260);
#179=LINE('',#1142,#261);
#180=LINE('',#1144,#262);
#181=LINE('',#1146,#263);
#182=LINE('',#1148,#264);
#183=LINE('',#1150,#265);
#184=LINE('',#1151,#266);
#185=LINE('',#1154,#267);
#186=LINE('',#1156,#268);
#187=LINE('',#1158,#269);
#188=LINE('',#1160,#270);
#189=LINE('',#1162,#271);
#190=LINE('',#1164,#272);
#191=LINE('',#1165,#273);
#192=LINE('',#1168,#274);
#193=LINE('',#1170,#275);
#194=LINE('',#1172,#276);
#195=LINE('',#1173,#277);
#196=LINE('',#1176,#278);
#197=LINE('',#1177,#279);
#198=LINE('',#1180,#280);
#199=LINE('',#1182,#281);
#200=LINE('',#1183,#282);
#201=LINE('',#1186,#283);
#202=LINE('',#1188,#284);
#203=LINE('',#1190,#285);
#204=LINE('',#1192,#286);
#205=LINE('',#1194,#287);
#206=LINE('',#1196,#288);
#207=LINE('',#1197,#289);
#208=LINE('',#1199,#290);
#209=LINE('',#1201,#291);
#210=LINE('',#1204,#292);
#211=LINE('',#1206,#293);
#212=LINE('',#1207,#294);
#213=LINE('',#1210,#295);
#214=LINE('',#1212,#296);
#215=LINE('',#1214,#297);
#216=LINE('',#1216,#298);
#217=LINE('',#1218,#299);
#218=LINE('',#1219,#300);
#219=LINE('',#1222,#301);
#220=LINE('',#1223,#302);
#221=LINE('',#1228,#303);
#222=LINE('',#1230,#304);
#223=LINE('',#1232,#305);
#224=LINE('',#1234,#306);
#225=LINE('',#1236,#307);
#226=LINE('',#1237,#308);
#227=LINE('',#1239,#309);
#228=LINE('',#1241,#310);
#229=LINE('',#1243,#311);
#230=LINE('',#1245,#312);
#231=LINE('',#1246,#313);
#232=LINE('',#1249,#314);
#233=LINE('',#1251,#315);
#234=LINE('',#1253,#316);
#235=LINE('',#1254,#317);
#236=LINE('',#1256,#318);
#237=LINE('',#1257,#319);
#238=LINE('',#1259,#320);
#239=LINE('',#1261,#321);
#240=LINE('',#1263,#322);
#241=LINE('',#1265,#323);
#242=LINE('',#1267,#324);
#243=LINE('',#1271,#325);
#244=LINE('',#1274,#326);
#245=LINE('',#1278,#327);
#246=LINE('',#1281,#328);
#247=LINE('',#1282,#329);
#248=LINE('',#1285,#330);
#249=LINE('',#1288,#331);
#250=LINE('',#1291,#332);
#251=VECTOR('',#869,0.05085);
#252=VECTOR('',#878,0.05085);
#253=VECTOR('',#887,0.05085);
#254=VECTOR('',#896,0.05085);
#255=VECTOR('',#905,0.10085);
#256=VECTOR('',#914,0.10085);
#257=VECTOR('',#923,0.10085);
#258=VECTOR('',#932,0.10085);
#259=VECTOR('',#939,1.);
#260=VECTOR('',#940,1.);
#261=VECTOR('',#941,1.);
#262=VECTOR('',#942,1.);
#263=VECTOR('',#943,1.);
#264=VECTOR('',#944,1.);
#265=VECTOR('',#945,1.);
#266=VECTOR('',#946,1.);
#267=VECTOR('',#949,0.37);
#268=VECTOR('',#950,0.1);
#269=VECTOR('',#951,0.1);
#270=VECTOR('',#952,0.555000000000001);
#271=VECTOR('',#953,0.115);
#272=VECTOR('',#954,0.115);
#273=VECTOR('',#955,0.37);
#274=VECTOR('',#956,1.);
#275=VECTOR('',#957,1.);
#276=VECTOR('',#958,1.);
#277=VECTOR('',#959,1.);
#278=VECTOR('',#962,1.);
#279=VECTOR('',#963,0.1);
#280=VECTOR('',#966,0.160085);
#281=VECTOR('',#967,0.100085);
#282=VECTOR('',#968,1.);
#283=VECTOR('',#971,1.);
#284=VECTOR('',#972,0.065085);
#285=VECTOR('',#973,0.100085);
#286=VECTOR('',#974,1.);
#287=VECTOR('',#975,1.);
#288=VECTOR('',#976,1.);
#289=VECTOR('',#977,1.);
#290=VECTOR('',#980,0.160085);
#291=VECTOR('',#983,1.);
#292=VECTOR('',#986,0.115085);
#293=VECTOR('',#987,0.080085);
#294=VECTOR('',#988,1.);
#295=VECTOR('',#991,0.115085);
#296=VECTOR('',#992,0.450085);
#297=VECTOR('',#993,0.080085);
#298=VECTOR('',#994,0.450085);
#299=VECTOR('',#995,0.080085);
#300=VECTOR('',#996,0.055085);
#301=VECTOR('',#999,1.);
#302=VECTOR('',#1000,1.);
#303=VECTOR('',#1005,1.);
#304=VECTOR('',#1006,1.);
#305=VECTOR('',#1007,1.);
#306=VECTOR('',#1008,1.);
#307=VECTOR('',#1009,1.);
#308=VECTOR('',#1010,1.);
#309=VECTOR('',#1011,1.);
#310=VECTOR('',#1012,1.);
#311=VECTOR('',#1013,1.);
#312=VECTOR('',#1014,1.);
#313=VECTOR('',#1015,1.);
#314=VECTOR('',#1016,1.);
#315=VECTOR('',#1017,1.);
#316=VECTOR('',#1018,1.);
#317=VECTOR('',#1019,1.);
#318=VECTOR('',#1022,0.310085);
#319=VECTOR('',#1023,0.310085);
#320=VECTOR('',#1026,0.310085);
#321=VECTOR('',#1029,0.1);
#322=VECTOR('',#1032,0.1);
#323=VECTOR('',#1035,0.080085);
#324=VECTOR('',#1038,0.080085);
#325=VECTOR('',#1043,0.080085);
#326=VECTOR('',#1046,0.35085);
#327=VECTOR('',#1051,0.25085);
#328=VECTOR('',#1056,0.1);
#329=VECTOR('',#1057,0.1);
#330=VECTOR('',#1062,0.310085);
#331=VECTOR('',#1067,0.1);
#332=VECTOR('',#1072,1.);
#333=CIRCLE('',#797,0.05085);
#334=CIRCLE('',#798,0.05085);
#335=CIRCLE('',#801,0.05085);
#336=CIRCLE('',#802,0.05085);
#337=CIRCLE('',#805,0.05085);
#338=CIRCLE('',#806,0.05085);
#339=CIRCLE('',#809,0.05085);
#340=CIRCLE('',#810,0.05085);
#341=CIRCLE('',#813,0.10085);
#342=CIRCLE('',#814,0.10085);
#343=CIRCLE('',#817,0.10085);
#344=CIRCLE('',#818,0.10085);
#345=CIRCLE('',#821,0.10085);
#346=CIRCLE('',#822,0.10085);
#347=CIRCLE('',#825,0.10085);
#348=CIRCLE('',#826,0.10085);
#349=CIRCLE('',#838,0.25085);
#350=CIRCLE('',#846,0.35085);
#351=CIRCLE('',#849,0.35085);
#352=CIRCLE('',#851,0.25085);
#353=VERTEX_POINT('',#1080);
#354=VERTEX_POINT('',#1082);
#355=VERTEX_POINT('',#1087);
#356=VERTEX_POINT('',#1089);
#357=VERTEX_POINT('',#1094);
#358=VERTEX_POINT('',#1096);
#359=VERTEX_POINT('',#1101);
#360=VERTEX_POINT('',#1103);
#361=VERTEX_POINT('',#1108);
#362=VERTEX_POINT('',#1110);
#363=VERTEX_POINT('',#1115);
#364=VERTEX_POINT('',#1117);
#365=VERTEX_POINT('',#1122);
#366=VERTEX_POINT('',#1124);
#367=VERTEX_POINT('',#1129);
#368=VERTEX_POINT('',#1131);
#369=VERTEX_POINT('',#1136);
#370=VERTEX_POINT('',#1137);
#371=VERTEX_POINT('',#1139);
#372=VERTEX_POINT('',#1141);
#373=VERTEX_POINT('',#1143);
#374=VERTEX_POINT('',#1145);
#375=VERTEX_POINT('',#1147);
#376=VERTEX_POINT('',#1149);
#377=VERTEX_POINT('',#1153);
#378=VERTEX_POINT('',#1155);
#379=VERTEX_POINT('',#1157);
#380=VERTEX_POINT('',#1159);
#381=VERTEX_POINT('',#1161);
#382=VERTEX_POINT('',#1163);
#383=VERTEX_POINT('',#1166);
#384=VERTEX_POINT('',#1167);
#385=VERTEX_POINT('',#1169);
#386=VERTEX_POINT('',#1171);
#387=VERTEX_POINT('',#1175);
#388=VERTEX_POINT('',#1179);
#389=VERTEX_POINT('',#1181);
#390=VERTEX_POINT('',#1185);
#391=VERTEX_POINT('',#1187);
#392=VERTEX_POINT('',#1189);
#393=VERTEX_POINT('',#1191);
#394=VERTEX_POINT('',#1193);
#395=VERTEX_POINT('',#1195);
#396=VERTEX_POINT('',#1203);
#397=VERTEX_POINT('',#1205);
#398=VERTEX_POINT('',#1209);
#399=VERTEX_POINT('',#1211);
#400=VERTEX_POINT('',#1213);
#401=VERTEX_POINT('',#1215);
#402=VERTEX_POINT('',#1217);
#403=VERTEX_POINT('',#1221);
#404=VERTEX_POINT('',#1224);
#405=VERTEX_POINT('',#1227);
#406=VERTEX_POINT('',#1229);
#407=VERTEX_POINT('',#1231);
#408=VERTEX_POINT('',#1233);
#409=VERTEX_POINT('',#1235);
#410=VERTEX_POINT('',#1238);
#411=VERTEX_POINT('',#1240);
#412=VERTEX_POINT('',#1242);
#413=VERTEX_POINT('',#1244);
#414=VERTEX_POINT('',#1247);
#415=VERTEX_POINT('',#1248);
#416=VERTEX_POINT('',#1250);
#417=VERTEX_POINT('',#1252);
#418=VERTEX_POINT('',#1268);
#419=VERTEX_POINT('',#1273);
#420=VERTEX_POINT('',#1277);
#421=EDGE_CURVE('',#353,#353,#333,.T.);
#422=EDGE_CURVE('',#353,#354,#169,.T.);
#423=EDGE_CURVE('',#354,#354,#334,.T.);
#424=EDGE_CURVE('',#355,#355,#335,.T.);
#425=EDGE_CURVE('',#355,#356,#170,.T.);
#426=EDGE_CURVE('',#356,#356,#336,.T.);
#427=EDGE_CURVE('',#357,#357,#337,.T.);
#428=EDGE_CURVE('',#357,#358,#171,.T.);
#429=EDGE_CURVE('',#358,#358,#338,.T.);
#430=EDGE_CURVE('',#359,#359,#339,.T.);
#431=EDGE_CURVE('',#359,#360,#172,.T.);
#432=EDGE_CURVE('',#360,#360,#340,.T.);
#433=EDGE_CURVE('',#361,#361,#341,.T.);
#434=EDGE_CURVE('',#361,#362,#173,.T.);
#435=EDGE_CURVE('',#362,#362,#342,.T.);
#436=EDGE_CURVE('',#363,#363,#343,.T.);
#437=EDGE_CURVE('',#363,#364,#174,.T.);
#438=EDGE_CURVE('',#364,#364,#344,.T.);
#439=EDGE_CURVE('',#365,#365,#345,.T.);
#440=EDGE_CURVE('',#365,#366,#175,.T.);
#441=EDGE_CURVE('',#366,#366,#346,.T.);
#442=EDGE_CURVE('',#367,#367,#347,.T.);
#443=EDGE_CURVE('',#367,#368,#176,.T.);
#444=EDGE_CURVE('',#368,#368,#348,.T.);
#445=EDGE_CURVE('',#369,#370,#177,.T.);
#446=EDGE_CURVE('',#371,#369,#178,.T.);
#447=EDGE_CURVE('',#372,#371,#179,.T.);
#448=EDGE_CURVE('',#373,#372,#180,.T.);
#449=EDGE_CURVE('',#374,#373,#181,.T.);
#450=EDGE_CURVE('',#375,#374,#182,.T.);
#451=EDGE_CURVE('',#376,#375,#183,.T.);
#452=EDGE_CURVE('',#370,#376,#184,.T.);
#453=EDGE_CURVE('',#373,#377,#185,.T.);
#454=EDGE_CURVE('',#378,#377,#186,.T.);
#455=EDGE_CURVE('',#379,#378,#187,.T.);
#456=EDGE_CURVE('',#380,#379,#188,.T.);
#457=EDGE_CURVE('',#381,#380,#189,.T.);
#458=EDGE_CURVE('',#382,#381,#190,.T.);
#459=EDGE_CURVE('',#374,#382,#191,.T.);
#460=EDGE_CURVE('',#383,#384,#192,.T.);
#461=EDGE_CURVE('',#384,#385,#193,.T.);
#462=EDGE_CURVE('',#385,#386,#194,.T.);
#463=EDGE_CURVE('',#386,#383,#195,.T.);
#464=EDGE_CURVE('',#372,#387,#196,.T.);
#465=EDGE_CURVE('',#377,#387,#197,.T.);
#466=EDGE_CURVE('',#369,#388,#198,.T.);
#467=EDGE_CURVE('',#388,#389,#199,.T.);
#468=EDGE_CURVE('',#371,#389,#200,.T.);
#469=EDGE_CURVE('',#389,#390,#201,.T.);
#470=EDGE_CURVE('',#391,#388,#202,.T.);
#471=EDGE_CURVE('',#392,#391,#203,.T.);
#472=EDGE_CURVE('',#393,#392,#204,.T.);
#473=EDGE_CURVE('',#394,#393,#205,.T.);
#474=EDGE_CURVE('',#395,#394,#206,.T.);
#475=EDGE_CURVE('',#390,#395,#207,.T.);
#476=EDGE_CURVE('',#370,#391,#208,.T.);
#477=EDGE_CURVE('',#392,#376,#209,.T.);
#478=EDGE_CURVE('',#395,#396,#210,.T.);
#479=EDGE_CURVE('',#396,#397,#211,.T.);
#480=EDGE_CURVE('',#397,#390,#212,.T.);
#481=EDGE_CURVE('',#394,#398,#213,.T.);
#482=EDGE_CURVE('',#398,#399,#214,.T.);
#483=EDGE_CURVE('',#399,#400,#215,.T.);
#484=EDGE_CURVE('',#401,#400,#216,.T.);
#485=EDGE_CURVE('',#401,#402,#217,.T.);
#486=EDGE_CURVE('',#402,#396,#218,.T.);
#487=EDGE_CURVE('',#393,#403,#219,.T.);
#488=EDGE_CURVE('',#403,#398,#220,.T.);
#489=EDGE_CURVE('',#404,#404,#349,.T.);
#490=EDGE_CURVE('',#405,#375,#221,.T.);
#491=EDGE_CURVE('',#406,#405,#222,.T.);
#492=EDGE_CURVE('',#407,#406,#223,.T.);
#493=EDGE_CURVE('',#408,#407,#224,.T.);
#494=EDGE_CURVE('',#409,#408,#225,.T.);
#495=EDGE_CURVE('',#387,#409,#226,.T.);
#496=EDGE_CURVE('',#410,#397,#227,.T.);
#497=EDGE_CURVE('',#411,#410,#228,.T.);
#498=EDGE_CURVE('',#412,#411,#229,.T.);
#499=EDGE_CURVE('',#413,#412,#230,.T.);
#500=EDGE_CURVE('',#403,#413,#231,.T.);
#501=EDGE_CURVE('',#414,#415,#232,.T.);
#502=EDGE_CURVE('',#416,#414,#233,.T.);
#503=EDGE_CURVE('',#417,#416,#234,.T.);
#504=EDGE_CURVE('',#415,#417,#235,.T.);
#505=EDGE_CURVE('',#416,#383,#236,.T.);
#506=EDGE_CURVE('',#386,#417,#237,.T.);
#507=EDGE_CURVE('',#384,#414,#238,.T.);
#508=EDGE_CURVE('',#405,#382,#239,.T.);
#509=EDGE_CURVE('',#378,#409,#240,.T.);
#510=EDGE_CURVE('',#413,#399,#241,.T.);
#511=EDGE_CURVE('',#400,#412,#242,.T.);
#512=EDGE_CURVE('',#418,#418,#350,.T.);
#513=EDGE_CURVE('',#411,#401,#243,.T.);
#514=EDGE_CURVE('',#418,#419,#244,.T.);
#515=EDGE_CURVE('',#419,#419,#351,.T.);
#516=EDGE_CURVE('',#404,#420,#245,.T.);
#517=EDGE_CURVE('',#420,#420,#352,.T.);
#518=EDGE_CURVE('',#381,#406,#246,.T.);
#519=EDGE_CURVE('',#407,#380,#247,.T.);
#520=EDGE_CURVE('',#415,#385,#248,.T.);
#521=EDGE_CURVE('',#408,#379,#249,.T.);
#522=EDGE_CURVE('',#402,#410,#250,.T.);
#523=ORIENTED_EDGE('',*,*,#421,.F.);
#524=ORIENTED_EDGE('',*,*,#422,.T.);
#525=ORIENTED_EDGE('',*,*,#423,.T.);
#526=ORIENTED_EDGE('',*,*,#422,.F.);
#527=ORIENTED_EDGE('',*,*,#423,.F.);
#528=ORIENTED_EDGE('',*,*,#424,.F.);
#529=ORIENTED_EDGE('',*,*,#425,.T.);
#530=ORIENTED_EDGE('',*,*,#426,.T.);
#531=ORIENTED_EDGE('',*,*,#425,.F.);
#532=ORIENTED_EDGE('',*,*,#426,.F.);
#533=ORIENTED_EDGE('',*,*,#427,.F.);
#534=ORIENTED_EDGE('',*,*,#428,.T.);
#535=ORIENTED_EDGE('',*,*,#429,.T.);
#536=ORIENTED_EDGE('',*,*,#428,.F.);
#537=ORIENTED_EDGE('',*,*,#429,.F.);
#538=ORIENTED_EDGE('',*,*,#430,.F.);
#539=ORIENTED_EDGE('',*,*,#431,.T.);
#540=ORIENTED_EDGE('',*,*,#432,.T.);
#541=ORIENTED_EDGE('',*,*,#431,.F.);
#542=ORIENTED_EDGE('',*,*,#432,.F.);
#543=ORIENTED_EDGE('',*,*,#433,.F.);
#544=ORIENTED_EDGE('',*,*,#434,.T.);
#545=ORIENTED_EDGE('',*,*,#435,.F.);
#546=ORIENTED_EDGE('',*,*,#434,.F.);
#547=ORIENTED_EDGE('',*,*,#433,.T.);
#548=ORIENTED_EDGE('',*,*,#436,.F.);
#549=ORIENTED_EDGE('',*,*,#437,.T.);
#550=ORIENTED_EDGE('',*,*,#438,.F.);
#551=ORIENTED_EDGE('',*,*,#437,.F.);
#552=ORIENTED_EDGE('',*,*,#436,.T.);
#553=ORIENTED_EDGE('',*,*,#439,.F.);
#554=ORIENTED_EDGE('',*,*,#440,.T.);
#555=ORIENTED_EDGE('',*,*,#441,.F.);
#556=ORIENTED_EDGE('',*,*,#440,.F.);
#557=ORIENTED_EDGE('',*,*,#439,.T.);
#558=ORIENTED_EDGE('',*,*,#442,.F.);
#559=ORIENTED_EDGE('',*,*,#443,.T.);
#560=ORIENTED_EDGE('',*,*,#444,.F.);
#561=ORIENTED_EDGE('',*,*,#443,.F.);
#562=ORIENTED_EDGE('',*,*,#442,.T.);
#563=ORIENTED_EDGE('',*,*,#445,.F.);
#564=ORIENTED_EDGE('',*,*,#446,.F.);
#565=ORIENTED_EDGE('',*,*,#447,.F.);
#566=ORIENTED_EDGE('',*,*,#448,.F.);
#567=ORIENTED_EDGE('',*,*,#449,.F.);
#568=ORIENTED_EDGE('',*,*,#450,.F.);
#569=ORIENTED_EDGE('',*,*,#451,.F.);
#570=ORIENTED_EDGE('',*,*,#452,.F.);
#571=ORIENTED_EDGE('',*,*,#421,.T.);
#572=ORIENTED_EDGE('',*,*,#424,.T.);
#573=ORIENTED_EDGE('',*,*,#427,.T.);
#574=ORIENTED_EDGE('',*,*,#430,.T.);
#575=ORIENTED_EDGE('',*,*,#449,.T.);
#576=ORIENTED_EDGE('',*,*,#453,.T.);
#577=ORIENTED_EDGE('',*,*,#454,.F.);
#578=ORIENTED_EDGE('',*,*,#455,.F.);
#579=ORIENTED_EDGE('',*,*,#456,.F.);
#580=ORIENTED_EDGE('',*,*,#457,.F.);
#581=ORIENTED_EDGE('',*,*,#458,.F.);
#582=ORIENTED_EDGE('',*,*,#459,.F.);
#583=ORIENTED_EDGE('',*,*,#460,.T.);
#584=ORIENTED_EDGE('',*,*,#461,.T.);
#585=ORIENTED_EDGE('',*,*,#462,.T.);
#586=ORIENTED_EDGE('',*,*,#463,.T.);
#587=ORIENTED_EDGE('',*,*,#448,.T.);
#588=ORIENTED_EDGE('',*,*,#464,.T.);
#589=ORIENTED_EDGE('',*,*,#465,.F.);
#590=ORIENTED_EDGE('',*,*,#453,.F.);
#591=ORIENTED_EDGE('',*,*,#446,.T.);
#592=ORIENTED_EDGE('',*,*,#466,.T.);
#593=ORIENTED_EDGE('',*,*,#467,.T.);
#594=ORIENTED_EDGE('',*,*,#468,.F.);
#595=ORIENTED_EDGE('',*,*,#469,.F.);
#596=ORIENTED_EDGE('',*,*,#467,.F.);
#597=ORIENTED_EDGE('',*,*,#470,.F.);
#598=ORIENTED_EDGE('',*,*,#471,.F.);
#599=ORIENTED_EDGE('',*,*,#472,.F.);
#600=ORIENTED_EDGE('',*,*,#473,.F.);
#601=ORIENTED_EDGE('',*,*,#474,.F.);
#602=ORIENTED_EDGE('',*,*,#475,.F.);
#603=ORIENTED_EDGE('',*,*,#445,.T.);
#604=ORIENTED_EDGE('',*,*,#476,.T.);
#605=ORIENTED_EDGE('',*,*,#470,.T.);
#606=ORIENTED_EDGE('',*,*,#466,.F.);
#607=ORIENTED_EDGE('',*,*,#452,.T.);
#608=ORIENTED_EDGE('',*,*,#477,.F.);
#609=ORIENTED_EDGE('',*,*,#471,.T.);
#610=ORIENTED_EDGE('',*,*,#476,.F.);
#611=ORIENTED_EDGE('',*,*,#475,.T.);
#612=ORIENTED_EDGE('',*,*,#478,.T.);
#613=ORIENTED_EDGE('',*,*,#479,.T.);
#614=ORIENTED_EDGE('',*,*,#480,.T.);
#615=ORIENTED_EDGE('',*,*,#474,.T.);
#616=ORIENTED_EDGE('',*,*,#481,.T.);
#617=ORIENTED_EDGE('',*,*,#482,.T.);
#618=ORIENTED_EDGE('',*,*,#483,.T.);
#619=ORIENTED_EDGE('',*,*,#484,.F.);
#620=ORIENTED_EDGE('',*,*,#485,.T.);
#621=ORIENTED_EDGE('',*,*,#486,.T.);
#622=ORIENTED_EDGE('',*,*,#478,.F.);
#623=ORIENTED_EDGE('',*,*,#473,.T.);
#624=ORIENTED_EDGE('',*,*,#487,.T.);
#625=ORIENTED_EDGE('',*,*,#488,.T.);
#626=ORIENTED_EDGE('',*,*,#481,.F.);
#627=ORIENTED_EDGE('',*,*,#489,.T.);
#628=ORIENTED_EDGE('',*,*,#451,.T.);
#629=ORIENTED_EDGE('',*,*,#490,.F.);
#630=ORIENTED_EDGE('',*,*,#491,.F.);
#631=ORIENTED_EDGE('',*,*,#492,.F.);
#632=ORIENTED_EDGE('',*,*,#493,.F.);
#633=ORIENTED_EDGE('',*,*,#494,.F.);
#634=ORIENTED_EDGE('',*,*,#495,.F.);
#635=ORIENTED_EDGE('',*,*,#464,.F.);
#636=ORIENTED_EDGE('',*,*,#447,.T.);
#637=ORIENTED_EDGE('',*,*,#468,.T.);
#638=ORIENTED_EDGE('',*,*,#469,.T.);
#639=ORIENTED_EDGE('',*,*,#480,.F.);
#640=ORIENTED_EDGE('',*,*,#496,.F.);
#641=ORIENTED_EDGE('',*,*,#497,.F.);
#642=ORIENTED_EDGE('',*,*,#498,.F.);
#643=ORIENTED_EDGE('',*,*,#499,.F.);
#644=ORIENTED_EDGE('',*,*,#500,.F.);
#645=ORIENTED_EDGE('',*,*,#487,.F.);
#646=ORIENTED_EDGE('',*,*,#472,.T.);
#647=ORIENTED_EDGE('',*,*,#477,.T.);
#648=ORIENTED_EDGE('',*,*,#435,.T.);
#649=ORIENTED_EDGE('',*,*,#438,.T.);
#650=ORIENTED_EDGE('',*,*,#441,.T.);
#651=ORIENTED_EDGE('',*,*,#444,.T.);
#652=ORIENTED_EDGE('',*,*,#501,.F.);
#653=ORIENTED_EDGE('',*,*,#502,.F.);
#654=ORIENTED_EDGE('',*,*,#503,.F.);
#655=ORIENTED_EDGE('',*,*,#504,.F.);
#656=ORIENTED_EDGE('',*,*,#503,.T.);
#657=ORIENTED_EDGE('',*,*,#505,.T.);
#658=ORIENTED_EDGE('',*,*,#463,.F.);
#659=ORIENTED_EDGE('',*,*,#506,.T.);
#660=ORIENTED_EDGE('',*,*,#502,.T.);
#661=ORIENTED_EDGE('',*,*,#507,.F.);
#662=ORIENTED_EDGE('',*,*,#460,.F.);
#663=ORIENTED_EDGE('',*,*,#505,.F.);
#664=ORIENTED_EDGE('',*,*,#450,.T.);
#665=ORIENTED_EDGE('',*,*,#459,.T.);
#666=ORIENTED_EDGE('',*,*,#508,.F.);
#667=ORIENTED_EDGE('',*,*,#490,.T.);
#668=ORIENTED_EDGE('',*,*,#495,.T.);
#669=ORIENTED_EDGE('',*,*,#509,.F.);
#670=ORIENTED_EDGE('',*,*,#454,.T.);
#671=ORIENTED_EDGE('',*,*,#465,.T.);
#672=ORIENTED_EDGE('',*,*,#500,.T.);
#673=ORIENTED_EDGE('',*,*,#510,.T.);
#674=ORIENTED_EDGE('',*,*,#482,.F.);
#675=ORIENTED_EDGE('',*,*,#488,.F.);
#676=ORIENTED_EDGE('',*,*,#499,.T.);
#677=ORIENTED_EDGE('',*,*,#511,.F.);
#678=ORIENTED_EDGE('',*,*,#483,.F.);
#679=ORIENTED_EDGE('',*,*,#510,.F.);
#680=ORIENTED_EDGE('',*,*,#512,.T.);
#681=ORIENTED_EDGE('',*,*,#498,.T.);
#682=ORIENTED_EDGE('',*,*,#513,.T.);
#683=ORIENTED_EDGE('',*,*,#484,.T.);
#684=ORIENTED_EDGE('',*,*,#511,.T.);
#685=ORIENTED_EDGE('',*,*,#512,.F.);
#686=ORIENTED_EDGE('',*,*,#514,.T.);
#687=ORIENTED_EDGE('',*,*,#515,.F.);
#688=ORIENTED_EDGE('',*,*,#514,.F.);
#689=ORIENTED_EDGE('',*,*,#489,.F.);
#690=ORIENTED_EDGE('',*,*,#516,.T.);
#691=ORIENTED_EDGE('',*,*,#517,.F.);
#692=ORIENTED_EDGE('',*,*,#516,.F.);
#693=ORIENTED_EDGE('',*,*,#492,.T.);
#694=ORIENTED_EDGE('',*,*,#518,.F.);
#695=ORIENTED_EDGE('',*,*,#457,.T.);
#696=ORIENTED_EDGE('',*,*,#519,.F.);
#697=ORIENTED_EDGE('',*,*,#491,.T.);
#698=ORIENTED_EDGE('',*,*,#508,.T.);
#699=ORIENTED_EDGE('',*,*,#458,.T.);
#700=ORIENTED_EDGE('',*,*,#518,.T.);
#701=ORIENTED_EDGE('',*,*,#501,.T.);
#702=ORIENTED_EDGE('',*,*,#520,.T.);
#703=ORIENTED_EDGE('',*,*,#461,.F.);
#704=ORIENTED_EDGE('',*,*,#507,.T.);
#705=ORIENTED_EDGE('',*,*,#517,.T.);
#706=ORIENTED_EDGE('',*,*,#504,.T.);
#707=ORIENTED_EDGE('',*,*,#506,.F.);
#708=ORIENTED_EDGE('',*,*,#462,.F.);
#709=ORIENTED_EDGE('',*,*,#520,.F.);
#710=ORIENTED_EDGE('',*,*,#494,.T.);
#711=ORIENTED_EDGE('',*,*,#521,.T.);
#712=ORIENTED_EDGE('',*,*,#455,.T.);
#713=ORIENTED_EDGE('',*,*,#509,.T.);
#714=ORIENTED_EDGE('',*,*,#515,.T.);
#715=ORIENTED_EDGE('',*,*,#493,.T.);
#716=ORIENTED_EDGE('',*,*,#519,.T.);
#717=ORIENTED_EDGE('',*,*,#456,.T.);
#718=ORIENTED_EDGE('',*,*,#521,.F.);
#719=ORIENTED_EDGE('',*,*,#497,.T.);
#720=ORIENTED_EDGE('',*,*,#522,.F.);
#721=ORIENTED_EDGE('',*,*,#485,.F.);
#722=ORIENTED_EDGE('',*,*,#513,.F.);
#723=ORIENTED_EDGE('',*,*,#496,.T.);
#724=ORIENTED_EDGE('',*,*,#479,.F.);
#725=ORIENTED_EDGE('',*,*,#486,.F.);
#726=ORIENTED_EDGE('',*,*,#522,.T.);
#727=CYLINDRICAL_SURFACE('',#796,0.05085);
#728=CYLINDRICAL_SURFACE('',#800,0.05085);
#729=CYLINDRICAL_SURFACE('',#804,0.05085);
#730=CYLINDRICAL_SURFACE('',#808,0.05085);
#731=CYLINDRICAL_SURFACE('',#812,0.10085);
#732=CYLINDRICAL_SURFACE('',#816,0.10085);
#733=CYLINDRICAL_SURFACE('',#820,0.10085);
#734=CYLINDRICAL_SURFACE('',#824,0.10085);
#735=CYLINDRICAL_SURFACE('',#848,0.35085);
#736=CYLINDRICAL_SURFACE('',#850,0.25085);
#737=ADVANCED_FACE('',(#67),#727,.F.);
#738=ADVANCED_FACE('',(#68),#33,.F.);
#739=ADVANCED_FACE('',(#69),#728,.F.);
#740=ADVANCED_FACE('',(#70),#34,.F.);
#741=ADVANCED_FACE('',(#71),#729,.F.);
#742=ADVANCED_FACE('',(#72),#35,.F.);
#743=ADVANCED_FACE('',(#73),#730,.F.);
#744=ADVANCED_FACE('',(#74),#36,.F.);
#745=ADVANCED_FACE('',(#75),#731,.F.);
#746=ADVANCED_FACE('',(#76),#37,.T.);
#747=ADVANCED_FACE('',(#77),#732,.F.);
#748=ADVANCED_FACE('',(#78),#38,.T.);
#749=ADVANCED_FACE('',(#79),#733,.F.);
#750=ADVANCED_FACE('',(#80),#39,.T.);
#751=ADVANCED_FACE('',(#81),#734,.F.);
#752=ADVANCED_FACE('',(#82),#40,.T.);
#753=ADVANCED_FACE('',(#83,#19,#20,#21,#22),#41,.T.);
#754=ADVANCED_FACE('',(#84,#23),#42,.F.);
#755=ADVANCED_FACE('',(#85),#43,.F.);
#756=ADVANCED_FACE('',(#86),#44,.T.);
#757=ADVANCED_FACE('',(#87),#45,.T.);
#758=ADVANCED_FACE('',(#88),#46,.T.);
#759=ADVANCED_FACE('',(#89),#47,.T.);
#760=ADVANCED_FACE('',(#90),#48,.T.);
#761=ADVANCED_FACE('',(#91),#49,.T.);
#762=ADVANCED_FACE('',(#92,#24),#50,.T.);
#763=ADVANCED_FACE('',(#93,#25,#26,#27,#28,#29),#51,.T.);
#764=ADVANCED_FACE('',(#94),#52,.T.);
#765=ADVANCED_FACE('',(#95),#53,.T.);
#766=ADVANCED_FACE('',(#96),#54,.F.);
#767=ADVANCED_FACE('',(#97),#55,.F.);
#768=ADVANCED_FACE('',(#98),#56,.T.);
#769=ADVANCED_FACE('',(#99,#30),#57,.T.);
#770=ADVANCED_FACE('',(#100),#58,.T.);
#771=ADVANCED_FACE('',(#101),#735,.F.);
#772=ADVANCED_FACE('',(#102),#736,.F.);
#773=ADVANCED_FACE('',(#103),#59,.F.);
#774=ADVANCED_FACE('',(#104),#60,.T.);
#775=ADVANCED_FACE('',(#105,#31),#61,.T.);
#776=ADVANCED_FACE('',(#106),#62,.F.);
#777=ADVANCED_FACE('',(#107,#32),#63,.F.);
#778=ADVANCED_FACE('',(#108),#64,.F.);
#779=ADVANCED_FACE('',(#109),#65,.F.);
#780=ADVANCED_FACE('',(#110),#66,.T.);
#781=CLOSED_SHELL('',(#737,#738,#739,#740,#741,#742,#743,#744,#745,#746,
#747,#748,#749,#750,#751,#752,#753,#754,#755,#756,#757,#758,#759,#760,#761,
#762,#763,#764,#765,#766,#767,#768,#769,#770,#771,#772,#773,#774,#775,#776,
#777,#778,#779,#780));
#782=DERIVED_UNIT_ELEMENT(#784,1.);
#783=DERIVED_UNIT_ELEMENT(#1301,-3.);
#784=(
MASS_UNIT()
NAMED_UNIT(*)
SI_UNIT(.KILO.,.GRAM.)
);
#785=DERIVED_UNIT((#782,#783));
#786=MEASURE_REPRESENTATION_ITEM('density measure',
POSITIVE_RATIO_MEASURE(7850.),#785);
#787=PROPERTY_DEFINITION_REPRESENTATION(#792,#789);
#788=PROPERTY_DEFINITION_REPRESENTATION(#793,#790);
#789=REPRESENTATION('material name',(#791),#1298);
#790=REPRESENTATION('density',(#786),#1298);
#791=DESCRIPTIVE_REPRESENTATION_ITEM('Steel','Steel');
#792=PROPERTY_DEFINITION('material property','material name',#1313);
#793=PROPERTY_DEFINITION('material property','density of part',#1313);
#794=AXIS2_PLACEMENT_3D('',#1077,#861,#862);
#795=AXIS2_PLACEMENT_3D('',#1078,#863,#864);
#796=AXIS2_PLACEMENT_3D('',#1079,#865,#866);
#797=AXIS2_PLACEMENT_3D('',#1081,#867,#868);
#798=AXIS2_PLACEMENT_3D('',#1084,#870,#871);
#799=AXIS2_PLACEMENT_3D('',#1085,#872,#873);
#800=AXIS2_PLACEMENT_3D('',#1086,#874,#875);
#801=AXIS2_PLACEMENT_3D('',#1088,#876,#877);
#802=AXIS2_PLACEMENT_3D('',#1091,#879,#880);
#803=AXIS2_PLACEMENT_3D('',#1092,#881,#882);
#804=AXIS2_PLACEMENT_3D('',#1093,#883,#884);
#805=AXIS2_PLACEMENT_3D('',#1095,#885,#886);
#806=AXIS2_PLACEMENT_3D('',#1098,#888,#889);
#807=AXIS2_PLACEMENT_3D('',#1099,#890,#891);
#808=AXIS2_PLACEMENT_3D('',#1100,#892,#893);
#809=AXIS2_PLACEMENT_3D('',#1102,#894,#895);
#810=AXIS2_PLACEMENT_3D('',#1105,#897,#898);
#811=AXIS2_PLACEMENT_3D('',#1106,#899,#900);
#812=AXIS2_PLACEMENT_3D('',#1107,#901,#902);
#813=AXIS2_PLACEMENT_3D('',#1109,#903,#904);
#814=AXIS2_PLACEMENT_3D('',#1112,#906,#907);
#815=AXIS2_PLACEMENT_3D('',#1113,#908,#909);
#816=AXIS2_PLACEMENT_3D('',#1114,#910,#911);
#817=AXIS2_PLACEMENT_3D('',#1116,#912,#913);
#818=AXIS2_PLACEMENT_3D('',#1119,#915,#916);
#819=AXIS2_PLACEMENT_3D('',#1120,#917,#918);
#820=AXIS2_PLACEMENT_3D('',#1121,#919,#920);
#821=AXIS2_PLACEMENT_3D('',#1123,#921,#922);
#822=AXIS2_PLACEMENT_3D('',#1126,#924,#925);
#823=AXIS2_PLACEMENT_3D('',#1127,#926,#927);
#824=AXIS2_PLACEMENT_3D('',#1128,#928,#929);
#825=AXIS2_PLACEMENT_3D('',#1130,#930,#931);
#826=AXIS2_PLACEMENT_3D('',#1133,#933,#934);
#827=AXIS2_PLACEMENT_3D('',#1134,#935,#936);
#828=AXIS2_PLACEMENT_3D('',#1135,#937,#938);
#829=AXIS2_PLACEMENT_3D('',#1152,#947,#948);
#830=AXIS2_PLACEMENT_3D('',#1174,#960,#961);
#831=AXIS2_PLACEMENT_3D('',#1178,#964,#965);
#832=AXIS2_PLACEMENT_3D('',#1184,#969,#970);
#833=AXIS2_PLACEMENT_3D('',#1198,#978,#979);
#834=AXIS2_PLACEMENT_3D('',#1200,#981,#982);
#835=AXIS2_PLACEMENT_3D('',#1202,#984,#985);
#836=AXIS2_PLACEMENT_3D('',#1208,#989,#990);
#837=AXIS2_PLACEMENT_3D('',#1220,#997,#998);
#838=AXIS2_PLACEMENT_3D('',#1225,#1001,#1002);
#839=AXIS2_PLACEMENT_3D('',#1226,#1003,#1004);
#840=AXIS2_PLACEMENT_3D('',#1255,#1020,#1021);
#841=AXIS2_PLACEMENT_3D('',#1258,#1024,#1025);
#842=AXIS2_PLACEMENT_3D('',#1260,#1027,#1028);
#843=AXIS2_PLACEMENT_3D('',#1262,#1030,#1031);
#844=AXIS2_PLACEMENT_3D('',#1264,#1033,#1034);
#845=AXIS2_PLACEMENT_3D('',#1266,#1036,#1037);
#846=AXIS2_PLACEMENT_3D('',#1269,#1039,#1040);
#847=AXIS2_PLACEMENT_3D('',#1270,#1041,#1042);
#848=AXIS2_PLACEMENT_3D('',#1272,#1044,#1045);
#849=AXIS2_PLACEMENT_3D('',#1275,#1047,#1048);
#850=AXIS2_PLACEMENT_3D('',#1276,#1049,#1050);
#851=AXIS2_PLACEMENT_3D('',#1279,#1052,#1053);
#852=AXIS2_PLACEMENT_3D('',#1280,#1054,#1055);
#853=AXIS2_PLACEMENT_3D('',#1283,#1058,#1059);
#854=AXIS2_PLACEMENT_3D('',#1284,#1060,#1061);
#855=AXIS2_PLACEMENT_3D('',#1286,#1063,#1064);
#856=AXIS2_PLACEMENT_3D('',#1287,#1065,#1066);
#857=AXIS2_PLACEMENT_3D('',#1289,#1068,#1069);
#858=AXIS2_PLACEMENT_3D('',#1290,#1070,#1071);
#859=AXIS2_PLACEMENT_3D('',#1292,#1073,#1074);
#860=AXIS2_PLACEMENT_3D('',#1293,#1075,#1076);
#861=DIRECTION('axis',(0.,0.,1.));
#862=DIRECTION('refdir',(1.,0.,0.));
#863=DIRECTION('axis',(0.,0.,1.));
#864=DIRECTION('refdir',(1.,0.,0.));
#865=DIRECTION('center_axis',(0.,1.,-1.59389681020877E-16));
#866=DIRECTION('ref_axis',(1.,0.,0.));
#867=DIRECTION('center_axis',(0.,1.,-2.89377835129227E-16));
#868=DIRECTION('ref_axis',(1.,0.,0.));
#869=DIRECTION('',(0.,1.,-1.59389681020877E-16));
#870=DIRECTION('center_axis',(0.,1.,6.16946292726718E-15));
#871=DIRECTION('ref_axis',(1.,0.,0.));
#872=DIRECTION('center_axis',(0.,1.,6.16946292726718E-15));
#873=DIRECTION('ref_axis',(0.,-6.16946292726718E-15,1.));
#874=DIRECTION('center_axis',(0.,1.,-1.59389681020877E-16));
#875=DIRECTION('ref_axis',(1.,0.,0.));
#876=DIRECTION('center_axis',(0.,1.,-2.89377835129227E-16));
#877=DIRECTION('ref_axis',(1.,0.,0.));
#878=DIRECTION('',(0.,1.,-1.59389681020877E-16));
#879=DIRECTION('center_axis',(0.,1.,6.16946292726718E-15));
#880=DIRECTION('ref_axis',(1.,0.,0.));
#881=DIRECTION('center_axis',(0.,1.,6.16946292726718E-15));
#882=DIRECTION('ref_axis',(0.,-6.16946292726718E-15,1.));
#883=DIRECTION('center_axis',(0.,1.,-1.59389681020877E-16));
#884=DIRECTION('ref_axis',(1.,0.,0.));
#885=DIRECTION('center_axis',(0.,1.,-2.89377835129227E-16));
#886=DIRECTION('ref_axis',(1.,0.,0.));
#887=DIRECTION('',(0.,1.,-1.59389681020877E-16));
#888=DIRECTION('center_axis',(0.,1.,6.16946292726718E-15));
#889=DIRECTION('ref_axis',(1.,0.,0.));
#890=DIRECTION('center_axis',(0.,1.,6.16946292726718E-15));
#891=DIRECTION('ref_axis',(0.,-6.16946292726718E-15,1.));
#892=DIRECTION('center_axis',(0.,1.,-1.59389681020877E-16));
#893=DIRECTION('ref_axis',(1.,0.,0.));
#894=DIRECTION('center_axis',(0.,1.,-2.89377835129227E-16));
#895=DIRECTION('ref_axis',(1.,0.,0.));
#896=DIRECTION('',(0.,1.,-1.59389681020877E-16));
#897=DIRECTION('center_axis',(0.,1.,6.16946292726718E-15));
#898=DIRECTION('ref_axis',(1.,0.,0.));
#899=DIRECTION('center_axis',(0.,1.,6.16946292726718E-15));
#900=DIRECTION('ref_axis',(0.,-6.16946292726718E-15,1.));
#901=DIRECTION('center_axis',(0.,2.1573133978649E-16,1.));
#902=DIRECTION('ref_axis',(1.,0.,0.));
#903=DIRECTION('center_axis',(0.,-2.97022630612134E-15,1.));
#904=DIRECTION('ref_axis',(1.,0.,0.));
#905=DIRECTION('',(0.,2.1573133978649E-16,1.));
#906=DIRECTION('center_axis',(0.,-4.23325751153998E-15,-1.));
#907=DIRECTION('ref_axis',(1.,0.,0.));
#908=DIRECTION('center_axis',(0.,-2.97022630612134E-15,1.));
#909=DIRECTION('ref_axis',(1.,0.,0.));
#910=DIRECTION('center_axis',(0.,2.1573133978649E-16,1.));
#911=DIRECTION('ref_axis',(1.,0.,0.));
#912=DIRECTION('center_axis',(0.,-2.97022630612134E-15,1.));
#913=DIRECTION('ref_axis',(1.,0.,0.));
#914=DIRECTION('',(0.,2.1573133978649E-16,1.));
#915=DIRECTION('center_axis',(0.,-4.23325751153998E-15,-1.));
#916=DIRECTION('ref_axis',(1.,0.,0.));
#917=DIRECTION('center_axis',(0.,-2.97022630612134E-15,1.));
#918=DIRECTION('ref_axis',(1.,0.,0.));
#919=DIRECTION('center_axis',(0.,2.1573133978649E-16,1.));
#920=DIRECTION('ref_axis',(1.,0.,0.));
#921=DIRECTION('center_axis',(0.,-2.97022630612134E-15,1.));
#922=DIRECTION('ref_axis',(1.,0.,0.));
#923=DIRECTION('',(0.,2.1573133978649E-16,1.));
#924=DIRECTION('center_axis',(0.,-4.23325751153998E-15,-1.));
#925=DIRECTION('ref_axis',(1.,0.,0.));
#926=DIRECTION('center_axis',(0.,-2.97022630612134E-15,1.));
#927=DIRECTION('ref_axis',(1.,0.,0.));
#928=DIRECTION('center_axis',(0.,2.1573133978649E-16,1.));
#929=DIRECTION('ref_axis',(1.,0.,0.));
#930=DIRECTION('center_axis',(0.,-2.97022630612134E-15,1.));
#931=DIRECTION('ref_axis',(1.,0.,0.));
#932=DIRECTION('',(0.,2.1573133978649E-16,1.));
#933=DIRECTION('center_axis',(0.,-4.23325751153998E-15,-1.));
#934=DIRECTION('ref_axis',(1.,0.,0.));
#935=DIRECTION('center_axis',(0.,-2.97022630612134E-15,1.));
#936=DIRECTION('ref_axis',(1.,0.,0.));
#937=DIRECTION('center_axis',(0.,-1.,2.89377835129227E-16));
#938=DIRECTION('ref_axis',(0.,-2.89377835129227E-16,-1.));
#939=DIRECTION('',(1.,0.,0.));
#940=DIRECTION('',(0.,-2.89377835129227E-16,-1.));
#941=DIRECTION('',(1.,0.,0.));
#942=DIRECTION('',(0.,2.89377835129227E-16,1.));
#943=DIRECTION('',(-1.,0.,0.));
#944=DIRECTION('',(0.,-2.89377835129227E-16,-1.));
#945=DIRECTION('',(1.,0.,0.));
#946=DIRECTION('',(0.,2.89377835129227E-16,1.));
#947=DIRECTION('center_axis',(0.,2.75290117931438E-16,1.));
#948=DIRECTION('ref_axis',(1.,0.,0.));
#949=DIRECTION('',(0.,1.,-2.3859388599459E-16));
#950=DIRECTION('',(-1.,0.,0.));
#951=DIRECTION('',(-1.05625786426459E-16,1.,-2.22044604925031E-16));
#952=DIRECTION('',(1.,3.54970086709377E-17,-1.10328540463725E-17));
#953=DIRECTION('',(0.,1.,-2.75290117931438E-16));
#954=DIRECTION('',(1.,0.,0.));
#955=DIRECTION('',(0.,1.,-2.3859388599459E-16));
#956=DIRECTION('',(-1.,0.,0.));
#957=DIRECTION('',(0.,-1.,2.75290117931438E-16));
#958=DIRECTION('',(1.,0.,0.));
#959=DIRECTION('',(0.,1.,-2.75290117931438E-16));
#960=DIRECTION('center_axis',(1.,0.,0.));
#961=DIRECTION('ref_axis',(0.,0.,-1.));
#962=DIRECTION('',(0.,1.,-4.23325751153998E-15));
#963=DIRECTION('',(0.,4.48604262767292E-16,1.));
#964=DIRECTION('center_axis',(1.,0.,0.));
#965=DIRECTION('ref_axis',(0.,0.,-1.));
#966=DIRECTION('',(0.,1.,-2.60397748689184E-16));
#967=DIRECTION('',(0.,3.19914430276415E-16,1.));
#968=DIRECTION('',(0.,1.,-4.23325751153998E-15));
#969=DIRECTION('center_axis',(0.,-1.,3.19914430276415E-16));
#970=DIRECTION('ref_axis',(0.,-3.19914430276415E-16,-1.));
#971=DIRECTION('',(1.,0.,0.));
#972=DIRECTION('',(-1.,0.,0.));
#973=DIRECTION('',(0.,-3.19914430276415E-16,-1.));
#974=DIRECTION('',(1.,0.,0.));
#975=DIRECTION('',(0.,3.19914430276415E-16,1.));
#976=DIRECTION('',(1.,0.,0.));
#977=DIRECTION('',(0.,-3.19914430276415E-16,-1.));
#978=DIRECTION('center_axis',(0.,2.60397748689184E-16,1.));
#979=DIRECTION('ref_axis',(1.,0.,0.));
#980=DIRECTION('',(0.,1.,-2.60397748689184E-16));
#981=DIRECTION('center_axis',(-1.,0.,0.));
#982=DIRECTION('ref_axis',(0.,0.,1.));
#983=DIRECTION('',(0.,-1.,4.23325751153998E-15));
#984=DIRECTION('center_axis',(1.,0.,0.));
#985=DIRECTION('ref_axis',(0.,0.,-1.));
#986=DIRECTION('',(0.,1.,-2.64726528974486E-16));
#987=DIRECTION('',(0.,3.09965934095355E-16,1.));
#988=DIRECTION('',(0.,-1.,4.23325751153998E-15));
#989=DIRECTION('center_axis',(0.,2.64726528974485E-16,1.));
#990=DIRECTION('ref_axis',(1.,0.,0.));
#991=DIRECTION('',(0.,1.,-2.64726528974486E-16));
#992=DIRECTION('',(1.,3.50543065504002E-17,-1.08952574413406E-17));
#993=DIRECTION('',(-1.06959738349519E-16,1.,-2.22044604925031E-16));
#994=DIRECTION('',(1.,3.50543065504002E-17,-1.08952574413406E-17));
#995=DIRECTION('',(1.06959738349519E-16,-1.,2.22044604925031E-16));
#996=DIRECTION('',(-1.,0.,0.));
#997=DIRECTION('center_axis',(-1.,0.,0.));
#998=DIRECTION('ref_axis',(0.,0.,1.));
#999=DIRECTION('',(0.,1.,-4.23325751153998E-15));
#1000=DIRECTION('',(0.,-2.22044604925031E-16,-1.));
#1001=DIRECTION('center_axis',(1.,0.,0.));
#1002=DIRECTION('ref_axis',(9.46997965719755E-16,1.,-1.22464679914735E-16));
#1003=DIRECTION('center_axis',(0.,4.23325751153998E-15,1.));
#1004=DIRECTION('ref_axis',(1.,0.,0.));
#1005=DIRECTION('',(0.,-1.,4.23325751153998E-15));
#1006=DIRECTION('',(-1.,0.,0.));
#1007=DIRECTION('',(0.,-1.,4.23325751153998E-15));
#1008=DIRECTION('',(-1.,-3.54970086709377E-17,1.50267978593447E-31));
#1009=DIRECTION('',(1.05625786426461E-16,-1.,4.23325751153998E-15));
#1010=DIRECTION('',(1.,3.54970086709377E-17,-1.50267978593447E-31));
#1011=DIRECTION('',(-1.,0.,0.));
#1012=DIRECTION('',(1.06959738349521E-16,-1.,4.23325751153998E-15));
#1013=DIRECTION('',(-1.,-3.50543065504002E-17,1.48393906516307E-31));
#1014=DIRECTION('',(-1.06959738349521E-16,1.,-4.23325751153998E-15));
#1015=DIRECTION('',(1.,3.50543065504002E-17,-1.48393906516307E-31));
#1016=DIRECTION('',(0.,-1.,4.23325751153998E-15));
#1017=DIRECTION('',(-1.,0.,0.));
#1018=DIRECTION('',(0.,1.,-4.23325751153998E-15));
#1019=DIRECTION('',(1.,0.,0.));
#1020=DIRECTION('center_axis',(-1.,0.,0.));
#1021=DIRECTION('ref_axis',(0.,0.,1.));
#1022=DIRECTION('',(0.,-2.41936162745023E-16,-1.));
#1023=DIRECTION('',(0.,2.41936162745023E-16,1.));
#1024=DIRECTION('center_axis',(0.,-1.,2.41936162745023E-16));
#1025=DIRECTION('ref_axis',(0.,-2.41936162745023E-16,-1.));
#1026=DIRECTION('',(0.,2.41936162745023E-16,1.));
#1027=DIRECTION('center_axis',(-1.,0.,0.));
#1028=DIRECTION('ref_axis',(0.,0.,1.));
#1029=DIRECTION('',(0.,-2.92461795876004E-16,-1.));
#1030=DIRECTION('center_axis',(3.54970086709377E-17,-1.,2.22044604925031E-16));
#1031=DIRECTION('ref_axis',(0.,-2.22044604925031E-16,-1.));
#1032=DIRECTION('',(3.39839486763392E-16,2.22044604925031E-16,1.));
#1033=DIRECTION('center_axis',(-3.50543065504002E-17,1.,-2.22044604925031E-16));
#1034=DIRECTION('ref_axis',(0.,2.22044604925031E-16,1.));
#1035=DIRECTION('',(-3.44131332081062E-16,-2.22044604925031E-16,-1.));
#1036=DIRECTION('center_axis',(-1.,-1.06959738349519E-16,3.44131332081062E-16));
#1037=DIRECTION('ref_axis',(3.44131332081062E-16,0.,1.));
#1038=DIRECTION('',(3.44131332081062E-16,2.22044604925031E-16,1.));
#1039=DIRECTION('center_axis',(1.,1.06959738349519E-16,-3.44131332081062E-16));
#1040=DIRECTION('ref_axis',(1.52761904186501E-16,2.22044604925031E-16,1.));
#1041=DIRECTION('center_axis',(3.50543065504002E-17,-1.,2.22044604925031E-16));
#1042=DIRECTION('ref_axis',(0.,-2.22044604925031E-16,-1.));
#1043=DIRECTION('',(-3.44131332081062E-16,-2.22044604925031E-16,-1.));
#1044=DIRECTION('center_axis',(1.,2.25607226198711E-17,-2.45440738423707E-17));
#1045=DIRECTION('ref_axis',(1.52761904186501E-16,2.22044604925031E-16,1.));
#1046=DIRECTION('',(1.,2.25607226198711E-17,-2.45440738423707E-17));
#1047=DIRECTION('center_axis',(-1.,-1.05625786426459E-16,3.39839486763392E-16));
#1048=DIRECTION('ref_axis',(1.52761904186501E-16,2.22044604925031E-16,1.));
#1049=DIRECTION('center_axis',(1.,-1.17040934264542E-16,5.73576536721646E-18));
#1050=DIRECTION('ref_axis',(9.46997965719755E-16,1.,-1.22464679914735E-16));
#1051=DIRECTION('',(1.,-1.17040934264542E-16,5.73576536721646E-18));
#1052=DIRECTION('center_axis',(-1.,0.,0.));
#1053=DIRECTION('ref_axis',(9.46997965719755E-16,1.,-1.22464679914735E-16));
#1054=DIRECTION('center_axis',(-1.,0.,0.));
#1055=DIRECTION('ref_axis',(0.,0.,1.));
#1056=DIRECTION('',(0.,2.92461795876004E-16,1.));
#1057=DIRECTION('',(0.,-2.92461795876004E-16,-1.));
#1058=DIRECTION('center_axis',(0.,-1.,2.92461795876004E-16));
#1059=DIRECTION('ref_axis',(0.,-2.92461795876004E-16,-1.));
#1060=DIRECTION('center_axis',(1.,0.,0.));
#1061=DIRECTION('ref_axis',(0.,0.,-1.));
#1062=DIRECTION('',(0.,-2.41936162745023E-16,-1.));
#1063=DIRECTION('center_axis',(0.,-1.,2.41936162745023E-16));
#1064=DIRECTION('ref_axis',(0.,-2.41936162745023E-16,-1.));
#1065=DIRECTION('center_axis',(-1.,-1.05625786426459E-16,3.39839486763392E-16));
#1066=DIRECTION('ref_axis',(3.39839486763392E-16,0.,1.));
#1067=DIRECTION('',(-3.39839486763392E-16,-2.22044604925031E-16,-1.));
#1068=DIRECTION('center_axis',(-3.54970086709377E-17,1.,-2.22044604925031E-16));
#1069=DIRECTION('ref_axis',(0.,2.22044604925031E-16,1.));
#1070=DIRECTION('center_axis',(-1.,-1.06959738349519E-16,3.44131332081062E-16));
#1071=DIRECTION('ref_axis',(3.44131332081062E-16,0.,1.));
#1072=DIRECTION('',(3.44131332081062E-16,3.09965934095355E-16,1.));
#1073=DIRECTION('center_axis',(0.,-1.,3.09965934095355E-16));
#1074=DIRECTION('ref_axis',(0.,-3.09965934095355E-16,-1.));
#1075=DIRECTION('',(0.,0.,1.));
#1076=DIRECTION('',(1.,0.,0.));
#1077=CARTESIAN_POINT('',(0.,0.,0.));
#1078=CARTESIAN_POINT('',(0.,0.,0.));
#1079=CARTESIAN_POINT('Origin',(-4.99660717053692,-8.30138282793198,0.350000000000002));
#1080=CARTESIAN_POINT('',(-5.04745717053692,-4.89915,0.350000000000001));
#1081=CARTESIAN_POINT('Origin',(-4.99660717053692,-4.89915,0.350000000000001));
#1082=CARTESIAN_POINT('',(-5.04745717053692,-4.29968282793198,0.350000000000001));
#1083=CARTESIAN_POINT('',(-5.04745717053692,-8.30138282793198,0.350000000000002));
#1084=CARTESIAN_POINT('Origin',(-4.99660717053692,-4.29968282793198,0.350000000000001));
#1085=CARTESIAN_POINT('Origin',(-4.99660717053692,-4.29968282793198,0.350000000000001));
#1086=CARTESIAN_POINT('Origin',(-3.44660717053692,-8.30138282793198,0.350000000000002));
#1087=CARTESIAN_POINT('',(-3.49745717053692,-4.89915,0.350000000000001));
#1088=CARTESIAN_POINT('Origin',(-3.44660717053692,-4.89915,0.350000000000001));
#1089=CARTESIAN_POINT('',(-3.49745717053692,-4.29968282793198,0.350000000000001));
#1090=CARTESIAN_POINT('',(-3.49745717053692,-8.30138282793198,0.350000000000002));
#1091=CARTESIAN_POINT('Origin',(-3.44660717053692,-4.29968282793198,0.350000000000001));
#1092=CARTESIAN_POINT('Origin',(-3.44660717053692,-4.29968282793198,0.350000000000001));
#1093=CARTESIAN_POINT('Origin',(-3.39660717053692,-8.30138282793198,1.45));
#1094=CARTESIAN_POINT('',(-3.44745717053692,-4.89915,1.45));
#1095=CARTESIAN_POINT('Origin',(-3.39660717053692,-4.89915,1.45));
#1096=CARTESIAN_POINT('',(-3.44745717053692,-4.29968282793198,1.45));
#1097=CARTESIAN_POINT('',(-3.44745717053692,-8.30138282793198,1.45));
#1098=CARTESIAN_POINT('Origin',(-3.39660717053692,-4.29968282793198,1.45));
#1099=CARTESIAN_POINT('Origin',(-3.39660717053692,-4.29968282793198,1.45));
#1100=CARTESIAN_POINT('Origin',(-5.04660717053692,-8.30138282793198,1.45));
#1101=CARTESIAN_POINT('',(-5.09745717053692,-4.89915,1.45));
#1102=CARTESIAN_POINT('Origin',(-5.04660717053692,-4.89915,1.45));
#1103=CARTESIAN_POINT('',(-5.09745717053692,-4.29968282793198,1.45));
#1104=CARTESIAN_POINT('',(-5.09745717053692,-8.30138282793198,1.45));
#1105=CARTESIAN_POINT('Origin',(-5.04660717053692,-4.29968282793198,1.45));
#1106=CARTESIAN_POINT('Origin',(-5.04660717053692,-4.29968282793198,1.45));
#1107=CARTESIAN_POINT('Origin',(6.10339282946308,0.649467172068022,0.59884997406006));
#1108=CARTESIAN_POINT('',(6.00254282946308,0.649467172068022,0.59884997406006));
#1109=CARTESIAN_POINT('Origin',(6.10339282946308,0.649467172068022,0.59884997406006));
#1110=CARTESIAN_POINT('',(6.00254282946308,0.649467172068022,1.79915002757986));
#1111=CARTESIAN_POINT('',(6.00254282946308,0.649467172068022,0.59884997406006));
#1112=CARTESIAN_POINT('Origin',(6.10339282946308,0.649467172068022,1.79915002757986));
#1113=CARTESIAN_POINT('Origin',(6.10339282946308,0.649467172068022,0.59884997406006));
#1114=CARTESIAN_POINT('Origin',(6.10339282946308,1.94946717206802,0.59884997406006));
#1115=CARTESIAN_POINT('',(6.00254282946308,1.94946717206802,0.59884997406006));
#1116=CARTESIAN_POINT('Origin',(6.10339282946308,1.94946717206802,0.59884997406006));
#1117=CARTESIAN_POINT('',(6.00254282946308,1.94946717206802,1.79915002757986));
#1118=CARTESIAN_POINT('',(6.00254282946308,1.94946717206802,0.59884997406006));
#1119=CARTESIAN_POINT('Origin',(6.10339282946308,1.94946717206802,1.79915002757986));
#1120=CARTESIAN_POINT('Origin',(6.10339282946308,1.94946717206802,0.59884997406006));
#1121=CARTESIAN_POINT('Origin',(-4.99660717053692,-0.550532827931978,0.59884997406006));
#1122=CARTESIAN_POINT('',(-5.09745717053692,-0.550532827931978,0.59884997406006));
#1123=CARTESIAN_POINT('Origin',(-4.99660717053692,-0.550532827931978,0.59884997406006));
#1124=CARTESIAN_POINT('',(-5.09745717053692,-0.550532827931978,1.79915002757986));
#1125=CARTESIAN_POINT('',(-5.09745717053692,-0.550532827931978,0.59884997406006));
#1126=CARTESIAN_POINT('Origin',(-4.99660717053692,-0.550532827931978,1.79915002757986));
#1127=CARTESIAN_POINT('Origin',(-4.99660717053692,-0.550532827931978,0.59884997406006));
#1128=CARTESIAN_POINT('Origin',(-4.99660717053692,1.84946717206802,0.59884997406006));
#1129=CARTESIAN_POINT('',(-5.09745717053692,1.84946717206802,0.59884997406006));
#1130=CARTESIAN_POINT('Origin',(-4.99660717053692,1.84946717206802,0.59884997406006));
#1131=CARTESIAN_POINT('',(-5.09745717053692,1.84946717206802,1.79915002757986));
#1132=CARTESIAN_POINT('',(-5.09745717053692,1.84946717206802,0.59884997406006));
#1133=CARTESIAN_POINT('Origin',(-4.99660717053692,1.84946717206802,1.79915002757986));
#1134=CARTESIAN_POINT('Origin',(-4.99660717053692,1.84946717206802,0.59884997406006));
#1135=CARTESIAN_POINT('Origin',(-4.2,-4.89915,1.));
#1136=CARTESIAN_POINT('',(-4.90085,-4.89915,0.198949919128419));
#1137=CARTESIAN_POINT('',(-3.59915,-4.89915,0.198949919128419));
#1138=CARTESIAN_POINT('',(-4.225,-4.89915,0.198949919128419));
#1139=CARTESIAN_POINT('',(-4.90085,-4.89915,1.79915002757988));
#1140=CARTESIAN_POINT('',(-4.90085,-4.89915,1.09989995956421));
#1141=CARTESIAN_POINT('',(-5.2,-4.89915,1.79915002757988));
#1142=CARTESIAN_POINT('',(-1.9,-4.89915,1.79915002757988));
#1143=CARTESIAN_POINT('',(-5.2,-4.89915,2.56682371459321E-15));
#1144=CARTESIAN_POINT('',(-5.2,-4.89915,1.));
#1145=CARTESIAN_POINT('',(-3.2,-4.89915,2.56682371459321E-15));
#1146=CARTESIAN_POINT('',(-3.125,-4.89915,2.77555756156289E-15));
#1147=CARTESIAN_POINT('',(-3.2,-4.89915,1.79915002757988));
#1148=CARTESIAN_POINT('',(-3.2,-4.89915,1.));
#1149=CARTESIAN_POINT('',(-3.59915,-4.89915,1.79915002757988));
#1150=CARTESIAN_POINT('',(-1.9,-4.89915,1.79915002757988));
#1151=CARTESIAN_POINT('',(-3.59915,-4.89915,1.09989995956421));
#1152=CARTESIAN_POINT('Origin',(-2.05,-0.85,1.60982338570648E-15));
#1153=CARTESIAN_POINT('',(-5.2,2.3,8.49150540235261E-16));
#1154=CARTESIAN_POINT('',(-5.2,-1.4,1.73194791841524E-15));
#1155=CARTESIAN_POINT('',(6.70000000000002,2.3,8.49150540235261E-16));
#1156=CARTESIAN_POINT('',(-4.2,2.3,8.49150540235261E-16));
#1157=CARTESIAN_POINT('',(6.70000000000002,0.3,1.29323975008532E-15));
#1158=CARTESIAN_POINT('',(6.70000000000002,1.3,1.07119514516029E-15));
#1159=CARTESIAN_POINT('',(-0.9,0.3,1.29323975008532E-15));
#1160=CARTESIAN_POINT('',(1.15,0.3,1.35447209004269E-15));
#1161=CARTESIAN_POINT('',(-0.9,-2.,1.92640702132763E-15));
#1162=CARTESIAN_POINT('',(-0.9,-0.85,1.60982338570648E-15));
#1163=CARTESIAN_POINT('',(-3.2,-2.,1.92640702132763E-15));
#1164=CARTESIAN_POINT('',(-2.05,-2.,1.92640702132763E-15));
#1165=CARTESIAN_POINT('',(-3.2,-1.4,1.73194791841524E-15));
#1166=CARTESIAN_POINT('',(-1.16711497312094,0.264492100624369,1.33226762955019E-15));
#1167=CARTESIAN_POINT('',(-3.16881497312094,0.264492100624369,1.33226762955019E-15));
#1168=CARTESIAN_POINT('',(-2.10898248656047,0.264492100624369,1.33226762955019E-15));
#1169=CARTESIAN_POINT('',(-3.16881497312094,-1.73720789937563,1.77635683940025E-15));
#1170=CARTESIAN_POINT('',(-3.16881497312094,-0.793178949687816,1.66533453693773E-15));
#1171=CARTESIAN_POINT('',(-1.16711497312094,-1.73720789937563,1.77635683940025E-15));
#1172=CARTESIAN_POINT('',(-2.10898248656047,-1.73720789937563,1.88737914186277E-15));
#1173=CARTESIAN_POINT('',(-1.16711497312094,-0.793178949687816,1.66533453693773E-15));
#1174=CARTESIAN_POINT('Origin',(-5.2,-1.4,1.));
#1175=CARTESIAN_POINT('',(-5.2,2.3,1.79915002757985));
#1176=CARTESIAN_POINT('',(-5.2,-0.724999999999998,1.79915002757986));
#1177=CARTESIAN_POINT('',(-5.2,2.3,1.));
#1178=CARTESIAN_POINT('Origin',(-4.90085,-3.30344924408526,1.19979991912842));
#1179=CARTESIAN_POINT('',(-4.90085,-1.70259924408526,0.198949919128418));
#1180=CARTESIAN_POINT('',(-4.90085,-3.30344924408526,0.198949919128418));
#1181=CARTESIAN_POINT('',(-4.90085,-1.70259924408526,1.79915002757987));
#1182=CARTESIAN_POINT('',(-4.90085,-1.70259924408526,1.19979991912842));
#1183=CARTESIAN_POINT('',(-4.90085,-1.67672462204263,1.79915002757987));
#1184=CARTESIAN_POINT('Origin',(-4.25,-1.70259924408526,1.19979991912842));
#1185=CARTESIAN_POINT('',(-4.80085,-1.70259924408526,1.79915002757987));
#1186=CARTESIAN_POINT('',(-1.925,-1.70259924408526,1.79915002757987));
#1187=CARTESIAN_POINT('',(-3.59915,-1.70259924408526,0.198949919128418));
#1188=CARTESIAN_POINT('',(-4.25,-1.70259924408526,0.198949919128418));
#1189=CARTESIAN_POINT('',(-3.59915,-1.70259924408526,1.79915002757987));
#1190=CARTESIAN_POINT('',(-3.59915,-1.70259924408526,1.19979991912842));
#1191=CARTESIAN_POINT('',(-3.69915,-1.70259924408526,1.79915002757987));
#1192=CARTESIAN_POINT('',(-1.925,-1.70259924408526,1.79915002757987));
#1193=CARTESIAN_POINT('',(-3.69915,-1.70259924408526,0.19915));
#1194=CARTESIAN_POINT('',(-3.69915,-1.70259924408526,1.09989995956421));
#1195=CARTESIAN_POINT('',(-4.80085,-1.70259924408526,0.19915));
#1196=CARTESIAN_POINT('',(-4.25,-1.70259924408526,0.19915));
#1197=CARTESIAN_POINT('',(-4.80085,-1.70259924408526,1.09989995956421));
#1198=CARTESIAN_POINT('Origin',(-4.25,-3.30344924408526,0.198949919128418));
#1199=CARTESIAN_POINT('',(-3.59915,-3.30344924408526,0.198949919128418));
#1200=CARTESIAN_POINT('Origin',(-3.59915,-3.30344924408526,1.19979991912842));
#1201=CARTESIAN_POINT('',(-3.59915,-1.67672462204263,1.79915002757987));
#1202=CARTESIAN_POINT('Origin',(-4.80085,-0.649999999999999,1.));
#1203=CARTESIAN_POINT('',(-4.80085,0.500850000000001,0.19915));
#1204=CARTESIAN_POINT('',(-4.80085,-0.649999999999999,0.19915));
#1205=CARTESIAN_POINT('',(-4.80085,0.500850000000002,1.79915002757986));
#1206=CARTESIAN_POINT('',(-4.80085,0.500850000000001,1.));
#1207=CARTESIAN_POINT('',(-4.80085,-0.349999999999998,1.79915002757986));
#1208=CARTESIAN_POINT('Origin',(-4.25,-0.649999999999999,0.19915));
#1209=CARTESIAN_POINT('',(-3.69915,0.49915,0.199150000000001));
#1210=CARTESIAN_POINT('',(-3.69915,-0.649999999999999,0.19915));
#1211=CARTESIAN_POINT('',(4.75085,0.49915,0.199150000000001));
#1212=CARTESIAN_POINT('',(0.250000000000001,0.49915,0.199150000000001));
#1213=CARTESIAN_POINT('',(4.75085,2.10085,0.199150000000001));
#1214=CARTESIAN_POINT('',(4.75085,1.3,0.199150000000001));
#1215=CARTESIAN_POINT('',(-4.25085,2.10085,0.199150000000001));
#1216=CARTESIAN_POINT('',(0.250000000000001,2.10085,0.199150000000001));
#1217=CARTESIAN_POINT('',(-4.25085,0.500850000000001,0.19915));
#1218=CARTESIAN_POINT('',(-4.25085,1.3,0.199150000000001));
#1219=CARTESIAN_POINT('',(-4.25,0.500850000000001,0.19915));
#1220=CARTESIAN_POINT('Origin',(-3.69915,-0.649999999999999,1.));
#1221=CARTESIAN_POINT('',(-3.69915,0.49915,1.79915002757986));
#1222=CARTESIAN_POINT('',(-3.69915,-0.349999999999998,1.79915002757986));
#1223=CARTESIAN_POINT('',(-3.69915,0.49915,1.));
#1224=CARTESIAN_POINT('',(-3.69915,-0.935040945658538,0.941333923681056));
#1225=CARTESIAN_POINT('Origin',(-3.69915,-0.684190945658538,0.941333923681056));
#1226=CARTESIAN_POINT('Origin',(0.399999999999999,-0.0500000000000003,1.79915002757986));
#1227=CARTESIAN_POINT('',(-3.2,-2.,1.79915002757987));
#1228=CARTESIAN_POINT('',(-3.2,-0.724999999999998,1.79915002757986));
#1229=CARTESIAN_POINT('',(-0.9,-2.,1.79915002757987));
#1230=CARTESIAN_POINT('',(-0.825000000000001,-2.,1.79915002757987));
#1231=CARTESIAN_POINT('',(-0.9,0.300000000000001,1.79915002757986));
#1232=CARTESIAN_POINT('',(-0.9,-0.449999999999998,1.79915002757986));
#1233=CARTESIAN_POINT('',(6.70000000000002,0.300000000000001,1.79915002757986));
#1234=CARTESIAN_POINT('',(0.775,0.300000000000001,1.79915002757986));
#1235=CARTESIAN_POINT('',(6.70000000000002,2.3,1.79915002757985));
#1236=CARTESIAN_POINT('',(6.70000000000002,0.625000000000002,1.79915002757986));
#1237=CARTESIAN_POINT('',(0.775,2.3,1.79915002757985));
#1238=CARTESIAN_POINT('',(-4.25085,0.500850000000002,1.79915002757986));
#1239=CARTESIAN_POINT('',(-1.925,0.500850000000002,1.79915002757986));
#1240=CARTESIAN_POINT('',(-4.25085,2.10085,1.79915002757985));
#1241=CARTESIAN_POINT('',(-4.25085,0.625000000000001,1.79915002757986));
#1242=CARTESIAN_POINT('',(4.75085,2.10085,1.79915002757985));
#1243=CARTESIAN_POINT('',(0.325,2.10085,1.79915002757985));
#1244=CARTESIAN_POINT('',(4.75085,0.499150000000001,1.79915002757986));
#1245=CARTESIAN_POINT('',(4.75085,0.625000000000002,1.79915002757986));
#1246=CARTESIAN_POINT('',(0.325,0.49915,1.79915002757986));
#1247=CARTESIAN_POINT('',(-3.16881497312094,0.264492100624369,1.79915002757986));
#1248=CARTESIAN_POINT('',(-3.16881497312094,-1.73720789937563,1.79915002757987));
#1249=CARTESIAN_POINT('',(-3.16881497312094,-0.393178949687815,1.79915002757986));
#1250=CARTESIAN_POINT('',(-1.16711497312094,0.264492100624369,1.79915002757986));
#1251=CARTESIAN_POINT('',(-0.883982486560473,0.264492100624369,1.79915002757986));
#1252=CARTESIAN_POINT('',(-1.16711497312094,-1.73720789937563,1.79915002757987));
#1253=CARTESIAN_POINT('',(-1.16711497312094,-0.393178949687815,1.79915002757986));
#1254=CARTESIAN_POINT('',(-0.883982486560473,-1.73720789937563,1.79915002757987));
#1255=CARTESIAN_POINT('Origin',(-1.16711497312094,-0.736357899375631,1.4));
#1256=CARTESIAN_POINT('',(-1.16711497312094,0.264492100624369,1.4));
#1257=CARTESIAN_POINT('',(-1.16711497312094,-1.73720789937563,1.4));
#1258=CARTESIAN_POINT('Origin',(-2.16796497312094,0.264492100624369,1.4));
#1259=CARTESIAN_POINT('',(-3.16881497312094,0.264492100624369,1.4));
#1260=CARTESIAN_POINT('Origin',(-3.2,-1.4,1.));
#1261=CARTESIAN_POINT('',(-3.2,-2.,1.));
#1262=CARTESIAN_POINT('Origin',(1.15,2.3,1.));
#1263=CARTESIAN_POINT('',(6.70000000000002,2.3,1.));
#1264=CARTESIAN_POINT('Origin',(0.250000000000001,0.49915,1.));
#1265=CARTESIAN_POINT('',(4.75085,0.49915,1.));
#1266=CARTESIAN_POINT('Origin',(4.75085,1.3,1.));
#1267=CARTESIAN_POINT('',(4.75085,2.10085,1.));
#1268=CARTESIAN_POINT('',(4.75085,1.35,0.649150000000001));
#1269=CARTESIAN_POINT('Origin',(4.75085,1.35,1.));
#1270=CARTESIAN_POINT('Origin',(0.250000000000001,2.10085,1.));
#1271=CARTESIAN_POINT('',(-4.25085,2.10085,1.));
#1272=CARTESIAN_POINT('Origin',(6.85085,1.35,1.));
#1273=CARTESIAN_POINT('',(6.70000000000002,1.35,0.649150000000001));
#1274=CARTESIAN_POINT('',(6.85085,1.35,0.649150000000001));
#1275=CARTESIAN_POINT('Origin',(6.70000000000002,1.35,1.));
#1276=CARTESIAN_POINT('Origin',(-4.3690499206543,-0.684190945658537,0.941333923681056));
#1277=CARTESIAN_POINT('',(-3.16881497312094,-0.935040945658538,0.941333923681056));
#1278=CARTESIAN_POINT('',(-4.3690499206543,-0.935040945658537,0.941333923681056));
#1279=CARTESIAN_POINT('Origin',(-3.16881497312094,-0.684190945658538,0.941333923681056));
#1280=CARTESIAN_POINT('Origin',(-0.9,-0.85,1.));
#1281=CARTESIAN_POINT('',(-0.9,-2.,1.));
#1282=CARTESIAN_POINT('',(-0.9,0.300000000000001,1.));
#1283=CARTESIAN_POINT('Origin',(-2.05,-2.,1.));
#1284=CARTESIAN_POINT('Origin',(-3.16881497312094,-0.736357899375631,1.4));
#1285=CARTESIAN_POINT('',(-3.16881497312094,-1.73720789937563,1.4));
#1286=CARTESIAN_POINT('Origin',(-2.16796497312094,-1.73720789937563,1.4));
#1287=CARTESIAN_POINT('Origin',(6.70000000000002,1.3,1.));
#1288=CARTESIAN_POINT('',(6.70000000000002,0.300000000000001,1.));
#1289=CARTESIAN_POINT('Origin',(1.15,0.3,1.));
#1290=CARTESIAN_POINT('Origin',(-4.25085,1.3,1.));
#1291=CARTESIAN_POINT('',(-4.25085,0.500850000000001,1.));
#1292=CARTESIAN_POINT('Origin',(-4.25,0.500850000000001,1.));
#1293=CARTESIAN_POINT('',(0.,0.,0.));
#1294=UNCERTAINTY_MEASURE_WITH_UNIT(LENGTH_MEASURE(0.001),#1300,
'DISTANCE_ACCURACY_VALUE',
'Maximum model space distance between geometric entities at asserted c
onnectivities');
#1295=UNCERTAINTY_MEASURE_WITH_UNIT(LENGTH_MEASURE(0.001),#1300,
'DISTANCE_ACCURACY_VALUE',
'Maximum model space distance between geometric entities at asserted c
onnectivities');
#1296=UNCERTAINTY_MEASURE_WITH_UNIT(LENGTH_MEASURE(0.001),#1300,
'DISTANCE_ACCURACY_VALUE',
'Maximum model space distance between geometric entities at asserted c
onnectivities');
#1297=(
GEOMETRIC_REPRESENTATION_CONTEXT(3)
GLOBAL_UNCERTAINTY_ASSIGNED_CONTEXT((#1294))
GLOBAL_UNIT_ASSIGNED_CONTEXT((#1300,#1302,#1303))
REPRESENTATION_CONTEXT('','3D')
);
#1298=(
GEOMETRIC_REPRESENTATION_CONTEXT(3)
GLOBAL_UNCERTAINTY_ASSIGNED_CONTEXT((#1295))
GLOBAL_UNIT_ASSIGNED_CONTEXT((#1300,#1302,#1303))
REPRESENTATION_CONTEXT('','3D')
);
#1299=(
GEOMETRIC_REPRESENTATION_CONTEXT(3)
GLOBAL_UNCERTAINTY_ASSIGNED_CONTEXT((#1296))
GLOBAL_UNIT_ASSIGNED_CONTEXT((#1300,#1302,#1303))
REPRESENTATION_CONTEXT('','3D')
);
#1300=(
LENGTH_UNIT()
NAMED_UNIT(*)
SI_UNIT(.CENTI.,.METRE.)
);
#1301=(
LENGTH_UNIT()
NAMED_UNIT(*)
SI_UNIT($,.METRE.)
);
#1302=(
NAMED_UNIT(*)
PLANE_ANGLE_UNIT()
SI_UNIT($,.RADIAN.)
);
#1303=(
NAMED_UNIT(*)
SI_UNIT($,.STERADIAN.)
SOLID_ANGLE_UNIT()
);
#1304=SHAPE_DEFINITION_REPRESENTATION(#1306,#1309);
#1305=SHAPE_DEFINITION_REPRESENTATION(#1307,#1310);
#1306=PRODUCT_DEFINITION_SHAPE('',$,#1312);
#1307=PRODUCT_DEFINITION_SHAPE('',$,#1313);
#1308=PRODUCT_DEFINITION_SHAPE($,$,#14);
#1309=SHAPE_REPRESENTATION('',(#794,#860),#1297);
#1310=SHAPE_REPRESENTATION('',(#795),#1298);
#1311=PRODUCT_DEFINITION_CONTEXT('part definition',#1319,'design');
#1312=PRODUCT_DEFINITION('2026-05-27-17-52-48-272','(Unsaved)',#1314,#1311);
#1313=PRODUCT_DEFINITION('2026-05-27-17-52-51-524','Component1',#1315,#1311);
#1314=PRODUCT_DEFINITION_FORMATION('',$,#1321);
#1315=PRODUCT_DEFINITION_FORMATION('',$,#1322);
#1316=PRODUCT_RELATED_PRODUCT_CATEGORY('(Unsaved)','(Unsaved)',(#1321));
#1317=PRODUCT_RELATED_PRODUCT_CATEGORY('Component1','Component1',(#1322));
#1318=APPLICATION_PROTOCOL_DEFINITION('international standard',
'automotive_design',2009,#1319);
#1319=APPLICATION_CONTEXT(
'Core Data for Automotive Mechanical Design Process');
#1320=PRODUCT_CONTEXT('part definition',#1319,'mechanical');
#1321=PRODUCT('2026-05-27-17-52-48-272','(Unsaved)',$,(#1320));
#1322=PRODUCT('2026-05-27-17-52-51-524','Component1',$,(#1320));
#1323=PRESENTATION_STYLE_ASSIGNMENT((#1325));
#1324=PRESENTATION_STYLE_ASSIGNMENT((#1326));
#1325=SURFACE_STYLE_USAGE(.BOTH.,#1327);
#1326=SURFACE_STYLE_USAGE(.BOTH.,#1328);
#1327=SURFACE_SIDE_STYLE('',(#1329));
#1328=SURFACE_SIDE_STYLE('',(#1330));
#1329=SURFACE_STYLE_FILL_AREA(#1331);
#1330=SURFACE_STYLE_FILL_AREA(#1332);
#1331=FILL_AREA_STYLE('Steel - Satin',(#1333));
#1332=FILL_AREA_STYLE('Base Material - Opaque',(#1334));
#1333=FILL_AREA_STYLE_COLOUR('Steel - Satin',#1335);
#1334=FILL_AREA_STYLE_COLOUR('Base Material - Opaque',#1336);
#1335=COLOUR_RGB('Steel - Satin',0.627450980392157,0.627450980392157,0.627450980392157);
#1336=COLOUR_RGB('Base Material - Opaque',0.913725490196078,0.113725490196078,
0.176470588235294);
ENDSEC;
END-ISO-10303-21;
