ISO-10303-21;
HEADER;
/* Generated by software containing ST-Developer
 * from STEP Tools, Inc. (www.steptools.com) 
 */

FILE_DESCRIPTION(
/* description */ (''),
/* implementation_level */ '2;1');

FILE_NAME(
/* name */ 'Shootex gun cover.step',
/* time_stamp */ '2026-05-27T17:59:08+05:30',
/* author */ (''),
/* organization */ (''),
/* preprocessor_version */ 'ST-DEVELOPER v20.1',
/* originating_system */ 'Autodesk Translation Framework v15.8.0.0',
/* authorisation */ '');

FILE_SCHEMA (('AUTOMOTIVE_DESIGN { 1 0 10303 214 3 1 1 }'));
ENDSEC;

DATA;
#10=MECHANICAL_DESIGN_GEOMETRIC_PRESENTATION_REPRESENTATION('',(#23,#24),
#1229);
#11=ITEM_DEFINED_TRANSFORMATION($,$,#767,#822);
#12=ITEM_DEFINED_TRANSFORMATION($,$,#786,#823);
#13=(
REPRESENTATION_RELATIONSHIP($,$,#1243,#1242)
REPRESENTATION_RELATIONSHIP_WITH_TRANSFORMATION(#11)
SHAPE_REPRESENTATION_RELATIONSHIP()
);
#14=(
REPRESENTATION_RELATIONSHIP($,$,#1244,#1242)
REPRESENTATION_RELATIONSHIP_WITH_TRANSFORMATION(#12)
SHAPE_REPRESENTATION_RELATIONSHIP()
);
#15=CONTEXT_DEPENDENT_SHAPE_REPRESENTATION(#13,#1240);
#16=CONTEXT_DEPENDENT_SHAPE_REPRESENTATION(#14,#1241);
#17=NEXT_ASSEMBLY_USAGE_OCCURRENCE('Component1:1','Component1:1',
'Component1:1',#1246,#1247,'Component1:1');
#18=NEXT_ASSEMBLY_USAGE_OCCURRENCE('Component2:1','Component2:1',
'Component2:1',#1246,#1248,'Component2:1');
#19=SHAPE_REPRESENTATION_RELATIONSHIP('SRR','None',#1243,#21);
#20=SHAPE_REPRESENTATION_RELATIONSHIP('SRR','None',#1244,#22);
#21=ADVANCED_BREP_SHAPE_REPRESENTATION('',(#25),#1227);
#22=ADVANCED_BREP_SHAPE_REPRESENTATION('',(#26),#1228);
#23=STYLED_ITEM('',(#1262),#25);
#24=STYLED_ITEM('',(#1262),#26);
#25=MANIFOLD_SOLID_BREP('Body1',#741);
#26=MANIFOLD_SOLID_BREP('Body1',#742);
#27=FACE_BOUND('',#119,.T.);
#28=FACE_BOUND('',#120,.T.);
#29=FACE_BOUND('',#121,.T.);
#30=FACE_BOUND('',#122,.T.);
#31=FACE_BOUND('',#125,.T.);
#32=FACE_BOUND('',#126,.T.);
#33=FACE_BOUND('',#127,.T.);
#34=FACE_BOUND('',#128,.T.);
#35=FACE_BOUND('',#135,.T.);
#36=FACE_BOUND('',#136,.T.);
#37=FACE_BOUND('',#137,.T.);
#38=FACE_BOUND('',#138,.T.);
#39=FACE_BOUND('',#139,.T.);
#40=FACE_BOUND('',#140,.T.);
#41=FACE_BOUND('',#163,.T.);
#42=FACE_BOUND('',#164,.T.);
#43=FACE_BOUND('',#165,.T.);
#44=FACE_BOUND('',#166,.T.);
#45=FACE_BOUND('',#167,.T.);
#46=PLANE('',#780);
#47=PLANE('',#781);
#48=PLANE('',#782);
#49=PLANE('',#783);
#50=PLANE('',#784);
#51=PLANE('',#785);
#52=PLANE('',#799);
#53=PLANE('',#800);
#54=PLANE('',#801);
#55=PLANE('',#802);
#56=PLANE('',#803);
#57=PLANE('',#804);
#58=PLANE('',#805);
#59=PLANE('',#806);
#60=PLANE('',#807);
#61=PLANE('',#808);
#62=PLANE('',#809);
#63=PLANE('',#810);
#64=PLANE('',#811);
#65=PLANE('',#812);
#66=PLANE('',#813);
#67=PLANE('',#814);
#68=PLANE('',#815);
#69=PLANE('',#816);
#70=PLANE('',#817);
#71=PLANE('',#818);
#72=PLANE('',#819);
#73=PLANE('',#820);
#74=PLANE('',#821);
#75=FACE_OUTER_BOUND('',#112,.T.);
#76=FACE_OUTER_BOUND('',#113,.T.);
#77=FACE_OUTER_BOUND('',#114,.T.);
#78=FACE_OUTER_BOUND('',#115,.T.);
#79=FACE_OUTER_BOUND('',#116,.T.);
#80=FACE_OUTER_BOUND('',#117,.T.);
#81=FACE_OUTER_BOUND('',#118,.T.);
#82=FACE_OUTER_BOUND('',#123,.T.);
#83=FACE_OUTER_BOUND('',#124,.T.);
#84=FACE_OUTER_BOUND('',#129,.T.);
#85=FACE_OUTER_BOUND('',#130,.T.);
#86=FACE_OUTER_BOUND('',#131,.T.);
#87=FACE_OUTER_BOUND('',#132,.T.);
#88=FACE_OUTER_BOUND('',#133,.T.);
#89=FACE_OUTER_BOUND('',#134,.T.);
#90=FACE_OUTER_BOUND('',#141,.T.);
#91=FACE_OUTER_BOUND('',#142,.T.);
#92=FACE_OUTER_BOUND('',#143,.T.);
#93=FACE_OUTER_BOUND('',#144,.T.);
#94=FACE_OUTER_BOUND('',#145,.T.);
#95=FACE_OUTER_BOUND('',#146,.T.);
#96=FACE_OUTER_BOUND('',#147,.T.);
#97=FACE_OUTER_BOUND('',#148,.T.);
#98=FACE_OUTER_BOUND('',#149,.T.);
#99=FACE_OUTER_BOUND('',#150,.T.);
#100=FACE_OUTER_BOUND('',#151,.T.);
#101=FACE_OUTER_BOUND('',#152,.T.);
#102=FACE_OUTER_BOUND('',#153,.T.);
#103=FACE_OUTER_BOUND('',#154,.T.);
#104=FACE_OUTER_BOUND('',#155,.T.);
#105=FACE_OUTER_BOUND('',#156,.T.);
#106=FACE_OUTER_BOUND('',#157,.T.);
#107=FACE_OUTER_BOUND('',#158,.T.);
#108=FACE_OUTER_BOUND('',#159,.T.);
#109=FACE_OUTER_BOUND('',#160,.T.);
#110=FACE_OUTER_BOUND('',#161,.T.);
#111=FACE_OUTER_BOUND('',#162,.T.);
#112=EDGE_LOOP('',(#504,#505,#506,#507));
#113=EDGE_LOOP('',(#508,#509,#510,#511));
#114=EDGE_LOOP('',(#512,#513,#514,#515));
#115=EDGE_LOOP('',(#516,#517,#518,#519));
#116=EDGE_LOOP('',(#520,#521,#522,#523));
#117=EDGE_LOOP('',(#524,#525,#526,#527));
#118=EDGE_LOOP('',(#528,#529,#530,#531));
#119=EDGE_LOOP('',(#532));
#120=EDGE_LOOP('',(#533));
#121=EDGE_LOOP('',(#534));
#122=EDGE_LOOP('',(#535));
#123=EDGE_LOOP('',(#536,#537,#538,#539));
#124=EDGE_LOOP('',(#540,#541,#542,#543));
#125=EDGE_LOOP('',(#544));
#126=EDGE_LOOP('',(#545));
#127=EDGE_LOOP('',(#546));
#128=EDGE_LOOP('',(#547));
#129=EDGE_LOOP('',(#548,#549,#550,#551));
#130=EDGE_LOOP('',(#552,#553,#554,#555));
#131=EDGE_LOOP('',(#556,#557,#558,#559));
#132=EDGE_LOOP('',(#560,#561,#562,#563));
#133=EDGE_LOOP('',(#564,#565,#566,#567));
#134=EDGE_LOOP('',(#568,#569,#570,#571,#572,#573,#574,#575));
#135=EDGE_LOOP('',(#576));
#136=EDGE_LOOP('',(#577));
#137=EDGE_LOOP('',(#578));
#138=EDGE_LOOP('',(#579));
#139=EDGE_LOOP('',(#580,#581,#582,#583,#584,#585,#586,#587));
#140=EDGE_LOOP('',(#588,#589,#590,#591));
#141=EDGE_LOOP('',(#592,#593,#594,#595));
#142=EDGE_LOOP('',(#596,#597,#598,#599));
#143=EDGE_LOOP('',(#600,#601,#602,#603));
#144=EDGE_LOOP('',(#604,#605,#606,#607));
#145=EDGE_LOOP('',(#608,#609,#610,#611));
#146=EDGE_LOOP('',(#612,#613,#614,#615));
#147=EDGE_LOOP('',(#616,#617,#618,#619));
#148=EDGE_LOOP('',(#620,#621,#622,#623));
#149=EDGE_LOOP('',(#624,#625,#626,#627));
#150=EDGE_LOOP('',(#628,#629,#630,#631));
#151=EDGE_LOOP('',(#632,#633,#634,#635));
#152=EDGE_LOOP('',(#636,#637,#638,#639));
#153=EDGE_LOOP('',(#640,#641,#642,#643));
#154=EDGE_LOOP('',(#644,#645,#646,#647));
#155=EDGE_LOOP('',(#648,#649,#650,#651,#652,#653,#654,#655));
#156=EDGE_LOOP('',(#656,#657,#658,#659));
#157=EDGE_LOOP('',(#660,#661,#662,#663));
#158=EDGE_LOOP('',(#664,#665,#666,#667));
#159=EDGE_LOOP('',(#668,#669,#670,#671));
#160=EDGE_LOOP('',(#672,#673,#674,#675));
#161=EDGE_LOOP('',(#676,#677,#678,#679));
#162=EDGE_LOOP('',(#680,#681,#682,#683,#684,#685,#686,#687));
#163=EDGE_LOOP('',(#688));
#164=EDGE_LOOP('',(#689));
#165=EDGE_LOOP('',(#690));
#166=EDGE_LOOP('',(#691));
#167=EDGE_LOOP('',(#692,#693,#694,#695));
#168=LINE('',#1026,#248);
#169=LINE('',#1032,#249);
#170=LINE('',#1038,#250);
#171=LINE('',#1044,#251);
#172=LINE('',#1049,#252);
#173=LINE('',#1051,#253);
#174=LINE('',#1053,#254);
#175=LINE('',#1054,#255);
#176=LINE('',#1058,#256);
#177=LINE('',#1060,#257);
#178=LINE('',#1062,#258);
#179=LINE('',#1063,#259);
#180=LINE('',#1065,#260);
#181=LINE('',#1066,#261);
#182=LINE('',#1068,#262);
#183=LINE('',#1070,#263);
#184=LINE('',#1077,#264);
#185=LINE('',#1083,#265);
#186=LINE('',#1089,#266);
#187=LINE('',#1095,#267);
#188=LINE('',#1100,#268);
#189=LINE('',#1102,#269);
#190=LINE('',#1104,#270);
#191=LINE('',#1106,#271);
#192=LINE('',#1108,#272);
#193=LINE('',#1110,#273);
#194=LINE('',#1112,#274);
#195=LINE('',#1113,#275);
#196=LINE('',#1116,#276);
#197=LINE('',#1118,#277);
#198=LINE('',#1120,#278);
#199=LINE('',#1122,#279);
#200=LINE('',#1124,#280);
#201=LINE('',#1126,#281);
#202=LINE('',#1128,#282);
#203=LINE('',#1129,#283);
#204=LINE('',#1132,#284);
#205=LINE('',#1134,#285);
#206=LINE('',#1136,#286);
#207=LINE('',#1137,#287);
#208=LINE('',#1140,#288);
#209=LINE('',#1142,#289);
#210=LINE('',#1143,#290);
#211=LINE('',#1146,#291);
#212=LINE('',#1147,#292);
#213=LINE('',#1150,#293);
#214=LINE('',#1151,#294);
#215=LINE('',#1154,#295);
#216=LINE('',#1155,#296);
#217=LINE('',#1158,#297);
#218=LINE('',#1160,#298);
#219=LINE('',#1161,#299);
#220=LINE('',#1164,#300);
#221=LINE('',#1165,#301);
#222=LINE('',#1168,#302);
#223=LINE('',#1170,#303);
#224=LINE('',#1171,#304);
#225=LINE('',#1174,#305);
#226=LINE('',#1175,#306);
#227=LINE('',#1178,#307);
#228=LINE('',#1179,#308);
#229=LINE('',#1182,#309);
#230=LINE('',#1183,#310);
#231=LINE('',#1186,#311);
#232=LINE('',#1187,#312);
#233=LINE('',#1190,#313);
#234=LINE('',#1191,#314);
#235=LINE('',#1194,#315);
#236=LINE('',#1195,#316);
#237=LINE('',#1197,#317);
#238=LINE('',#1201,#318);
#239=LINE('',#1202,#319);
#240=LINE('',#1204,#320);
#241=LINE('',#1207,#321);
#242=LINE('',#1208,#322);
#243=LINE('',#1211,#323);
#244=LINE('',#1212,#324);
#245=LINE('',#1215,#325);
#246=LINE('',#1216,#326);
#247=LINE('',#1218,#327);
#248=VECTOR('',#832,0.05085);
#249=VECTOR('',#839,0.05085);
#250=VECTOR('',#846,0.05085);
#251=VECTOR('',#853,0.05085);
#252=VECTOR('',#858,0.01);
#253=VECTOR('',#859,0.09);
#254=VECTOR('',#860,0.01);
#255=VECTOR('',#861,0.09);
#256=VECTOR('',#864,0.01);
#257=VECTOR('',#865,0.09);
#258=VECTOR('',#866,0.01);
#259=VECTOR('',#867,0.09);
#260=VECTOR('',#870,0.1);
#261=VECTOR('',#871,0.1);
#262=VECTOR('',#874,0.1);
#263=VECTOR('',#877,0.1);
#264=VECTOR('',#886,0.10085);
#265=VECTOR('',#893,0.10085);
#266=VECTOR('',#900,0.10085);
#267=VECTOR('',#907,0.10085);
#268=VECTOR('',#912,1.);
#269=VECTOR('',#913,1.);
#270=VECTOR('',#914,1.);
#271=VECTOR('',#915,1.);
#272=VECTOR('',#916,1.);
#273=VECTOR('',#917,1.);
#274=VECTOR('',#918,1.);
#275=VECTOR('',#919,1.);
#276=VECTOR('',#920,1.);
#277=VECTOR('',#921,1.);
#278=VECTOR('',#922,1.);
#279=VECTOR('',#923,1.);
#280=VECTOR('',#924,1.);
#281=VECTOR('',#925,1.);
#282=VECTOR('',#926,1.);
#283=VECTOR('',#927,1.);
#284=VECTOR('',#928,1.);
#285=VECTOR('',#929,1.);
#286=VECTOR('',#930,1.);
#287=VECTOR('',#931,1.);
#288=VECTOR('',#934,0.080085);
#289=VECTOR('',#935,0.080085);
#290=VECTOR('',#936,1.);
#291=VECTOR('',#939,0.080085);
#292=VECTOR('',#940,0.450085);
#293=VECTOR('',#943,0.080085);
#294=VECTOR('',#944,0.080085);
#295=VECTOR('',#947,1.);
#296=VECTOR('',#948,0.450085);
#297=VECTOR('',#951,0.310085);
#298=VECTOR('',#952,1.);
#299=VECTOR('',#953,0.310085);
#300=VECTOR('',#956,0.310085);
#301=VECTOR('',#957,1.);
#302=VECTOR('',#960,1.);
#303=VECTOR('',#961,0.115);
#304=VECTOR('',#962,0.1);
#305=VECTOR('',#965,0.1);
#306=VECTOR('',#966,0.555000000000001);
#307=VECTOR('',#969,0.1);
#308=VECTOR('',#970,0.1);
#309=VECTOR('',#973,0.1);
#310=VECTOR('',#974,0.555000000000001);
#311=VECTOR('',#977,0.055085);
#312=VECTOR('',#978,0.080085);
#313=VECTOR('',#981,0.080085);
#314=VECTOR('',#982,0.115085);
#315=VECTOR('',#985,0.080085);
#316=VECTOR('',#986,0.055085);
#317=VECTOR('',#989,0.115085);
#318=VECTOR('',#994,0.310085);
#319=VECTOR('',#995,1.);
#320=VECTOR('',#998,1.);
#321=VECTOR('',#1001,0.115);
#322=VECTOR('',#1002,1.);
#323=VECTOR('',#1005,0.37);
#324=VECTOR('',#1006,0.1);
#325=VECTOR('',#1009,0.1);
#326=VECTOR('',#1010,0.37);
#327=VECTOR('',#1013,0.1);
#328=CIRCLE('',#769,0.05085);
#329=CIRCLE('',#770,0.05085);
#330=CIRCLE('',#772,0.05085);
#331=CIRCLE('',#773,0.05085);
#332=CIRCLE('',#775,0.05085);
#333=CIRCLE('',#776,0.05085);
#334=CIRCLE('',#778,0.05085);
#335=CIRCLE('',#779,0.05085);
#336=CIRCLE('',#788,0.10085);
#337=CIRCLE('',#789,0.10085);
#338=CIRCLE('',#791,0.10085);
#339=CIRCLE('',#792,0.10085);
#340=CIRCLE('',#794,0.10085);
#341=CIRCLE('',#795,0.10085);
#342=CIRCLE('',#797,0.10085);
#343=CIRCLE('',#798,0.10085);
#344=VERTEX_POINT('',#1023);
#345=VERTEX_POINT('',#1025);
#346=VERTEX_POINT('',#1029);
#347=VERTEX_POINT('',#1031);
#348=VERTEX_POINT('',#1035);
#349=VERTEX_POINT('',#1037);
#350=VERTEX_POINT('',#1041);
#351=VERTEX_POINT('',#1043);
#352=VERTEX_POINT('',#1047);
#353=VERTEX_POINT('',#1048);
#354=VERTEX_POINT('',#1050);
#355=VERTEX_POINT('',#1052);
#356=VERTEX_POINT('',#1056);
#357=VERTEX_POINT('',#1057);
#358=VERTEX_POINT('',#1059);
#359=VERTEX_POINT('',#1061);
#360=VERTEX_POINT('',#1074);
#361=VERTEX_POINT('',#1076);
#362=VERTEX_POINT('',#1080);
#363=VERTEX_POINT('',#1082);
#364=VERTEX_POINT('',#1086);
#365=VERTEX_POINT('',#1088);
#366=VERTEX_POINT('',#1092);
#367=VERTEX_POINT('',#1094);
#368=VERTEX_POINT('',#1098);
#369=VERTEX_POINT('',#1099);
#370=VERTEX_POINT('',#1101);
#371=VERTEX_POINT('',#1103);
#372=VERTEX_POINT('',#1105);
#373=VERTEX_POINT('',#1107);
#374=VERTEX_POINT('',#1109);
#375=VERTEX_POINT('',#1111);
#376=VERTEX_POINT('',#1114);
#377=VERTEX_POINT('',#1115);
#378=VERTEX_POINT('',#1117);
#379=VERTEX_POINT('',#1119);
#380=VERTEX_POINT('',#1121);
#381=VERTEX_POINT('',#1123);
#382=VERTEX_POINT('',#1125);
#383=VERTEX_POINT('',#1127);
#384=VERTEX_POINT('',#1130);
#385=VERTEX_POINT('',#1131);
#386=VERTEX_POINT('',#1133);
#387=VERTEX_POINT('',#1135);
#388=VERTEX_POINT('',#1139);
#389=VERTEX_POINT('',#1141);
#390=VERTEX_POINT('',#1145);
#391=VERTEX_POINT('',#1149);
#392=VERTEX_POINT('',#1153);
#393=VERTEX_POINT('',#1157);
#394=VERTEX_POINT('',#1159);
#395=VERTEX_POINT('',#1163);
#396=VERTEX_POINT('',#1167);
#397=VERTEX_POINT('',#1169);
#398=VERTEX_POINT('',#1173);
#399=VERTEX_POINT('',#1177);
#400=VERTEX_POINT('',#1181);
#401=VERTEX_POINT('',#1185);
#402=VERTEX_POINT('',#1189);
#403=VERTEX_POINT('',#1193);
#404=VERTEX_POINT('',#1200);
#405=VERTEX_POINT('',#1206);
#406=VERTEX_POINT('',#1210);
#407=VERTEX_POINT('',#1214);
#408=EDGE_CURVE('',#344,#344,#328,.T.);
#409=EDGE_CURVE('',#344,#345,#168,.T.);
#410=EDGE_CURVE('',#345,#345,#329,.T.);
#411=EDGE_CURVE('',#346,#346,#330,.T.);
#412=EDGE_CURVE('',#346,#347,#169,.T.);
#413=EDGE_CURVE('',#347,#347,#331,.T.);
#414=EDGE_CURVE('',#348,#348,#332,.T.);
#415=EDGE_CURVE('',#348,#349,#170,.T.);
#416=EDGE_CURVE('',#349,#349,#333,.T.);
#417=EDGE_CURVE('',#350,#350,#334,.T.);
#418=EDGE_CURVE('',#350,#351,#171,.T.);
#419=EDGE_CURVE('',#351,#351,#335,.T.);
#420=EDGE_CURVE('',#352,#353,#172,.T.);
#421=EDGE_CURVE('',#353,#354,#173,.T.);
#422=EDGE_CURVE('',#354,#355,#174,.T.);
#423=EDGE_CURVE('',#355,#352,#175,.T.);
#424=EDGE_CURVE('',#356,#357,#176,.T.);
#425=EDGE_CURVE('',#357,#358,#177,.T.);
#426=EDGE_CURVE('',#358,#359,#178,.T.);
#427=EDGE_CURVE('',#359,#356,#179,.T.);
#428=EDGE_CURVE('',#355,#358,#180,.T.);
#429=EDGE_CURVE('',#352,#357,#181,.T.);
#430=EDGE_CURVE('',#354,#359,#182,.T.);
#431=EDGE_CURVE('',#353,#356,#183,.T.);
#432=EDGE_CURVE('',#360,#360,#336,.T.);
#433=EDGE_CURVE('',#360,#361,#184,.T.);
#434=EDGE_CURVE('',#361,#361,#337,.T.);
#435=EDGE_CURVE('',#362,#362,#338,.T.);
#436=EDGE_CURVE('',#362,#363,#185,.T.);
#437=EDGE_CURVE('',#363,#363,#339,.T.);
#438=EDGE_CURVE('',#364,#364,#340,.T.);
#439=EDGE_CURVE('',#364,#365,#186,.T.);
#440=EDGE_CURVE('',#365,#365,#341,.T.);
#441=EDGE_CURVE('',#366,#366,#342,.T.);
#442=EDGE_CURVE('',#366,#367,#187,.T.);
#443=EDGE_CURVE('',#367,#367,#343,.T.);
#444=EDGE_CURVE('',#368,#369,#188,.T.);
#445=EDGE_CURVE('',#370,#368,#189,.T.);
#446=EDGE_CURVE('',#371,#370,#190,.T.);
#447=EDGE_CURVE('',#372,#371,#191,.T.);
#448=EDGE_CURVE('',#373,#372,#192,.T.);
#449=EDGE_CURVE('',#374,#373,#193,.T.);
#450=EDGE_CURVE('',#375,#374,#194,.T.);
#451=EDGE_CURVE('',#369,#375,#195,.T.);
#452=EDGE_CURVE('',#376,#377,#196,.T.);
#453=EDGE_CURVE('',#378,#376,#197,.T.);
#454=EDGE_CURVE('',#379,#378,#198,.T.);
#455=EDGE_CURVE('',#380,#379,#199,.T.);
#456=EDGE_CURVE('',#381,#380,#200,.T.);
#457=EDGE_CURVE('',#382,#381,#201,.T.);
#458=EDGE_CURVE('',#383,#382,#202,.T.);
#459=EDGE_CURVE('',#377,#383,#203,.T.);
#460=EDGE_CURVE('',#384,#385,#204,.T.);
#461=EDGE_CURVE('',#386,#384,#205,.T.);
#462=EDGE_CURVE('',#387,#386,#206,.T.);
#463=EDGE_CURVE('',#385,#387,#207,.T.);
#464=EDGE_CURVE('',#388,#380,#208,.T.);
#465=EDGE_CURVE('',#389,#388,#209,.T.);
#466=EDGE_CURVE('',#389,#381,#210,.T.);
#467=EDGE_CURVE('',#379,#390,#211,.T.);
#468=EDGE_CURVE('',#388,#390,#212,.T.);
#469=EDGE_CURVE('',#391,#378,#213,.T.);
#470=EDGE_CURVE('',#390,#391,#214,.T.);
#471=EDGE_CURVE('',#376,#392,#215,.T.);
#472=EDGE_CURVE('',#392,#391,#216,.T.);
#473=EDGE_CURVE('',#393,#386,#217,.T.);
#474=EDGE_CURVE('',#394,#393,#218,.T.);
#475=EDGE_CURVE('',#387,#394,#219,.T.);
#476=EDGE_CURVE('',#384,#395,#220,.T.);
#477=EDGE_CURVE('',#393,#395,#221,.T.);
#478=EDGE_CURVE('',#396,#372,#222,.T.);
#479=EDGE_CURVE('',#397,#396,#223,.T.);
#480=EDGE_CURVE('',#373,#397,#224,.T.);
#481=EDGE_CURVE('',#398,#371,#225,.T.);
#482=EDGE_CURVE('',#396,#398,#226,.T.);
#483=EDGE_CURVE('',#370,#399,#227,.T.);
#484=EDGE_CURVE('',#399,#398,#228,.T.);
#485=EDGE_CURVE('',#368,#400,#229,.T.);
#486=EDGE_CURVE('',#400,#399,#230,.T.);
#487=EDGE_CURVE('',#401,#389,#231,.T.);
#488=EDGE_CURVE('',#382,#401,#232,.T.);
#489=EDGE_CURVE('',#377,#402,#233,.T.);
#490=EDGE_CURVE('',#402,#392,#234,.T.);
#491=EDGE_CURVE('',#403,#383,#235,.T.);
#492=EDGE_CURVE('',#402,#403,#236,.T.);
#493=EDGE_CURVE('',#403,#401,#237,.T.);
#494=EDGE_CURVE('',#404,#385,#238,.T.);
#495=EDGE_CURVE('',#395,#404,#239,.T.);
#496=EDGE_CURVE('',#404,#394,#240,.T.);
#497=EDGE_CURVE('',#397,#405,#241,.T.);
#498=EDGE_CURVE('',#374,#405,#242,.T.);
#499=EDGE_CURVE('',#406,#405,#243,.T.);
#500=EDGE_CURVE('',#375,#406,#244,.T.);
#501=EDGE_CURVE('',#407,#369,#245,.T.);
#502=EDGE_CURVE('',#407,#400,#246,.T.);
#503=EDGE_CURVE('',#406,#407,#247,.T.);
#504=ORIENTED_EDGE('',*,*,#408,.F.);
#505=ORIENTED_EDGE('',*,*,#409,.T.);
#506=ORIENTED_EDGE('',*,*,#410,.F.);
#507=ORIENTED_EDGE('',*,*,#409,.F.);
#508=ORIENTED_EDGE('',*,*,#411,.F.);
#509=ORIENTED_EDGE('',*,*,#412,.T.);
#510=ORIENTED_EDGE('',*,*,#413,.F.);
#511=ORIENTED_EDGE('',*,*,#412,.F.);
#512=ORIENTED_EDGE('',*,*,#414,.F.);
#513=ORIENTED_EDGE('',*,*,#415,.T.);
#514=ORIENTED_EDGE('',*,*,#416,.F.);
#515=ORIENTED_EDGE('',*,*,#415,.F.);
#516=ORIENTED_EDGE('',*,*,#417,.F.);
#517=ORIENTED_EDGE('',*,*,#418,.T.);
#518=ORIENTED_EDGE('',*,*,#419,.F.);
#519=ORIENTED_EDGE('',*,*,#418,.F.);
#520=ORIENTED_EDGE('',*,*,#420,.T.);
#521=ORIENTED_EDGE('',*,*,#421,.T.);
#522=ORIENTED_EDGE('',*,*,#422,.T.);
#523=ORIENTED_EDGE('',*,*,#423,.T.);
#524=ORIENTED_EDGE('',*,*,#424,.T.);
#525=ORIENTED_EDGE('',*,*,#425,.T.);
#526=ORIENTED_EDGE('',*,*,#426,.T.);
#527=ORIENTED_EDGE('',*,*,#427,.T.);
#528=ORIENTED_EDGE('',*,*,#428,.T.);
#529=ORIENTED_EDGE('',*,*,#425,.F.);
#530=ORIENTED_EDGE('',*,*,#429,.F.);
#531=ORIENTED_EDGE('',*,*,#423,.F.);
#532=ORIENTED_EDGE('',*,*,#408,.T.);
#533=ORIENTED_EDGE('',*,*,#411,.T.);
#534=ORIENTED_EDGE('',*,*,#414,.T.);
#535=ORIENTED_EDGE('',*,*,#417,.T.);
#536=ORIENTED_EDGE('',*,*,#430,.T.);
#537=ORIENTED_EDGE('',*,*,#426,.F.);
#538=ORIENTED_EDGE('',*,*,#428,.F.);
#539=ORIENTED_EDGE('',*,*,#422,.F.);
#540=ORIENTED_EDGE('',*,*,#431,.T.);
#541=ORIENTED_EDGE('',*,*,#427,.F.);
#542=ORIENTED_EDGE('',*,*,#430,.F.);
#543=ORIENTED_EDGE('',*,*,#421,.F.);
#544=ORIENTED_EDGE('',*,*,#410,.T.);
#545=ORIENTED_EDGE('',*,*,#413,.T.);
#546=ORIENTED_EDGE('',*,*,#416,.T.);
#547=ORIENTED_EDGE('',*,*,#419,.T.);
#548=ORIENTED_EDGE('',*,*,#429,.T.);
#549=ORIENTED_EDGE('',*,*,#424,.F.);
#550=ORIENTED_EDGE('',*,*,#431,.F.);
#551=ORIENTED_EDGE('',*,*,#420,.F.);
#552=ORIENTED_EDGE('',*,*,#432,.F.);
#553=ORIENTED_EDGE('',*,*,#433,.T.);
#554=ORIENTED_EDGE('',*,*,#434,.F.);
#555=ORIENTED_EDGE('',*,*,#433,.F.);
#556=ORIENTED_EDGE('',*,*,#435,.F.);
#557=ORIENTED_EDGE('',*,*,#436,.T.);
#558=ORIENTED_EDGE('',*,*,#437,.F.);
#559=ORIENTED_EDGE('',*,*,#436,.F.);
#560=ORIENTED_EDGE('',*,*,#438,.F.);
#561=ORIENTED_EDGE('',*,*,#439,.T.);
#562=ORIENTED_EDGE('',*,*,#440,.F.);
#563=ORIENTED_EDGE('',*,*,#439,.F.);
#564=ORIENTED_EDGE('',*,*,#441,.F.);
#565=ORIENTED_EDGE('',*,*,#442,.T.);
#566=ORIENTED_EDGE('',*,*,#443,.F.);
#567=ORIENTED_EDGE('',*,*,#442,.F.);
#568=ORIENTED_EDGE('',*,*,#444,.F.);
#569=ORIENTED_EDGE('',*,*,#445,.F.);
#570=ORIENTED_EDGE('',*,*,#446,.F.);
#571=ORIENTED_EDGE('',*,*,#447,.F.);
#572=ORIENTED_EDGE('',*,*,#448,.F.);
#573=ORIENTED_EDGE('',*,*,#449,.F.);
#574=ORIENTED_EDGE('',*,*,#450,.F.);
#575=ORIENTED_EDGE('',*,*,#451,.F.);
#576=ORIENTED_EDGE('',*,*,#432,.T.);
#577=ORIENTED_EDGE('',*,*,#435,.T.);
#578=ORIENTED_EDGE('',*,*,#438,.T.);
#579=ORIENTED_EDGE('',*,*,#441,.T.);
#580=ORIENTED_EDGE('',*,*,#452,.F.);
#581=ORIENTED_EDGE('',*,*,#453,.F.);
#582=ORIENTED_EDGE('',*,*,#454,.F.);
#583=ORIENTED_EDGE('',*,*,#455,.F.);
#584=ORIENTED_EDGE('',*,*,#456,.F.);
#585=ORIENTED_EDGE('',*,*,#457,.F.);
#586=ORIENTED_EDGE('',*,*,#458,.F.);
#587=ORIENTED_EDGE('',*,*,#459,.F.);
#588=ORIENTED_EDGE('',*,*,#460,.F.);
#589=ORIENTED_EDGE('',*,*,#461,.F.);
#590=ORIENTED_EDGE('',*,*,#462,.F.);
#591=ORIENTED_EDGE('',*,*,#463,.F.);
#592=ORIENTED_EDGE('',*,*,#456,.T.);
#593=ORIENTED_EDGE('',*,*,#464,.F.);
#594=ORIENTED_EDGE('',*,*,#465,.F.);
#595=ORIENTED_EDGE('',*,*,#466,.T.);
#596=ORIENTED_EDGE('',*,*,#455,.T.);
#597=ORIENTED_EDGE('',*,*,#467,.T.);
#598=ORIENTED_EDGE('',*,*,#468,.F.);
#599=ORIENTED_EDGE('',*,*,#464,.T.);
#600=ORIENTED_EDGE('',*,*,#454,.T.);
#601=ORIENTED_EDGE('',*,*,#469,.F.);
#602=ORIENTED_EDGE('',*,*,#470,.F.);
#603=ORIENTED_EDGE('',*,*,#467,.F.);
#604=ORIENTED_EDGE('',*,*,#453,.T.);
#605=ORIENTED_EDGE('',*,*,#471,.T.);
#606=ORIENTED_EDGE('',*,*,#472,.T.);
#607=ORIENTED_EDGE('',*,*,#469,.T.);
#608=ORIENTED_EDGE('',*,*,#462,.T.);
#609=ORIENTED_EDGE('',*,*,#473,.F.);
#610=ORIENTED_EDGE('',*,*,#474,.F.);
#611=ORIENTED_EDGE('',*,*,#475,.F.);
#612=ORIENTED_EDGE('',*,*,#461,.T.);
#613=ORIENTED_EDGE('',*,*,#476,.T.);
#614=ORIENTED_EDGE('',*,*,#477,.F.);
#615=ORIENTED_EDGE('',*,*,#473,.T.);
#616=ORIENTED_EDGE('',*,*,#448,.T.);
#617=ORIENTED_EDGE('',*,*,#478,.F.);
#618=ORIENTED_EDGE('',*,*,#479,.F.);
#619=ORIENTED_EDGE('',*,*,#480,.F.);
#620=ORIENTED_EDGE('',*,*,#447,.T.);
#621=ORIENTED_EDGE('',*,*,#481,.F.);
#622=ORIENTED_EDGE('',*,*,#482,.F.);
#623=ORIENTED_EDGE('',*,*,#478,.T.);
#624=ORIENTED_EDGE('',*,*,#446,.T.);
#625=ORIENTED_EDGE('',*,*,#483,.T.);
#626=ORIENTED_EDGE('',*,*,#484,.T.);
#627=ORIENTED_EDGE('',*,*,#481,.T.);
#628=ORIENTED_EDGE('',*,*,#445,.T.);
#629=ORIENTED_EDGE('',*,*,#485,.T.);
#630=ORIENTED_EDGE('',*,*,#486,.T.);
#631=ORIENTED_EDGE('',*,*,#483,.F.);
#632=ORIENTED_EDGE('',*,*,#457,.T.);
#633=ORIENTED_EDGE('',*,*,#466,.F.);
#634=ORIENTED_EDGE('',*,*,#487,.F.);
#635=ORIENTED_EDGE('',*,*,#488,.F.);
#636=ORIENTED_EDGE('',*,*,#452,.T.);
#637=ORIENTED_EDGE('',*,*,#489,.T.);
#638=ORIENTED_EDGE('',*,*,#490,.T.);
#639=ORIENTED_EDGE('',*,*,#471,.F.);
#640=ORIENTED_EDGE('',*,*,#459,.T.);
#641=ORIENTED_EDGE('',*,*,#491,.F.);
#642=ORIENTED_EDGE('',*,*,#492,.F.);
#643=ORIENTED_EDGE('',*,*,#489,.F.);
#644=ORIENTED_EDGE('',*,*,#458,.T.);
#645=ORIENTED_EDGE('',*,*,#488,.T.);
#646=ORIENTED_EDGE('',*,*,#493,.F.);
#647=ORIENTED_EDGE('',*,*,#491,.T.);
#648=ORIENTED_EDGE('',*,*,#490,.F.);
#649=ORIENTED_EDGE('',*,*,#492,.T.);
#650=ORIENTED_EDGE('',*,*,#493,.T.);
#651=ORIENTED_EDGE('',*,*,#487,.T.);
#652=ORIENTED_EDGE('',*,*,#465,.T.);
#653=ORIENTED_EDGE('',*,*,#468,.T.);
#654=ORIENTED_EDGE('',*,*,#470,.T.);
#655=ORIENTED_EDGE('',*,*,#472,.F.);
#656=ORIENTED_EDGE('',*,*,#460,.T.);
#657=ORIENTED_EDGE('',*,*,#494,.F.);
#658=ORIENTED_EDGE('',*,*,#495,.F.);
#659=ORIENTED_EDGE('',*,*,#476,.F.);
#660=ORIENTED_EDGE('',*,*,#463,.T.);
#661=ORIENTED_EDGE('',*,*,#475,.T.);
#662=ORIENTED_EDGE('',*,*,#496,.F.);
#663=ORIENTED_EDGE('',*,*,#494,.T.);
#664=ORIENTED_EDGE('',*,*,#449,.T.);
#665=ORIENTED_EDGE('',*,*,#480,.T.);
#666=ORIENTED_EDGE('',*,*,#497,.T.);
#667=ORIENTED_EDGE('',*,*,#498,.F.);
#668=ORIENTED_EDGE('',*,*,#450,.T.);
#669=ORIENTED_EDGE('',*,*,#498,.T.);
#670=ORIENTED_EDGE('',*,*,#499,.F.);
#671=ORIENTED_EDGE('',*,*,#500,.F.);
#672=ORIENTED_EDGE('',*,*,#444,.T.);
#673=ORIENTED_EDGE('',*,*,#501,.F.);
#674=ORIENTED_EDGE('',*,*,#502,.T.);
#675=ORIENTED_EDGE('',*,*,#485,.F.);
#676=ORIENTED_EDGE('',*,*,#451,.T.);
#677=ORIENTED_EDGE('',*,*,#500,.T.);
#678=ORIENTED_EDGE('',*,*,#503,.T.);
#679=ORIENTED_EDGE('',*,*,#501,.T.);
#680=ORIENTED_EDGE('',*,*,#486,.F.);
#681=ORIENTED_EDGE('',*,*,#502,.F.);
#682=ORIENTED_EDGE('',*,*,#503,.F.);
#683=ORIENTED_EDGE('',*,*,#499,.T.);
#684=ORIENTED_EDGE('',*,*,#497,.F.);
#685=ORIENTED_EDGE('',*,*,#479,.T.);
#686=ORIENTED_EDGE('',*,*,#482,.T.);
#687=ORIENTED_EDGE('',*,*,#484,.F.);
#688=ORIENTED_EDGE('',*,*,#434,.T.);
#689=ORIENTED_EDGE('',*,*,#437,.T.);
#690=ORIENTED_EDGE('',*,*,#440,.T.);
#691=ORIENTED_EDGE('',*,*,#443,.T.);
#692=ORIENTED_EDGE('',*,*,#474,.T.);
#693=ORIENTED_EDGE('',*,*,#477,.T.);
#694=ORIENTED_EDGE('',*,*,#495,.T.);
#695=ORIENTED_EDGE('',*,*,#496,.T.);
#696=CYLINDRICAL_SURFACE('',#768,0.05085);
#697=CYLINDRICAL_SURFACE('',#771,0.05085);
#698=CYLINDRICAL_SURFACE('',#774,0.05085);
#699=CYLINDRICAL_SURFACE('',#777,0.05085);
#700=CYLINDRICAL_SURFACE('',#787,0.10085);
#701=CYLINDRICAL_SURFACE('',#790,0.10085);
#702=CYLINDRICAL_SURFACE('',#793,0.10085);
#703=CYLINDRICAL_SURFACE('',#796,0.10085);
#704=ADVANCED_FACE('',(#75),#696,.F.);
#705=ADVANCED_FACE('',(#76),#697,.F.);
#706=ADVANCED_FACE('',(#77),#698,.F.);
#707=ADVANCED_FACE('',(#78),#699,.F.);
#708=ADVANCED_FACE('',(#79),#46,.T.);
#709=ADVANCED_FACE('',(#80),#47,.F.);
#710=ADVANCED_FACE('',(#81,#27,#28,#29,#30),#48,.F.);
#711=ADVANCED_FACE('',(#82),#49,.F.);
#712=ADVANCED_FACE('',(#83,#31,#32,#33,#34),#50,.F.);
#713=ADVANCED_FACE('',(#84),#51,.F.);
#714=ADVANCED_FACE('',(#85),#700,.F.);
#715=ADVANCED_FACE('',(#86),#701,.F.);
#716=ADVANCED_FACE('',(#87),#702,.F.);
#717=ADVANCED_FACE('',(#88),#703,.F.);
#718=ADVANCED_FACE('',(#89,#35,#36,#37,#38,#39,#40),#52,.T.);
#719=ADVANCED_FACE('',(#90),#53,.F.);
#720=ADVANCED_FACE('',(#91),#54,.T.);
#721=ADVANCED_FACE('',(#92),#55,.T.);
#722=ADVANCED_FACE('',(#93),#56,.T.);
#723=ADVANCED_FACE('',(#94),#57,.T.);
#724=ADVANCED_FACE('',(#95),#58,.T.);
#725=ADVANCED_FACE('',(#96),#59,.F.);
#726=ADVANCED_FACE('',(#97),#60,.F.);
#727=ADVANCED_FACE('',(#98),#61,.F.);
#728=ADVANCED_FACE('',(#99),#62,.F.);
#729=ADVANCED_FACE('',(#100),#63,.T.);
#730=ADVANCED_FACE('',(#101),#64,.T.);
#731=ADVANCED_FACE('',(#102),#65,.F.);
#732=ADVANCED_FACE('',(#103),#66,.T.);
#733=ADVANCED_FACE('',(#104),#67,.T.);
#734=ADVANCED_FACE('',(#105),#68,.F.);
#735=ADVANCED_FACE('',(#106),#69,.T.);
#736=ADVANCED_FACE('',(#107),#70,.T.);
#737=ADVANCED_FACE('',(#108),#71,.F.);
#738=ADVANCED_FACE('',(#109),#72,.F.);
#739=ADVANCED_FACE('',(#110),#73,.T.);
#740=ADVANCED_FACE('',(#111,#41,#42,#43,#44,#45),#74,.F.);
#741=CLOSED_SHELL('',(#704,#705,#706,#707,#708,#709,#710,#711,#712,#713));
#742=CLOSED_SHELL('',(#714,#715,#716,#717,#718,#719,#720,#721,#722,#723,
#724,#725,#726,#727,#728,#729,#730,#731,#732,#733,#734,#735,#736,#737,#738,
#739,#740));
#743=DERIVED_UNIT_ELEMENT(#747,1.);
#744=DERIVED_UNIT_ELEMENT(#1231,-3.);
#745=DERIVED_UNIT_ELEMENT(#747,1.);
#746=DERIVED_UNIT_ELEMENT(#1231,-3.);
#747=(
MASS_UNIT()
NAMED_UNIT(*)
SI_UNIT(.KILO.,.GRAM.)
);
#748=DERIVED_UNIT((#743,#744));
#749=DERIVED_UNIT((#745,#746));
#750=MEASURE_REPRESENTATION_ITEM('density measure',
POSITIVE_RATIO_MEASURE(7850.),#748);
#751=MEASURE_REPRESENTATION_ITEM('density measure',
POSITIVE_RATIO_MEASURE(7850.),#749);
#752=PROPERTY_DEFINITION_REPRESENTATION(#762,#756);
#753=PROPERTY_DEFINITION_REPRESENTATION(#763,#757);
#754=PROPERTY_DEFINITION_REPRESENTATION(#764,#758);
#755=PROPERTY_DEFINITION_REPRESENTATION(#765,#759);
#756=REPRESENTATION('material name',(#760),#1227);
#757=REPRESENTATION('density',(#750),#1227);
#758=REPRESENTATION('material name',(#761),#1228);
#759=REPRESENTATION('density',(#751),#1228);
#760=DESCRIPTIVE_REPRESENTATION_ITEM('Steel','Steel');
#761=DESCRIPTIVE_REPRESENTATION_ITEM('Steel','Steel');
#762=PROPERTY_DEFINITION('material property','material name',#1247);
#763=PROPERTY_DEFINITION('material property','density of part',#1247);
#764=PROPERTY_DEFINITION('material property','material name',#1248);
#765=PROPERTY_DEFINITION('material property','density of part',#1248);
#766=AXIS2_PLACEMENT_3D('',#1020,#824,#825);
#767=AXIS2_PLACEMENT_3D('',#1021,#826,#827);
#768=AXIS2_PLACEMENT_3D('',#1022,#828,#829);
#769=AXIS2_PLACEMENT_3D('',#1024,#830,#831);
#770=AXIS2_PLACEMENT_3D('',#1027,#833,#834);
#771=AXIS2_PLACEMENT_3D('',#1028,#835,#836);
#772=AXIS2_PLACEMENT_3D('',#1030,#837,#838);
#773=AXIS2_PLACEMENT_3D('',#1033,#840,#841);
#774=AXIS2_PLACEMENT_3D('',#1034,#842,#843);
#775=AXIS2_PLACEMENT_3D('',#1036,#844,#845);
#776=AXIS2_PLACEMENT_3D('',#1039,#847,#848);
#777=AXIS2_PLACEMENT_3D('',#1040,#849,#850);
#778=AXIS2_PLACEMENT_3D('',#1042,#851,#852);
#779=AXIS2_PLACEMENT_3D('',#1045,#854,#855);
#780=AXIS2_PLACEMENT_3D('',#1046,#856,#857);
#781=AXIS2_PLACEMENT_3D('',#1055,#862,#863);
#782=AXIS2_PLACEMENT_3D('',#1064,#868,#869);
#783=AXIS2_PLACEMENT_3D('',#1067,#872,#873);
#784=AXIS2_PLACEMENT_3D('',#1069,#875,#876);
#785=AXIS2_PLACEMENT_3D('',#1071,#878,#879);
#786=AXIS2_PLACEMENT_3D('',#1072,#880,#881);
#787=AXIS2_PLACEMENT_3D('',#1073,#882,#883);
#788=AXIS2_PLACEMENT_3D('',#1075,#884,#885);
#789=AXIS2_PLACEMENT_3D('',#1078,#887,#888);
#790=AXIS2_PLACEMENT_3D('',#1079,#889,#890);
#791=AXIS2_PLACEMENT_3D('',#1081,#891,#892);
#792=AXIS2_PLACEMENT_3D('',#1084,#894,#895);
#793=AXIS2_PLACEMENT_3D('',#1085,#896,#897);
#794=AXIS2_PLACEMENT_3D('',#1087,#898,#899);
#795=AXIS2_PLACEMENT_3D('',#1090,#901,#902);
#796=AXIS2_PLACEMENT_3D('',#1091,#903,#904);
#797=AXIS2_PLACEMENT_3D('',#1093,#905,#906);
#798=AXIS2_PLACEMENT_3D('',#1096,#908,#909);
#799=AXIS2_PLACEMENT_3D('',#1097,#910,#911);
#800=AXIS2_PLACEMENT_3D('',#1138,#932,#933);
#801=AXIS2_PLACEMENT_3D('',#1144,#937,#938);
#802=AXIS2_PLACEMENT_3D('',#1148,#941,#942);
#803=AXIS2_PLACEMENT_3D('',#1152,#945,#946);
#804=AXIS2_PLACEMENT_3D('',#1156,#949,#950);
#805=AXIS2_PLACEMENT_3D('',#1162,#954,#955);
#806=AXIS2_PLACEMENT_3D('',#1166,#958,#959);
#807=AXIS2_PLACEMENT_3D('',#1172,#963,#964);
#808=AXIS2_PLACEMENT_3D('',#1176,#967,#968);
#809=AXIS2_PLACEMENT_3D('',#1180,#971,#972);
#810=AXIS2_PLACEMENT_3D('',#1184,#975,#976);
#811=AXIS2_PLACEMENT_3D('',#1188,#979,#980);
#812=AXIS2_PLACEMENT_3D('',#1192,#983,#984);
#813=AXIS2_PLACEMENT_3D('',#1196,#987,#988);
#814=AXIS2_PLACEMENT_3D('',#1198,#990,#991);
#815=AXIS2_PLACEMENT_3D('',#1199,#992,#993);
#816=AXIS2_PLACEMENT_3D('',#1203,#996,#997);
#817=AXIS2_PLACEMENT_3D('',#1205,#999,#1000);
#818=AXIS2_PLACEMENT_3D('',#1209,#1003,#1004);
#819=AXIS2_PLACEMENT_3D('',#1213,#1007,#1008);
#820=AXIS2_PLACEMENT_3D('',#1217,#1011,#1012);
#821=AXIS2_PLACEMENT_3D('',#1219,#1014,#1015);
#822=AXIS2_PLACEMENT_3D('',#1220,#1016,#1017);
#823=AXIS2_PLACEMENT_3D('',#1221,#1018,#1019);
#824=DIRECTION('axis',(0.,0.,1.));
#825=DIRECTION('refdir',(1.,0.,0.));
#826=DIRECTION('axis',(0.,0.,1.));
#827=DIRECTION('refdir',(1.,0.,0.));
#828=DIRECTION('center_axis',(4.08691489797138E-18,2.87970265582527E-16,
1.));
#829=DIRECTION('ref_axis',(0.,1.,-2.7866011561846E-16));
#830=DIRECTION('center_axis',(3.70613571702257E-32,2.89400178878136E-16,
1.));
#831=DIRECTION('ref_axis',(0.,1.,-2.7866011561846E-16));
#832=DIRECTION('',(4.08691489797138E-18,2.87970265582527E-16,1.));
#833=DIRECTION('center_axis',(-3.70613571702257E-32,-2.89400178878136E-16,
-1.));
#834=DIRECTION('ref_axis',(0.,1.,-2.7866011561846E-16));
#835=DIRECTION('center_axis',(4.08691489797138E-18,2.87970265582527E-16,
1.));
#836=DIRECTION('ref_axis',(0.,1.,-2.7866011561846E-16));
#837=DIRECTION('center_axis',(3.70613571702257E-32,2.89400178878136E-16,
1.));
#838=DIRECTION('ref_axis',(0.,1.,-2.7866011561846E-16));
#839=DIRECTION('',(4.08691489797138E-18,2.87970265582527E-16,1.));
#840=DIRECTION('center_axis',(-3.70613571702257E-32,-2.89400178878136E-16,
-1.));
#841=DIRECTION('ref_axis',(0.,1.,-2.7866011561846E-16));
#842=DIRECTION('center_axis',(4.08691489797138E-18,2.87970265582527E-16,
1.));
#843=DIRECTION('ref_axis',(0.,1.,-2.7866011561846E-16));
#844=DIRECTION('center_axis',(3.70613571702257E-32,2.89400178878136E-16,
1.));
#845=DIRECTION('ref_axis',(0.,1.,-2.7866011561846E-16));
#846=DIRECTION('',(4.08691489797138E-18,2.87970265582527E-16,1.));
#847=DIRECTION('center_axis',(-3.70613571702257E-32,-2.89400178878136E-16,
-1.));
#848=DIRECTION('ref_axis',(0.,1.,-2.7866011561846E-16));
#849=DIRECTION('center_axis',(4.08691489797138E-18,2.87970265582527E-16,
1.));
#850=DIRECTION('ref_axis',(0.,1.,-2.7866011561846E-16));
#851=DIRECTION('center_axis',(3.70613571702257E-32,2.89400178878136E-16,
1.));
#852=DIRECTION('ref_axis',(0.,1.,-2.7866011561846E-16));
#853=DIRECTION('',(4.08691489797138E-18,2.87970265582527E-16,1.));
#854=DIRECTION('center_axis',(-3.70613571702257E-32,-2.89400178878136E-16,
-1.));
#855=DIRECTION('ref_axis',(0.,1.,-2.7866011561846E-16));
#856=DIRECTION('center_axis',(6.12323399573677E-17,-1.,8.95600344456076E-16));
#857=DIRECTION('ref_axis',(0.,-8.95600344456076E-16,-1.));
#858=DIRECTION('',(-3.08148791101958E-32,8.95600344456076E-16,1.));
#859=DIRECTION('',(-1.,-6.12323399573677E-17,5.47820073070147E-32));
#860=DIRECTION('',(3.08148791101958E-32,-8.95600344456076E-16,-1.));
#861=DIRECTION('',(1.,6.12323399573677E-17,-5.47820073070147E-32));
#862=DIRECTION('center_axis',(6.12323399573677E-17,-1.,8.95600344456076E-16));
#863=DIRECTION('ref_axis',(0.,-8.95600344456076E-16,-1.));
#864=DIRECTION('',(3.08148791101958E-32,-8.95600344456076E-16,-1.));
#865=DIRECTION('',(-1.,-6.12323399573677E-17,5.47820073070147E-32));
#866=DIRECTION('',(-3.08148791101958E-32,8.95600344456076E-16,1.));
#867=DIRECTION('',(1.,6.12323399573677E-17,-5.47820073070147E-32));
#868=DIRECTION('center_axis',(3.70613571702257E-32,2.89400178878136E-16,
1.));
#869=DIRECTION('ref_axis',(1.,0.,-3.70613571702257E-32));
#870=DIRECTION('',(-6.12323399573677E-17,1.,-2.89400178878136E-16));
#871=DIRECTION('',(-6.12323399573677E-17,1.,-2.89400178878136E-16));
#872=DIRECTION('center_axis',(1.,6.12323399573677E-17,-2.40248256474742E-32));
#873=DIRECTION('ref_axis',(-2.40248256474742E-32,0.,-1.));
#874=DIRECTION('',(-6.12323399573677E-17,1.,-2.89400178878136E-16));
#875=DIRECTION('center_axis',(-3.70613571702257E-32,-2.89400178878136E-16,
-1.));
#876=DIRECTION('ref_axis',(-1.,0.,3.70613571702257E-32));
#877=DIRECTION('',(-6.12323399573677E-17,1.,-2.89400178878136E-16));
#878=DIRECTION('center_axis',(-1.,-6.12323399573677E-17,2.40248256474742E-32));
#879=DIRECTION('ref_axis',(2.40248256474742E-32,0.,1.));
#880=DIRECTION('axis',(0.,0.,1.));
#881=DIRECTION('refdir',(1.,0.,0.));
#882=DIRECTION('center_axis',(8.10551361770675E-18,2.23836853404197E-16,
1.));
#883=DIRECTION('ref_axis',(6.12323399573677E-17,1.,-2.20266706873698E-16));
#884=DIRECTION('center_axis',(-1.95231344728788E-15,2.22228787440496E-16,
1.));
#885=DIRECTION('ref_axis',(6.12323399573677E-17,1.,-2.20266706873698E-16));
#886=DIRECTION('',(8.10551361770675E-18,2.23836853404197E-16,1.));
#887=DIRECTION('center_axis',(1.65492810695588E-17,-2.22044604925031E-16,
-1.));
#888=DIRECTION('ref_axis',(6.12323399573677E-17,1.,-2.20266706873698E-16));
#889=DIRECTION('center_axis',(8.10551361770675E-18,2.23836853404197E-16,
1.));
#890=DIRECTION('ref_axis',(6.12323399573677E-17,1.,-2.20266706873698E-16));
#891=DIRECTION('center_axis',(-1.95231344728788E-15,2.22228787440496E-16,
1.));
#892=DIRECTION('ref_axis',(6.12323399573677E-17,1.,-2.20266706873698E-16));
#893=DIRECTION('',(8.10551361770675E-18,2.23836853404197E-16,1.));
#894=DIRECTION('center_axis',(1.65492810695588E-17,-2.22044604925031E-16,
-1.));
#895=DIRECTION('ref_axis',(6.12323399573677E-17,1.,-2.20266706873698E-16));
#896=DIRECTION('center_axis',(8.10551361770675E-18,2.23836853404197E-16,
1.));
#897=DIRECTION('ref_axis',(6.12323399573677E-17,1.,-2.20266706873698E-16));
#898=DIRECTION('center_axis',(-1.95231344728788E-15,2.22228787440496E-16,
1.));
#899=DIRECTION('ref_axis',(6.12323399573677E-17,1.,-2.20266706873698E-16));
#900=DIRECTION('',(8.10551361770675E-18,2.23836853404197E-16,1.));
#901=DIRECTION('center_axis',(1.65492810695588E-17,-2.22044604925031E-16,
-1.));
#902=DIRECTION('ref_axis',(6.12323399573677E-17,1.,-2.20266706873698E-16));
#903=DIRECTION('center_axis',(8.10551361770675E-18,2.23836853404197E-16,
1.));
#904=DIRECTION('ref_axis',(6.12323399573677E-17,1.,-2.20266706873698E-16));
#905=DIRECTION('center_axis',(-1.95231344728788E-15,2.22228787440496E-16,
1.));
#906=DIRECTION('ref_axis',(6.12323399573677E-17,1.,-2.20266706873698E-16));
#907=DIRECTION('',(8.10551361770675E-18,2.23836853404197E-16,1.));
#908=DIRECTION('center_axis',(1.65492810695588E-17,-2.22044604925031E-16,
-1.));
#909=DIRECTION('ref_axis',(6.12323399573677E-17,1.,-2.20266706873698E-16));
#910=DIRECTION('center_axis',(1.95231344728788E-15,-2.22228787440496E-16,
-1.));
#911=DIRECTION('ref_axis',(-1.,0.,-1.95231344728788E-15));
#912=DIRECTION('',(1.,-6.12323399573672E-17,1.95231344728788E-15));
#913=DIRECTION('',(-6.12323399573677E-17,-1.,2.22228787440496E-16));
#914=DIRECTION('',(-1.,-4.43934464690929E-17,-1.95231344728788E-15));
#915=DIRECTION('',(2.573533128643E-17,1.,-2.22228787440496E-16));
#916=DIRECTION('',(-1.,6.12323399573672E-17,-1.95231344728788E-15));
#917=DIRECTION('',(6.12323399573677E-17,1.,-2.22228787440496E-16));
#918=DIRECTION('',(-1.,6.12323399573672E-17,-1.95231344728788E-15));
#919=DIRECTION('',(6.12323399573677E-17,1.,-2.22228787440496E-16));
#920=DIRECTION('',(1.,-6.12816766032112E-17,1.95231344728788E-15));
#921=DIRECTION('',(-2.62315165571407E-17,-1.,2.22228787440496E-16));
#922=DIRECTION('',(1.,4.57808348684426E-17,1.95231344728788E-15));
#923=DIRECTION('',(2.62315165571407E-17,1.,-2.22228787440496E-16));
#924=DIRECTION('',(-1.,-4.57808348684426E-17,-1.95231344728788E-15));
#925=DIRECTION('',(6.11830430314654E-17,1.,-2.22228787440496E-16));
#926=DIRECTION('',(-1.,6.12816766032112E-17,-1.95231344728788E-15));
#927=DIRECTION('',(-6.11830430314654E-17,-1.,2.22228787440496E-16));
#928=DIRECTION('',(-6.12323399573677E-17,-1.,2.22228787440496E-16));
#929=DIRECTION('',(1.,-6.12323399573672E-17,1.95231344728788E-15));
#930=DIRECTION('',(6.12323399573677E-17,1.,-2.22228787440496E-16));
#931=DIRECTION('',(-1.,6.12323399573672E-17,-1.95231344728788E-15));
#932=DIRECTION('center_axis',(4.57808348684415E-17,-1.,5.65982162257738E-16));
#933=DIRECTION('ref_axis',(0.,-5.65982162257738E-16,-1.));
#934=DIRECTION('',(-3.08148791101958E-32,-5.65982162257738E-16,-1.));
#935=DIRECTION('',(-1.,-4.57808348684415E-17,0.));
#936=DIRECTION('',(8.79930554285279E-17,-5.65982162257738E-16,-1.));
#937=DIRECTION('center_axis',(1.,-2.62315165571407E-17,-1.59683086498856E-32));
#938=DIRECTION('ref_axis',(-1.59683086498856E-32,0.,-1.));
#939=DIRECTION('',(3.08148791101958E-32,5.65982162257738E-16,1.));
#940=DIRECTION('',(2.62315165571407E-17,1.,-2.3313380636653E-16));
#941=DIRECTION('center_axis',(4.57808348684415E-17,-1.,5.65982162257738E-16));
#942=DIRECTION('ref_axis',(0.,-5.65982162257738E-16,-1.));
#943=DIRECTION('',(-3.08148791101958E-32,-5.65982162257738E-16,-1.));
#944=DIRECTION('',(1.,4.57808348684415E-17,0.));
#945=DIRECTION('center_axis',(-1.,2.62315165571407E-17,1.59683086498856E-32));
#946=DIRECTION('ref_axis',(1.59683086498856E-32,0.,1.));
#947=DIRECTION('',(2.17956853957368E-32,2.22151728557414E-16,1.));
#948=DIRECTION('',(2.62315165571407E-17,1.,-2.3313380636653E-16));
#949=DIRECTION('center_axis',(1.,-6.12323399573677E-17,1.9763738151259E-17));
#950=DIRECTION('ref_axis',(1.9763738151259E-17,0.,-1.));
#951=DIRECTION('',(1.9763738151259E-17,-2.22172424593764E-16,-1.));
#952=DIRECTION('',(6.12323399573677E-17,1.,-2.22044604925031E-16));
#953=DIRECTION('',(-1.9763738151259E-17,2.22172424593764E-16,1.));
#954=DIRECTION('center_axis',(-6.12323399573677E-17,-1.,2.22172424593764E-16));
#955=DIRECTION('ref_axis',(0.,-2.22172424593764E-16,-1.));
#956=DIRECTION('',(-1.9763738151259E-17,2.22172424593764E-16,1.));
#957=DIRECTION('',(1.,-6.12323399573676E-17,5.32455130064067E-17));
#958=DIRECTION('center_axis',(-6.12323399573676E-17,-1.,2.22044604925031E-16));
#959=DIRECTION('ref_axis',(0.,-2.22044604925031E-16,-1.));
#960=DIRECTION('',(-1.59060215120904E-32,-2.22044604925031E-16,-1.));
#961=DIRECTION('',(-1.,6.12323399573676E-17,-5.32455130064067E-17));
#962=DIRECTION('',(-7.04171909509728E-17,2.22044604925031E-16,1.));
#963=DIRECTION('center_axis',(-1.,2.573533128643E-17,1.01916300439803E-32));
#964=DIRECTION('ref_axis',(1.01916300439803E-32,0.,1.));
#965=DIRECTION('',(-2.46519032881566E-32,-5.61884091688423E-16,-1.));
#966=DIRECTION('',(2.573533128643E-17,1.,-2.33077458971404E-16));
#967=DIRECTION('center_axis',(4.43934464690918E-17,-1.,5.61884091688423E-16));
#968=DIRECTION('ref_axis',(0.,-5.61884091688423E-16,-1.));
#969=DIRECTION('',(2.46519032881566E-32,5.61884091688423E-16,1.));
#970=DIRECTION('',(1.,4.43934464690918E-17,0.));
#971=DIRECTION('center_axis',(1.,-6.12323399573676E-17,2.2655965784226E-16));
#972=DIRECTION('ref_axis',(2.2655965784226E-16,0.,-1.));
#973=DIRECTION('',(-2.2655965784226E-16,2.22044604925031E-16,1.));
#974=DIRECTION('',(2.573533128643E-17,1.,-2.33077458971404E-16));
#975=DIRECTION('center_axis',(1.,-6.11830430314654E-17,8.79930554285279E-17));
#976=DIRECTION('ref_axis',(8.79930554285279E-17,0.,-1.));
#977=DIRECTION('',(6.11830430314654E-17,1.,-2.21937532948662E-16));
#978=DIRECTION('',(-8.79930554285279E-17,2.22151728557414E-16,1.));
#979=DIRECTION('center_axis',(-6.12816766032117E-17,-1.,2.22151728557414E-16));
#980=DIRECTION('ref_axis',(0.,-2.22151728557414E-16,-1.));
#981=DIRECTION('',(-8.79930554285279E-17,2.22151728557414E-16,1.));
#982=DIRECTION('',(-1.,6.12816766032116E-17,-4.2610174614292E-17));
#983=DIRECTION('center_axis',(1.,-6.11830430314654E-17,8.79930554285279E-17));
#984=DIRECTION('ref_axis',(8.79930554285279E-17,0.,-1.));
#985=DIRECTION('',(8.79930554285279E-17,-2.22151728557414E-16,-1.));
#986=DIRECTION('',(-6.11830430314654E-17,-1.,2.21937532948662E-16));
#987=DIRECTION('center_axis',(6.12816766032117E-17,1.,-2.22151728557414E-16));
#988=DIRECTION('ref_axis',(0.,2.22151728557414E-16,1.));
#989=DIRECTION('',(-1.,6.12816766032116E-17,-4.2610174614292E-17));
#990=DIRECTION('center_axis',(1.06730602915173E-32,-2.3313380636653E-16,
-1.));
#991=DIRECTION('ref_axis',(-1.,0.,-1.06730602915173E-32));
#992=DIRECTION('center_axis',(1.,-6.12323399573677E-17,1.9763738151259E-17));
#993=DIRECTION('ref_axis',(1.9763738151259E-17,0.,-1.));
#994=DIRECTION('',(1.9763738151259E-17,-2.22172424593764E-16,-1.));
#995=DIRECTION('',(-6.12323399573677E-17,-1.,2.22044604925031E-16));
#996=DIRECTION('center_axis',(6.12323399573677E-17,1.,-2.22172424593764E-16));
#997=DIRECTION('ref_axis',(0.,2.22172424593764E-16,1.));
#998=DIRECTION('',(-1.,6.12323399573676E-17,-5.32455130064067E-17));
#999=DIRECTION('center_axis',(1.,-6.12323399573676E-17,7.04171909509729E-17));
#1000=DIRECTION('ref_axis',(7.04171909509729E-17,0.,-1.));
#1001=DIRECTION('',(-6.12323399573676E-17,-1.,2.22044604925031E-16));
#1002=DIRECTION('',(-7.04171909509728E-17,2.22044604925031E-16,1.));
#1003=DIRECTION('center_axis',(-6.12323399573677E-17,-1.,2.22044604925031E-16));
#1004=DIRECTION('ref_axis',(0.,-2.22044604925031E-16,-1.));
#1005=DIRECTION('',(-1.,6.12323399573677E-17,-1.65492810695589E-17));
#1006=DIRECTION('',(-2.2655965784226E-16,2.22044604925031E-16,1.));
#1007=DIRECTION('center_axis',(6.12323399573677E-17,1.,-2.22044604925031E-16));
#1008=DIRECTION('ref_axis',(0.,2.22044604925031E-16,1.));
#1009=DIRECTION('',(2.2655965784226E-16,-2.22044604925031E-16,-1.));
#1010=DIRECTION('',(-1.,6.12323399573677E-17,-1.65492810695589E-17));
#1011=DIRECTION('center_axis',(1.,-6.12323399573676E-17,2.2655965784226E-16));
#1012=DIRECTION('ref_axis',(2.2655965784226E-16,0.,-1.));
#1013=DIRECTION('',(-6.12323399573677E-17,-1.,2.22044604925031E-16));
#1014=DIRECTION('center_axis',(1.65492810695588E-17,-2.22044604925031E-16,
-1.));
#1015=DIRECTION('ref_axis',(-1.,0.,-1.65492810695588E-17));
#1016=DIRECTION('',(0.,0.,1.));
#1017=DIRECTION('',(1.,0.,0.));
#1018=DIRECTION('',(0.,0.,1.));
#1019=DIRECTION('',(1.,0.,0.));
#1020=CARTESIAN_POINT('',(0.,0.,0.));
#1021=CARTESIAN_POINT('',(0.,0.,0.));
#1022=CARTESIAN_POINT('Origin',(3.65,3.35389255480487,-2.0013497253418));
#1023=CARTESIAN_POINT('',(3.65,3.30304255480487,3.31025901827573E-5));
#1024=CARTESIAN_POINT('Origin',(3.65,3.35389255480487,3.31025901827431E-5));
#1025=CARTESIAN_POINT('',(3.65,3.30304255480487,0.200033102590183));
#1026=CARTESIAN_POINT('',(3.65,3.30304255480487,-2.0013497253418));
#1027=CARTESIAN_POINT('Origin',(3.65,3.35389255480487,0.200033102590183));
#1028=CARTESIAN_POINT('Origin',(2.55,3.30389255480487,-2.50134972534179));
#1029=CARTESIAN_POINT('',(2.55,3.25304255480487,3.31025901827573E-5));
#1030=CARTESIAN_POINT('Origin',(2.55,3.30389255480487,3.31025901827431E-5));
#1031=CARTESIAN_POINT('',(2.55,3.25304255480487,0.200033102590183));
#1032=CARTESIAN_POINT('',(2.55,3.25304255480487,-2.50134972534179));
#1033=CARTESIAN_POINT('Origin',(2.55,3.30389255480487,0.200033102590183));
#1034=CARTESIAN_POINT('Origin',(2.55,1.75389255480487,-2.40134972534179));
#1035=CARTESIAN_POINT('',(2.55,1.70304255480487,3.31025901832013E-5));
#1036=CARTESIAN_POINT('Origin',(2.55,1.75389255480487,3.31025901831872E-5));
#1037=CARTESIAN_POINT('',(2.55,1.70304255480487,0.200033102590183));
#1038=CARTESIAN_POINT('',(2.55,1.70304255480487,-2.40134972534179));
#1039=CARTESIAN_POINT('Origin',(2.55,1.75389255480487,0.200033102590183));
#1040=CARTESIAN_POINT('Origin',(3.65,1.70389255480487,-2.40134972534179));
#1041=CARTESIAN_POINT('',(3.65,1.65304255480487,3.31025901832013E-5));
#1042=CARTESIAN_POINT('Origin',(3.65,1.70389255480487,3.31025901831872E-5));
#1043=CARTESIAN_POINT('',(3.65,1.65304255480487,0.200033102590183));
#1044=CARTESIAN_POINT('',(3.65,1.65304255480487,-2.40134972534179));
#1045=CARTESIAN_POINT('Origin',(3.65,1.70389255480487,0.200033102590183));
#1046=CARTESIAN_POINT('Origin',(3.1,1.6004997253418,0.100033102590183));
#1047=CARTESIAN_POINT('',(4.,1.6004997253418,3.31025901832101E-5));
#1048=CARTESIAN_POINT('',(4.,1.6004997253418,0.200033102590183));
#1049=CARTESIAN_POINT('',(4.,1.6004997253418,0.100033102590183));
#1050=CARTESIAN_POINT('',(2.2,1.6004997253418,0.200033102590183));
#1051=CARTESIAN_POINT('',(3.1,1.6004997253418,0.200033102590183));
#1052=CARTESIAN_POINT('',(2.2,1.6004997253418,3.31025901832101E-5));
#1053=CARTESIAN_POINT('',(2.2,1.6004997253418,0.100033102590183));
#1054=CARTESIAN_POINT('',(3.1,1.6004997253418,3.31025901832101E-5));
#1055=CARTESIAN_POINT('Origin',(3.1,3.6004997253418,0.100033102590183));
#1056=CARTESIAN_POINT('',(4.,3.6004997253418,0.200033102590183));
#1057=CARTESIAN_POINT('',(4.,3.6004997253418,3.31025901826313E-5));
#1058=CARTESIAN_POINT('',(4.,3.6004997253418,0.100033102590183));
#1059=CARTESIAN_POINT('',(2.2,3.6004997253418,3.31025901826313E-5));
#1060=CARTESIAN_POINT('',(3.1,3.6004997253418,3.31025901826313E-5));
#1061=CARTESIAN_POINT('',(2.2,3.6004997253418,0.200033102590183));
#1062=CARTESIAN_POINT('',(2.2,3.6004997253418,0.100033102590183));
#1063=CARTESIAN_POINT('',(3.1,3.6004997253418,0.200033102590183));
#1064=CARTESIAN_POINT('Origin',(3.1,2.6004997253418,3.31025901829207E-5));
#1065=CARTESIAN_POINT('',(2.2,2.6004997253418,3.31025901829207E-5));
#1066=CARTESIAN_POINT('',(4.,2.6004997253418,3.31025901829207E-5));
#1067=CARTESIAN_POINT('Origin',(2.2,2.6004997253418,0.100033102590183));
#1068=CARTESIAN_POINT('',(2.2,2.6004997253418,0.200033102590183));
#1069=CARTESIAN_POINT('Origin',(3.1,2.6004997253418,0.200033102590183));
#1070=CARTESIAN_POINT('',(4.,2.6004997253418,0.200033102590183));
#1071=CARTESIAN_POINT('Origin',(4.,2.6004997253418,0.100033102590183));
#1072=CARTESIAN_POINT('',(0.,0.,0.));
#1073=CARTESIAN_POINT('Origin',(-0.549467172068023,-4.79660717053693,-2.20085));
#1074=CARTESIAN_POINT('',(-0.549467172068023,-4.89745717053693,0.000549947225287917));
#1075=CARTESIAN_POINT('Origin',(-0.549467172068023,-4.79660717053692,0.000549947225287895));
#1076=CARTESIAN_POINT('',(-0.549467172068023,-4.89745717053693,0.299699974060061));
#1077=CARTESIAN_POINT('',(-0.549467172068023,-4.89745717053693,-2.20085));
#1078=CARTESIAN_POINT('Origin',(-0.549467172068023,-4.79660717053692,0.299699974060061));
#1079=CARTESIAN_POINT('Origin',(-2.94946717206802,-4.79660717053693,-2.40085));
#1080=CARTESIAN_POINT('',(-2.94946717206802,-4.89745717053693,0.000549947225287917));
#1081=CARTESIAN_POINT('Origin',(-2.94946717206802,-4.79660717053692,0.000549947225287895));
#1082=CARTESIAN_POINT('',(-2.94946717206802,-4.89745717053693,0.299699974060061));
#1083=CARTESIAN_POINT('',(-2.94946717206802,-4.89745717053693,-2.40085));
#1084=CARTESIAN_POINT('Origin',(-2.94946717206802,-4.79660717053692,0.299699974060061));
#1085=CARTESIAN_POINT('Origin',(-3.04946717206802,6.30339282946308,-1.90085));
#1086=CARTESIAN_POINT('',(-3.04946717206802,6.20254282946308,0.000549947225285252));
#1087=CARTESIAN_POINT('Origin',(-3.04946717206802,6.30339282946308,0.00054994722528523));
#1088=CARTESIAN_POINT('',(-3.04946717206802,6.20254282946308,0.299699974060058));
#1089=CARTESIAN_POINT('',(-3.04946717206802,6.20254282946308,-1.90085));
#1090=CARTESIAN_POINT('Origin',(-3.04946717206802,6.30339282946308,0.299699974060058));
#1091=CARTESIAN_POINT('Origin',(-1.74946717206802,6.30339282946308,-2.20085));
#1092=CARTESIAN_POINT('',(-1.74946717206802,6.20254282946308,0.000549947225285252));
#1093=CARTESIAN_POINT('Origin',(-1.74946717206802,6.30339282946308,0.00054994722528523));
#1094=CARTESIAN_POINT('',(-1.74946717206802,6.20254282946308,0.299699974060058));
#1095=CARTESIAN_POINT('',(-1.74946717206802,6.20254282946308,-2.20085));
#1096=CARTESIAN_POINT('Origin',(-1.74946717206802,6.30339282946308,0.299699974060058));
#1097=CARTESIAN_POINT('Origin',(-1.55,0.700000000000002,0.000549947225286474));
#1098=CARTESIAN_POINT('',(-3.4,-5.,0.00054994722528412));
#1099=CARTESIAN_POINT('',(4.,-5.,0.000549947225298553));
#1100=CARTESIAN_POINT('',(-0.625000000000002,-5.,0.000549947225289527));
#1101=CARTESIAN_POINT('',(-3.4,6.90000000000002,0.000549947225281455));
#1102=CARTESIAN_POINT('',(-3.4,-1.65,0.000549947225283369));
#1103=CARTESIAN_POINT('',(-1.4,6.90000000000002,0.000549947225285341));
#1104=CARTESIAN_POINT('',(-1.975,6.90000000000002,0.000549947225284264));
#1105=CARTESIAN_POINT('',(-1.4,-0.699999999999998,0.000549947225287006));
#1106=CARTESIAN_POINT('',(-1.4,1.025,0.000549947225286653));
#1107=CARTESIAN_POINT('',(0.899999999999998,-0.699999999999998,0.000549947225291558));
#1108=CARTESIAN_POINT('',(-0.900000000000002,-0.699999999999998,0.00054994722528805));
#1109=CARTESIAN_POINT('',(0.899999999999998,-3.,0.000549947225292002));
#1110=CARTESIAN_POINT('',(0.899999999999998,-0.574999999999998,0.000549947225291507));
#1111=CARTESIAN_POINT('',(4.,-3.,0.000549947225298109));
#1112=CARTESIAN_POINT('',(-0.625000000000002,-3.,0.000549947225289083));
#1113=CARTESIAN_POINT('',(4.,-1.65,0.000549947225297809));
#1114=CARTESIAN_POINT('',(-1.59915,-3.49915,0.000549947225287339));
#1115=CARTESIAN_POINT('',(0.700849999999998,-3.49915,0.00054994722529178));
#1116=CARTESIAN_POINT('',(-1.,-3.49915,0.000549947225288472));
#1117=CARTESIAN_POINT('',(-1.59915,4.95085,0.000549947225285452));
#1118=CARTESIAN_POINT('',(-1.59915,0.575000000000003,0.000549947225286403));
#1119=CARTESIAN_POINT('',(-3.20085,4.95085,0.000549947225282232));
#1120=CARTESIAN_POINT('',(-1.975,4.95085,0.000549947225284702));
#1121=CARTESIAN_POINT('',(-3.20085,-4.05085,0.000549947225284231));
#1122=CARTESIAN_POINT('',(-3.20085,0.575000000000003,0.00054994722528323));
#1123=CARTESIAN_POINT('',(-1.60085,-4.05085,0.00054994722528745));
#1124=CARTESIAN_POINT('',(-1.975,-4.05085,0.000549947225286702));
#1125=CARTESIAN_POINT('',(-1.60085,-4.60085,0.000549947225287561));
#1126=CARTESIAN_POINT('',(-1.60085,-1.675,0.000549947225286901));
#1127=CARTESIAN_POINT('',(0.700849999999997,-4.60085,0.000549947225292002));
#1128=CARTESIAN_POINT('',(-1.,-4.60085,0.000549947225288706));
#1129=CARTESIAN_POINT('',(0.700849999999998,-1.675,0.000549947225291368));
#1130=CARTESIAN_POINT('',(0.63720789937563,-0.967114973120942,0.000549947225291114));
#1131=CARTESIAN_POINT('',(0.63720789937563,-2.96881497312094,0.000549947225291558));
#1132=CARTESIAN_POINT('',(0.63720789937563,-0.63398248656047,0.000549947225291029));
#1133=CARTESIAN_POINT('',(-1.36449210062437,-0.967114973120942,0.000549947225287173));
#1134=CARTESIAN_POINT('',(-0.956821050312186,-0.967114973120942,0.000549947225287969));
#1135=CARTESIAN_POINT('',(-1.36449210062437,-2.96881497312094,0.000549947225287617));
#1136=CARTESIAN_POINT('',(-1.36449210062437,-0.63398248656047,0.000549947225287104));
#1137=CARTESIAN_POINT('',(-0.956821050312186,-2.96881497312094,0.000549947225288413));
#1138=CARTESIAN_POINT('Origin',(-2.4,-4.05085,-0.700300025939939));
#1139=CARTESIAN_POINT('',(-3.20085,-4.05085,0.100549974060061));
#1140=CARTESIAN_POINT('',(-3.20085,-4.05085,-0.700300025939939));
#1141=CARTESIAN_POINT('',(-1.60085,-4.05085,0.100549974060061));
#1142=CARTESIAN_POINT('',(-2.4,-4.05085,0.100549974060061));
#1143=CARTESIAN_POINT('',(-1.60085,-4.05085,-0.70030002593994));
#1144=CARTESIAN_POINT('Origin',(-3.20085,0.450000000000003,-0.70030002593994));
#1145=CARTESIAN_POINT('',(-3.20085,4.95085,0.100549974060059));
#1146=CARTESIAN_POINT('',(-3.20085,4.95085,-0.700300025939942));
#1147=CARTESIAN_POINT('',(-3.20085,0.450000000000004,0.10054997406006));
#1148=CARTESIAN_POINT('Origin',(-2.4,4.95085,-0.700300025939942));
#1149=CARTESIAN_POINT('',(-1.59915,4.95085,0.100549974060059));
#1150=CARTESIAN_POINT('',(-1.59915,4.95085,-0.700300025939942));
#1151=CARTESIAN_POINT('',(-2.4,4.95085,0.100549974060059));
#1152=CARTESIAN_POINT('Origin',(-1.59915,0.450000000000003,-0.70030002593994));
#1153=CARTESIAN_POINT('',(-1.59915,-3.49915,0.100549974060059));
#1154=CARTESIAN_POINT('',(-1.59915,-3.49915,-0.70030002593994));
#1155=CARTESIAN_POINT('',(-1.59915,0.450000000000004,0.10054997406006));
#1156=CARTESIAN_POINT('Origin',(-1.36449210062437,-1.96796497312094,-0.30030002593994));
#1157=CARTESIAN_POINT('',(-1.36449210062437,-0.967114973120942,0.29969997406006));
#1158=CARTESIAN_POINT('',(-1.36449210062437,-0.967114973120943,-0.300300025939941));
#1159=CARTESIAN_POINT('',(-1.36449210062437,-2.96881497312094,0.29969997406006));
#1160=CARTESIAN_POINT('',(-1.36449210062437,-1.90898248656047,0.29969997406006));
#1161=CARTESIAN_POINT('',(-1.36449210062437,-2.96881497312094,-0.30030002593994));
#1162=CARTESIAN_POINT('Origin',(-0.36364210062437,-0.967114973120943,-0.30030002593994));
#1163=CARTESIAN_POINT('',(0.63720789937563,-0.967114973120942,0.29969997406006));
#1164=CARTESIAN_POINT('',(0.63720789937563,-0.967114973120943,-0.30030002593994));
#1165=CARTESIAN_POINT('',(-0.306821050312186,-0.967114973120942,0.29969997406006));
#1166=CARTESIAN_POINT('Origin',(-0.250000000000002,-0.699999999999999,-0.70030002593994));
#1167=CARTESIAN_POINT('',(-1.4,-0.699999999999998,0.29969997406006));
#1168=CARTESIAN_POINT('',(-1.4,-0.699999999999998,-0.70030002593994));
#1169=CARTESIAN_POINT('',(0.899999999999998,-0.699999999999998,0.29969997406006));
#1170=CARTESIAN_POINT('',(-0.250000000000002,-0.699999999999998,0.29969997406006));
#1171=CARTESIAN_POINT('',(0.899999999999998,-0.699999999999999,-0.70030002593994));
#1172=CARTESIAN_POINT('Origin',(-1.4,1.35,-0.700300025939941));
#1173=CARTESIAN_POINT('',(-1.4,6.90000000000002,0.299699974060058));
#1174=CARTESIAN_POINT('',(-1.4,6.90000000000002,-0.700300025939942));
#1175=CARTESIAN_POINT('',(-1.4,1.35,0.299699974060059));
#1176=CARTESIAN_POINT('Origin',(-2.4,6.90000000000002,-0.700300025939942));
#1177=CARTESIAN_POINT('',(-3.4,6.90000000000002,0.299699974060058));
#1178=CARTESIAN_POINT('',(-3.4,6.90000000000002,-0.700300025939942));
#1179=CARTESIAN_POINT('',(-2.4,6.90000000000002,0.299699974060058));
#1180=CARTESIAN_POINT('Origin',(-3.4,-4.,-0.70030002593994));
#1181=CARTESIAN_POINT('',(-3.4,-5.,0.299699974060061));
#1182=CARTESIAN_POINT('',(-3.4,-5.,-0.70030002593994));
#1183=CARTESIAN_POINT('',(-3.4,1.35,0.299699974060059));
#1184=CARTESIAN_POINT('Origin',(-1.60085,-4.05,-0.700300025939941));
#1185=CARTESIAN_POINT('',(-1.60085,-4.60085,0.100549974060059));
#1186=CARTESIAN_POINT('',(-1.60085,-4.05,0.100549974060059));
#1187=CARTESIAN_POINT('',(-1.60085,-4.60085,-0.700300025939941));
#1188=CARTESIAN_POINT('Origin',(-0.450000000000003,-3.49915,-0.700300025939941));
#1189=CARTESIAN_POINT('',(0.700849999999997,-3.49915,0.100549974060059));
#1190=CARTESIAN_POINT('',(0.700849999999998,-3.49915,-0.700300025939941));
#1191=CARTESIAN_POINT('',(-0.450000000000003,-3.49915,0.100549974060059));
#1192=CARTESIAN_POINT('Origin',(0.700849999999998,-4.05,-0.700300025939941));
#1193=CARTESIAN_POINT('',(0.700849999999997,-4.60085,0.100549974060059));
#1194=CARTESIAN_POINT('',(0.700849999999997,-4.60085,-0.700300025939941));
#1195=CARTESIAN_POINT('',(0.700849999999997,-4.05,0.100549974060059));
#1196=CARTESIAN_POINT('Origin',(-0.450000000000003,-4.60085,-0.700300025939941));
#1197=CARTESIAN_POINT('',(-0.450000000000003,-4.60085,0.100549974060059));
#1198=CARTESIAN_POINT('Origin',(-2.4,0.450000000000004,0.10054997406006));
#1199=CARTESIAN_POINT('Origin',(0.63720789937563,-1.96796497312094,-0.30030002593994));
#1200=CARTESIAN_POINT('',(0.63720789937563,-2.96881497312094,0.29969997406006));
#1201=CARTESIAN_POINT('',(0.63720789937563,-2.96881497312094,-0.300300025939939));
#1202=CARTESIAN_POINT('',(0.63720789937563,-1.90898248656047,0.29969997406006));
#1203=CARTESIAN_POINT('Origin',(-0.36364210062437,-2.96881497312094,-0.30030002593994));
#1204=CARTESIAN_POINT('',(-0.306821050312186,-2.96881497312094,0.29969997406006));
#1205=CARTESIAN_POINT('Origin',(0.899999999999998,-1.85,-0.70030002593994));
#1206=CARTESIAN_POINT('',(0.899999999999998,-3.,0.29969997406006));
#1207=CARTESIAN_POINT('',(0.899999999999998,-1.85,0.29969997406006));
#1208=CARTESIAN_POINT('',(0.899999999999998,-3.,-0.70030002593994));
#1209=CARTESIAN_POINT('Origin',(0.299999999999998,-3.,-0.70030002593994));
#1210=CARTESIAN_POINT('',(4.,-3.,0.29969997406006));
#1211=CARTESIAN_POINT('',(0.299999999999998,-3.,0.29969997406006));
#1212=CARTESIAN_POINT('',(4.,-3.,-0.70030002593994));
#1213=CARTESIAN_POINT('Origin',(0.299999999999998,-5.,-0.70030002593994));
#1214=CARTESIAN_POINT('',(4.,-5.,0.299699974060061));
#1215=CARTESIAN_POINT('',(4.,-5.,-0.70030002593994));
#1216=CARTESIAN_POINT('',(0.299999999999998,-5.,0.299699974060061));
#1217=CARTESIAN_POINT('Origin',(4.,-4.,-0.70030002593994));
#1218=CARTESIAN_POINT('',(4.,-4.,0.29969997406006));
#1219=CARTESIAN_POINT('Origin',(0.299999999999998,-4.,0.29969997406006));
#1220=CARTESIAN_POINT('',(0.,0.,0.));
#1221=CARTESIAN_POINT('',(0.,0.,0.));
#1222=UNCERTAINTY_MEASURE_WITH_UNIT(LENGTH_MEASURE(0.001),#1230,
'DISTANCE_ACCURACY_VALUE',
'Maximum model space distance between geometric entities at asserted c
onnectivities');
#1223=UNCERTAINTY_MEASURE_WITH_UNIT(LENGTH_MEASURE(0.001),#1230,
'DISTANCE_ACCURACY_VALUE',
'Maximum model space distance between geometric entities at asserted c
onnectivities');
#1224=UNCERTAINTY_MEASURE_WITH_UNIT(LENGTH_MEASURE(0.001),#1230,
'DISTANCE_ACCURACY_VALUE',
'Maximum model space distance between geometric entities at asserted c
onnectivities');
#1225=UNCERTAINTY_MEASURE_WITH_UNIT(LENGTH_MEASURE(0.001),#1230,
'DISTANCE_ACCURACY_VALUE',
'Maximum model space distance between geometric entities at asserted c
onnectivities');
#1226=(
GEOMETRIC_REPRESENTATION_CONTEXT(3)
GLOBAL_UNCERTAINTY_ASSIGNED_CONTEXT((#1222))
GLOBAL_UNIT_ASSIGNED_CONTEXT((#1230,#1232,#1233))
REPRESENTATION_CONTEXT('','3D')
);
#1227=(
GEOMETRIC_REPRESENTATION_CONTEXT(3)
GLOBAL_UNCERTAINTY_ASSIGNED_CONTEXT((#1223))
GLOBAL_UNIT_ASSIGNED_CONTEXT((#1230,#1232,#1233))
REPRESENTATION_CONTEXT('','3D')
);
#1228=(
GEOMETRIC_REPRESENTATION_CONTEXT(3)
GLOBAL_UNCERTAINTY_ASSIGNED_CONTEXT((#1224))
GLOBAL_UNIT_ASSIGNED_CONTEXT((#1230,#1232,#1233))
REPRESENTATION_CONTEXT('','3D')
);
#1229=(
GEOMETRIC_REPRESENTATION_CONTEXT(3)
GLOBAL_UNCERTAINTY_ASSIGNED_CONTEXT((#1225))
GLOBAL_UNIT_ASSIGNED_CONTEXT((#1230,#1232,#1233))
REPRESENTATION_CONTEXT('','3D')
);
#1230=(
LENGTH_UNIT()
NAMED_UNIT(*)
SI_UNIT(.CENTI.,.METRE.)
);
#1231=(
LENGTH_UNIT()
NAMED_UNIT(*)
SI_UNIT($,.METRE.)
);
#1232=(
NAMED_UNIT(*)
PLANE_ANGLE_UNIT()
SI_UNIT($,.RADIAN.)
);
#1233=(
NAMED_UNIT(*)
SI_UNIT($,.STERADIAN.)
SOLID_ANGLE_UNIT()
);
#1234=SHAPE_DEFINITION_REPRESENTATION(#1237,#1242);
#1235=SHAPE_DEFINITION_REPRESENTATION(#1238,#1243);
#1236=SHAPE_DEFINITION_REPRESENTATION(#1239,#1244);
#1237=PRODUCT_DEFINITION_SHAPE('',$,#1246);
#1238=PRODUCT_DEFINITION_SHAPE('',$,#1247);
#1239=PRODUCT_DEFINITION_SHAPE('',$,#1248);
#1240=PRODUCT_DEFINITION_SHAPE($,$,#17);
#1241=PRODUCT_DEFINITION_SHAPE($,$,#18);
#1242=SHAPE_REPRESENTATION('',(#766,#822,#823),#1226);
#1243=SHAPE_REPRESENTATION('',(#767),#1227);
#1244=SHAPE_REPRESENTATION('',(#786),#1228);
#1245=PRODUCT_DEFINITION_CONTEXT('part definition',#1256,'design');
#1246=PRODUCT_DEFINITION('2026-05-27-17-57-49-697','(Unsaved)',#1249,#1245);
#1247=PRODUCT_DEFINITION('2026-05-27-17-57-52-891','Component1',#1250,#1245);
#1248=PRODUCT_DEFINITION('2026-05-27-17-57-53-299','Component2',#1251,#1245);
#1249=PRODUCT_DEFINITION_FORMATION('',$,#1258);
#1250=PRODUCT_DEFINITION_FORMATION('',$,#1259);
#1251=PRODUCT_DEFINITION_FORMATION('',$,#1260);
#1252=PRODUCT_RELATED_PRODUCT_CATEGORY('(Unsaved)','(Unsaved)',(#1258));
#1253=PRODUCT_RELATED_PRODUCT_CATEGORY('Component1','Component1',(#1259));
#1254=PRODUCT_RELATED_PRODUCT_CATEGORY('Component2','Component2',(#1260));
#1255=APPLICATION_PROTOCOL_DEFINITION('international standard',
'automotive_design',2009,#1256);
#1256=APPLICATION_CONTEXT(
'Core Data for Automotive Mechanical Design Process');
#1257=PRODUCT_CONTEXT('part definition',#1256,'mechanical');
#1258=PRODUCT('2026-05-27-17-57-49-697','(Unsaved)',$,(#1257));
#1259=PRODUCT('2026-05-27-17-57-52-891','Component1',$,(#1257));
#1260=PRODUCT('2026-05-27-17-57-53-299','Component2',$,(#1257));
#1261=PRESENTATION_STYLE_ASSIGNMENT((#1263));
#1262=PRESENTATION_STYLE_ASSIGNMENT((#1264));
#1263=SURFACE_STYLE_USAGE(.BOTH.,#1265);
#1264=SURFACE_STYLE_USAGE(.BOTH.,#1266);
#1265=SURFACE_SIDE_STYLE('',(#1267));
#1266=SURFACE_SIDE_STYLE('',(#1268));
#1267=SURFACE_STYLE_FILL_AREA(#1269);
#1268=SURFACE_STYLE_FILL_AREA(#1270);
#1269=FILL_AREA_STYLE('Steel - Satin',(#1271));
#1270=FILL_AREA_STYLE('Base Material - Opaque',(#1272));
#1271=FILL_AREA_STYLE_COLOUR('Steel - Satin',#1273);
#1272=FILL_AREA_STYLE_COLOUR('Base Material - Opaque',#1274);
#1273=COLOUR_RGB('Steel - Satin',0.627450980392157,0.627450980392157,0.627450980392157);
#1274=COLOUR_RGB('Base Material - Opaque',0.913725490196078,0.113725490196078,
0.176470588235294);
ENDSEC;
END-ISO-10303-21;
