ISO-10303-21;
HEADER;
/* Generated by software containing ST-Developer
 * from STEP Tools, Inc. (www.steptools.com) 
 */

FILE_DESCRIPTION(
/* description */ (''),
/* implementation_level */ '2;1');

FILE_NAME(
/* name */ 'shootex surface cover.step',
/* time_stamp */ '2026-05-27T16:25:11+05:30',
/* author */ (''),
/* organization */ (''),
/* preprocessor_version */ 'ST-DEVELOPER v20.1',
/* originating_system */ 'Autodesk Translation Framework v15.8.0.0',
/* authorisation */ '');

FILE_SCHEMA (('AUTOMOTIVE_DESIGN { 1 0 10303 214 3 1 1 }'));
ENDSEC;

DATA;
#10=MECHANICAL_DESIGN_GEOMETRIC_PRESENTATION_REPRESENTATION('',(#17),#1005);
#11=ITEM_DEFINED_TRANSFORMATION($,$,#645,#676);
#12=(
REPRESENTATION_RELATIONSHIP($,$,#1016,#1015)
REPRESENTATION_RELATIONSHIP_WITH_TRANSFORMATION(#11)
SHAPE_REPRESENTATION_RELATIONSHIP()
);
#13=CONTEXT_DEPENDENT_SHAPE_REPRESENTATION(#12,#1014);
#14=NEXT_ASSEMBLY_USAGE_OCCURRENCE('Component1:1','Component1:1',
'Component1:1',#1018,#1019,'Component1:1');
#15=SHAPE_REPRESENTATION_RELATIONSHIP('SRR','None',#1016,#16);
#16=ADVANCED_BREP_SHAPE_REPRESENTATION('',(#18),#1004);
#17=STYLED_ITEM('',(#1030),#18);
#18=MANIFOLD_SOLID_BREP('Body1',#631);
#19=FACE_BOUND('',#59,.T.);
#20=FACE_BOUND('',#60,.T.);
#21=FACE_BOUND('',#61,.T.);
#22=FACE_BOUND('',#62,.T.);
#23=FACE_BOUND('',#84,.T.);
#24=FACE_BOUND('',#85,.T.);
#25=FACE_BOUND('',#86,.T.);
#26=FACE_BOUND('',#87,.T.);
#27=FACE_OUTER_BOUND('',#57,.T.);
#28=FACE_OUTER_BOUND('',#58,.T.);
#29=FACE_OUTER_BOUND('',#63,.T.);
#30=FACE_OUTER_BOUND('',#64,.T.);
#31=FACE_OUTER_BOUND('',#65,.T.);
#32=FACE_OUTER_BOUND('',#66,.T.);
#33=FACE_OUTER_BOUND('',#67,.T.);
#34=FACE_OUTER_BOUND('',#68,.T.);
#35=FACE_OUTER_BOUND('',#69,.T.);
#36=FACE_OUTER_BOUND('',#70,.T.);
#37=FACE_OUTER_BOUND('',#71,.T.);
#38=FACE_OUTER_BOUND('',#72,.T.);
#39=FACE_OUTER_BOUND('',#73,.T.);
#40=FACE_OUTER_BOUND('',#74,.T.);
#41=FACE_OUTER_BOUND('',#75,.T.);
#42=FACE_OUTER_BOUND('',#76,.T.);
#43=FACE_OUTER_BOUND('',#77,.T.);
#44=FACE_OUTER_BOUND('',#78,.T.);
#45=FACE_OUTER_BOUND('',#79,.T.);
#46=FACE_OUTER_BOUND('',#80,.T.);
#47=FACE_OUTER_BOUND('',#81,.T.);
#48=FACE_OUTER_BOUND('',#82,.T.);
#49=FACE_OUTER_BOUND('',#83,.T.);
#50=FACE_OUTER_BOUND('',#88,.T.);
#51=FACE_OUTER_BOUND('',#89,.T.);
#52=FACE_OUTER_BOUND('',#90,.T.);
#53=FACE_OUTER_BOUND('',#91,.T.);
#54=FACE_OUTER_BOUND('',#92,.T.);
#55=FACE_OUTER_BOUND('',#93,.T.);
#56=FACE_OUTER_BOUND('',#94,.T.);
#57=EDGE_LOOP('',(#403,#404,#405,#406,#407,#408,#409,#410));
#58=EDGE_LOOP('',(#411,#412,#413,#414));
#59=EDGE_LOOP('',(#415,#416,#417,#418));
#60=EDGE_LOOP('',(#419,#420,#421,#422));
#61=EDGE_LOOP('',(#423,#424,#425,#426));
#62=EDGE_LOOP('',(#427,#428,#429,#430));
#63=EDGE_LOOP('',(#431,#432,#433,#434));
#64=EDGE_LOOP('',(#435,#436,#437,#438));
#65=EDGE_LOOP('',(#439,#440,#441,#442));
#66=EDGE_LOOP('',(#443,#444,#445,#446));
#67=EDGE_LOOP('',(#447,#448,#449,#450));
#68=EDGE_LOOP('',(#451,#452,#453,#454));
#69=EDGE_LOOP('',(#455,#456,#457,#458));
#70=EDGE_LOOP('',(#459,#460,#461,#462));
#71=EDGE_LOOP('',(#463,#464,#465,#466));
#72=EDGE_LOOP('',(#467,#468,#469,#470));
#73=EDGE_LOOP('',(#471,#472,#473,#474));
#74=EDGE_LOOP('',(#475,#476,#477,#478));
#75=EDGE_LOOP('',(#479,#480,#481,#482));
#76=EDGE_LOOP('',(#483,#484,#485,#486));
#77=EDGE_LOOP('',(#487,#488,#489,#490));
#78=EDGE_LOOP('',(#491,#492,#493,#494));
#79=EDGE_LOOP('',(#495,#496,#497,#498));
#80=EDGE_LOOP('',(#499,#500,#501,#502));
#81=EDGE_LOOP('',(#503,#504,#505,#506));
#82=EDGE_LOOP('',(#507,#508,#509,#510,#511,#512,#513,#514));
#83=EDGE_LOOP('',(#515,#516,#517,#518));
#84=EDGE_LOOP('',(#519,#520,#521,#522));
#85=EDGE_LOOP('',(#523,#524,#525,#526));
#86=EDGE_LOOP('',(#527,#528,#529,#530));
#87=EDGE_LOOP('',(#531,#532,#533,#534));
#88=EDGE_LOOP('',(#535,#536,#537,#538,#539,#540,#541,#542));
#89=EDGE_LOOP('',(#543,#544,#545,#546));
#90=EDGE_LOOP('',(#547,#548,#549,#550,#551,#552,#553,#554));
#91=EDGE_LOOP('',(#555,#556,#557,#558));
#92=EDGE_LOOP('',(#559,#560,#561,#562));
#93=EDGE_LOOP('',(#563,#564,#565,#566));
#94=EDGE_LOOP('',(#567,#568,#569,#570));
#95=LINE('',#832,#179);
#96=LINE('',#834,#180);
#97=LINE('',#836,#181);
#98=LINE('',#838,#182);
#99=LINE('',#840,#183);
#100=LINE('',#842,#184);
#101=LINE('',#844,#185);
#102=LINE('',#845,#186);
#103=LINE('',#848,#187);
#104=LINE('',#850,#188);
#105=LINE('',#851,#189);
#106=LINE('',#854,#190);
#107=LINE('',#856,#191);
#108=LINE('',#858,#192);
#109=LINE('',#859,#193);
#110=LINE('',#862,#194);
#111=LINE('',#864,#195);
#112=LINE('',#866,#196);
#113=LINE('',#867,#197);
#114=LINE('',#870,#198);
#115=LINE('',#872,#199);
#116=LINE('',#874,#200);
#117=LINE('',#875,#201);
#118=LINE('',#878,#202);
#119=LINE('',#880,#203);
#120=LINE('',#882,#204);
#121=LINE('',#883,#205);
#122=LINE('',#886,#206);
#123=LINE('',#888,#207);
#124=LINE('',#889,#208);
#125=LINE('',#892,#209);
#126=LINE('',#893,#210);
#127=LINE('',#896,#211);
#128=LINE('',#897,#212);
#129=LINE('',#899,#213);
#130=LINE('',#902,#214);
#131=LINE('',#904,#215);
#132=LINE('',#905,#216);
#133=LINE('',#908,#217);
#134=LINE('',#909,#218);
#135=LINE('',#912,#219);
#136=LINE('',#913,#220);
#137=LINE('',#915,#221);
#138=LINE('',#918,#222);
#139=LINE('',#920,#223);
#140=LINE('',#921,#224);
#141=LINE('',#924,#225);
#142=LINE('',#925,#226);
#143=LINE('',#928,#227);
#144=LINE('',#929,#228);
#145=LINE('',#931,#229);
#146=LINE('',#934,#230);
#147=LINE('',#936,#231);
#148=LINE('',#937,#232);
#149=LINE('',#940,#233);
#150=LINE('',#941,#234);
#151=LINE('',#944,#235);
#152=LINE('',#945,#236);
#153=LINE('',#947,#237);
#154=LINE('',#950,#238);
#155=LINE('',#952,#239);
#156=LINE('',#953,#240);
#157=LINE('',#956,#241);
#158=LINE('',#957,#242);
#159=LINE('',#960,#243);
#160=LINE('',#961,#244);
#161=LINE('',#964,#245);
#162=LINE('',#965,#246);
#163=LINE('',#967,#247);
#164=LINE('',#968,#248);
#165=LINE('',#972,#249);
#166=LINE('',#974,#250);
#167=LINE('',#976,#251);
#168=LINE('',#978,#252);
#169=LINE('',#979,#253);
#170=LINE('',#982,#254);
#171=LINE('',#983,#255);
#172=LINE('',#986,#256);
#173=LINE('',#988,#257);
#174=LINE('',#990,#258);
#175=LINE('',#991,#259);
#176=LINE('',#993,#260);
#177=LINE('',#994,#261);
#178=LINE('',#997,#262);
#179=VECTOR('',#683,1.);
#180=VECTOR('',#684,1.);
#181=VECTOR('',#685,1.);
#182=VECTOR('',#686,1.025);
#183=VECTOR('',#687,0.01);
#184=VECTOR('',#688,1.025);
#185=VECTOR('',#689,0.01);
#186=VECTOR('',#690,1.025);
#187=VECTOR('',#693,1.);
#188=VECTOR('',#694,1.025);
#189=VECTOR('',#695,0.99);
#190=VECTOR('',#696,1.);
#191=VECTOR('',#697,1.);
#192=VECTOR('',#698,1.);
#193=VECTOR('',#699,1.);
#194=VECTOR('',#700,1.);
#195=VECTOR('',#701,1.);
#196=VECTOR('',#702,1.);
#197=VECTOR('',#703,1.);
#198=VECTOR('',#704,1.);
#199=VECTOR('',#705,1.);
#200=VECTOR('',#706,1.);
#201=VECTOR('',#707,1.);
#202=VECTOR('',#708,1.);
#203=VECTOR('',#709,1.);
#204=VECTOR('',#710,1.);
#205=VECTOR('',#711,1.);
#206=VECTOR('',#714,0.100085);
#207=VECTOR('',#715,1.);
#208=VECTOR('',#716,0.100085);
#209=VECTOR('',#719,1.);
#210=VECTOR('',#720,0.100085);
#211=VECTOR('',#723,1.);
#212=VECTOR('',#724,0.100085);
#213=VECTOR('',#727,1.);
#214=VECTOR('',#730,0.100085);
#215=VECTOR('',#731,1.);
#216=VECTOR('',#732,0.100085);
#217=VECTOR('',#735,1.);
#218=VECTOR('',#736,0.100085);
#219=VECTOR('',#739,1.);
#220=VECTOR('',#740,0.100085);
#221=VECTOR('',#743,1.);
#222=VECTOR('',#746,0.100085);
#223=VECTOR('',#747,1.);
#224=VECTOR('',#748,0.100085);
#225=VECTOR('',#751,1.);
#226=VECTOR('',#752,0.100085);
#227=VECTOR('',#755,1.);
#228=VECTOR('',#756,0.100085);
#229=VECTOR('',#759,1.);
#230=VECTOR('',#762,0.100085);
#231=VECTOR('',#763,1.);
#232=VECTOR('',#764,0.100085);
#233=VECTOR('',#767,1.);
#234=VECTOR('',#768,0.100085);
#235=VECTOR('',#771,1.);
#236=VECTOR('',#772,0.100085);
#237=VECTOR('',#775,1.);
#238=VECTOR('',#778,0.99);
#239=VECTOR('',#779,0.01);
#240=VECTOR('',#780,0.99);
#241=VECTOR('',#783,0.01);
#242=VECTOR('',#784,0.99);
#243=VECTOR('',#787,1.);
#244=VECTOR('',#788,1.025);
#245=VECTOR('',#791,1.);
#246=VECTOR('',#792,1.025);
#247=VECTOR('',#793,1.);
#248=VECTOR('',#794,1.);
#249=VECTOR('',#799,1.);
#250=VECTOR('',#800,0.08);
#251=VECTOR('',#801,1.);
#252=VECTOR('',#802,0.08);
#253=VECTOR('',#803,1.);
#254=VECTOR('',#806,1.);
#255=VECTOR('',#807,0.015);
#256=VECTOR('',#810,1.);
#257=VECTOR('',#811,0.08);
#258=VECTOR('',#812,1.);
#259=VECTOR('',#813,0.08);
#260=VECTOR('',#816,0.015);
#261=VECTOR('',#817,0.015);
#262=VECTOR('',#822,0.015);
#263=VERTEX_POINT('',#830);
#264=VERTEX_POINT('',#831);
#265=VERTEX_POINT('',#833);
#266=VERTEX_POINT('',#835);
#267=VERTEX_POINT('',#837);
#268=VERTEX_POINT('',#839);
#269=VERTEX_POINT('',#841);
#270=VERTEX_POINT('',#843);
#271=VERTEX_POINT('',#847);
#272=VERTEX_POINT('',#849);
#273=VERTEX_POINT('',#852);
#274=VERTEX_POINT('',#853);
#275=VERTEX_POINT('',#855);
#276=VERTEX_POINT('',#857);
#277=VERTEX_POINT('',#860);
#278=VERTEX_POINT('',#861);
#279=VERTEX_POINT('',#863);
#280=VERTEX_POINT('',#865);
#281=VERTEX_POINT('',#868);
#282=VERTEX_POINT('',#869);
#283=VERTEX_POINT('',#871);
#284=VERTEX_POINT('',#873);
#285=VERTEX_POINT('',#876);
#286=VERTEX_POINT('',#877);
#287=VERTEX_POINT('',#879);
#288=VERTEX_POINT('',#881);
#289=VERTEX_POINT('',#885);
#290=VERTEX_POINT('',#887);
#291=VERTEX_POINT('',#891);
#292=VERTEX_POINT('',#895);
#293=VERTEX_POINT('',#901);
#294=VERTEX_POINT('',#903);
#295=VERTEX_POINT('',#907);
#296=VERTEX_POINT('',#911);
#297=VERTEX_POINT('',#917);
#298=VERTEX_POINT('',#919);
#299=VERTEX_POINT('',#923);
#300=VERTEX_POINT('',#927);
#301=VERTEX_POINT('',#933);
#302=VERTEX_POINT('',#935);
#303=VERTEX_POINT('',#939);
#304=VERTEX_POINT('',#943);
#305=VERTEX_POINT('',#949);
#306=VERTEX_POINT('',#951);
#307=VERTEX_POINT('',#955);
#308=VERTEX_POINT('',#959);
#309=VERTEX_POINT('',#963);
#310=VERTEX_POINT('',#966);
#311=VERTEX_POINT('',#971);
#312=VERTEX_POINT('',#973);
#313=VERTEX_POINT('',#975);
#314=VERTEX_POINT('',#977);
#315=VERTEX_POINT('',#981);
#316=VERTEX_POINT('',#985);
#317=VERTEX_POINT('',#987);
#318=VERTEX_POINT('',#989);
#319=EDGE_CURVE('',#263,#264,#95,.T.);
#320=EDGE_CURVE('',#265,#263,#96,.T.);
#321=EDGE_CURVE('',#266,#265,#97,.T.);
#322=EDGE_CURVE('',#266,#267,#98,.T.);
#323=EDGE_CURVE('',#268,#267,#99,.T.);
#324=EDGE_CURVE('',#269,#268,#100,.T.);
#325=EDGE_CURVE('',#270,#269,#101,.T.);
#326=EDGE_CURVE('',#270,#264,#102,.T.);
#327=EDGE_CURVE('',#271,#266,#103,.T.);
#328=EDGE_CURVE('',#271,#272,#104,.T.);
#329=EDGE_CURVE('',#267,#272,#105,.T.);
#330=EDGE_CURVE('',#273,#274,#106,.T.);
#331=EDGE_CURVE('',#274,#275,#107,.T.);
#332=EDGE_CURVE('',#275,#276,#108,.T.);
#333=EDGE_CURVE('',#276,#273,#109,.T.);
#334=EDGE_CURVE('',#277,#278,#110,.T.);
#335=EDGE_CURVE('',#278,#279,#111,.T.);
#336=EDGE_CURVE('',#279,#280,#112,.T.);
#337=EDGE_CURVE('',#280,#277,#113,.T.);
#338=EDGE_CURVE('',#281,#282,#114,.T.);
#339=EDGE_CURVE('',#282,#283,#115,.T.);
#340=EDGE_CURVE('',#283,#284,#116,.T.);
#341=EDGE_CURVE('',#284,#281,#117,.T.);
#342=EDGE_CURVE('',#285,#286,#118,.T.);
#343=EDGE_CURVE('',#286,#287,#119,.T.);
#344=EDGE_CURVE('',#287,#288,#120,.T.);
#345=EDGE_CURVE('',#288,#285,#121,.T.);
#346=EDGE_CURVE('',#289,#275,#122,.T.);
#347=EDGE_CURVE('',#290,#289,#123,.T.);
#348=EDGE_CURVE('',#276,#290,#124,.T.);
#349=EDGE_CURVE('',#291,#290,#125,.T.);
#350=EDGE_CURVE('',#291,#273,#126,.T.);
#351=EDGE_CURVE('',#292,#291,#127,.T.);
#352=EDGE_CURVE('',#274,#292,#128,.T.);
#353=EDGE_CURVE('',#289,#292,#129,.T.);
#354=EDGE_CURVE('',#293,#279,#130,.T.);
#355=EDGE_CURVE('',#294,#293,#131,.T.);
#356=EDGE_CURVE('',#280,#294,#132,.T.);
#357=EDGE_CURVE('',#295,#294,#133,.T.);
#358=EDGE_CURVE('',#295,#277,#134,.T.);
#359=EDGE_CURVE('',#296,#295,#135,.T.);
#360=EDGE_CURVE('',#278,#296,#136,.T.);
#361=EDGE_CURVE('',#293,#296,#137,.T.);
#362=EDGE_CURVE('',#297,#283,#138,.T.);
#363=EDGE_CURVE('',#298,#297,#139,.T.);
#364=EDGE_CURVE('',#284,#298,#140,.T.);
#365=EDGE_CURVE('',#299,#298,#141,.T.);
#366=EDGE_CURVE('',#299,#281,#142,.T.);
#367=EDGE_CURVE('',#300,#299,#143,.T.);
#368=EDGE_CURVE('',#282,#300,#144,.T.);
#369=EDGE_CURVE('',#297,#300,#145,.T.);
#370=EDGE_CURVE('',#301,#287,#146,.T.);
#371=EDGE_CURVE('',#302,#301,#147,.T.);
#372=EDGE_CURVE('',#288,#302,#148,.T.);
#373=EDGE_CURVE('',#303,#302,#149,.T.);
#374=EDGE_CURVE('',#303,#285,#150,.T.);
#375=EDGE_CURVE('',#304,#303,#151,.T.);
#376=EDGE_CURVE('',#286,#304,#152,.T.);
#377=EDGE_CURVE('',#301,#304,#153,.T.);
#378=EDGE_CURVE('',#269,#305,#154,.T.);
#379=EDGE_CURVE('',#305,#306,#155,.T.);
#380=EDGE_CURVE('',#306,#270,#156,.T.);
#381=EDGE_CURVE('',#272,#307,#157,.T.);
#382=EDGE_CURVE('',#307,#268,#158,.T.);
#383=EDGE_CURVE('',#264,#308,#159,.T.);
#384=EDGE_CURVE('',#306,#308,#160,.T.);
#385=EDGE_CURVE('',#308,#309,#161,.T.);
#386=EDGE_CURVE('',#305,#307,#162,.T.);
#387=EDGE_CURVE('',#310,#271,#163,.T.);
#388=EDGE_CURVE('',#309,#310,#164,.T.);
#389=EDGE_CURVE('',#309,#311,#165,.T.);
#390=EDGE_CURVE('',#311,#312,#166,.T.);
#391=EDGE_CURVE('',#312,#313,#167,.T.);
#392=EDGE_CURVE('',#313,#314,#168,.T.);
#393=EDGE_CURVE('',#314,#263,#169,.T.);
#394=EDGE_CURVE('',#315,#310,#170,.T.);
#395=EDGE_CURVE('',#311,#315,#171,.T.);
#396=EDGE_CURVE('',#265,#316,#172,.T.);
#397=EDGE_CURVE('',#316,#317,#173,.T.);
#398=EDGE_CURVE('',#317,#318,#174,.T.);
#399=EDGE_CURVE('',#318,#315,#175,.T.);
#400=EDGE_CURVE('',#312,#318,#176,.T.);
#401=EDGE_CURVE('',#313,#317,#177,.T.);
#402=EDGE_CURVE('',#314,#316,#178,.T.);
#403=ORIENTED_EDGE('',*,*,#319,.F.);
#404=ORIENTED_EDGE('',*,*,#320,.F.);
#405=ORIENTED_EDGE('',*,*,#321,.F.);
#406=ORIENTED_EDGE('',*,*,#322,.T.);
#407=ORIENTED_EDGE('',*,*,#323,.F.);
#408=ORIENTED_EDGE('',*,*,#324,.F.);
#409=ORIENTED_EDGE('',*,*,#325,.F.);
#410=ORIENTED_EDGE('',*,*,#326,.T.);
#411=ORIENTED_EDGE('',*,*,#327,.F.);
#412=ORIENTED_EDGE('',*,*,#328,.T.);
#413=ORIENTED_EDGE('',*,*,#329,.F.);
#414=ORIENTED_EDGE('',*,*,#322,.F.);
#415=ORIENTED_EDGE('',*,*,#330,.T.);
#416=ORIENTED_EDGE('',*,*,#331,.T.);
#417=ORIENTED_EDGE('',*,*,#332,.T.);
#418=ORIENTED_EDGE('',*,*,#333,.T.);
#419=ORIENTED_EDGE('',*,*,#334,.T.);
#420=ORIENTED_EDGE('',*,*,#335,.T.);
#421=ORIENTED_EDGE('',*,*,#336,.T.);
#422=ORIENTED_EDGE('',*,*,#337,.T.);
#423=ORIENTED_EDGE('',*,*,#338,.T.);
#424=ORIENTED_EDGE('',*,*,#339,.T.);
#425=ORIENTED_EDGE('',*,*,#340,.T.);
#426=ORIENTED_EDGE('',*,*,#341,.T.);
#427=ORIENTED_EDGE('',*,*,#342,.T.);
#428=ORIENTED_EDGE('',*,*,#343,.T.);
#429=ORIENTED_EDGE('',*,*,#344,.T.);
#430=ORIENTED_EDGE('',*,*,#345,.T.);
#431=ORIENTED_EDGE('',*,*,#332,.F.);
#432=ORIENTED_EDGE('',*,*,#346,.F.);
#433=ORIENTED_EDGE('',*,*,#347,.F.);
#434=ORIENTED_EDGE('',*,*,#348,.F.);
#435=ORIENTED_EDGE('',*,*,#333,.F.);
#436=ORIENTED_EDGE('',*,*,#348,.T.);
#437=ORIENTED_EDGE('',*,*,#349,.F.);
#438=ORIENTED_EDGE('',*,*,#350,.T.);
#439=ORIENTED_EDGE('',*,*,#330,.F.);
#440=ORIENTED_EDGE('',*,*,#350,.F.);
#441=ORIENTED_EDGE('',*,*,#351,.F.);
#442=ORIENTED_EDGE('',*,*,#352,.F.);
#443=ORIENTED_EDGE('',*,*,#331,.F.);
#444=ORIENTED_EDGE('',*,*,#352,.T.);
#445=ORIENTED_EDGE('',*,*,#353,.F.);
#446=ORIENTED_EDGE('',*,*,#346,.T.);
#447=ORIENTED_EDGE('',*,*,#336,.F.);
#448=ORIENTED_EDGE('',*,*,#354,.F.);
#449=ORIENTED_EDGE('',*,*,#355,.F.);
#450=ORIENTED_EDGE('',*,*,#356,.F.);
#451=ORIENTED_EDGE('',*,*,#337,.F.);
#452=ORIENTED_EDGE('',*,*,#356,.T.);
#453=ORIENTED_EDGE('',*,*,#357,.F.);
#454=ORIENTED_EDGE('',*,*,#358,.T.);
#455=ORIENTED_EDGE('',*,*,#334,.F.);
#456=ORIENTED_EDGE('',*,*,#358,.F.);
#457=ORIENTED_EDGE('',*,*,#359,.F.);
#458=ORIENTED_EDGE('',*,*,#360,.F.);
#459=ORIENTED_EDGE('',*,*,#335,.F.);
#460=ORIENTED_EDGE('',*,*,#360,.T.);
#461=ORIENTED_EDGE('',*,*,#361,.F.);
#462=ORIENTED_EDGE('',*,*,#354,.T.);
#463=ORIENTED_EDGE('',*,*,#340,.F.);
#464=ORIENTED_EDGE('',*,*,#362,.F.);
#465=ORIENTED_EDGE('',*,*,#363,.F.);
#466=ORIENTED_EDGE('',*,*,#364,.F.);
#467=ORIENTED_EDGE('',*,*,#341,.F.);
#468=ORIENTED_EDGE('',*,*,#364,.T.);
#469=ORIENTED_EDGE('',*,*,#365,.F.);
#470=ORIENTED_EDGE('',*,*,#366,.T.);
#471=ORIENTED_EDGE('',*,*,#338,.F.);
#472=ORIENTED_EDGE('',*,*,#366,.F.);
#473=ORIENTED_EDGE('',*,*,#367,.F.);
#474=ORIENTED_EDGE('',*,*,#368,.F.);
#475=ORIENTED_EDGE('',*,*,#339,.F.);
#476=ORIENTED_EDGE('',*,*,#368,.T.);
#477=ORIENTED_EDGE('',*,*,#369,.F.);
#478=ORIENTED_EDGE('',*,*,#362,.T.);
#479=ORIENTED_EDGE('',*,*,#344,.F.);
#480=ORIENTED_EDGE('',*,*,#370,.F.);
#481=ORIENTED_EDGE('',*,*,#371,.F.);
#482=ORIENTED_EDGE('',*,*,#372,.F.);
#483=ORIENTED_EDGE('',*,*,#345,.F.);
#484=ORIENTED_EDGE('',*,*,#372,.T.);
#485=ORIENTED_EDGE('',*,*,#373,.F.);
#486=ORIENTED_EDGE('',*,*,#374,.T.);
#487=ORIENTED_EDGE('',*,*,#342,.F.);
#488=ORIENTED_EDGE('',*,*,#374,.F.);
#489=ORIENTED_EDGE('',*,*,#375,.F.);
#490=ORIENTED_EDGE('',*,*,#376,.F.);
#491=ORIENTED_EDGE('',*,*,#343,.F.);
#492=ORIENTED_EDGE('',*,*,#376,.T.);
#493=ORIENTED_EDGE('',*,*,#377,.F.);
#494=ORIENTED_EDGE('',*,*,#370,.T.);
#495=ORIENTED_EDGE('',*,*,#325,.T.);
#496=ORIENTED_EDGE('',*,*,#378,.T.);
#497=ORIENTED_EDGE('',*,*,#379,.T.);
#498=ORIENTED_EDGE('',*,*,#380,.T.);
#499=ORIENTED_EDGE('',*,*,#323,.T.);
#500=ORIENTED_EDGE('',*,*,#329,.T.);
#501=ORIENTED_EDGE('',*,*,#381,.T.);
#502=ORIENTED_EDGE('',*,*,#382,.T.);
#503=ORIENTED_EDGE('',*,*,#383,.F.);
#504=ORIENTED_EDGE('',*,*,#326,.F.);
#505=ORIENTED_EDGE('',*,*,#380,.F.);
#506=ORIENTED_EDGE('',*,*,#384,.T.);
#507=ORIENTED_EDGE('',*,*,#385,.F.);
#508=ORIENTED_EDGE('',*,*,#384,.F.);
#509=ORIENTED_EDGE('',*,*,#379,.F.);
#510=ORIENTED_EDGE('',*,*,#386,.T.);
#511=ORIENTED_EDGE('',*,*,#381,.F.);
#512=ORIENTED_EDGE('',*,*,#328,.F.);
#513=ORIENTED_EDGE('',*,*,#387,.F.);
#514=ORIENTED_EDGE('',*,*,#388,.F.);
#515=ORIENTED_EDGE('',*,*,#324,.T.);
#516=ORIENTED_EDGE('',*,*,#382,.F.);
#517=ORIENTED_EDGE('',*,*,#386,.F.);
#518=ORIENTED_EDGE('',*,*,#378,.F.);
#519=ORIENTED_EDGE('',*,*,#351,.T.);
#520=ORIENTED_EDGE('',*,*,#349,.T.);
#521=ORIENTED_EDGE('',*,*,#347,.T.);
#522=ORIENTED_EDGE('',*,*,#353,.T.);
#523=ORIENTED_EDGE('',*,*,#359,.T.);
#524=ORIENTED_EDGE('',*,*,#357,.T.);
#525=ORIENTED_EDGE('',*,*,#355,.T.);
#526=ORIENTED_EDGE('',*,*,#361,.T.);
#527=ORIENTED_EDGE('',*,*,#367,.T.);
#528=ORIENTED_EDGE('',*,*,#365,.T.);
#529=ORIENTED_EDGE('',*,*,#363,.T.);
#530=ORIENTED_EDGE('',*,*,#369,.T.);
#531=ORIENTED_EDGE('',*,*,#375,.T.);
#532=ORIENTED_EDGE('',*,*,#373,.T.);
#533=ORIENTED_EDGE('',*,*,#371,.T.);
#534=ORIENTED_EDGE('',*,*,#377,.T.);
#535=ORIENTED_EDGE('',*,*,#319,.T.);
#536=ORIENTED_EDGE('',*,*,#383,.T.);
#537=ORIENTED_EDGE('',*,*,#385,.T.);
#538=ORIENTED_EDGE('',*,*,#389,.T.);
#539=ORIENTED_EDGE('',*,*,#390,.T.);
#540=ORIENTED_EDGE('',*,*,#391,.T.);
#541=ORIENTED_EDGE('',*,*,#392,.T.);
#542=ORIENTED_EDGE('',*,*,#393,.T.);
#543=ORIENTED_EDGE('',*,*,#388,.T.);
#544=ORIENTED_EDGE('',*,*,#394,.F.);
#545=ORIENTED_EDGE('',*,*,#395,.F.);
#546=ORIENTED_EDGE('',*,*,#389,.F.);
#547=ORIENTED_EDGE('',*,*,#321,.T.);
#548=ORIENTED_EDGE('',*,*,#396,.T.);
#549=ORIENTED_EDGE('',*,*,#397,.T.);
#550=ORIENTED_EDGE('',*,*,#398,.T.);
#551=ORIENTED_EDGE('',*,*,#399,.T.);
#552=ORIENTED_EDGE('',*,*,#394,.T.);
#553=ORIENTED_EDGE('',*,*,#387,.T.);
#554=ORIENTED_EDGE('',*,*,#327,.T.);
#555=ORIENTED_EDGE('',*,*,#400,.T.);
#556=ORIENTED_EDGE('',*,*,#398,.F.);
#557=ORIENTED_EDGE('',*,*,#401,.F.);
#558=ORIENTED_EDGE('',*,*,#391,.F.);
#559=ORIENTED_EDGE('',*,*,#395,.T.);
#560=ORIENTED_EDGE('',*,*,#399,.F.);
#561=ORIENTED_EDGE('',*,*,#400,.F.);
#562=ORIENTED_EDGE('',*,*,#390,.F.);
#563=ORIENTED_EDGE('',*,*,#320,.T.);
#564=ORIENTED_EDGE('',*,*,#393,.F.);
#565=ORIENTED_EDGE('',*,*,#402,.T.);
#566=ORIENTED_EDGE('',*,*,#396,.F.);
#567=ORIENTED_EDGE('',*,*,#401,.T.);
#568=ORIENTED_EDGE('',*,*,#397,.F.);
#569=ORIENTED_EDGE('',*,*,#402,.F.);
#570=ORIENTED_EDGE('',*,*,#392,.F.);
#571=PLANE('',#646);
#572=PLANE('',#647);
#573=PLANE('',#648);
#574=PLANE('',#649);
#575=PLANE('',#650);
#576=PLANE('',#651);
#577=PLANE('',#652);
#578=PLANE('',#653);
#579=PLANE('',#654);
#580=PLANE('',#655);
#581=PLANE('',#656);
#582=PLANE('',#657);
#583=PLANE('',#658);
#584=PLANE('',#659);
#585=PLANE('',#660);
#586=PLANE('',#661);
#587=PLANE('',#662);
#588=PLANE('',#663);
#589=PLANE('',#664);
#590=PLANE('',#665);
#591=PLANE('',#666);
#592=PLANE('',#667);
#593=PLANE('',#668);
#594=PLANE('',#669);
#595=PLANE('',#670);
#596=PLANE('',#671);
#597=PLANE('',#672);
#598=PLANE('',#673);
#599=PLANE('',#674);
#600=PLANE('',#675);
#601=ADVANCED_FACE('',(#27),#571,.F.);
#602=ADVANCED_FACE('',(#28,#19,#20,#21,#22),#572,.F.);
#603=ADVANCED_FACE('',(#29),#573,.F.);
#604=ADVANCED_FACE('',(#30),#574,.T.);
#605=ADVANCED_FACE('',(#31),#575,.T.);
#606=ADVANCED_FACE('',(#32),#576,.T.);
#607=ADVANCED_FACE('',(#33),#577,.F.);
#608=ADVANCED_FACE('',(#34),#578,.T.);
#609=ADVANCED_FACE('',(#35),#579,.T.);
#610=ADVANCED_FACE('',(#36),#580,.T.);
#611=ADVANCED_FACE('',(#37),#581,.F.);
#612=ADVANCED_FACE('',(#38),#582,.T.);
#613=ADVANCED_FACE('',(#39),#583,.T.);
#614=ADVANCED_FACE('',(#40),#584,.T.);
#615=ADVANCED_FACE('',(#41),#585,.F.);
#616=ADVANCED_FACE('',(#42),#586,.T.);
#617=ADVANCED_FACE('',(#43),#587,.T.);
#618=ADVANCED_FACE('',(#44),#588,.T.);
#619=ADVANCED_FACE('',(#45),#589,.T.);
#620=ADVANCED_FACE('',(#46),#590,.F.);
#621=ADVANCED_FACE('',(#47),#591,.F.);
#622=ADVANCED_FACE('',(#48),#592,.F.);
#623=ADVANCED_FACE('',(#49,#23,#24,#25,#26),#593,.F.);
#624=ADVANCED_FACE('',(#50),#594,.T.);
#625=ADVANCED_FACE('',(#51),#595,.F.);
#626=ADVANCED_FACE('',(#52),#596,.F.);
#627=ADVANCED_FACE('',(#53),#597,.F.);
#628=ADVANCED_FACE('',(#54),#598,.F.);
#629=ADVANCED_FACE('',(#55),#599,.F.);
#630=ADVANCED_FACE('',(#56),#600,.F.);
#631=CLOSED_SHELL('',(#601,#602,#603,#604,#605,#606,#607,#608,#609,#610,
#611,#612,#613,#614,#615,#616,#617,#618,#619,#620,#621,#622,#623,#624,#625,
#626,#627,#628,#629,#630));
#632=DERIVED_UNIT_ELEMENT(#634,1.);
#633=DERIVED_UNIT_ELEMENT(#1007,-3.);
#634=(
MASS_UNIT()
NAMED_UNIT(*)
SI_UNIT(.KILO.,.GRAM.)
);
#635=DERIVED_UNIT((#632,#633));
#636=MEASURE_REPRESENTATION_ITEM('density measure',
POSITIVE_RATIO_MEASURE(7850.),#635);
#637=PROPERTY_DEFINITION_REPRESENTATION(#642,#639);
#638=PROPERTY_DEFINITION_REPRESENTATION(#643,#640);
#639=REPRESENTATION('material name',(#641),#1004);
#640=REPRESENTATION('density',(#636),#1004);
#641=DESCRIPTIVE_REPRESENTATION_ITEM('Steel','Steel');
#642=PROPERTY_DEFINITION('material property','material name',#1019);
#643=PROPERTY_DEFINITION('material property','density of part',#1019);
#644=AXIS2_PLACEMENT_3D('',#827,#677,#678);
#645=AXIS2_PLACEMENT_3D('',#828,#679,#680);
#646=AXIS2_PLACEMENT_3D('',#829,#681,#682);
#647=AXIS2_PLACEMENT_3D('',#846,#691,#692);
#648=AXIS2_PLACEMENT_3D('',#884,#712,#713);
#649=AXIS2_PLACEMENT_3D('',#890,#717,#718);
#650=AXIS2_PLACEMENT_3D('',#894,#721,#722);
#651=AXIS2_PLACEMENT_3D('',#898,#725,#726);
#652=AXIS2_PLACEMENT_3D('',#900,#728,#729);
#653=AXIS2_PLACEMENT_3D('',#906,#733,#734);
#654=AXIS2_PLACEMENT_3D('',#910,#737,#738);
#655=AXIS2_PLACEMENT_3D('',#914,#741,#742);
#656=AXIS2_PLACEMENT_3D('',#916,#744,#745);
#657=AXIS2_PLACEMENT_3D('',#922,#749,#750);
#658=AXIS2_PLACEMENT_3D('',#926,#753,#754);
#659=AXIS2_PLACEMENT_3D('',#930,#757,#758);
#660=AXIS2_PLACEMENT_3D('',#932,#760,#761);
#661=AXIS2_PLACEMENT_3D('',#938,#765,#766);
#662=AXIS2_PLACEMENT_3D('',#942,#769,#770);
#663=AXIS2_PLACEMENT_3D('',#946,#773,#774);
#664=AXIS2_PLACEMENT_3D('',#948,#776,#777);
#665=AXIS2_PLACEMENT_3D('',#954,#781,#782);
#666=AXIS2_PLACEMENT_3D('',#958,#785,#786);
#667=AXIS2_PLACEMENT_3D('',#962,#789,#790);
#668=AXIS2_PLACEMENT_3D('',#969,#795,#796);
#669=AXIS2_PLACEMENT_3D('',#970,#797,#798);
#670=AXIS2_PLACEMENT_3D('',#980,#804,#805);
#671=AXIS2_PLACEMENT_3D('',#984,#808,#809);
#672=AXIS2_PLACEMENT_3D('',#992,#814,#815);
#673=AXIS2_PLACEMENT_3D('',#995,#818,#819);
#674=AXIS2_PLACEMENT_3D('',#996,#820,#821);
#675=AXIS2_PLACEMENT_3D('',#998,#823,#824);
#676=AXIS2_PLACEMENT_3D('',#999,#825,#826);
#677=DIRECTION('axis',(0.,0.,1.));
#678=DIRECTION('refdir',(1.,0.,0.));
#679=DIRECTION('axis',(0.,0.,1.));
#680=DIRECTION('refdir',(1.,0.,0.));
#681=DIRECTION('center_axis',(-6.12323399573677E-17,1.,-2.22044604925031E-16));
#682=DIRECTION('ref_axis',(0.,2.22044604925031E-16,1.));
#683=DIRECTION('',(-1.14810637420065E-17,-2.22044604925031E-16,-1.));
#684=DIRECTION('',(-1.,-6.12323399573676E-17,3.26572479772628E-16));
#685=DIRECTION('',(1.14810637420065E-17,2.22044604925031E-16,1.));
#686=DIRECTION('',(1.,6.12323399573677E-17,-5.97388682510934E-19));
#687=DIRECTION('',(-6.27631484563019E-15,-2.22044604925032E-16,-1.));
#688=DIRECTION('',(1.,6.12323399573677E-17,-5.97388682510934E-19));
#689=DIRECTION('',(6.27631484563019E-15,2.22044604925032E-16,1.));
#690=DIRECTION('',(1.,6.12323399573677E-17,-5.97388682510934E-19));
#691=DIRECTION('center_axis',(5.9738868251092E-19,2.22044604925031E-16,
1.));
#692=DIRECTION('ref_axis',(1.,0.,-5.9738868251092E-19));
#693=DIRECTION('',(6.12323399573677E-17,-1.,2.22044604925031E-16));
#694=DIRECTION('',(1.,6.12323399573677E-17,-5.97388682510934E-19));
#695=DIRECTION('',(-6.12323399573677E-17,1.,-2.22044604925031E-16));
#696=DIRECTION('',(-6.13095017899473E-17,1.,-2.22044604925031E-16));
#697=DIRECTION('',(-1.,-6.11552752377678E-17,5.97388682510934E-19));
#698=DIRECTION('',(6.13095017899473E-17,-1.,2.22044604925031E-16));
#699=DIRECTION('',(1.,6.11552752377678E-17,-5.97388682510934E-19));
#700=DIRECTION('',(-6.13095017899473E-17,1.,-2.22044604925031E-16));
#701=DIRECTION('',(-1.,-6.11552752377678E-17,5.97388682510934E-19));
#702=DIRECTION('',(6.13095017899473E-17,-1.,2.22044604925031E-16));
#703=DIRECTION('',(1.,6.11552752377678E-17,-5.97388682510934E-19));
#704=DIRECTION('',(-6.13095017899473E-17,1.,-2.22044604925031E-16));
#705=DIRECTION('',(-1.,-6.11552752377678E-17,5.97388682510934E-19));
#706=DIRECTION('',(6.13095017899473E-17,-1.,2.22044604925031E-16));
#707=DIRECTION('',(1.,6.11552752377678E-17,-5.97388682510934E-19));
#708=DIRECTION('',(-6.13095017899473E-17,1.,-2.22044604925031E-16));
#709=DIRECTION('',(-1.,-6.11552752377678E-17,5.97388682510934E-19));
#710=DIRECTION('',(6.13095017899473E-17,-1.,2.22044604925031E-16));
#711=DIRECTION('',(1.,6.11552752377678E-17,-5.97388682510934E-19));
#712=DIRECTION('center_axis',(-1.,-6.13095017899473E-17,2.45241379546494E-17));
#713=DIRECTION('ref_axis',(2.45241379546494E-17,0.,1.));
#714=DIRECTION('',(-2.45241379546494E-17,-2.2204765836802E-16,-1.));
#715=DIRECTION('',(-6.13095017899473E-17,1.,-2.22044604925031E-16));
#716=DIRECTION('',(2.45241379546494E-17,2.2204765836802E-16,1.));
#717=DIRECTION('center_axis',(-6.11552752377678E-17,1.,-2.2204765836802E-16));
#718=DIRECTION('ref_axis',(0.,2.2204765836802E-16,1.));
#719=DIRECTION('',(-1.,-6.11552752377678E-17,5.97388682510934E-19));
#720=DIRECTION('',(-2.45241379546494E-17,-2.2204765836802E-16,-1.));
#721=DIRECTION('center_axis',(-1.,-6.13095017899473E-17,2.45241379546494E-17));
#722=DIRECTION('ref_axis',(2.45241379546494E-17,0.,1.));
#723=DIRECTION('',(6.13095017899473E-17,-1.,2.22044604925031E-16));
#724=DIRECTION('',(2.45241379546494E-17,2.2204765836802E-16,1.));
#725=DIRECTION('center_axis',(6.11552752377678E-17,-1.,2.2204765836802E-16));
#726=DIRECTION('ref_axis',(0.,-2.2204765836802E-16,-1.));
#727=DIRECTION('',(1.,6.11552752377678E-17,-5.97388682510934E-19));
#728=DIRECTION('center_axis',(-1.,-6.13095017899473E-17,2.45241379546494E-17));
#729=DIRECTION('ref_axis',(2.45241379546494E-17,0.,1.));
#730=DIRECTION('',(-2.45241379546494E-17,-2.2204765836802E-16,-1.));
#731=DIRECTION('',(-6.13095017899473E-17,1.,-2.22044604925031E-16));
#732=DIRECTION('',(2.45241379546494E-17,2.2204765836802E-16,1.));
#733=DIRECTION('center_axis',(-6.11552752377678E-17,1.,-2.2204765836802E-16));
#734=DIRECTION('ref_axis',(0.,2.2204765836802E-16,1.));
#735=DIRECTION('',(-1.,-6.11552752377678E-17,5.97388682510934E-19));
#736=DIRECTION('',(-2.45241379546494E-17,-2.2204765836802E-16,-1.));
#737=DIRECTION('center_axis',(-1.,-6.13095017899473E-17,2.45241379546494E-17));
#738=DIRECTION('ref_axis',(2.45241379546494E-17,0.,1.));
#739=DIRECTION('',(6.13095017899473E-17,-1.,2.22044604925031E-16));
#740=DIRECTION('',(2.45241379546494E-17,2.2204765836802E-16,1.));
#741=DIRECTION('center_axis',(6.11552752377678E-17,-1.,2.2204765836802E-16));
#742=DIRECTION('ref_axis',(0.,-2.2204765836802E-16,-1.));
#743=DIRECTION('',(1.,6.11552752377678E-17,-5.97388682510934E-19));
#744=DIRECTION('center_axis',(-1.,-6.13095017899473E-17,2.45241379546494E-17));
#745=DIRECTION('ref_axis',(2.45241379546494E-17,0.,1.));
#746=DIRECTION('',(-2.45241379546494E-17,-2.2204765836802E-16,-1.));
#747=DIRECTION('',(-6.13095017899473E-17,1.,-2.22044604925031E-16));
#748=DIRECTION('',(2.45241379546494E-17,2.2204765836802E-16,1.));
#749=DIRECTION('center_axis',(-6.11552752377678E-17,1.,-2.2204765836802E-16));
#750=DIRECTION('ref_axis',(0.,2.2204765836802E-16,1.));
#751=DIRECTION('',(-1.,-6.11552752377678E-17,5.97388682510934E-19));
#752=DIRECTION('',(-2.45241379546494E-17,-2.2204765836802E-16,-1.));
#753=DIRECTION('center_axis',(-1.,-6.13095017899473E-17,2.45241379546494E-17));
#754=DIRECTION('ref_axis',(2.45241379546494E-17,0.,1.));
#755=DIRECTION('',(6.13095017899473E-17,-1.,2.22044604925031E-16));
#756=DIRECTION('',(2.45241379546494E-17,2.2204765836802E-16,1.));
#757=DIRECTION('center_axis',(6.11552752377678E-17,-1.,2.2204765836802E-16));
#758=DIRECTION('ref_axis',(0.,-2.2204765836802E-16,-1.));
#759=DIRECTION('',(1.,6.11552752377678E-17,-5.97388682510934E-19));
#760=DIRECTION('center_axis',(-1.,-6.13095017899473E-17,2.45241379546494E-17));
#761=DIRECTION('ref_axis',(2.45241379546494E-17,0.,1.));
#762=DIRECTION('',(-2.45241379546494E-17,-2.2204765836802E-16,-1.));
#763=DIRECTION('',(-6.13095017899473E-17,1.,-2.22044604925031E-16));
#764=DIRECTION('',(2.45241379546494E-17,2.2204765836802E-16,1.));
#765=DIRECTION('center_axis',(-6.11552752377678E-17,1.,-2.2204765836802E-16));
#766=DIRECTION('ref_axis',(0.,2.2204765836802E-16,1.));
#767=DIRECTION('',(-1.,-6.11552752377678E-17,5.97388682510934E-19));
#768=DIRECTION('',(-2.45241379546494E-17,-2.2204765836802E-16,-1.));
#769=DIRECTION('center_axis',(-1.,-6.13095017899473E-17,2.45241379546494E-17));
#770=DIRECTION('ref_axis',(2.45241379546494E-17,0.,1.));
#771=DIRECTION('',(6.13095017899473E-17,-1.,2.22044604925031E-16));
#772=DIRECTION('',(2.45241379546494E-17,2.2204765836802E-16,1.));
#773=DIRECTION('center_axis',(6.11552752377678E-17,-1.,2.2204765836802E-16));
#774=DIRECTION('ref_axis',(0.,-2.2204765836802E-16,-1.));
#775=DIRECTION('',(1.,6.11552752377678E-17,-5.97388682510934E-19));
#776=DIRECTION('center_axis',(-1.,-6.12323399573663E-17,6.27631484563019E-15));
#777=DIRECTION('ref_axis',(6.27631484563019E-15,0.,1.));
#778=DIRECTION('',(-6.12323399573677E-17,1.,-2.22044604925031E-16));
#779=DIRECTION('',(-6.27631484563019E-15,-2.22044604925032E-16,-1.));
#780=DIRECTION('',(6.12323399573677E-17,-1.,2.22044604925031E-16));
#781=DIRECTION('center_axis',(-1.,-6.12323399573663E-17,6.27631484563019E-15));
#782=DIRECTION('ref_axis',(6.27631484563019E-15,0.,1.));
#783=DIRECTION('',(6.27631484563019E-15,2.22044604925032E-16,1.));
#784=DIRECTION('',(6.12323399573677E-17,-1.,2.22044604925031E-16));
#785=DIRECTION('center_axis',(5.9738868251092E-19,2.22044604925031E-16,
1.));
#786=DIRECTION('ref_axis',(1.,0.,-5.9738868251092E-19));
#787=DIRECTION('',(-6.12323399573677E-17,1.,-2.22044604925031E-16));
#788=DIRECTION('',(1.,6.12323399573677E-17,-5.97388682510934E-19));
#789=DIRECTION('center_axis',(6.12323399573677E-17,-1.,2.22044604925031E-16));
#790=DIRECTION('ref_axis',(0.,-2.22044604925031E-16,-1.));
#791=DIRECTION('',(1.14810637420065E-17,2.22044604925031E-16,1.));
#792=DIRECTION('',(1.,6.12323399573677E-17,-5.97388682510934E-19));
#793=DIRECTION('',(-1.14810637420065E-17,-2.22044604925031E-16,-1.));
#794=DIRECTION('',(1.,6.12323399573676E-17,-3.26572479772628E-16));
#795=DIRECTION('center_axis',(-5.9738868251092E-19,-2.22044604925031E-16,
-1.));
#796=DIRECTION('ref_axis',(-1.,0.,5.9738868251092E-19));
#797=DIRECTION('center_axis',(-1.,-6.12323399573677E-17,1.14810637420065E-17));
#798=DIRECTION('ref_axis',(1.14810637420065E-17,0.,1.));
#799=DIRECTION('',(-6.12323399573677E-17,1.,-2.22044604925031E-16));
#800=DIRECTION('',(-1.14810637420065E-17,-2.22044604925031E-16,-1.));
#801=DIRECTION('',(6.12323399573677E-17,-1.,2.22044604925031E-16));
#802=DIRECTION('',(1.14810637420065E-17,2.22044604925031E-16,1.));
#803=DIRECTION('',(-6.12323399573677E-17,1.,-2.22044604925031E-16));
#804=DIRECTION('center_axis',(-3.26572479772628E-16,-2.22044604925031E-16,
-1.));
#805=DIRECTION('ref_axis',(-1.,0.,3.26572479772628E-16));
#806=DIRECTION('',(6.12323399573677E-17,-1.,2.22044604925031E-16));
#807=DIRECTION('',(1.,6.12323399573676E-17,-3.26572479772628E-16));
#808=DIRECTION('center_axis',(-1.,-6.12323399573677E-17,1.14810637420065E-17));
#809=DIRECTION('ref_axis',(1.14810637420065E-17,0.,1.));
#810=DIRECTION('',(6.12323399573677E-17,-1.,2.22044604925031E-16));
#811=DIRECTION('',(-1.14810637420065E-17,-2.22044604925031E-16,-1.));
#812=DIRECTION('',(-6.12323399573677E-17,1.,-2.22044604925031E-16));
#813=DIRECTION('',(1.14810637420065E-17,2.22044604925031E-16,1.));
#814=DIRECTION('center_axis',(3.26572479772628E-16,2.22044604925031E-16,
1.));
#815=DIRECTION('ref_axis',(1.,0.,-3.26572479772628E-16));
#816=DIRECTION('',(1.,6.12323399573676E-17,-3.26572479772628E-16));
#817=DIRECTION('',(1.,6.12323399573676E-17,-3.26572479772628E-16));
#818=DIRECTION('center_axis',(6.12323399573677E-17,-1.,2.22044604925031E-16));
#819=DIRECTION('ref_axis',(0.,-2.22044604925031E-16,-1.));
#820=DIRECTION('center_axis',(-3.26572479772628E-16,-2.22044604925031E-16,
-1.));
#821=DIRECTION('ref_axis',(-1.,0.,3.26572479772628E-16));
#822=DIRECTION('',(1.,6.12323399573676E-17,-3.26572479772628E-16));
#823=DIRECTION('center_axis',(-6.12323399573677E-17,1.,-2.22044604925031E-16));
#824=DIRECTION('ref_axis',(0.,2.22044604925031E-16,1.));
#825=DIRECTION('',(0.,0.,1.));
#826=DIRECTION('',(1.,0.,0.));
#827=CARTESIAN_POINT('',(0.,0.,0.));
#828=CARTESIAN_POINT('',(0.,0.,0.));
#829=CARTESIAN_POINT('Origin',(-1.83961847642151,-8.76531791907514,1.62860033351528));
#830=CARTESIAN_POINT('',(-11.9896184764215,-8.76531791907514,1.62860033351528));
#831=CARTESIAN_POINT('',(-11.9896184764215,-8.76531791907514,1.52860033351528));
#832=CARTESIAN_POINT('',(-11.9896184764215,-8.76531791907514,1.22860033351528));
#833=CARTESIAN_POINT('',(-11.6896184764215,-8.76531791907514,1.62860033351528));
#834=CARTESIAN_POINT('',(-6.83961847642151,-8.76531791907514,1.62860033351528));
#835=CARTESIAN_POINT('',(-11.6896184764215,-8.76531791907514,1.52860033351528));
#836=CARTESIAN_POINT('',(-11.6896184764215,-8.76531791907514,1.22860033351528));
#837=CARTESIAN_POINT('',(8.4103815235785,-8.76531791907514,1.52860033351528));
#838=CARTESIAN_POINT('',(-1.83961847642151,-8.76531791907514,1.52860033351528));
#839=CARTESIAN_POINT('',(8.4103815235785,-8.76531791907514,1.72860033351528));
#840=CARTESIAN_POINT('',(8.4103815235785,-8.76531791907514,1.62860033351528));
#841=CARTESIAN_POINT('',(-12.0896184764215,-8.76531791907514,1.72860033351528));
#842=CARTESIAN_POINT('',(-1.8396184764215,-8.76531791907514,1.72860033351528));
#843=CARTESIAN_POINT('',(-12.0896184764215,-8.76531791907514,1.52860033351528));
#844=CARTESIAN_POINT('',(-12.0896184764215,-8.76531791907514,1.62860033351528));
#845=CARTESIAN_POINT('',(-1.83961847642151,-8.76531791907514,1.52860033351528));
#846=CARTESIAN_POINT('Origin',(-1.83961847642151,1.13468208092486,1.52860033351527));
#847=CARTESIAN_POINT('',(-11.6896184764215,11.0346820809249,1.52860033351527));
#848=CARTESIAN_POINT('',(-11.6896184764215,1.13468208092486,1.52860033351527));
#849=CARTESIAN_POINT('',(8.4103815235785,11.0346820809249,1.52860033351527));
#850=CARTESIAN_POINT('',(-1.83961847642151,11.0346820809249,1.52860033351527));
#851=CARTESIAN_POINT('',(8.4103815235785,1.13468208092486,1.52860033351527));
#852=CARTESIAN_POINT('',(-4.71836467194319,4.83383208092486,1.52860033351527));
#853=CARTESIAN_POINT('',(-4.71836467194319,6.80366414793115,1.52860033351527));
#854=CARTESIAN_POINT('',(-4.71836467194319,3.47671509767643,1.52860033351527));
#855=CARTESIAN_POINT('',(-5.52006467194319,6.80366414793115,1.52860033351527));
#856=CARTESIAN_POINT('',(-3.47941657418235,6.80366414793115,1.52860033351527));
#857=CARTESIAN_POINT('',(-5.52006467194319,4.83383208092486,1.52860033351527));
#858=CARTESIAN_POINT('',(-5.52006467194319,3.47671509767643,1.52860033351527));
#859=CARTESIAN_POINT('',(-3.47941657418235,4.83383208092486,1.52860033351527));
#860=CARTESIAN_POINT('',(-2.21836467194319,0.849766047421717,1.52860033351527));
#861=CARTESIAN_POINT('',(-2.21836467194319,2.819598114428,1.52860033351527));
#862=CARTESIAN_POINT('',(-2.21836467194319,1.48468208092486,1.52860033351527));
#863=CARTESIAN_POINT('',(-3.02006467194319,2.819598114428,1.52860033351527));
#864=CARTESIAN_POINT('',(-2.22941657418235,2.819598114428,1.52860033351527));
#865=CARTESIAN_POINT('',(-3.02006467194319,0.849766047421717,1.52860033351527));
#866=CARTESIAN_POINT('',(-3.02006467194319,1.48468208092486,1.52860033351527));
#867=CARTESIAN_POINT('',(-2.22941657418235,0.849766047421717,1.52860033351527));
#868=CARTESIAN_POINT('',(-0.21836467194319,-3.03429998608143,1.52860033351528));
#869=CARTESIAN_POINT('',(-0.21836467194319,-1.06446791907514,1.52860033351528));
#870=CARTESIAN_POINT('',(-0.21836467194319,-0.457350935826712,1.52860033351528));
#871=CARTESIAN_POINT('',(-1.02006467194319,-1.06446791907514,1.52860033351528));
#872=CARTESIAN_POINT('',(-1.22941657418235,-1.06446791907514,1.52860033351528));
#873=CARTESIAN_POINT('',(-1.02006467194319,-3.03429998608143,1.52860033351528));
#874=CARTESIAN_POINT('',(-1.02006467194319,-0.457350935826712,1.52860033351528));
#875=CARTESIAN_POINT('',(-1.22941657418235,-3.03429998608143,1.52860033351528));
#876=CARTESIAN_POINT('',(-1.51836467194319,-7.11836601958457,1.52860033351528));
#877=CARTESIAN_POINT('',(-1.51836467194319,-5.14853395257829,1.52860033351528));
#878=CARTESIAN_POINT('',(-1.51836467194319,-2.49938395257828,1.52860033351528));
#879=CARTESIAN_POINT('',(-2.32006467194319,-5.14853395257829,1.52860033351528));
#880=CARTESIAN_POINT('',(-1.87941657418235,-5.14853395257829,1.52860033351528));
#881=CARTESIAN_POINT('',(-2.32006467194319,-7.11836601958457,1.52860033351528));
#882=CARTESIAN_POINT('',(-2.32006467194319,-2.49938395257828,1.52860033351528));
#883=CARTESIAN_POINT('',(-1.87941657418235,-7.11836601958457,1.52860033351528));
#884=CARTESIAN_POINT('Origin',(-5.52006467194319,5.81874811442801,1.72860033351527));
#885=CARTESIAN_POINT('',(-5.52006467194319,6.80366414793115,1.72860033351527));
#886=CARTESIAN_POINT('',(-5.52006467194319,6.80366414793115,1.72860033351527));
#887=CARTESIAN_POINT('',(-5.52006467194319,4.83383208092486,1.72860033351527));
#888=CARTESIAN_POINT('',(-5.52006467194319,3.47671509767643,1.72860033351527));
#889=CARTESIAN_POINT('',(-5.52006467194319,4.83383208092486,1.72860033351527));
#890=CARTESIAN_POINT('Origin',(-5.11921467194319,4.83383208092486,1.72860033351527));
#891=CARTESIAN_POINT('',(-4.71836467194319,4.83383208092486,1.72860033351527));
#892=CARTESIAN_POINT('',(-3.47941657418235,4.83383208092486,1.72860033351527));
#893=CARTESIAN_POINT('',(-4.71836467194319,4.83383208092486,1.72860033351527));
#894=CARTESIAN_POINT('Origin',(-4.71836467194319,5.81874811442801,1.72860033351527));
#895=CARTESIAN_POINT('',(-4.71836467194319,6.80366414793115,1.72860033351527));
#896=CARTESIAN_POINT('',(-4.71836467194319,3.47671509767643,1.72860033351527));
#897=CARTESIAN_POINT('',(-4.71836467194319,6.80366414793115,1.72860033351527));
#898=CARTESIAN_POINT('Origin',(-5.11921467194319,6.80366414793115,1.72860033351527));
#899=CARTESIAN_POINT('',(-3.47941657418235,6.80366414793115,1.72860033351527));
#900=CARTESIAN_POINT('Origin',(-3.02006467194319,1.83468208092486,1.72860033351528));
#901=CARTESIAN_POINT('',(-3.02006467194319,2.819598114428,1.72860033351527));
#902=CARTESIAN_POINT('',(-3.02006467194319,2.819598114428,1.72860033351528));
#903=CARTESIAN_POINT('',(-3.02006467194319,0.849766047421717,1.72860033351527));
#904=CARTESIAN_POINT('',(-3.02006467194319,1.48468208092486,1.72860033351527));
#905=CARTESIAN_POINT('',(-3.02006467194319,0.849766047421717,1.72860033351528));
#906=CARTESIAN_POINT('Origin',(-2.61921467194319,0.849766047421717,1.72860033351528));
#907=CARTESIAN_POINT('',(-2.21836467194319,0.849766047421717,1.72860033351527));
#908=CARTESIAN_POINT('',(-2.22941657418235,0.849766047421717,1.72860033351527));
#909=CARTESIAN_POINT('',(-2.21836467194319,0.849766047421717,1.72860033351528));
#910=CARTESIAN_POINT('Origin',(-2.21836467194319,1.83468208092486,1.72860033351528));
#911=CARTESIAN_POINT('',(-2.21836467194319,2.819598114428,1.72860033351527));
#912=CARTESIAN_POINT('',(-2.21836467194319,1.48468208092486,1.72860033351527));
#913=CARTESIAN_POINT('',(-2.21836467194319,2.819598114428,1.72860033351528));
#914=CARTESIAN_POINT('Origin',(-2.61921467194319,2.819598114428,1.72860033351528));
#915=CARTESIAN_POINT('',(-2.22941657418235,2.819598114428,1.72860033351527));
#916=CARTESIAN_POINT('Origin',(-1.02006467194319,-2.04938395257828,1.72860033351528));
#917=CARTESIAN_POINT('',(-1.02006467194319,-1.06446791907514,1.72860033351528));
#918=CARTESIAN_POINT('',(-1.02006467194319,-1.06446791907514,1.72860033351528));
#919=CARTESIAN_POINT('',(-1.02006467194319,-3.03429998608143,1.72860033351528));
#920=CARTESIAN_POINT('',(-1.02006467194319,-0.457350935826712,1.72860033351528));
#921=CARTESIAN_POINT('',(-1.02006467194319,-3.03429998608143,1.72860033351528));
#922=CARTESIAN_POINT('Origin',(-0.61921467194319,-3.03429998608143,1.72860033351528));
#923=CARTESIAN_POINT('',(-0.21836467194319,-3.03429998608143,1.72860033351528));
#924=CARTESIAN_POINT('',(-1.22941657418235,-3.03429998608143,1.72860033351528));
#925=CARTESIAN_POINT('',(-0.21836467194319,-3.03429998608143,1.72860033351528));
#926=CARTESIAN_POINT('Origin',(-0.21836467194319,-2.04938395257828,1.72860033351528));
#927=CARTESIAN_POINT('',(-0.21836467194319,-1.06446791907514,1.72860033351528));
#928=CARTESIAN_POINT('',(-0.21836467194319,-0.457350935826712,1.72860033351528));
#929=CARTESIAN_POINT('',(-0.21836467194319,-1.06446791907514,1.72860033351528));
#930=CARTESIAN_POINT('Origin',(-0.61921467194319,-1.06446791907514,1.72860033351528));
#931=CARTESIAN_POINT('',(-1.22941657418235,-1.06446791907514,1.72860033351528));
#932=CARTESIAN_POINT('Origin',(-2.32006467194319,-6.13344998608143,1.72860033351528));
#933=CARTESIAN_POINT('',(-2.32006467194319,-5.14853395257829,1.72860033351528));
#934=CARTESIAN_POINT('',(-2.32006467194319,-5.14853395257829,1.72860033351528));
#935=CARTESIAN_POINT('',(-2.32006467194319,-7.11836601958457,1.72860033351528));
#936=CARTESIAN_POINT('',(-2.32006467194319,-2.49938395257828,1.72860033351528));
#937=CARTESIAN_POINT('',(-2.32006467194319,-7.11836601958457,1.72860033351528));
#938=CARTESIAN_POINT('Origin',(-1.91921467194319,-7.11836601958457,1.72860033351528));
#939=CARTESIAN_POINT('',(-1.51836467194319,-7.11836601958457,1.72860033351528));
#940=CARTESIAN_POINT('',(-1.87941657418235,-7.11836601958457,1.72860033351528));
#941=CARTESIAN_POINT('',(-1.51836467194319,-7.11836601958457,1.72860033351528));
#942=CARTESIAN_POINT('Origin',(-1.51836467194319,-6.13344998608143,1.72860033351528));
#943=CARTESIAN_POINT('',(-1.51836467194319,-5.14853395257829,1.72860033351528));
#944=CARTESIAN_POINT('',(-1.51836467194319,-2.49938395257828,1.72860033351528));
#945=CARTESIAN_POINT('',(-1.51836467194319,-5.14853395257829,1.72860033351528));
#946=CARTESIAN_POINT('Origin',(-1.91921467194319,-5.14853395257829,1.72860033351528));
#947=CARTESIAN_POINT('',(-1.87941657418235,-5.14853395257829,1.72860033351528));
#948=CARTESIAN_POINT('Origin',(-12.0896184764215,1.13468208092486,1.62860033351527));
#949=CARTESIAN_POINT('',(-12.0896184764215,11.0346820809249,1.72860033351527));
#950=CARTESIAN_POINT('',(-12.0896184764215,1.13468208092486,1.72860033351527));
#951=CARTESIAN_POINT('',(-12.0896184764215,11.0346820809249,1.52860033351527));
#952=CARTESIAN_POINT('',(-12.0896184764215,11.0346820809249,1.62860033351527));
#953=CARTESIAN_POINT('',(-12.0896184764215,1.13468208092486,1.52860033351527));
#954=CARTESIAN_POINT('Origin',(8.4103815235785,1.13468208092486,1.62860033351527));
#955=CARTESIAN_POINT('',(8.4103815235785,11.0346820809249,1.72860033351527));
#956=CARTESIAN_POINT('',(8.4103815235785,11.0346820809249,1.62860033351527));
#957=CARTESIAN_POINT('',(8.4103815235785,1.13468208092486,1.72860033351527));
#958=CARTESIAN_POINT('Origin',(-1.83961847642151,1.13468208092486,1.52860033351527));
#959=CARTESIAN_POINT('',(-11.9896184764215,11.0346820809249,1.52860033351527));
#960=CARTESIAN_POINT('',(-11.9896184764215,1.13468208092486,1.52860033351527));
#961=CARTESIAN_POINT('',(-1.83961847642151,11.0346820809249,1.52860033351527));
#962=CARTESIAN_POINT('Origin',(-1.83961847642151,11.0346820809249,1.62860033351527));
#963=CARTESIAN_POINT('',(-11.9896184764215,11.0346820809249,1.62860033351527));
#964=CARTESIAN_POINT('',(-11.9896184764215,11.0346820809249,1.22860033351527));
#965=CARTESIAN_POINT('',(-1.83961847642151,11.0346820809249,1.72860033351527));
#966=CARTESIAN_POINT('',(-11.6896184764215,11.0346820809249,1.62860033351527));
#967=CARTESIAN_POINT('',(-11.6896184764215,11.0346820809249,1.22860033351527));
#968=CARTESIAN_POINT('',(-6.83961847642151,11.0346820809249,1.62860033351527));
#969=CARTESIAN_POINT('Origin',(-1.8396184764215,1.13468208092486,1.72860033351527));
#970=CARTESIAN_POINT('Origin',(-11.9896184764215,1.13468208092486,0.828600333515275));
#971=CARTESIAN_POINT('',(-11.9896184764215,11.1346820809249,1.62860033351527));
#972=CARTESIAN_POINT('',(-11.9896184764215,1.13468208092486,1.62860033351528));
#973=CARTESIAN_POINT('',(-11.9896184764215,11.1346820809249,0.028600333515273));
#974=CARTESIAN_POINT('',(-11.9896184764215,11.1346820809249,0.828600333515273));
#975=CARTESIAN_POINT('',(-11.9896184764215,-8.86531791907514,0.0286003335152774));
#976=CARTESIAN_POINT('',(-11.9896184764215,1.13468208092486,0.0286003335152752));
#977=CARTESIAN_POINT('',(-11.9896184764215,-8.86531791907514,1.62860033351528));
#978=CARTESIAN_POINT('',(-11.9896184764215,-8.86531791907514,0.828600333515277));
#979=CARTESIAN_POINT('',(-11.9896184764215,1.13468208092486,1.62860033351528));
#980=CARTESIAN_POINT('Origin',(-11.8396184764215,1.13468208092486,1.62860033351528));
#981=CARTESIAN_POINT('',(-11.6896184764215,11.1346820809249,1.62860033351527));
#982=CARTESIAN_POINT('',(-11.6896184764215,1.13468208092486,1.62860033351528));
#983=CARTESIAN_POINT('',(-11.8396184764215,11.1346820809249,1.62860033351527));
#984=CARTESIAN_POINT('Origin',(-11.6896184764215,1.13468208092486,0.828600333515275));
#985=CARTESIAN_POINT('',(-11.6896184764215,-8.86531791907514,1.62860033351528));
#986=CARTESIAN_POINT('',(-11.6896184764215,1.13468208092486,1.62860033351528));
#987=CARTESIAN_POINT('',(-11.6896184764215,-8.86531791907514,0.0286003335152773));
#988=CARTESIAN_POINT('',(-11.6896184764215,-8.86531791907514,0.828600333515277));
#989=CARTESIAN_POINT('',(-11.6896184764215,11.1346820809249,0.0286003335152729));
#990=CARTESIAN_POINT('',(-11.6896184764215,1.13468208092486,0.0286003335152751));
#991=CARTESIAN_POINT('',(-11.6896184764215,11.1346820809249,0.828600333515273));
#992=CARTESIAN_POINT('Origin',(-11.8396184764215,1.13468208092486,0.0286003335152752));
#993=CARTESIAN_POINT('',(-11.8396184764215,11.1346820809249,0.0286003335152729));
#994=CARTESIAN_POINT('',(-11.8396184764215,-8.86531791907514,0.0286003335152774));
#995=CARTESIAN_POINT('Origin',(-11.8396184764215,11.1346820809249,0.828600333515273));
#996=CARTESIAN_POINT('Origin',(-11.8396184764215,1.13468208092486,1.62860033351528));
#997=CARTESIAN_POINT('',(-11.8396184764215,-8.86531791907514,1.62860033351528));
#998=CARTESIAN_POINT('Origin',(-11.8396184764215,-8.86531791907514,0.828600333515277));
#999=CARTESIAN_POINT('',(0.,0.,0.));
#1000=UNCERTAINTY_MEASURE_WITH_UNIT(LENGTH_MEASURE(0.001),#1006,
'DISTANCE_ACCURACY_VALUE',
'Maximum model space distance between geometric entities at asserted c
onnectivities');
#1001=UNCERTAINTY_MEASURE_WITH_UNIT(LENGTH_MEASURE(0.001),#1006,
'DISTANCE_ACCURACY_VALUE',
'Maximum model space distance between geometric entities at asserted c
onnectivities');
#1002=UNCERTAINTY_MEASURE_WITH_UNIT(LENGTH_MEASURE(0.001),#1006,
'DISTANCE_ACCURACY_VALUE',
'Maximum model space distance between geometric entities at asserted c
onnectivities');
#1003=(
GEOMETRIC_REPRESENTATION_CONTEXT(3)
GLOBAL_UNCERTAINTY_ASSIGNED_CONTEXT((#1000))
GLOBAL_UNIT_ASSIGNED_CONTEXT((#1006,#1008,#1009))
REPRESENTATION_CONTEXT('','3D')
);
#1004=(
GEOMETRIC_REPRESENTATION_CONTEXT(3)
GLOBAL_UNCERTAINTY_ASSIGNED_CONTEXT((#1001))
GLOBAL_UNIT_ASSIGNED_CONTEXT((#1006,#1008,#1009))
REPRESENTATION_CONTEXT('','3D')
);
#1005=(
GEOMETRIC_REPRESENTATION_CONTEXT(3)
GLOBAL_UNCERTAINTY_ASSIGNED_CONTEXT((#1002))
GLOBAL_UNIT_ASSIGNED_CONTEXT((#1006,#1008,#1009))
REPRESENTATION_CONTEXT('','3D')
);
#1006=(
LENGTH_UNIT()
NAMED_UNIT(*)
SI_UNIT(.CENTI.,.METRE.)
);
#1007=(
LENGTH_UNIT()
NAMED_UNIT(*)
SI_UNIT($,.METRE.)
);
#1008=(
NAMED_UNIT(*)
PLANE_ANGLE_UNIT()
SI_UNIT($,.RADIAN.)
);
#1009=(
NAMED_UNIT(*)
SI_UNIT($,.STERADIAN.)
SOLID_ANGLE_UNIT()
);
#1010=SHAPE_DEFINITION_REPRESENTATION(#1012,#1015);
#1011=SHAPE_DEFINITION_REPRESENTATION(#1013,#1016);
#1012=PRODUCT_DEFINITION_SHAPE('',$,#1018);
#1013=PRODUCT_DEFINITION_SHAPE('',$,#1019);
#1014=PRODUCT_DEFINITION_SHAPE($,$,#14);
#1015=SHAPE_REPRESENTATION('',(#644,#676),#1003);
#1016=SHAPE_REPRESENTATION('',(#645),#1004);
#1017=PRODUCT_DEFINITION_CONTEXT('part definition',#1025,'design');
#1018=PRODUCT_DEFINITION('2026-05-27-16-24-42-499','(Unsaved)',#1020,#1017);
#1019=PRODUCT_DEFINITION('2026-05-27-16-24-46-029','Component1',#1021,#1017);
#1020=PRODUCT_DEFINITION_FORMATION('',$,#1027);
#1021=PRODUCT_DEFINITION_FORMATION('',$,#1028);
#1022=PRODUCT_RELATED_PRODUCT_CATEGORY('(Unsaved)','(Unsaved)',(#1027));
#1023=PRODUCT_RELATED_PRODUCT_CATEGORY('Component1','Component1',(#1028));
#1024=APPLICATION_PROTOCOL_DEFINITION('international standard',
'automotive_design',2009,#1025);
#1025=APPLICATION_CONTEXT(
'Core Data for Automotive Mechanical Design Process');
#1026=PRODUCT_CONTEXT('part definition',#1025,'mechanical');
#1027=PRODUCT('2026-05-27-16-24-42-499','(Unsaved)',$,(#1026));
#1028=PRODUCT('2026-05-27-16-24-46-029','Component1',$,(#1026));
#1029=PRESENTATION_STYLE_ASSIGNMENT((#1031));
#1030=PRESENTATION_STYLE_ASSIGNMENT((#1032));
#1031=SURFACE_STYLE_USAGE(.BOTH.,#1033);
#1032=SURFACE_STYLE_USAGE(.BOTH.,#1034);
#1033=SURFACE_SIDE_STYLE('',(#1035));
#1034=SURFACE_SIDE_STYLE('',(#1036));
#1035=SURFACE_STYLE_FILL_AREA(#1037);
#1036=SURFACE_STYLE_FILL_AREA(#1038);
#1037=FILL_AREA_STYLE('Steel - Satin',(#1039));
#1038=FILL_AREA_STYLE('Base Material - Opaque',(#1040));
#1039=FILL_AREA_STYLE_COLOUR('Steel - Satin',#1041);
#1040=FILL_AREA_STYLE_COLOUR('Base Material - Opaque',#1042);
#1041=COLOUR_RGB('Steel - Satin',0.627450980392157,0.627450980392157,0.627450980392157);
#1042=COLOUR_RGB('Base Material - Opaque',0.913725490196078,0.113725490196078,
0.176470588235294);
ENDSEC;
END-ISO-10303-21;
