ISO-10303-21;
HEADER;
/* Generated by software containing ST-Developer
 * from STEP Tools, Inc. (www.steptools.com) 
 */

FILE_DESCRIPTION(
/* description */ (''),
/* implementation_level */ '2;1');

FILE_NAME(
/* name */ 'shootexx back cover.step',
/* time_stamp */ '2026-05-27T16:32:43+05:30',
/* author */ (''),
/* organization */ (''),
/* preprocessor_version */ 'ST-DEVELOPER v20.1',
/* originating_system */ 'Autodesk Translation Framework v15.8.0.0',
/* authorisation */ '');

FILE_SCHEMA (('AUTOMOTIVE_DESIGN { 1 0 10303 214 3 1 1 }'));
ENDSEC;

DATA;
#10=MECHANICAL_DESIGN_GEOMETRIC_PRESENTATION_REPRESENTATION('',(#17),#197);
#11=ITEM_DEFINED_TRANSFORMATION($,$,#125,#132);
#12=(
REPRESENTATION_RELATIONSHIP($,$,#208,#207)
REPRESENTATION_RELATIONSHIP_WITH_TRANSFORMATION(#11)
SHAPE_REPRESENTATION_RELATIONSHIP()
);
#13=CONTEXT_DEPENDENT_SHAPE_REPRESENTATION(#12,#206);
#14=NEXT_ASSEMBLY_USAGE_OCCURRENCE('Component1:1','Component1:1',
'Component1:1',#210,#211,'Component1:1');
#15=SHAPE_REPRESENTATION_RELATIONSHIP('SRR','None',#208,#16);
#16=ADVANCED_BREP_SHAPE_REPRESENTATION('',(#18),#196);
#17=STYLED_ITEM('',(#222),#18);
#18=MANIFOLD_SOLID_BREP('Body1',#111);
#19=FACE_OUTER_BOUND('',#25,.T.);
#20=FACE_OUTER_BOUND('',#26,.T.);
#21=FACE_OUTER_BOUND('',#27,.T.);
#22=FACE_OUTER_BOUND('',#28,.T.);
#23=FACE_OUTER_BOUND('',#29,.T.);
#24=FACE_OUTER_BOUND('',#30,.T.);
#25=EDGE_LOOP('',(#75,#76,#77,#78));
#26=EDGE_LOOP('',(#79,#80,#81,#82));
#27=EDGE_LOOP('',(#83,#84,#85,#86));
#28=EDGE_LOOP('',(#87,#88,#89,#90));
#29=EDGE_LOOP('',(#91,#92,#93,#94));
#30=EDGE_LOOP('',(#95,#96,#97,#98));
#31=LINE('',#168,#43);
#32=LINE('',#170,#44);
#33=LINE('',#172,#45);
#34=LINE('',#173,#46);
#35=LINE('',#177,#47);
#36=LINE('',#179,#48);
#37=LINE('',#181,#49);
#38=LINE('',#182,#50);
#39=LINE('',#184,#51);
#40=LINE('',#185,#52);
#41=LINE('',#187,#53);
#42=LINE('',#189,#54);
#43=VECTOR('',#139,0.465);
#44=VECTOR('',#140,1.);
#45=VECTOR('',#141,0.465);
#46=VECTOR('',#142,1.);
#47=VECTOR('',#145,0.465);
#48=VECTOR('',#146,1.);
#49=VECTOR('',#147,0.465);
#50=VECTOR('',#148,1.);
#51=VECTOR('',#151,0.01);
#52=VECTOR('',#152,0.01);
#53=VECTOR('',#155,0.01);
#54=VECTOR('',#158,0.01);
#55=VERTEX_POINT('',#166);
#56=VERTEX_POINT('',#167);
#57=VERTEX_POINT('',#169);
#58=VERTEX_POINT('',#171);
#59=VERTEX_POINT('',#175);
#60=VERTEX_POINT('',#176);
#61=VERTEX_POINT('',#178);
#62=VERTEX_POINT('',#180);
#63=EDGE_CURVE('',#55,#56,#31,.T.);
#64=EDGE_CURVE('',#56,#57,#32,.T.);
#65=EDGE_CURVE('',#57,#58,#33,.T.);
#66=EDGE_CURVE('',#58,#55,#34,.T.);
#67=EDGE_CURVE('',#59,#60,#35,.T.);
#68=EDGE_CURVE('',#60,#61,#36,.T.);
#69=EDGE_CURVE('',#61,#62,#37,.T.);
#70=EDGE_CURVE('',#62,#59,#38,.T.);
#71=EDGE_CURVE('',#58,#61,#39,.T.);
#72=EDGE_CURVE('',#55,#60,#40,.T.);
#73=EDGE_CURVE('',#57,#62,#41,.T.);
#74=EDGE_CURVE('',#56,#59,#42,.T.);
#75=ORIENTED_EDGE('',*,*,#63,.T.);
#76=ORIENTED_EDGE('',*,*,#64,.T.);
#77=ORIENTED_EDGE('',*,*,#65,.T.);
#78=ORIENTED_EDGE('',*,*,#66,.T.);
#79=ORIENTED_EDGE('',*,*,#67,.T.);
#80=ORIENTED_EDGE('',*,*,#68,.T.);
#81=ORIENTED_EDGE('',*,*,#69,.T.);
#82=ORIENTED_EDGE('',*,*,#70,.T.);
#83=ORIENTED_EDGE('',*,*,#71,.T.);
#84=ORIENTED_EDGE('',*,*,#68,.F.);
#85=ORIENTED_EDGE('',*,*,#72,.F.);
#86=ORIENTED_EDGE('',*,*,#66,.F.);
#87=ORIENTED_EDGE('',*,*,#73,.T.);
#88=ORIENTED_EDGE('',*,*,#69,.F.);
#89=ORIENTED_EDGE('',*,*,#71,.F.);
#90=ORIENTED_EDGE('',*,*,#65,.F.);
#91=ORIENTED_EDGE('',*,*,#74,.T.);
#92=ORIENTED_EDGE('',*,*,#70,.F.);
#93=ORIENTED_EDGE('',*,*,#73,.F.);
#94=ORIENTED_EDGE('',*,*,#64,.F.);
#95=ORIENTED_EDGE('',*,*,#72,.T.);
#96=ORIENTED_EDGE('',*,*,#67,.F.);
#97=ORIENTED_EDGE('',*,*,#74,.F.);
#98=ORIENTED_EDGE('',*,*,#63,.F.);
#99=PLANE('',#126);
#100=PLANE('',#127);
#101=PLANE('',#128);
#102=PLANE('',#129);
#103=PLANE('',#130);
#104=PLANE('',#131);
#105=ADVANCED_FACE('',(#19),#99,.T.);
#106=ADVANCED_FACE('',(#20),#100,.F.);
#107=ADVANCED_FACE('',(#21),#101,.F.);
#108=ADVANCED_FACE('',(#22),#102,.F.);
#109=ADVANCED_FACE('',(#23),#103,.F.);
#110=ADVANCED_FACE('',(#24),#104,.F.);
#111=CLOSED_SHELL('',(#105,#106,#107,#108,#109,#110));
#112=DERIVED_UNIT_ELEMENT(#114,1.);
#113=DERIVED_UNIT_ELEMENT(#199,-3.);
#114=(
MASS_UNIT()
NAMED_UNIT(*)
SI_UNIT(.KILO.,.GRAM.)
);
#115=DERIVED_UNIT((#112,#113));
#116=MEASURE_REPRESENTATION_ITEM('density measure',
POSITIVE_RATIO_MEASURE(7850.),#115);
#117=PROPERTY_DEFINITION_REPRESENTATION(#122,#119);
#118=PROPERTY_DEFINITION_REPRESENTATION(#123,#120);
#119=REPRESENTATION('material name',(#121),#196);
#120=REPRESENTATION('density',(#116),#196);
#121=DESCRIPTIVE_REPRESENTATION_ITEM('Steel','Steel');
#122=PROPERTY_DEFINITION('material property','material name',#211);
#123=PROPERTY_DEFINITION('material property','density of part',#211);
#124=AXIS2_PLACEMENT_3D('',#163,#133,#134);
#125=AXIS2_PLACEMENT_3D('',#164,#135,#136);
#126=AXIS2_PLACEMENT_3D('',#165,#137,#138);
#127=AXIS2_PLACEMENT_3D('',#174,#143,#144);
#128=AXIS2_PLACEMENT_3D('',#183,#149,#150);
#129=AXIS2_PLACEMENT_3D('',#186,#153,#154);
#130=AXIS2_PLACEMENT_3D('',#188,#156,#157);
#131=AXIS2_PLACEMENT_3D('',#190,#159,#160);
#132=AXIS2_PLACEMENT_3D('',#191,#161,#162);
#133=DIRECTION('axis',(0.,0.,1.));
#134=DIRECTION('refdir',(1.,0.,0.));
#135=DIRECTION('axis',(0.,0.,1.));
#136=DIRECTION('refdir',(1.,0.,0.));
#137=DIRECTION('center_axis',(-1.,-6.12323399573676E-17,1.3168245152122E-18));
#138=DIRECTION('ref_axis',(1.3168245152122E-18,0.,1.));
#139=DIRECTION('',(1.31682451521219E-18,2.22044604925031E-16,1.));
#140=DIRECTION('',(-6.12323399573676E-17,1.,-2.22044604925031E-16));
#141=DIRECTION('',(-1.31682451521219E-18,-2.22044604925031E-16,-1.));
#142=DIRECTION('',(6.12323399573676E-17,-1.,2.22044604925031E-16));
#143=DIRECTION('center_axis',(-1.,-6.12323399573676E-17,1.3168245152122E-18));
#144=DIRECTION('ref_axis',(1.3168245152122E-18,0.,1.));
#145=DIRECTION('',(-1.31682451521219E-18,-2.22044604925031E-16,-1.));
#146=DIRECTION('',(-6.12323399573676E-17,1.,-2.22044604925031E-16));
#147=DIRECTION('',(1.31682451521219E-18,2.22044604925031E-16,1.));
#148=DIRECTION('',(6.12323399573676E-17,-1.,2.22044604925031E-16));
#149=DIRECTION('center_axis',(2.8473038080176E-15,2.22044604925032E-16,
1.));
#150=DIRECTION('ref_axis',(1.,0.,-2.8473038080176E-15));
#151=DIRECTION('',(1.,6.1232339957367E-17,-2.8473038080176E-15));
#152=DIRECTION('',(1.,6.1232339957367E-17,-2.8473038080176E-15));
#153=DIRECTION('center_axis',(6.12323399573676E-17,-1.,2.22044604925031E-16));
#154=DIRECTION('ref_axis',(0.,-2.22044604925031E-16,-1.));
#155=DIRECTION('',(1.,6.1232339957367E-17,-2.8473038080176E-15));
#156=DIRECTION('center_axis',(-2.8473038080176E-15,-2.22044604925032E-16,
-1.));
#157=DIRECTION('ref_axis',(-1.,0.,2.8473038080176E-15));
#158=DIRECTION('',(1.,6.1232339957367E-17,-2.8473038080176E-15));
#159=DIRECTION('center_axis',(-6.12323399573676E-17,1.,-2.22044604925031E-16));
#160=DIRECTION('ref_axis',(0.,2.22044604925031E-16,1.));
#161=DIRECTION('',(0.,0.,1.));
#162=DIRECTION('',(1.,0.,0.));
#163=CARTESIAN_POINT('',(0.,0.,0.));
#164=CARTESIAN_POINT('',(0.,0.,0.));
#165=CARTESIAN_POINT('Origin',(2.5,0.800000000000001,4.65));
#166=CARTESIAN_POINT('',(2.5,-9.2,2.29423405537329E-15));
#167=CARTESIAN_POINT('',(2.5,-9.2,9.3));
#168=CARTESIAN_POINT('',(2.5,-9.2,4.65));
#169=CARTESIAN_POINT('',(2.5,10.8,9.3));
#170=CARTESIAN_POINT('',(2.5,0.800000000000002,9.3));
#171=CARTESIAN_POINT('',(2.5,10.8,-2.14665804312733E-15));
#172=CARTESIAN_POINT('',(2.5,10.8,4.65));
#173=CARTESIAN_POINT('',(2.5,0.8,7.378800612298E-17));
#174=CARTESIAN_POINT('Origin',(2.7,0.800000000000001,4.65));
#175=CARTESIAN_POINT('',(2.7,-9.2,9.3));
#176=CARTESIAN_POINT('',(2.7,-9.2,1.72477329376977E-15));
#177=CARTESIAN_POINT('',(2.7,-9.2,4.65));
#178=CARTESIAN_POINT('',(2.7,10.8,-2.71611880473085E-15));
#179=CARTESIAN_POINT('',(2.7,0.8,-4.9567275548054E-16));
#180=CARTESIAN_POINT('',(2.7,10.8,9.3));
#181=CARTESIAN_POINT('',(2.7,10.8,4.65));
#182=CARTESIAN_POINT('',(2.7,0.800000000000002,9.3));
#183=CARTESIAN_POINT('Origin',(2.6,0.8,-2.1094237467878E-16));
#184=CARTESIAN_POINT('',(2.6,10.8,-2.43138842392909E-15));
#185=CARTESIAN_POINT('',(2.6,-9.2,2.00950367457153E-15));
#186=CARTESIAN_POINT('Origin',(2.6,10.8,4.65));
#187=CARTESIAN_POINT('',(2.6,10.8,9.3));
#188=CARTESIAN_POINT('Origin',(2.6,0.800000000000002,9.3));
#189=CARTESIAN_POINT('',(2.6,-9.2,9.3));
#190=CARTESIAN_POINT('Origin',(2.6,-9.2,4.65));
#191=CARTESIAN_POINT('',(0.,0.,0.));
#192=UNCERTAINTY_MEASURE_WITH_UNIT(LENGTH_MEASURE(0.001),#198,
'DISTANCE_ACCURACY_VALUE',
'Maximum model space distance between geometric entities at asserted c
onnectivities');
#193=UNCERTAINTY_MEASURE_WITH_UNIT(LENGTH_MEASURE(0.001),#198,
'DISTANCE_ACCURACY_VALUE',
'Maximum model space distance between geometric entities at asserted c
onnectivities');
#194=UNCERTAINTY_MEASURE_WITH_UNIT(LENGTH_MEASURE(0.001),#198,
'DISTANCE_ACCURACY_VALUE',
'Maximum model space distance between geometric entities at asserted c
onnectivities');
#195=(
GEOMETRIC_REPRESENTATION_CONTEXT(3)
GLOBAL_UNCERTAINTY_ASSIGNED_CONTEXT((#192))
GLOBAL_UNIT_ASSIGNED_CONTEXT((#198,#200,#201))
REPRESENTATION_CONTEXT('','3D')
);
#196=(
GEOMETRIC_REPRESENTATION_CONTEXT(3)
GLOBAL_UNCERTAINTY_ASSIGNED_CONTEXT((#193))
GLOBAL_UNIT_ASSIGNED_CONTEXT((#198,#200,#201))
REPRESENTATION_CONTEXT('','3D')
);
#197=(
GEOMETRIC_REPRESENTATION_CONTEXT(3)
GLOBAL_UNCERTAINTY_ASSIGNED_CONTEXT((#194))
GLOBAL_UNIT_ASSIGNED_CONTEXT((#198,#200,#201))
REPRESENTATION_CONTEXT('','3D')
);
#198=(
LENGTH_UNIT()
NAMED_UNIT(*)
SI_UNIT(.CENTI.,.METRE.)
);
#199=(
LENGTH_UNIT()
NAMED_UNIT(*)
SI_UNIT($,.METRE.)
);
#200=(
NAMED_UNIT(*)
PLANE_ANGLE_UNIT()
SI_UNIT($,.RADIAN.)
);
#201=(
NAMED_UNIT(*)
SI_UNIT($,.STERADIAN.)
SOLID_ANGLE_UNIT()
);
#202=SHAPE_DEFINITION_REPRESENTATION(#204,#207);
#203=SHAPE_DEFINITION_REPRESENTATION(#205,#208);
#204=PRODUCT_DEFINITION_SHAPE('',$,#210);
#205=PRODUCT_DEFINITION_SHAPE('',$,#211);
#206=PRODUCT_DEFINITION_SHAPE($,$,#14);
#207=SHAPE_REPRESENTATION('',(#124,#132),#195);
#208=SHAPE_REPRESENTATION('',(#125),#196);
#209=PRODUCT_DEFINITION_CONTEXT('part definition',#217,'design');
#210=PRODUCT_DEFINITION('2026-05-27-16-31-14-003','(Unsaved)',#212,#209);
#211=PRODUCT_DEFINITION('2026-05-27-16-31-14-333','Component1',#213,#209);
#212=PRODUCT_DEFINITION_FORMATION('',$,#219);
#213=PRODUCT_DEFINITION_FORMATION('',$,#220);
#214=PRODUCT_RELATED_PRODUCT_CATEGORY('(Unsaved)','(Unsaved)',(#219));
#215=PRODUCT_RELATED_PRODUCT_CATEGORY('Component1','Component1',(#220));
#216=APPLICATION_PROTOCOL_DEFINITION('international standard',
'automotive_design',2009,#217);
#217=APPLICATION_CONTEXT(
'Core Data for Automotive Mechanical Design Process');
#218=PRODUCT_CONTEXT('part definition',#217,'mechanical');
#219=PRODUCT('2026-05-27-16-31-14-003','(Unsaved)',$,(#218));
#220=PRODUCT('2026-05-27-16-31-14-333','Component1',$,(#218));
#221=PRESENTATION_STYLE_ASSIGNMENT((#223));
#222=PRESENTATION_STYLE_ASSIGNMENT((#224));
#223=SURFACE_STYLE_USAGE(.BOTH.,#225);
#224=SURFACE_STYLE_USAGE(.BOTH.,#226);
#225=SURFACE_SIDE_STYLE('',(#227));
#226=SURFACE_SIDE_STYLE('',(#228));
#227=SURFACE_STYLE_FILL_AREA(#229);
#228=SURFACE_STYLE_FILL_AREA(#230);
#229=FILL_AREA_STYLE('Steel - Satin',(#231));
#230=FILL_AREA_STYLE('Base Material - Opaque',(#232));
#231=FILL_AREA_STYLE_COLOUR('Steel - Satin',#233);
#232=FILL_AREA_STYLE_COLOUR('Base Material - Opaque',#234);
#233=COLOUR_RGB('Steel - Satin',0.627450980392157,0.627450980392157,0.627450980392157);
#234=COLOUR_RGB('Base Material - Opaque',0.274509803921569,0.717647058823529,
0.286274509803922);
ENDSEC;
END-ISO-10303-21;
