ISO-10303-21;
HEADER;
/* Generated by software containing ST-Developer
 * from STEP Tools, Inc. (www.steptools.com) 
 */

FILE_DESCRIPTION(
/* description */ (''),
/* implementation_level */ '2;1');

FILE_NAME(
/* name */ 'Shootex back panel cover.step',
/* time_stamp */ '2026-06-09T11:55:58+05:30',
/* author */ (''),
/* organization */ (''),
/* preprocessor_version */ 'ST-DEVELOPER v20.1',
/* originating_system */ 'Autodesk Translation Framework v15.8.0.0',
/* authorisation */ '');

FILE_SCHEMA (('AUTOMOTIVE_DESIGN { 1 0 10303 214 3 1 1 }'));
ENDSEC;

DATA;
#10=MECHANICAL_DESIGN_GEOMETRIC_PRESENTATION_REPRESENTATION('',(#17),#353);
#11=ITEM_DEFINED_TRANSFORMATION($,$,#217,#236);
#12=(
REPRESENTATION_RELATIONSHIP($,$,#364,#363)
REPRESENTATION_RELATIONSHIP_WITH_TRANSFORMATION(#11)
SHAPE_REPRESENTATION_RELATIONSHIP()
);
#13=CONTEXT_DEPENDENT_SHAPE_REPRESENTATION(#12,#362);
#14=NEXT_ASSEMBLY_USAGE_OCCURRENCE('Component1:1','Component1:1',
'Component1:1',#366,#367,'Component1:1');
#15=SHAPE_REPRESENTATION_RELATIONSHIP('SRR','None',#364,#16);
#16=ADVANCED_BREP_SHAPE_REPRESENTATION('',(#18),#352);
#17=STYLED_ITEM('',(#378),#18);
#18=MANIFOLD_SOLID_BREP('Body1',#203);
#19=FACE_BOUND('',#51,.T.);
#20=FACE_BOUND('',#52,.T.);
#21=FACE_BOUND('',#53,.T.);
#22=FACE_BOUND('',#54,.T.);
#23=FACE_BOUND('',#57,.T.);
#24=FACE_BOUND('',#58,.T.);
#25=FACE_BOUND('',#59,.T.);
#26=FACE_BOUND('',#60,.T.);
#27=PLANE('',#230);
#28=PLANE('',#231);
#29=PLANE('',#232);
#30=PLANE('',#233);
#31=PLANE('',#234);
#32=PLANE('',#235);
#33=FACE_OUTER_BOUND('',#43,.T.);
#34=FACE_OUTER_BOUND('',#44,.T.);
#35=FACE_OUTER_BOUND('',#45,.T.);
#36=FACE_OUTER_BOUND('',#46,.T.);
#37=FACE_OUTER_BOUND('',#47,.T.);
#38=FACE_OUTER_BOUND('',#48,.T.);
#39=FACE_OUTER_BOUND('',#49,.T.);
#40=FACE_OUTER_BOUND('',#50,.T.);
#41=FACE_OUTER_BOUND('',#55,.T.);
#42=FACE_OUTER_BOUND('',#56,.T.);
#43=EDGE_LOOP('',(#141,#142,#143,#144));
#44=EDGE_LOOP('',(#145,#146,#147,#148));
#45=EDGE_LOOP('',(#149,#150,#151,#152));
#46=EDGE_LOOP('',(#153,#154,#155,#156));
#47=EDGE_LOOP('',(#157,#158,#159,#160));
#48=EDGE_LOOP('',(#161,#162,#163,#164));
#49=EDGE_LOOP('',(#165,#166,#167,#168));
#50=EDGE_LOOP('',(#169,#170,#171,#172));
#51=EDGE_LOOP('',(#173));
#52=EDGE_LOOP('',(#174));
#53=EDGE_LOOP('',(#175));
#54=EDGE_LOOP('',(#176));
#55=EDGE_LOOP('',(#177,#178,#179,#180));
#56=EDGE_LOOP('',(#181,#182,#183,#184));
#57=EDGE_LOOP('',(#185));
#58=EDGE_LOOP('',(#186));
#59=EDGE_LOOP('',(#187));
#60=EDGE_LOOP('',(#188));
#61=LINE('',#301,#77);
#62=LINE('',#307,#78);
#63=LINE('',#313,#79);
#64=LINE('',#319,#80);
#65=LINE('',#324,#81);
#66=LINE('',#326,#82);
#67=LINE('',#328,#83);
#68=LINE('',#329,#84);
#69=LINE('',#333,#85);
#70=LINE('',#335,#86);
#71=LINE('',#337,#87);
#72=LINE('',#338,#88);
#73=LINE('',#340,#89);
#74=LINE('',#341,#90);
#75=LINE('',#343,#91);
#76=LINE('',#345,#92);
#77=VECTOR('',#245,0.13585);
#78=VECTOR('',#252,0.13585);
#79=VECTOR('',#259,0.13585);
#80=VECTOR('',#266,0.13585);
#81=VECTOR('',#271,0.476);
#82=VECTOR('',#272,0.00411560106294255);
#83=VECTOR('',#273,0.476);
#84=VECTOR('',#274,0.00411560106294255);
#85=VECTOR('',#277,0.476);
#86=VECTOR('',#278,0.00411560106294255);
#87=VECTOR('',#279,0.476);
#88=VECTOR('',#280,0.00411560106294255);
#89=VECTOR('',#283,0.993653877195546);
#90=VECTOR('',#284,0.993653877195546);
#91=VECTOR('',#287,0.993653877195546);
#92=VECTOR('',#290,0.993653877195546);
#93=CIRCLE('',#219,0.13585);
#94=CIRCLE('',#220,0.13585);
#95=CIRCLE('',#222,0.13585);
#96=CIRCLE('',#223,0.13585);
#97=CIRCLE('',#225,0.13585);
#98=CIRCLE('',#226,0.13585);
#99=CIRCLE('',#228,0.13585);
#100=CIRCLE('',#229,0.13585);
#101=VERTEX_POINT('',#298);
#102=VERTEX_POINT('',#300);
#103=VERTEX_POINT('',#304);
#104=VERTEX_POINT('',#306);
#105=VERTEX_POINT('',#310);
#106=VERTEX_POINT('',#312);
#107=VERTEX_POINT('',#316);
#108=VERTEX_POINT('',#318);
#109=VERTEX_POINT('',#322);
#110=VERTEX_POINT('',#323);
#111=VERTEX_POINT('',#325);
#112=VERTEX_POINT('',#327);
#113=VERTEX_POINT('',#331);
#114=VERTEX_POINT('',#332);
#115=VERTEX_POINT('',#334);
#116=VERTEX_POINT('',#336);
#117=EDGE_CURVE('',#101,#101,#93,.T.);
#118=EDGE_CURVE('',#101,#102,#61,.T.);
#119=EDGE_CURVE('',#102,#102,#94,.T.);
#120=EDGE_CURVE('',#103,#103,#95,.T.);
#121=EDGE_CURVE('',#103,#104,#62,.T.);
#122=EDGE_CURVE('',#104,#104,#96,.T.);
#123=EDGE_CURVE('',#105,#105,#97,.T.);
#124=EDGE_CURVE('',#105,#106,#63,.T.);
#125=EDGE_CURVE('',#106,#106,#98,.T.);
#126=EDGE_CURVE('',#107,#107,#99,.T.);
#127=EDGE_CURVE('',#107,#108,#64,.T.);
#128=EDGE_CURVE('',#108,#108,#100,.T.);
#129=EDGE_CURVE('',#109,#110,#65,.T.);
#130=EDGE_CURVE('',#111,#109,#66,.T.);
#131=EDGE_CURVE('',#112,#111,#67,.T.);
#132=EDGE_CURVE('',#110,#112,#68,.T.);
#133=EDGE_CURVE('',#113,#114,#69,.T.);
#134=EDGE_CURVE('',#115,#113,#70,.T.);
#135=EDGE_CURVE('',#116,#115,#71,.T.);
#136=EDGE_CURVE('',#114,#116,#72,.T.);
#137=EDGE_CURVE('',#111,#116,#73,.T.);
#138=EDGE_CURVE('',#109,#114,#74,.T.);
#139=EDGE_CURVE('',#112,#115,#75,.T.);
#140=EDGE_CURVE('',#110,#113,#76,.T.);
#141=ORIENTED_EDGE('',*,*,#117,.F.);
#142=ORIENTED_EDGE('',*,*,#118,.T.);
#143=ORIENTED_EDGE('',*,*,#119,.F.);
#144=ORIENTED_EDGE('',*,*,#118,.F.);
#145=ORIENTED_EDGE('',*,*,#120,.F.);
#146=ORIENTED_EDGE('',*,*,#121,.T.);
#147=ORIENTED_EDGE('',*,*,#122,.F.);
#148=ORIENTED_EDGE('',*,*,#121,.F.);
#149=ORIENTED_EDGE('',*,*,#123,.F.);
#150=ORIENTED_EDGE('',*,*,#124,.T.);
#151=ORIENTED_EDGE('',*,*,#125,.F.);
#152=ORIENTED_EDGE('',*,*,#124,.F.);
#153=ORIENTED_EDGE('',*,*,#126,.F.);
#154=ORIENTED_EDGE('',*,*,#127,.T.);
#155=ORIENTED_EDGE('',*,*,#128,.F.);
#156=ORIENTED_EDGE('',*,*,#127,.F.);
#157=ORIENTED_EDGE('',*,*,#129,.F.);
#158=ORIENTED_EDGE('',*,*,#130,.F.);
#159=ORIENTED_EDGE('',*,*,#131,.F.);
#160=ORIENTED_EDGE('',*,*,#132,.F.);
#161=ORIENTED_EDGE('',*,*,#133,.F.);
#162=ORIENTED_EDGE('',*,*,#134,.F.);
#163=ORIENTED_EDGE('',*,*,#135,.F.);
#164=ORIENTED_EDGE('',*,*,#136,.F.);
#165=ORIENTED_EDGE('',*,*,#137,.F.);
#166=ORIENTED_EDGE('',*,*,#130,.T.);
#167=ORIENTED_EDGE('',*,*,#138,.T.);
#168=ORIENTED_EDGE('',*,*,#136,.T.);
#169=ORIENTED_EDGE('',*,*,#139,.F.);
#170=ORIENTED_EDGE('',*,*,#131,.T.);
#171=ORIENTED_EDGE('',*,*,#137,.T.);
#172=ORIENTED_EDGE('',*,*,#135,.T.);
#173=ORIENTED_EDGE('',*,*,#119,.T.);
#174=ORIENTED_EDGE('',*,*,#122,.T.);
#175=ORIENTED_EDGE('',*,*,#125,.T.);
#176=ORIENTED_EDGE('',*,*,#128,.T.);
#177=ORIENTED_EDGE('',*,*,#140,.F.);
#178=ORIENTED_EDGE('',*,*,#132,.T.);
#179=ORIENTED_EDGE('',*,*,#139,.T.);
#180=ORIENTED_EDGE('',*,*,#134,.T.);
#181=ORIENTED_EDGE('',*,*,#138,.F.);
#182=ORIENTED_EDGE('',*,*,#129,.T.);
#183=ORIENTED_EDGE('',*,*,#140,.T.);
#184=ORIENTED_EDGE('',*,*,#133,.T.);
#185=ORIENTED_EDGE('',*,*,#117,.T.);
#186=ORIENTED_EDGE('',*,*,#120,.T.);
#187=ORIENTED_EDGE('',*,*,#123,.T.);
#188=ORIENTED_EDGE('',*,*,#126,.T.);
#189=CYLINDRICAL_SURFACE('',#218,0.13585);
#190=CYLINDRICAL_SURFACE('',#221,0.13585);
#191=CYLINDRICAL_SURFACE('',#224,0.13585);
#192=CYLINDRICAL_SURFACE('',#227,0.13585);
#193=ADVANCED_FACE('',(#33),#189,.F.);
#194=ADVANCED_FACE('',(#34),#190,.F.);
#195=ADVANCED_FACE('',(#35),#191,.F.);
#196=ADVANCED_FACE('',(#36),#192,.F.);
#197=ADVANCED_FACE('',(#37),#27,.F.);
#198=ADVANCED_FACE('',(#38),#28,.T.);
#199=ADVANCED_FACE('',(#39),#29,.T.);
#200=ADVANCED_FACE('',(#40,#19,#20,#21,#22),#30,.T.);
#201=ADVANCED_FACE('',(#41),#31,.T.);
#202=ADVANCED_FACE('',(#42,#23,#24,#25,#26),#32,.T.);
#203=CLOSED_SHELL('',(#193,#194,#195,#196,#197,#198,#199,#200,#201,#202));
#204=DERIVED_UNIT_ELEMENT(#206,1.);
#205=DERIVED_UNIT_ELEMENT(#355,-3.);
#206=(
MASS_UNIT()
NAMED_UNIT(*)
SI_UNIT(.KILO.,.GRAM.)
);
#207=DERIVED_UNIT((#204,#205));
#208=MEASURE_REPRESENTATION_ITEM('density measure',
POSITIVE_RATIO_MEASURE(7850.),#207);
#209=PROPERTY_DEFINITION_REPRESENTATION(#214,#211);
#210=PROPERTY_DEFINITION_REPRESENTATION(#215,#212);
#211=REPRESENTATION('material name',(#213),#352);
#212=REPRESENTATION('density',(#208),#352);
#213=DESCRIPTIVE_REPRESENTATION_ITEM('Steel','Steel');
#214=PROPERTY_DEFINITION('material property','material name',#367);
#215=PROPERTY_DEFINITION('material property','density of part',#367);
#216=AXIS2_PLACEMENT_3D('',#295,#237,#238);
#217=AXIS2_PLACEMENT_3D('',#296,#239,#240);
#218=AXIS2_PLACEMENT_3D('',#297,#241,#242);
#219=AXIS2_PLACEMENT_3D('',#299,#243,#244);
#220=AXIS2_PLACEMENT_3D('',#302,#246,#247);
#221=AXIS2_PLACEMENT_3D('',#303,#248,#249);
#222=AXIS2_PLACEMENT_3D('',#305,#250,#251);
#223=AXIS2_PLACEMENT_3D('',#308,#253,#254);
#224=AXIS2_PLACEMENT_3D('',#309,#255,#256);
#225=AXIS2_PLACEMENT_3D('',#311,#257,#258);
#226=AXIS2_PLACEMENT_3D('',#314,#260,#261);
#227=AXIS2_PLACEMENT_3D('',#315,#262,#263);
#228=AXIS2_PLACEMENT_3D('',#317,#264,#265);
#229=AXIS2_PLACEMENT_3D('',#320,#267,#268);
#230=AXIS2_PLACEMENT_3D('',#321,#269,#270);
#231=AXIS2_PLACEMENT_3D('',#330,#275,#276);
#232=AXIS2_PLACEMENT_3D('',#339,#281,#282);
#233=AXIS2_PLACEMENT_3D('',#342,#285,#286);
#234=AXIS2_PLACEMENT_3D('',#344,#288,#289);
#235=AXIS2_PLACEMENT_3D('',#346,#291,#292);
#236=AXIS2_PLACEMENT_3D('',#347,#293,#294);
#237=DIRECTION('axis',(0.,0.,1.));
#238=DIRECTION('refdir',(1.,0.,0.));
#239=DIRECTION('axis',(0.,0.,1.));
#240=DIRECTION('refdir',(1.,0.,0.));
#241=DIRECTION('center_axis',(1.53270233705725E-16,1.,-1.91826493695403E-16));
#242=DIRECTION('ref_axis',(-1.,1.75767484320741E-15,9.95799250102958E-17));
#243=DIRECTION('center_axis',(6.12323399573677E-17,1.,-2.22044604925031E-16));
#244=DIRECTION('ref_axis',(-1.,1.75767484320741E-15,9.95799250102958E-17));
#245=DIRECTION('',(1.53270233705725E-16,1.,-1.91826493695403E-16));
#246=DIRECTION('center_axis',(-6.12323399573677E-17,-1.,2.22044604925031E-16));
#247=DIRECTION('ref_axis',(-1.,1.75767484320741E-15,9.95799250102958E-17));
#248=DIRECTION('center_axis',(1.53270233705725E-16,1.,-1.91826493695403E-16));
#249=DIRECTION('ref_axis',(-1.,1.75767484320741E-15,9.95799250102958E-17));
#250=DIRECTION('center_axis',(6.12323399573677E-17,1.,-2.22044604925031E-16));
#251=DIRECTION('ref_axis',(-1.,1.75767484320741E-15,9.95799250102958E-17));
#252=DIRECTION('',(1.53270233705725E-16,1.,-1.91826493695403E-16));
#253=DIRECTION('center_axis',(-6.12323399573677E-17,-1.,2.22044604925031E-16));
#254=DIRECTION('ref_axis',(-1.,1.75767484320741E-15,9.95799250102958E-17));
#255=DIRECTION('center_axis',(1.53270233705725E-16,1.,-1.91826493695403E-16));
#256=DIRECTION('ref_axis',(-1.,1.75767484320741E-15,9.95799250102958E-17));
#257=DIRECTION('center_axis',(6.12323399573677E-17,1.,-2.22044604925031E-16));
#258=DIRECTION('ref_axis',(-1.,1.75767484320741E-15,9.95799250102958E-17));
#259=DIRECTION('',(1.53270233705725E-16,1.,-1.91826493695403E-16));
#260=DIRECTION('center_axis',(-6.12323399573677E-17,-1.,2.22044604925031E-16));
#261=DIRECTION('ref_axis',(-1.,1.75767484320741E-15,9.95799250102958E-17));
#262=DIRECTION('center_axis',(1.53270233705725E-16,1.,-1.91826493695403E-16));
#263=DIRECTION('ref_axis',(-1.,1.75767484320741E-15,9.95799250102958E-17));
#264=DIRECTION('center_axis',(6.12323399573677E-17,1.,-2.22044604925031E-16));
#265=DIRECTION('ref_axis',(-1.,1.75767484320741E-15,9.95799250102958E-17));
#266=DIRECTION('',(1.53270233705725E-16,1.,-1.91826493695403E-16));
#267=DIRECTION('center_axis',(-6.12323399573677E-17,-1.,2.22044604925031E-16));
#268=DIRECTION('ref_axis',(-1.,1.75767484320741E-15,9.95799250102958E-17));
#269=DIRECTION('center_axis',(-1.,6.12323399573676E-17,-1.27823008420996E-16));
#270=DIRECTION('ref_axis',(-1.27823008420996E-16,0.,1.));
#271=DIRECTION('',(-1.27823008420996E-16,2.22044604925031E-16,1.));
#272=DIRECTION('',(-6.12323399573677E-17,-1.,2.22044604925031E-16));
#273=DIRECTION('',(1.27823008420996E-16,-2.22044604925031E-16,-1.));
#274=DIRECTION('',(6.12323399573677E-17,1.,-2.22044604925031E-16));
#275=DIRECTION('center_axis',(-1.,6.12323399573676E-17,-1.27823008420996E-16));
#276=DIRECTION('ref_axis',(-1.27823008420996E-16,0.,1.));
#277=DIRECTION('',(1.27823008420996E-16,-2.22044604925031E-16,-1.));
#278=DIRECTION('',(-6.12323399573677E-17,-1.,2.22044604925031E-16));
#279=DIRECTION('',(-1.27823008420996E-16,2.22044604925031E-16,1.));
#280=DIRECTION('',(6.12323399573677E-17,1.,-2.22044604925031E-16));
#281=DIRECTION('center_axis',(2.93327430090337E-17,-2.22044604925031E-16,
-1.));
#282=DIRECTION('ref_axis',(-1.,0.,-2.93327430090337E-17));
#283=DIRECTION('',(-1.,6.12323399573676E-17,-2.93327430090337E-17));
#284=DIRECTION('',(-1.,6.12323399573676E-17,-2.93327430090337E-17));
#285=DIRECTION('center_axis',(6.12323399573677E-17,1.,-2.22044604925031E-16));
#286=DIRECTION('ref_axis',(0.,2.22044604925031E-16,1.));
#287=DIRECTION('',(-1.,6.12323399573676E-17,-2.93327430090337E-17));
#288=DIRECTION('center_axis',(-2.93327430090337E-17,2.22044604925031E-16,
1.));
#289=DIRECTION('ref_axis',(1.,0.,2.93327430090337E-17));
#290=DIRECTION('',(-1.,6.12323399573676E-17,-2.93327430090337E-17));
#291=DIRECTION('center_axis',(-6.12323399573677E-17,-1.,2.22044604925031E-16));
#292=DIRECTION('ref_axis',(0.,-2.22044604925031E-16,-1.));
#293=DIRECTION('',(0.,0.,1.));
#294=DIRECTION('',(1.,0.,0.));
#295=CARTESIAN_POINT('',(0.,0.,0.));
#296=CARTESIAN_POINT('',(0.,0.,0.));
#297=CARTESIAN_POINT('Origin',(9.7491479302823,-0.140849961853028,0.331463850467844));
#298=CARTESIAN_POINT('',(9.8849979302823,0.600000038146946,0.331463850467844));
#299=CARTESIAN_POINT('Origin',(9.7491479302823,0.600000038146946,0.331463850467844));
#300=CARTESIAN_POINT('',(9.8849979302823,0.682312059405797,0.331463850467844));
#301=CARTESIAN_POINT('',(9.8849979302823,-0.140849961853028,0.331463850467844));
#302=CARTESIAN_POINT('Origin',(9.7491479302823,0.682312059405797,0.331463850467844));
#303=CARTESIAN_POINT('Origin',(-9.65385206971765,-0.140849961853026,0.323066369759573));
#304=CARTESIAN_POINT('',(-9.51800206971765,0.600000038146949,0.323066369759573));
#305=CARTESIAN_POINT('Origin',(-9.65385206971765,0.600000038146949,0.323066369759573));
#306=CARTESIAN_POINT('',(-9.51800206971765,0.6823120594058,0.323066369759573));
#307=CARTESIAN_POINT('',(-9.51800206971765,-0.140849961853026,0.323066369759573));
#308=CARTESIAN_POINT('Origin',(-9.65385206971765,0.6823120594058,0.323066369759573));
#309=CARTESIAN_POINT('Origin',(-9.65085206971772,-0.140849961853024,9.25357081760791));
#310=CARTESIAN_POINT('',(-9.51500206971772,0.60000003814695,9.25357081760791));
#311=CARTESIAN_POINT('Origin',(-9.65085206971772,0.600000038146951,9.25357081760791));
#312=CARTESIAN_POINT('',(-9.51500206971772,0.682312059405801,9.25357081760791));
#313=CARTESIAN_POINT('',(-9.51500206971772,-0.140849961853024,9.25357081760791));
#314=CARTESIAN_POINT('Origin',(-9.65085206971772,0.682312059405802,9.25357081760791));
#315=CARTESIAN_POINT('Origin',(9.75014793028204,-0.140849961853026,9.235));
#316=CARTESIAN_POINT('',(9.88599793028204,0.600000038146947,9.235));
#317=CARTESIAN_POINT('Origin',(9.75014793028204,0.600000038146948,9.235));
#318=CARTESIAN_POINT('',(9.88599793028204,0.682312059405799,9.235));
#319=CARTESIAN_POINT('',(9.88599793028204,-0.140849961853026,9.235));
#320=CARTESIAN_POINT('Origin',(9.75014793028204,0.682312059405799,9.235));
#321=CARTESIAN_POINT('Origin',(9.9999772631492,0.641156048776373,4.76));
#322=CARTESIAN_POINT('',(9.9999772631492,0.600000038146947,1.56240049385454E-15));
#323=CARTESIAN_POINT('',(9.9999772631492,0.600000038146949,9.52));
#324=CARTESIAN_POINT('',(9.9999772631492,0.600000038146948,4.76));
#325=CARTESIAN_POINT('',(9.9999772631492,0.682312059405798,1.54412355361354E-15));
#326=CARTESIAN_POINT('',(9.9999772631492,0.641156048776372,1.55326202373404E-15));
#327=CARTESIAN_POINT('',(9.9999772631492,0.6823120594058,9.52));
#328=CARTESIAN_POINT('',(9.9999772631492,0.682312059405799,4.76));
#329=CARTESIAN_POINT('',(9.9999772631492,0.641156048776374,9.52));
#330=CARTESIAN_POINT('Origin',(-9.87310028076172,0.641156048776374,4.76));
#331=CARTESIAN_POINT('',(-9.87310028076172,0.60000003814695,9.52));
#332=CARTESIAN_POINT('',(-9.87310028076172,0.600000038146948,9.79468617460401E-16));
#333=CARTESIAN_POINT('',(-9.87310028076172,0.600000038146949,4.76));
#334=CARTESIAN_POINT('',(-9.87310028076172,0.682312059405801,9.52));
#335=CARTESIAN_POINT('',(-9.87310028076172,0.641156048776375,9.52));
#336=CARTESIAN_POINT('',(-9.87310028076172,0.682312059405799,9.61191677219399E-16));
#337=CARTESIAN_POINT('',(-9.87310028076172,0.6823120594058,4.76));
#338=CARTESIAN_POINT('',(-9.87310028076172,0.641156048776373,9.703301473399E-16));
#339=CARTESIAN_POINT('Origin',(0.0634384911937403,0.641156048776373,1.26179608553697E-15));
#340=CARTESIAN_POINT('',(0.0634384911937403,0.682312059405798,1.25265761541647E-15));
#341=CARTESIAN_POINT('',(0.0634384911937403,0.600000038146947,1.27093455565747E-15));
#342=CARTESIAN_POINT('Origin',(0.0634384911937397,0.682312059405799,4.76));
#343=CARTESIAN_POINT('',(0.0634384911937391,0.6823120594058,9.52));
#344=CARTESIAN_POINT('Origin',(0.0634384911937391,0.641156048776375,9.52));
#345=CARTESIAN_POINT('',(0.0634384911937391,0.600000038146949,9.52));
#346=CARTESIAN_POINT('Origin',(0.0634384911937397,0.600000038146948,4.76));
#347=CARTESIAN_POINT('',(0.,0.,0.));
#348=UNCERTAINTY_MEASURE_WITH_UNIT(LENGTH_MEASURE(0.001),#354,
'DISTANCE_ACCURACY_VALUE',
'Maximum model space distance between geometric entities at asserted c
onnectivities');
#349=UNCERTAINTY_MEASURE_WITH_UNIT(LENGTH_MEASURE(0.001),#354,
'DISTANCE_ACCURACY_VALUE',
'Maximum model space distance between geometric entities at asserted c
onnectivities');
#350=UNCERTAINTY_MEASURE_WITH_UNIT(LENGTH_MEASURE(0.001),#354,
'DISTANCE_ACCURACY_VALUE',
'Maximum model space distance between geometric entities at asserted c
onnectivities');
#351=(
GEOMETRIC_REPRESENTATION_CONTEXT(3)
GLOBAL_UNCERTAINTY_ASSIGNED_CONTEXT((#348))
GLOBAL_UNIT_ASSIGNED_CONTEXT((#354,#356,#357))
REPRESENTATION_CONTEXT('','3D')
);
#352=(
GEOMETRIC_REPRESENTATION_CONTEXT(3)
GLOBAL_UNCERTAINTY_ASSIGNED_CONTEXT((#349))
GLOBAL_UNIT_ASSIGNED_CONTEXT((#354,#356,#357))
REPRESENTATION_CONTEXT('','3D')
);
#353=(
GEOMETRIC_REPRESENTATION_CONTEXT(3)
GLOBAL_UNCERTAINTY_ASSIGNED_CONTEXT((#350))
GLOBAL_UNIT_ASSIGNED_CONTEXT((#354,#356,#357))
REPRESENTATION_CONTEXT('','3D')
);
#354=(
LENGTH_UNIT()
NAMED_UNIT(*)
SI_UNIT(.CENTI.,.METRE.)
);
#355=(
LENGTH_UNIT()
NAMED_UNIT(*)
SI_UNIT($,.METRE.)
);
#356=(
NAMED_UNIT(*)
PLANE_ANGLE_UNIT()
SI_UNIT($,.RADIAN.)
);
#357=(
NAMED_UNIT(*)
SI_UNIT($,.STERADIAN.)
SOLID_ANGLE_UNIT()
);
#358=SHAPE_DEFINITION_REPRESENTATION(#360,#363);
#359=SHAPE_DEFINITION_REPRESENTATION(#361,#364);
#360=PRODUCT_DEFINITION_SHAPE('',$,#366);
#361=PRODUCT_DEFINITION_SHAPE('',$,#367);
#362=PRODUCT_DEFINITION_SHAPE($,$,#14);
#363=SHAPE_REPRESENTATION('',(#216,#236),#351);
#364=SHAPE_REPRESENTATION('',(#217),#352);
#365=PRODUCT_DEFINITION_CONTEXT('part definition',#373,'design');
#366=PRODUCT_DEFINITION('2026-06-09-11-55-29-445','(Unsaved)',#368,#365);
#367=PRODUCT_DEFINITION('2026-06-09-11-55-29-991','Component1',#369,#365);
#368=PRODUCT_DEFINITION_FORMATION('',$,#375);
#369=PRODUCT_DEFINITION_FORMATION('',$,#376);
#370=PRODUCT_RELATED_PRODUCT_CATEGORY('(Unsaved)','(Unsaved)',(#375));
#371=PRODUCT_RELATED_PRODUCT_CATEGORY('Component1','Component1',(#376));
#372=APPLICATION_PROTOCOL_DEFINITION('international standard',
'automotive_design',2009,#373);
#373=APPLICATION_CONTEXT(
'Core Data for Automotive Mechanical Design Process');
#374=PRODUCT_CONTEXT('part definition',#373,'mechanical');
#375=PRODUCT('2026-06-09-11-55-29-445','(Unsaved)',$,(#374));
#376=PRODUCT('2026-06-09-11-55-29-991','Component1',$,(#374));
#377=PRESENTATION_STYLE_ASSIGNMENT((#379));
#378=PRESENTATION_STYLE_ASSIGNMENT((#380));
#379=SURFACE_STYLE_USAGE(.BOTH.,#381);
#380=SURFACE_STYLE_USAGE(.BOTH.,#382);
#381=SURFACE_SIDE_STYLE('',(#383));
#382=SURFACE_SIDE_STYLE('',(#384));
#383=SURFACE_STYLE_FILL_AREA(#385);
#384=SURFACE_STYLE_FILL_AREA(#386);
#385=FILL_AREA_STYLE('Steel - Satin',(#387));
#386=FILL_AREA_STYLE('Base Material - Opaque',(#388));
#387=FILL_AREA_STYLE_COLOUR('Steel - Satin',#389);
#388=FILL_AREA_STYLE_COLOUR('Base Material - Opaque',#390);
#389=COLOUR_RGB('Steel - Satin',0.627450980392157,0.627450980392157,0.627450980392157);
#390=COLOUR_RGB('Base Material - Opaque',0.380392156862745,0.403921568627451,
0.415686274509804);
ENDSEC;
END-ISO-10303-21;
