ISO-10303-21;
HEADER;
/* Generated by software containing ST-Developer
 * from STEP Tools, Inc. (www.steptools.com) 
 */

FILE_DESCRIPTION(
/* description */ (''),
/* implementation_level */ '2;1');

FILE_NAME(
/* name */ 'Shootex target cover.step',
/* time_stamp */ '2026-06-09T12:05:12+05:30',
/* author */ (''),
/* organization */ (''),
/* preprocessor_version */ 'ST-DEVELOPER v20.1',
/* originating_system */ 'Autodesk Translation Framework v15.8.0.0',
/* authorisation */ '');

FILE_SCHEMA (('AUTOMOTIVE_DESIGN { 1 0 10303 214 3 1 1 }'));
ENDSEC;

DATA;
#10=MECHANICAL_DESIGN_GEOMETRIC_PRESENTATION_REPRESENTATION('',(#35,#36,
#37,#38),#1587);
#11=ITEM_DEFINED_TRANSFORMATION($,$,#997,#1065);
#12=ITEM_DEFINED_TRANSFORMATION($,$,#1014,#1066);
#13=ITEM_DEFINED_TRANSFORMATION($,$,#1031,#1067);
#14=ITEM_DEFINED_TRANSFORMATION($,$,#1048,#1068);
#15=(
REPRESENTATION_RELATIONSHIP($,$,#1607,#1606)
REPRESENTATION_RELATIONSHIP_WITH_TRANSFORMATION(#11)
SHAPE_REPRESENTATION_RELATIONSHIP()
);
#16=(
REPRESENTATION_RELATIONSHIP($,$,#1608,#1606)
REPRESENTATION_RELATIONSHIP_WITH_TRANSFORMATION(#12)
SHAPE_REPRESENTATION_RELATIONSHIP()
);
#17=(
REPRESENTATION_RELATIONSHIP($,$,#1609,#1606)
REPRESENTATION_RELATIONSHIP_WITH_TRANSFORMATION(#13)
SHAPE_REPRESENTATION_RELATIONSHIP()
);
#18=(
REPRESENTATION_RELATIONSHIP($,$,#1610,#1606)
REPRESENTATION_RELATIONSHIP_WITH_TRANSFORMATION(#14)
SHAPE_REPRESENTATION_RELATIONSHIP()
);
#19=CONTEXT_DEPENDENT_SHAPE_REPRESENTATION(#15,#1602);
#20=CONTEXT_DEPENDENT_SHAPE_REPRESENTATION(#16,#1603);
#21=CONTEXT_DEPENDENT_SHAPE_REPRESENTATION(#17,#1604);
#22=CONTEXT_DEPENDENT_SHAPE_REPRESENTATION(#18,#1605);
#23=NEXT_ASSEMBLY_USAGE_OCCURRENCE('Component1:1','Component1:1',
'Component1:1',#1612,#1613,'Component1:1');
#24=NEXT_ASSEMBLY_USAGE_OCCURRENCE('Component2:1','Component2:1',
'Component2:1',#1612,#1614,'Component2:1');
#25=NEXT_ASSEMBLY_USAGE_OCCURRENCE('Component3:1','Component3:1',
'Component3:1',#1612,#1615,'Component3:1');
#26=NEXT_ASSEMBLY_USAGE_OCCURRENCE('Component4:1','Component4:1',
'Component4:1',#1612,#1616,'Component4:1');
#27=SHAPE_REPRESENTATION_RELATIONSHIP('SRR','None',#1607,#31);
#28=SHAPE_REPRESENTATION_RELATIONSHIP('SRR','None',#1608,#32);
#29=SHAPE_REPRESENTATION_RELATIONSHIP('SRR','None',#1609,#33);
#30=SHAPE_REPRESENTATION_RELATIONSHIP('SRR','None',#1610,#34);
#31=ADVANCED_BREP_SHAPE_REPRESENTATION('',(#39),#1583);
#32=ADVANCED_BREP_SHAPE_REPRESENTATION('',(#40),#1584);
#33=ADVANCED_BREP_SHAPE_REPRESENTATION('',(#41),#1585);
#34=ADVANCED_BREP_SHAPE_REPRESENTATION('',(#42),#1586);
#35=STYLED_ITEM('',(#1636),#39);
#36=STYLED_ITEM('',(#1636),#40);
#37=STYLED_ITEM('',(#1636),#41);
#38=STYLED_ITEM('',(#1636),#42);
#39=MANIFOLD_SOLID_BREP('Body1',#947);
#40=MANIFOLD_SOLID_BREP('Body1',#948);
#41=MANIFOLD_SOLID_BREP('Body1',#949);
#42=MANIFOLD_SOLID_BREP('Body1',#950);
#43=FACE_BOUND('',#164,.T.);
#44=FACE_BOUND('',#165,.T.);
#45=FACE_BOUND('',#166,.T.);
#46=FACE_BOUND('',#169,.T.);
#47=FACE_BOUND('',#170,.T.);
#48=FACE_BOUND('',#171,.T.);
#49=FACE_BOUND('',#182,.T.);
#50=FACE_BOUND('',#183,.T.);
#51=FACE_BOUND('',#184,.T.);
#52=FACE_BOUND('',#187,.T.);
#53=FACE_BOUND('',#188,.T.);
#54=FACE_BOUND('',#189,.T.);
#55=FACE_BOUND('',#200,.T.);
#56=FACE_BOUND('',#201,.T.);
#57=FACE_BOUND('',#202,.T.);
#58=FACE_BOUND('',#205,.T.);
#59=FACE_BOUND('',#206,.T.);
#60=FACE_BOUND('',#207,.T.);
#61=FACE_BOUND('',#218,.T.);
#62=FACE_BOUND('',#219,.T.);
#63=FACE_BOUND('',#220,.T.);
#64=FACE_BOUND('',#223,.T.);
#65=FACE_BOUND('',#224,.T.);
#66=FACE_BOUND('',#225,.T.);
#67=PLANE('',#1004);
#68=PLANE('',#1005);
#69=PLANE('',#1006);
#70=PLANE('',#1007);
#71=PLANE('',#1008);
#72=PLANE('',#1009);
#73=PLANE('',#1010);
#74=PLANE('',#1011);
#75=PLANE('',#1012);
#76=PLANE('',#1013);
#77=PLANE('',#1021);
#78=PLANE('',#1022);
#79=PLANE('',#1023);
#80=PLANE('',#1024);
#81=PLANE('',#1025);
#82=PLANE('',#1026);
#83=PLANE('',#1027);
#84=PLANE('',#1028);
#85=PLANE('',#1029);
#86=PLANE('',#1030);
#87=PLANE('',#1038);
#88=PLANE('',#1039);
#89=PLANE('',#1040);
#90=PLANE('',#1041);
#91=PLANE('',#1042);
#92=PLANE('',#1043);
#93=PLANE('',#1044);
#94=PLANE('',#1045);
#95=PLANE('',#1046);
#96=PLANE('',#1047);
#97=PLANE('',#1055);
#98=PLANE('',#1056);
#99=PLANE('',#1057);
#100=PLANE('',#1058);
#101=PLANE('',#1059);
#102=PLANE('',#1060);
#103=PLANE('',#1061);
#104=PLANE('',#1062);
#105=PLANE('',#1063);
#106=PLANE('',#1064);
#107=FACE_OUTER_BOUND('',#155,.T.);
#108=FACE_OUTER_BOUND('',#156,.T.);
#109=FACE_OUTER_BOUND('',#157,.T.);
#110=FACE_OUTER_BOUND('',#158,.T.);
#111=FACE_OUTER_BOUND('',#159,.T.);
#112=FACE_OUTER_BOUND('',#160,.T.);
#113=FACE_OUTER_BOUND('',#161,.T.);
#114=FACE_OUTER_BOUND('',#162,.T.);
#115=FACE_OUTER_BOUND('',#163,.T.);
#116=FACE_OUTER_BOUND('',#167,.T.);
#117=FACE_OUTER_BOUND('',#168,.T.);
#118=FACE_OUTER_BOUND('',#172,.T.);
#119=FACE_OUTER_BOUND('',#173,.T.);
#120=FACE_OUTER_BOUND('',#174,.T.);
#121=FACE_OUTER_BOUND('',#175,.T.);
#122=FACE_OUTER_BOUND('',#176,.T.);
#123=FACE_OUTER_BOUND('',#177,.T.);
#124=FACE_OUTER_BOUND('',#178,.T.);
#125=FACE_OUTER_BOUND('',#179,.T.);
#126=FACE_OUTER_BOUND('',#180,.T.);
#127=FACE_OUTER_BOUND('',#181,.T.);
#128=FACE_OUTER_BOUND('',#185,.T.);
#129=FACE_OUTER_BOUND('',#186,.T.);
#130=FACE_OUTER_BOUND('',#190,.T.);
#131=FACE_OUTER_BOUND('',#191,.T.);
#132=FACE_OUTER_BOUND('',#192,.T.);
#133=FACE_OUTER_BOUND('',#193,.T.);
#134=FACE_OUTER_BOUND('',#194,.T.);
#135=FACE_OUTER_BOUND('',#195,.T.);
#136=FACE_OUTER_BOUND('',#196,.T.);
#137=FACE_OUTER_BOUND('',#197,.T.);
#138=FACE_OUTER_BOUND('',#198,.T.);
#139=FACE_OUTER_BOUND('',#199,.T.);
#140=FACE_OUTER_BOUND('',#203,.T.);
#141=FACE_OUTER_BOUND('',#204,.T.);
#142=FACE_OUTER_BOUND('',#208,.T.);
#143=FACE_OUTER_BOUND('',#209,.T.);
#144=FACE_OUTER_BOUND('',#210,.T.);
#145=FACE_OUTER_BOUND('',#211,.T.);
#146=FACE_OUTER_BOUND('',#212,.T.);
#147=FACE_OUTER_BOUND('',#213,.T.);
#148=FACE_OUTER_BOUND('',#214,.T.);
#149=FACE_OUTER_BOUND('',#215,.T.);
#150=FACE_OUTER_BOUND('',#216,.T.);
#151=FACE_OUTER_BOUND('',#217,.T.);
#152=FACE_OUTER_BOUND('',#221,.T.);
#153=FACE_OUTER_BOUND('',#222,.T.);
#154=FACE_OUTER_BOUND('',#226,.T.);
#155=EDGE_LOOP('',(#651,#652,#653,#654));
#156=EDGE_LOOP('',(#655,#656,#657,#658));
#157=EDGE_LOOP('',(#659,#660,#661,#662));
#158=EDGE_LOOP('',(#663,#664,#665,#666));
#159=EDGE_LOOP('',(#667,#668,#669,#670));
#160=EDGE_LOOP('',(#671,#672,#673,#674));
#161=EDGE_LOOP('',(#675,#676,#677,#678));
#162=EDGE_LOOP('',(#679,#680,#681,#682));
#163=EDGE_LOOP('',(#683,#684,#685,#686));
#164=EDGE_LOOP('',(#687));
#165=EDGE_LOOP('',(#688));
#166=EDGE_LOOP('',(#689,#690,#691,#692));
#167=EDGE_LOOP('',(#693,#694,#695,#696));
#168=EDGE_LOOP('',(#697,#698,#699,#700));
#169=EDGE_LOOP('',(#701));
#170=EDGE_LOOP('',(#702));
#171=EDGE_LOOP('',(#703,#704,#705,#706));
#172=EDGE_LOOP('',(#707,#708,#709,#710));
#173=EDGE_LOOP('',(#711,#712,#713,#714));
#174=EDGE_LOOP('',(#715,#716,#717,#718));
#175=EDGE_LOOP('',(#719,#720,#721,#722));
#176=EDGE_LOOP('',(#723,#724,#725,#726));
#177=EDGE_LOOP('',(#727,#728,#729,#730));
#178=EDGE_LOOP('',(#731,#732,#733,#734));
#179=EDGE_LOOP('',(#735,#736,#737,#738));
#180=EDGE_LOOP('',(#739,#740,#741,#742));
#181=EDGE_LOOP('',(#743,#744,#745,#746));
#182=EDGE_LOOP('',(#747));
#183=EDGE_LOOP('',(#748));
#184=EDGE_LOOP('',(#749,#750,#751,#752));
#185=EDGE_LOOP('',(#753,#754,#755,#756));
#186=EDGE_LOOP('',(#757,#758,#759,#760));
#187=EDGE_LOOP('',(#761));
#188=EDGE_LOOP('',(#762));
#189=EDGE_LOOP('',(#763,#764,#765,#766));
#190=EDGE_LOOP('',(#767,#768,#769,#770));
#191=EDGE_LOOP('',(#771,#772,#773,#774));
#192=EDGE_LOOP('',(#775,#776,#777,#778));
#193=EDGE_LOOP('',(#779,#780,#781,#782));
#194=EDGE_LOOP('',(#783,#784,#785,#786));
#195=EDGE_LOOP('',(#787,#788,#789,#790));
#196=EDGE_LOOP('',(#791,#792,#793,#794));
#197=EDGE_LOOP('',(#795,#796,#797,#798));
#198=EDGE_LOOP('',(#799,#800,#801,#802));
#199=EDGE_LOOP('',(#803,#804,#805,#806));
#200=EDGE_LOOP('',(#807));
#201=EDGE_LOOP('',(#808));
#202=EDGE_LOOP('',(#809,#810,#811,#812));
#203=EDGE_LOOP('',(#813,#814,#815,#816));
#204=EDGE_LOOP('',(#817,#818,#819,#820));
#205=EDGE_LOOP('',(#821));
#206=EDGE_LOOP('',(#822));
#207=EDGE_LOOP('',(#823,#824,#825,#826));
#208=EDGE_LOOP('',(#827,#828,#829,#830));
#209=EDGE_LOOP('',(#831,#832,#833,#834));
#210=EDGE_LOOP('',(#835,#836,#837,#838));
#211=EDGE_LOOP('',(#839,#840,#841,#842));
#212=EDGE_LOOP('',(#843,#844,#845,#846));
#213=EDGE_LOOP('',(#847,#848,#849,#850));
#214=EDGE_LOOP('',(#851,#852,#853,#854));
#215=EDGE_LOOP('',(#855,#856,#857,#858));
#216=EDGE_LOOP('',(#859,#860,#861,#862));
#217=EDGE_LOOP('',(#863,#864,#865,#866));
#218=EDGE_LOOP('',(#867));
#219=EDGE_LOOP('',(#868));
#220=EDGE_LOOP('',(#869,#870,#871,#872));
#221=EDGE_LOOP('',(#873,#874,#875,#876));
#222=EDGE_LOOP('',(#877,#878,#879,#880));
#223=EDGE_LOOP('',(#881));
#224=EDGE_LOOP('',(#882));
#225=EDGE_LOOP('',(#883,#884,#885,#886));
#226=EDGE_LOOP('',(#887,#888,#889,#890));
#227=LINE('',#1325,#331);
#228=LINE('',#1331,#332);
#229=LINE('',#1336,#333);
#230=LINE('',#1338,#334);
#231=LINE('',#1340,#335);
#232=LINE('',#1341,#336);
#233=LINE('',#1344,#337);
#234=LINE('',#1346,#338);
#235=LINE('',#1347,#339);
#236=LINE('',#1350,#340);
#237=LINE('',#1352,#341);
#238=LINE('',#1353,#342);
#239=LINE('',#1355,#343);
#240=LINE('',#1356,#344);
#241=LINE('',#1360,#345);
#242=LINE('',#1362,#346);
#243=LINE('',#1364,#347);
#244=LINE('',#1365,#348);
#245=LINE('',#1369,#349);
#246=LINE('',#1371,#350);
#247=LINE('',#1373,#351);
#248=LINE('',#1374,#352);
#249=LINE('',#1376,#353);
#250=LINE('',#1377,#354);
#251=LINE('',#1379,#355);
#252=LINE('',#1381,#356);
#253=LINE('',#1388,#357);
#254=LINE('',#1394,#358);
#255=LINE('',#1399,#359);
#256=LINE('',#1401,#360);
#257=LINE('',#1403,#361);
#258=LINE('',#1404,#362);
#259=LINE('',#1407,#363);
#260=LINE('',#1409,#364);
#261=LINE('',#1410,#365);
#262=LINE('',#1413,#366);
#263=LINE('',#1415,#367);
#264=LINE('',#1416,#368);
#265=LINE('',#1418,#369);
#266=LINE('',#1419,#370);
#267=LINE('',#1423,#371);
#268=LINE('',#1425,#372);
#269=LINE('',#1427,#373);
#270=LINE('',#1428,#374);
#271=LINE('',#1432,#375);
#272=LINE('',#1434,#376);
#273=LINE('',#1436,#377);
#274=LINE('',#1437,#378);
#275=LINE('',#1439,#379);
#276=LINE('',#1440,#380);
#277=LINE('',#1442,#381);
#278=LINE('',#1444,#382);
#279=LINE('',#1451,#383);
#280=LINE('',#1457,#384);
#281=LINE('',#1462,#385);
#282=LINE('',#1464,#386);
#283=LINE('',#1466,#387);
#284=LINE('',#1467,#388);
#285=LINE('',#1470,#389);
#286=LINE('',#1472,#390);
#287=LINE('',#1473,#391);
#288=LINE('',#1476,#392);
#289=LINE('',#1478,#393);
#290=LINE('',#1479,#394);
#291=LINE('',#1481,#395);
#292=LINE('',#1482,#396);
#293=LINE('',#1486,#397);
#294=LINE('',#1488,#398);
#295=LINE('',#1490,#399);
#296=LINE('',#1491,#400);
#297=LINE('',#1495,#401);
#298=LINE('',#1497,#402);
#299=LINE('',#1499,#403);
#300=LINE('',#1500,#404);
#301=LINE('',#1502,#405);
#302=LINE('',#1503,#406);
#303=LINE('',#1505,#407);
#304=LINE('',#1507,#408);
#305=LINE('',#1514,#409);
#306=LINE('',#1520,#410);
#307=LINE('',#1525,#411);
#308=LINE('',#1527,#412);
#309=LINE('',#1529,#413);
#310=LINE('',#1530,#414);
#311=LINE('',#1533,#415);
#312=LINE('',#1535,#416);
#313=LINE('',#1536,#417);
#314=LINE('',#1539,#418);
#315=LINE('',#1541,#419);
#316=LINE('',#1542,#420);
#317=LINE('',#1544,#421);
#318=LINE('',#1545,#422);
#319=LINE('',#1549,#423);
#320=LINE('',#1551,#424);
#321=LINE('',#1553,#425);
#322=LINE('',#1554,#426);
#323=LINE('',#1558,#427);
#324=LINE('',#1560,#428);
#325=LINE('',#1562,#429);
#326=LINE('',#1563,#430);
#327=LINE('',#1565,#431);
#328=LINE('',#1566,#432);
#329=LINE('',#1568,#433);
#330=LINE('',#1570,#434);
#331=VECTOR('',#1077,0.0658499999999998);
#332=VECTOR('',#1084,0.0658499999999998);
#333=VECTOR('',#1089,1.);
#334=VECTOR('',#1090,0.100085);
#335=VECTOR('',#1091,1.);
#336=VECTOR('',#1092,0.100085);
#337=VECTOR('',#1095,1.);
#338=VECTOR('',#1096,1.);
#339=VECTOR('',#1097,0.100085);
#340=VECTOR('',#1100,1.);
#341=VECTOR('',#1101,1.);
#342=VECTOR('',#1102,0.100085);
#343=VECTOR('',#1105,1.);
#344=VECTOR('',#1106,1.);
#345=VECTOR('',#1109,0.00118963141074648);
#346=VECTOR('',#1110,0.0700000066757209);
#347=VECTOR('',#1111,0.00118963141074648);
#348=VECTOR('',#1112,0.0700000066757209);
#349=VECTOR('',#1115,0.00118963141074648);
#350=VECTOR('',#1116,0.0700000066757209);
#351=VECTOR('',#1117,0.00118963141074648);
#352=VECTOR('',#1118,0.0700000066757209);
#353=VECTOR('',#1121,0.0402496525249465);
#354=VECTOR('',#1122,0.0402496525249465);
#355=VECTOR('',#1125,0.0402496525249465);
#356=VECTOR('',#1128,0.0402496525249465);
#357=VECTOR('',#1137,0.0658499999999998);
#358=VECTOR('',#1144,0.0658499999999998);
#359=VECTOR('',#1149,1.);
#360=VECTOR('',#1150,0.100085);
#361=VECTOR('',#1151,1.);
#362=VECTOR('',#1152,0.100085);
#363=VECTOR('',#1155,1.);
#364=VECTOR('',#1156,1.);
#365=VECTOR('',#1157,0.100085);
#366=VECTOR('',#1160,1.);
#367=VECTOR('',#1161,1.);
#368=VECTOR('',#1162,0.100085);
#369=VECTOR('',#1165,1.);
#370=VECTOR('',#1166,1.);
#371=VECTOR('',#1169,0.00118963141074648);
#372=VECTOR('',#1170,0.0700000066757209);
#373=VECTOR('',#1171,0.00118963141074648);
#374=VECTOR('',#1172,0.0700000066757209);
#375=VECTOR('',#1175,0.00118963141074648);
#376=VECTOR('',#1176,0.0700000066757209);
#377=VECTOR('',#1177,0.00118963141074648);
#378=VECTOR('',#1178,0.0700000066757209);
#379=VECTOR('',#1181,0.0402496525249465);
#380=VECTOR('',#1182,0.0402496525249465);
#381=VECTOR('',#1185,0.0402496525249465);
#382=VECTOR('',#1188,0.0402496525249465);
#383=VECTOR('',#1197,0.0658499999999998);
#384=VECTOR('',#1204,0.0658499999999998);
#385=VECTOR('',#1209,1.);
#386=VECTOR('',#1210,0.100085);
#387=VECTOR('',#1211,1.);
#388=VECTOR('',#1212,0.100085);
#389=VECTOR('',#1215,1.);
#390=VECTOR('',#1216,1.);
#391=VECTOR('',#1217,0.100085);
#392=VECTOR('',#1220,1.);
#393=VECTOR('',#1221,1.);
#394=VECTOR('',#1222,0.100085);
#395=VECTOR('',#1225,1.);
#396=VECTOR('',#1226,1.);
#397=VECTOR('',#1229,0.00118963141074648);
#398=VECTOR('',#1230,0.0700000066757209);
#399=VECTOR('',#1231,0.00118963141074648);
#400=VECTOR('',#1232,0.0700000066757209);
#401=VECTOR('',#1235,0.00118963141074648);
#402=VECTOR('',#1236,0.0700000066757209);
#403=VECTOR('',#1237,0.00118963141074648);
#404=VECTOR('',#1238,0.0700000066757209);
#405=VECTOR('',#1241,0.0402496525249465);
#406=VECTOR('',#1242,0.0402496525249465);
#407=VECTOR('',#1245,0.0402496525249465);
#408=VECTOR('',#1248,0.0402496525249465);
#409=VECTOR('',#1257,0.0658499999999998);
#410=VECTOR('',#1264,0.0658499999999998);
#411=VECTOR('',#1269,1.);
#412=VECTOR('',#1270,0.100085);
#413=VECTOR('',#1271,1.);
#414=VECTOR('',#1272,0.100085);
#415=VECTOR('',#1275,1.);
#416=VECTOR('',#1276,1.);
#417=VECTOR('',#1277,0.100085);
#418=VECTOR('',#1280,1.);
#419=VECTOR('',#1281,1.);
#420=VECTOR('',#1282,0.100085);
#421=VECTOR('',#1285,1.);
#422=VECTOR('',#1286,1.);
#423=VECTOR('',#1289,0.00118963141074648);
#424=VECTOR('',#1290,0.0700000066757209);
#425=VECTOR('',#1291,0.00118963141074648);
#426=VECTOR('',#1292,0.0700000066757209);
#427=VECTOR('',#1295,0.00118963141074648);
#428=VECTOR('',#1296,0.0700000066757209);
#429=VECTOR('',#1297,0.00118963141074648);
#430=VECTOR('',#1298,0.0700000066757209);
#431=VECTOR('',#1301,0.0402496525249465);
#432=VECTOR('',#1302,0.0402496525249465);
#433=VECTOR('',#1305,0.0402496525249465);
#434=VECTOR('',#1308,0.0402496525249465);
#435=CIRCLE('',#999,0.0658499999999998);
#436=CIRCLE('',#1000,0.0658499999999998);
#437=CIRCLE('',#1002,0.0658499999999998);
#438=CIRCLE('',#1003,0.0658499999999998);
#439=CIRCLE('',#1016,0.0658499999999998);
#440=CIRCLE('',#1017,0.0658499999999998);
#441=CIRCLE('',#1019,0.0658499999999998);
#442=CIRCLE('',#1020,0.0658499999999998);
#443=CIRCLE('',#1033,0.0658499999999998);
#444=CIRCLE('',#1034,0.0658499999999998);
#445=CIRCLE('',#1036,0.0658499999999998);
#446=CIRCLE('',#1037,0.0658499999999998);
#447=CIRCLE('',#1050,0.0658499999999998);
#448=CIRCLE('',#1051,0.0658499999999998);
#449=CIRCLE('',#1053,0.0658499999999998);
#450=CIRCLE('',#1054,0.0658499999999998);
#451=VERTEX_POINT('',#1322);
#452=VERTEX_POINT('',#1324);
#453=VERTEX_POINT('',#1328);
#454=VERTEX_POINT('',#1330);
#455=VERTEX_POINT('',#1334);
#456=VERTEX_POINT('',#1335);
#457=VERTEX_POINT('',#1337);
#458=VERTEX_POINT('',#1339);
#459=VERTEX_POINT('',#1343);
#460=VERTEX_POINT('',#1345);
#461=VERTEX_POINT('',#1349);
#462=VERTEX_POINT('',#1351);
#463=VERTEX_POINT('',#1358);
#464=VERTEX_POINT('',#1359);
#465=VERTEX_POINT('',#1361);
#466=VERTEX_POINT('',#1363);
#467=VERTEX_POINT('',#1367);
#468=VERTEX_POINT('',#1368);
#469=VERTEX_POINT('',#1370);
#470=VERTEX_POINT('',#1372);
#471=VERTEX_POINT('',#1385);
#472=VERTEX_POINT('',#1387);
#473=VERTEX_POINT('',#1391);
#474=VERTEX_POINT('',#1393);
#475=VERTEX_POINT('',#1397);
#476=VERTEX_POINT('',#1398);
#477=VERTEX_POINT('',#1400);
#478=VERTEX_POINT('',#1402);
#479=VERTEX_POINT('',#1406);
#480=VERTEX_POINT('',#1408);
#481=VERTEX_POINT('',#1412);
#482=VERTEX_POINT('',#1414);
#483=VERTEX_POINT('',#1421);
#484=VERTEX_POINT('',#1422);
#485=VERTEX_POINT('',#1424);
#486=VERTEX_POINT('',#1426);
#487=VERTEX_POINT('',#1430);
#488=VERTEX_POINT('',#1431);
#489=VERTEX_POINT('',#1433);
#490=VERTEX_POINT('',#1435);
#491=VERTEX_POINT('',#1448);
#492=VERTEX_POINT('',#1450);
#493=VERTEX_POINT('',#1454);
#494=VERTEX_POINT('',#1456);
#495=VERTEX_POINT('',#1460);
#496=VERTEX_POINT('',#1461);
#497=VERTEX_POINT('',#1463);
#498=VERTEX_POINT('',#1465);
#499=VERTEX_POINT('',#1469);
#500=VERTEX_POINT('',#1471);
#501=VERTEX_POINT('',#1475);
#502=VERTEX_POINT('',#1477);
#503=VERTEX_POINT('',#1484);
#504=VERTEX_POINT('',#1485);
#505=VERTEX_POINT('',#1487);
#506=VERTEX_POINT('',#1489);
#507=VERTEX_POINT('',#1493);
#508=VERTEX_POINT('',#1494);
#509=VERTEX_POINT('',#1496);
#510=VERTEX_POINT('',#1498);
#511=VERTEX_POINT('',#1511);
#512=VERTEX_POINT('',#1513);
#513=VERTEX_POINT('',#1517);
#514=VERTEX_POINT('',#1519);
#515=VERTEX_POINT('',#1523);
#516=VERTEX_POINT('',#1524);
#517=VERTEX_POINT('',#1526);
#518=VERTEX_POINT('',#1528);
#519=VERTEX_POINT('',#1532);
#520=VERTEX_POINT('',#1534);
#521=VERTEX_POINT('',#1538);
#522=VERTEX_POINT('',#1540);
#523=VERTEX_POINT('',#1547);
#524=VERTEX_POINT('',#1548);
#525=VERTEX_POINT('',#1550);
#526=VERTEX_POINT('',#1552);
#527=VERTEX_POINT('',#1556);
#528=VERTEX_POINT('',#1557);
#529=VERTEX_POINT('',#1559);
#530=VERTEX_POINT('',#1561);
#531=EDGE_CURVE('',#451,#451,#435,.T.);
#532=EDGE_CURVE('',#451,#452,#227,.T.);
#533=EDGE_CURVE('',#452,#452,#436,.T.);
#534=EDGE_CURVE('',#453,#453,#437,.T.);
#535=EDGE_CURVE('',#453,#454,#228,.T.);
#536=EDGE_CURVE('',#454,#454,#438,.T.);
#537=EDGE_CURVE('',#455,#456,#229,.T.);
#538=EDGE_CURVE('',#457,#455,#230,.T.);
#539=EDGE_CURVE('',#458,#457,#231,.T.);
#540=EDGE_CURVE('',#456,#458,#232,.T.);
#541=EDGE_CURVE('',#456,#459,#233,.T.);
#542=EDGE_CURVE('',#460,#458,#234,.T.);
#543=EDGE_CURVE('',#460,#459,#235,.T.);
#544=EDGE_CURVE('',#459,#461,#236,.T.);
#545=EDGE_CURVE('',#462,#460,#237,.T.);
#546=EDGE_CURVE('',#461,#462,#238,.T.);
#547=EDGE_CURVE('',#461,#455,#239,.T.);
#548=EDGE_CURVE('',#457,#462,#240,.T.);
#549=EDGE_CURVE('',#463,#464,#241,.T.);
#550=EDGE_CURVE('',#464,#465,#242,.T.);
#551=EDGE_CURVE('',#465,#466,#243,.T.);
#552=EDGE_CURVE('',#466,#463,#244,.T.);
#553=EDGE_CURVE('',#467,#468,#245,.T.);
#554=EDGE_CURVE('',#468,#469,#246,.T.);
#555=EDGE_CURVE('',#469,#470,#247,.T.);
#556=EDGE_CURVE('',#470,#467,#248,.T.);
#557=EDGE_CURVE('',#466,#469,#249,.T.);
#558=EDGE_CURVE('',#463,#468,#250,.T.);
#559=EDGE_CURVE('',#465,#470,#251,.T.);
#560=EDGE_CURVE('',#464,#467,#252,.T.);
#561=EDGE_CURVE('',#471,#471,#439,.T.);
#562=EDGE_CURVE('',#471,#472,#253,.T.);
#563=EDGE_CURVE('',#472,#472,#440,.T.);
#564=EDGE_CURVE('',#473,#473,#441,.T.);
#565=EDGE_CURVE('',#473,#474,#254,.T.);
#566=EDGE_CURVE('',#474,#474,#442,.T.);
#567=EDGE_CURVE('',#475,#476,#255,.T.);
#568=EDGE_CURVE('',#477,#475,#256,.T.);
#569=EDGE_CURVE('',#478,#477,#257,.T.);
#570=EDGE_CURVE('',#476,#478,#258,.T.);
#571=EDGE_CURVE('',#476,#479,#259,.T.);
#572=EDGE_CURVE('',#480,#478,#260,.T.);
#573=EDGE_CURVE('',#480,#479,#261,.T.);
#574=EDGE_CURVE('',#479,#481,#262,.T.);
#575=EDGE_CURVE('',#482,#480,#263,.T.);
#576=EDGE_CURVE('',#481,#482,#264,.T.);
#577=EDGE_CURVE('',#481,#475,#265,.T.);
#578=EDGE_CURVE('',#477,#482,#266,.T.);
#579=EDGE_CURVE('',#483,#484,#267,.T.);
#580=EDGE_CURVE('',#484,#485,#268,.T.);
#581=EDGE_CURVE('',#485,#486,#269,.T.);
#582=EDGE_CURVE('',#486,#483,#270,.T.);
#583=EDGE_CURVE('',#487,#488,#271,.T.);
#584=EDGE_CURVE('',#488,#489,#272,.T.);
#585=EDGE_CURVE('',#489,#490,#273,.T.);
#586=EDGE_CURVE('',#490,#487,#274,.T.);
#587=EDGE_CURVE('',#486,#489,#275,.T.);
#588=EDGE_CURVE('',#483,#488,#276,.T.);
#589=EDGE_CURVE('',#485,#490,#277,.T.);
#590=EDGE_CURVE('',#484,#487,#278,.T.);
#591=EDGE_CURVE('',#491,#491,#443,.T.);
#592=EDGE_CURVE('',#491,#492,#279,.T.);
#593=EDGE_CURVE('',#492,#492,#444,.T.);
#594=EDGE_CURVE('',#493,#493,#445,.T.);
#595=EDGE_CURVE('',#493,#494,#280,.T.);
#596=EDGE_CURVE('',#494,#494,#446,.T.);
#597=EDGE_CURVE('',#495,#496,#281,.T.);
#598=EDGE_CURVE('',#497,#495,#282,.T.);
#599=EDGE_CURVE('',#498,#497,#283,.T.);
#600=EDGE_CURVE('',#496,#498,#284,.T.);
#601=EDGE_CURVE('',#496,#499,#285,.T.);
#602=EDGE_CURVE('',#500,#498,#286,.T.);
#603=EDGE_CURVE('',#500,#499,#287,.T.);
#604=EDGE_CURVE('',#499,#501,#288,.T.);
#605=EDGE_CURVE('',#502,#500,#289,.T.);
#606=EDGE_CURVE('',#501,#502,#290,.T.);
#607=EDGE_CURVE('',#501,#495,#291,.T.);
#608=EDGE_CURVE('',#497,#502,#292,.T.);
#609=EDGE_CURVE('',#503,#504,#293,.T.);
#610=EDGE_CURVE('',#504,#505,#294,.T.);
#611=EDGE_CURVE('',#505,#506,#295,.T.);
#612=EDGE_CURVE('',#506,#503,#296,.T.);
#613=EDGE_CURVE('',#507,#508,#297,.T.);
#614=EDGE_CURVE('',#508,#509,#298,.T.);
#615=EDGE_CURVE('',#509,#510,#299,.T.);
#616=EDGE_CURVE('',#510,#507,#300,.T.);
#617=EDGE_CURVE('',#506,#509,#301,.T.);
#618=EDGE_CURVE('',#503,#508,#302,.T.);
#619=EDGE_CURVE('',#505,#510,#303,.T.);
#620=EDGE_CURVE('',#504,#507,#304,.T.);
#621=EDGE_CURVE('',#511,#511,#447,.T.);
#622=EDGE_CURVE('',#511,#512,#305,.T.);
#623=EDGE_CURVE('',#512,#512,#448,.T.);
#624=EDGE_CURVE('',#513,#513,#449,.T.);
#625=EDGE_CURVE('',#513,#514,#306,.T.);
#626=EDGE_CURVE('',#514,#514,#450,.T.);
#627=EDGE_CURVE('',#515,#516,#307,.T.);
#628=EDGE_CURVE('',#517,#515,#308,.T.);
#629=EDGE_CURVE('',#518,#517,#309,.T.);
#630=EDGE_CURVE('',#516,#518,#310,.T.);
#631=EDGE_CURVE('',#516,#519,#311,.T.);
#632=EDGE_CURVE('',#520,#518,#312,.T.);
#633=EDGE_CURVE('',#520,#519,#313,.T.);
#634=EDGE_CURVE('',#519,#521,#314,.T.);
#635=EDGE_CURVE('',#522,#520,#315,.T.);
#636=EDGE_CURVE('',#521,#522,#316,.T.);
#637=EDGE_CURVE('',#521,#515,#317,.T.);
#638=EDGE_CURVE('',#517,#522,#318,.T.);
#639=EDGE_CURVE('',#523,#524,#319,.T.);
#640=EDGE_CURVE('',#524,#525,#320,.T.);
#641=EDGE_CURVE('',#525,#526,#321,.T.);
#642=EDGE_CURVE('',#526,#523,#322,.T.);
#643=EDGE_CURVE('',#527,#528,#323,.T.);
#644=EDGE_CURVE('',#528,#529,#324,.T.);
#645=EDGE_CURVE('',#529,#530,#325,.T.);
#646=EDGE_CURVE('',#530,#527,#326,.T.);
#647=EDGE_CURVE('',#526,#529,#327,.T.);
#648=EDGE_CURVE('',#523,#528,#328,.T.);
#649=EDGE_CURVE('',#525,#530,#329,.T.);
#650=EDGE_CURVE('',#524,#527,#330,.T.);
#651=ORIENTED_EDGE('',*,*,#531,.F.);
#652=ORIENTED_EDGE('',*,*,#532,.T.);
#653=ORIENTED_EDGE('',*,*,#533,.F.);
#654=ORIENTED_EDGE('',*,*,#532,.F.);
#655=ORIENTED_EDGE('',*,*,#534,.F.);
#656=ORIENTED_EDGE('',*,*,#535,.T.);
#657=ORIENTED_EDGE('',*,*,#536,.F.);
#658=ORIENTED_EDGE('',*,*,#535,.F.);
#659=ORIENTED_EDGE('',*,*,#537,.F.);
#660=ORIENTED_EDGE('',*,*,#538,.F.);
#661=ORIENTED_EDGE('',*,*,#539,.F.);
#662=ORIENTED_EDGE('',*,*,#540,.F.);
#663=ORIENTED_EDGE('',*,*,#541,.F.);
#664=ORIENTED_EDGE('',*,*,#540,.T.);
#665=ORIENTED_EDGE('',*,*,#542,.F.);
#666=ORIENTED_EDGE('',*,*,#543,.T.);
#667=ORIENTED_EDGE('',*,*,#544,.F.);
#668=ORIENTED_EDGE('',*,*,#543,.F.);
#669=ORIENTED_EDGE('',*,*,#545,.F.);
#670=ORIENTED_EDGE('',*,*,#546,.F.);
#671=ORIENTED_EDGE('',*,*,#547,.F.);
#672=ORIENTED_EDGE('',*,*,#546,.T.);
#673=ORIENTED_EDGE('',*,*,#548,.F.);
#674=ORIENTED_EDGE('',*,*,#538,.T.);
#675=ORIENTED_EDGE('',*,*,#549,.T.);
#676=ORIENTED_EDGE('',*,*,#550,.T.);
#677=ORIENTED_EDGE('',*,*,#551,.T.);
#678=ORIENTED_EDGE('',*,*,#552,.T.);
#679=ORIENTED_EDGE('',*,*,#553,.T.);
#680=ORIENTED_EDGE('',*,*,#554,.T.);
#681=ORIENTED_EDGE('',*,*,#555,.T.);
#682=ORIENTED_EDGE('',*,*,#556,.T.);
#683=ORIENTED_EDGE('',*,*,#557,.T.);
#684=ORIENTED_EDGE('',*,*,#554,.F.);
#685=ORIENTED_EDGE('',*,*,#558,.F.);
#686=ORIENTED_EDGE('',*,*,#552,.F.);
#687=ORIENTED_EDGE('',*,*,#531,.T.);
#688=ORIENTED_EDGE('',*,*,#534,.T.);
#689=ORIENTED_EDGE('',*,*,#544,.T.);
#690=ORIENTED_EDGE('',*,*,#547,.T.);
#691=ORIENTED_EDGE('',*,*,#537,.T.);
#692=ORIENTED_EDGE('',*,*,#541,.T.);
#693=ORIENTED_EDGE('',*,*,#559,.T.);
#694=ORIENTED_EDGE('',*,*,#555,.F.);
#695=ORIENTED_EDGE('',*,*,#557,.F.);
#696=ORIENTED_EDGE('',*,*,#551,.F.);
#697=ORIENTED_EDGE('',*,*,#560,.T.);
#698=ORIENTED_EDGE('',*,*,#556,.F.);
#699=ORIENTED_EDGE('',*,*,#559,.F.);
#700=ORIENTED_EDGE('',*,*,#550,.F.);
#701=ORIENTED_EDGE('',*,*,#533,.T.);
#702=ORIENTED_EDGE('',*,*,#536,.T.);
#703=ORIENTED_EDGE('',*,*,#545,.T.);
#704=ORIENTED_EDGE('',*,*,#542,.T.);
#705=ORIENTED_EDGE('',*,*,#539,.T.);
#706=ORIENTED_EDGE('',*,*,#548,.T.);
#707=ORIENTED_EDGE('',*,*,#558,.T.);
#708=ORIENTED_EDGE('',*,*,#553,.F.);
#709=ORIENTED_EDGE('',*,*,#560,.F.);
#710=ORIENTED_EDGE('',*,*,#549,.F.);
#711=ORIENTED_EDGE('',*,*,#561,.F.);
#712=ORIENTED_EDGE('',*,*,#562,.T.);
#713=ORIENTED_EDGE('',*,*,#563,.F.);
#714=ORIENTED_EDGE('',*,*,#562,.F.);
#715=ORIENTED_EDGE('',*,*,#564,.F.);
#716=ORIENTED_EDGE('',*,*,#565,.T.);
#717=ORIENTED_EDGE('',*,*,#566,.F.);
#718=ORIENTED_EDGE('',*,*,#565,.F.);
#719=ORIENTED_EDGE('',*,*,#567,.F.);
#720=ORIENTED_EDGE('',*,*,#568,.F.);
#721=ORIENTED_EDGE('',*,*,#569,.F.);
#722=ORIENTED_EDGE('',*,*,#570,.F.);
#723=ORIENTED_EDGE('',*,*,#571,.F.);
#724=ORIENTED_EDGE('',*,*,#570,.T.);
#725=ORIENTED_EDGE('',*,*,#572,.F.);
#726=ORIENTED_EDGE('',*,*,#573,.T.);
#727=ORIENTED_EDGE('',*,*,#574,.F.);
#728=ORIENTED_EDGE('',*,*,#573,.F.);
#729=ORIENTED_EDGE('',*,*,#575,.F.);
#730=ORIENTED_EDGE('',*,*,#576,.F.);
#731=ORIENTED_EDGE('',*,*,#577,.F.);
#732=ORIENTED_EDGE('',*,*,#576,.T.);
#733=ORIENTED_EDGE('',*,*,#578,.F.);
#734=ORIENTED_EDGE('',*,*,#568,.T.);
#735=ORIENTED_EDGE('',*,*,#579,.T.);
#736=ORIENTED_EDGE('',*,*,#580,.T.);
#737=ORIENTED_EDGE('',*,*,#581,.T.);
#738=ORIENTED_EDGE('',*,*,#582,.T.);
#739=ORIENTED_EDGE('',*,*,#583,.T.);
#740=ORIENTED_EDGE('',*,*,#584,.T.);
#741=ORIENTED_EDGE('',*,*,#585,.T.);
#742=ORIENTED_EDGE('',*,*,#586,.T.);
#743=ORIENTED_EDGE('',*,*,#587,.T.);
#744=ORIENTED_EDGE('',*,*,#584,.F.);
#745=ORIENTED_EDGE('',*,*,#588,.F.);
#746=ORIENTED_EDGE('',*,*,#582,.F.);
#747=ORIENTED_EDGE('',*,*,#561,.T.);
#748=ORIENTED_EDGE('',*,*,#564,.T.);
#749=ORIENTED_EDGE('',*,*,#574,.T.);
#750=ORIENTED_EDGE('',*,*,#577,.T.);
#751=ORIENTED_EDGE('',*,*,#567,.T.);
#752=ORIENTED_EDGE('',*,*,#571,.T.);
#753=ORIENTED_EDGE('',*,*,#589,.T.);
#754=ORIENTED_EDGE('',*,*,#585,.F.);
#755=ORIENTED_EDGE('',*,*,#587,.F.);
#756=ORIENTED_EDGE('',*,*,#581,.F.);
#757=ORIENTED_EDGE('',*,*,#590,.T.);
#758=ORIENTED_EDGE('',*,*,#586,.F.);
#759=ORIENTED_EDGE('',*,*,#589,.F.);
#760=ORIENTED_EDGE('',*,*,#580,.F.);
#761=ORIENTED_EDGE('',*,*,#563,.T.);
#762=ORIENTED_EDGE('',*,*,#566,.T.);
#763=ORIENTED_EDGE('',*,*,#575,.T.);
#764=ORIENTED_EDGE('',*,*,#572,.T.);
#765=ORIENTED_EDGE('',*,*,#569,.T.);
#766=ORIENTED_EDGE('',*,*,#578,.T.);
#767=ORIENTED_EDGE('',*,*,#588,.T.);
#768=ORIENTED_EDGE('',*,*,#583,.F.);
#769=ORIENTED_EDGE('',*,*,#590,.F.);
#770=ORIENTED_EDGE('',*,*,#579,.F.);
#771=ORIENTED_EDGE('',*,*,#591,.F.);
#772=ORIENTED_EDGE('',*,*,#592,.T.);
#773=ORIENTED_EDGE('',*,*,#593,.F.);
#774=ORIENTED_EDGE('',*,*,#592,.F.);
#775=ORIENTED_EDGE('',*,*,#594,.F.);
#776=ORIENTED_EDGE('',*,*,#595,.T.);
#777=ORIENTED_EDGE('',*,*,#596,.F.);
#778=ORIENTED_EDGE('',*,*,#595,.F.);
#779=ORIENTED_EDGE('',*,*,#597,.F.);
#780=ORIENTED_EDGE('',*,*,#598,.F.);
#781=ORIENTED_EDGE('',*,*,#599,.F.);
#782=ORIENTED_EDGE('',*,*,#600,.F.);
#783=ORIENTED_EDGE('',*,*,#601,.F.);
#784=ORIENTED_EDGE('',*,*,#600,.T.);
#785=ORIENTED_EDGE('',*,*,#602,.F.);
#786=ORIENTED_EDGE('',*,*,#603,.T.);
#787=ORIENTED_EDGE('',*,*,#604,.F.);
#788=ORIENTED_EDGE('',*,*,#603,.F.);
#789=ORIENTED_EDGE('',*,*,#605,.F.);
#790=ORIENTED_EDGE('',*,*,#606,.F.);
#791=ORIENTED_EDGE('',*,*,#607,.F.);
#792=ORIENTED_EDGE('',*,*,#606,.T.);
#793=ORIENTED_EDGE('',*,*,#608,.F.);
#794=ORIENTED_EDGE('',*,*,#598,.T.);
#795=ORIENTED_EDGE('',*,*,#609,.T.);
#796=ORIENTED_EDGE('',*,*,#610,.T.);
#797=ORIENTED_EDGE('',*,*,#611,.T.);
#798=ORIENTED_EDGE('',*,*,#612,.T.);
#799=ORIENTED_EDGE('',*,*,#613,.T.);
#800=ORIENTED_EDGE('',*,*,#614,.T.);
#801=ORIENTED_EDGE('',*,*,#615,.T.);
#802=ORIENTED_EDGE('',*,*,#616,.T.);
#803=ORIENTED_EDGE('',*,*,#617,.T.);
#804=ORIENTED_EDGE('',*,*,#614,.F.);
#805=ORIENTED_EDGE('',*,*,#618,.F.);
#806=ORIENTED_EDGE('',*,*,#612,.F.);
#807=ORIENTED_EDGE('',*,*,#591,.T.);
#808=ORIENTED_EDGE('',*,*,#594,.T.);
#809=ORIENTED_EDGE('',*,*,#604,.T.);
#810=ORIENTED_EDGE('',*,*,#607,.T.);
#811=ORIENTED_EDGE('',*,*,#597,.T.);
#812=ORIENTED_EDGE('',*,*,#601,.T.);
#813=ORIENTED_EDGE('',*,*,#619,.T.);
#814=ORIENTED_EDGE('',*,*,#615,.F.);
#815=ORIENTED_EDGE('',*,*,#617,.F.);
#816=ORIENTED_EDGE('',*,*,#611,.F.);
#817=ORIENTED_EDGE('',*,*,#620,.T.);
#818=ORIENTED_EDGE('',*,*,#616,.F.);
#819=ORIENTED_EDGE('',*,*,#619,.F.);
#820=ORIENTED_EDGE('',*,*,#610,.F.);
#821=ORIENTED_EDGE('',*,*,#593,.T.);
#822=ORIENTED_EDGE('',*,*,#596,.T.);
#823=ORIENTED_EDGE('',*,*,#605,.T.);
#824=ORIENTED_EDGE('',*,*,#602,.T.);
#825=ORIENTED_EDGE('',*,*,#599,.T.);
#826=ORIENTED_EDGE('',*,*,#608,.T.);
#827=ORIENTED_EDGE('',*,*,#618,.T.);
#828=ORIENTED_EDGE('',*,*,#613,.F.);
#829=ORIENTED_EDGE('',*,*,#620,.F.);
#830=ORIENTED_EDGE('',*,*,#609,.F.);
#831=ORIENTED_EDGE('',*,*,#621,.F.);
#832=ORIENTED_EDGE('',*,*,#622,.T.);
#833=ORIENTED_EDGE('',*,*,#623,.F.);
#834=ORIENTED_EDGE('',*,*,#622,.F.);
#835=ORIENTED_EDGE('',*,*,#624,.F.);
#836=ORIENTED_EDGE('',*,*,#625,.T.);
#837=ORIENTED_EDGE('',*,*,#626,.F.);
#838=ORIENTED_EDGE('',*,*,#625,.F.);
#839=ORIENTED_EDGE('',*,*,#627,.F.);
#840=ORIENTED_EDGE('',*,*,#628,.F.);
#841=ORIENTED_EDGE('',*,*,#629,.F.);
#842=ORIENTED_EDGE('',*,*,#630,.F.);
#843=ORIENTED_EDGE('',*,*,#631,.F.);
#844=ORIENTED_EDGE('',*,*,#630,.T.);
#845=ORIENTED_EDGE('',*,*,#632,.F.);
#846=ORIENTED_EDGE('',*,*,#633,.T.);
#847=ORIENTED_EDGE('',*,*,#634,.F.);
#848=ORIENTED_EDGE('',*,*,#633,.F.);
#849=ORIENTED_EDGE('',*,*,#635,.F.);
#850=ORIENTED_EDGE('',*,*,#636,.F.);
#851=ORIENTED_EDGE('',*,*,#637,.F.);
#852=ORIENTED_EDGE('',*,*,#636,.T.);
#853=ORIENTED_EDGE('',*,*,#638,.F.);
#854=ORIENTED_EDGE('',*,*,#628,.T.);
#855=ORIENTED_EDGE('',*,*,#639,.T.);
#856=ORIENTED_EDGE('',*,*,#640,.T.);
#857=ORIENTED_EDGE('',*,*,#641,.T.);
#858=ORIENTED_EDGE('',*,*,#642,.T.);
#859=ORIENTED_EDGE('',*,*,#643,.T.);
#860=ORIENTED_EDGE('',*,*,#644,.T.);
#861=ORIENTED_EDGE('',*,*,#645,.T.);
#862=ORIENTED_EDGE('',*,*,#646,.T.);
#863=ORIENTED_EDGE('',*,*,#647,.T.);
#864=ORIENTED_EDGE('',*,*,#644,.F.);
#865=ORIENTED_EDGE('',*,*,#648,.F.);
#866=ORIENTED_EDGE('',*,*,#642,.F.);
#867=ORIENTED_EDGE('',*,*,#621,.T.);
#868=ORIENTED_EDGE('',*,*,#624,.T.);
#869=ORIENTED_EDGE('',*,*,#634,.T.);
#870=ORIENTED_EDGE('',*,*,#637,.T.);
#871=ORIENTED_EDGE('',*,*,#627,.T.);
#872=ORIENTED_EDGE('',*,*,#631,.T.);
#873=ORIENTED_EDGE('',*,*,#649,.T.);
#874=ORIENTED_EDGE('',*,*,#645,.F.);
#875=ORIENTED_EDGE('',*,*,#647,.F.);
#876=ORIENTED_EDGE('',*,*,#641,.F.);
#877=ORIENTED_EDGE('',*,*,#650,.T.);
#878=ORIENTED_EDGE('',*,*,#646,.F.);
#879=ORIENTED_EDGE('',*,*,#649,.F.);
#880=ORIENTED_EDGE('',*,*,#640,.F.);
#881=ORIENTED_EDGE('',*,*,#623,.T.);
#882=ORIENTED_EDGE('',*,*,#626,.T.);
#883=ORIENTED_EDGE('',*,*,#635,.T.);
#884=ORIENTED_EDGE('',*,*,#632,.T.);
#885=ORIENTED_EDGE('',*,*,#629,.T.);
#886=ORIENTED_EDGE('',*,*,#638,.T.);
#887=ORIENTED_EDGE('',*,*,#648,.T.);
#888=ORIENTED_EDGE('',*,*,#643,.F.);
#889=ORIENTED_EDGE('',*,*,#650,.F.);
#890=ORIENTED_EDGE('',*,*,#639,.F.);
#891=CYLINDRICAL_SURFACE('',#998,0.0658499999999998);
#892=CYLINDRICAL_SURFACE('',#1001,0.0658499999999998);
#893=CYLINDRICAL_SURFACE('',#1015,0.0658499999999998);
#894=CYLINDRICAL_SURFACE('',#1018,0.0658499999999998);
#895=CYLINDRICAL_SURFACE('',#1032,0.0658499999999998);
#896=CYLINDRICAL_SURFACE('',#1035,0.0658499999999998);
#897=CYLINDRICAL_SURFACE('',#1049,0.0658499999999998);
#898=CYLINDRICAL_SURFACE('',#1052,0.0658499999999998);
#899=ADVANCED_FACE('',(#107),#891,.F.);
#900=ADVANCED_FACE('',(#108),#892,.F.);
#901=ADVANCED_FACE('',(#109),#67,.F.);
#902=ADVANCED_FACE('',(#110),#68,.T.);
#903=ADVANCED_FACE('',(#111),#69,.T.);
#904=ADVANCED_FACE('',(#112),#70,.T.);
#905=ADVANCED_FACE('',(#113),#71,.T.);
#906=ADVANCED_FACE('',(#114),#72,.F.);
#907=ADVANCED_FACE('',(#115,#43,#44,#45),#73,.F.);
#908=ADVANCED_FACE('',(#116),#74,.F.);
#909=ADVANCED_FACE('',(#117,#46,#47,#48),#75,.F.);
#910=ADVANCED_FACE('',(#118),#76,.F.);
#911=ADVANCED_FACE('',(#119),#893,.F.);
#912=ADVANCED_FACE('',(#120),#894,.F.);
#913=ADVANCED_FACE('',(#121),#77,.F.);
#914=ADVANCED_FACE('',(#122),#78,.T.);
#915=ADVANCED_FACE('',(#123),#79,.T.);
#916=ADVANCED_FACE('',(#124),#80,.T.);
#917=ADVANCED_FACE('',(#125),#81,.T.);
#918=ADVANCED_FACE('',(#126),#82,.F.);
#919=ADVANCED_FACE('',(#127,#49,#50,#51),#83,.F.);
#920=ADVANCED_FACE('',(#128),#84,.F.);
#921=ADVANCED_FACE('',(#129,#52,#53,#54),#85,.F.);
#922=ADVANCED_FACE('',(#130),#86,.F.);
#923=ADVANCED_FACE('',(#131),#895,.F.);
#924=ADVANCED_FACE('',(#132),#896,.F.);
#925=ADVANCED_FACE('',(#133),#87,.F.);
#926=ADVANCED_FACE('',(#134),#88,.T.);
#927=ADVANCED_FACE('',(#135),#89,.T.);
#928=ADVANCED_FACE('',(#136),#90,.T.);
#929=ADVANCED_FACE('',(#137),#91,.T.);
#930=ADVANCED_FACE('',(#138),#92,.F.);
#931=ADVANCED_FACE('',(#139,#55,#56,#57),#93,.F.);
#932=ADVANCED_FACE('',(#140),#94,.F.);
#933=ADVANCED_FACE('',(#141,#58,#59,#60),#95,.F.);
#934=ADVANCED_FACE('',(#142),#96,.F.);
#935=ADVANCED_FACE('',(#143),#897,.F.);
#936=ADVANCED_FACE('',(#144),#898,.F.);
#937=ADVANCED_FACE('',(#145),#97,.F.);
#938=ADVANCED_FACE('',(#146),#98,.T.);
#939=ADVANCED_FACE('',(#147),#99,.T.);
#940=ADVANCED_FACE('',(#148),#100,.T.);
#941=ADVANCED_FACE('',(#149),#101,.T.);
#942=ADVANCED_FACE('',(#150),#102,.F.);
#943=ADVANCED_FACE('',(#151,#61,#62,#63),#103,.F.);
#944=ADVANCED_FACE('',(#152),#104,.F.);
#945=ADVANCED_FACE('',(#153,#64,#65,#66),#105,.F.);
#946=ADVANCED_FACE('',(#154),#106,.F.);
#947=CLOSED_SHELL('',(#899,#900,#901,#902,#903,#904,#905,#906,#907,#908,
#909,#910));
#948=CLOSED_SHELL('',(#911,#912,#913,#914,#915,#916,#917,#918,#919,#920,
#921,#922));
#949=CLOSED_SHELL('',(#923,#924,#925,#926,#927,#928,#929,#930,#931,#932,
#933,#934));
#950=CLOSED_SHELL('',(#935,#936,#937,#938,#939,#940,#941,#942,#943,#944,
#945,#946));
#951=DERIVED_UNIT_ELEMENT(#959,1.);
#952=DERIVED_UNIT_ELEMENT(#1589,-3.);
#953=DERIVED_UNIT_ELEMENT(#959,1.);
#954=DERIVED_UNIT_ELEMENT(#1589,-3.);
#955=DERIVED_UNIT_ELEMENT(#959,1.);
#956=DERIVED_UNIT_ELEMENT(#1589,-3.);
#957=DERIVED_UNIT_ELEMENT(#959,1.);
#958=DERIVED_UNIT_ELEMENT(#1589,-3.);
#959=(
MASS_UNIT()
NAMED_UNIT(*)
SI_UNIT(.KILO.,.GRAM.)
);
#960=DERIVED_UNIT((#951,#952));
#961=DERIVED_UNIT((#953,#954));
#962=DERIVED_UNIT((#955,#956));
#963=DERIVED_UNIT((#957,#958));
#964=MEASURE_REPRESENTATION_ITEM('density measure',
POSITIVE_RATIO_MEASURE(7850.),#960);
#965=MEASURE_REPRESENTATION_ITEM('density measure',
POSITIVE_RATIO_MEASURE(7850.),#961);
#966=MEASURE_REPRESENTATION_ITEM('density measure',
POSITIVE_RATIO_MEASURE(7850.),#962);
#967=MEASURE_REPRESENTATION_ITEM('density measure',
POSITIVE_RATIO_MEASURE(7850.),#963);
#968=PROPERTY_DEFINITION_REPRESENTATION(#988,#976);
#969=PROPERTY_DEFINITION_REPRESENTATION(#989,#977);
#970=PROPERTY_DEFINITION_REPRESENTATION(#990,#978);
#971=PROPERTY_DEFINITION_REPRESENTATION(#991,#979);
#972=PROPERTY_DEFINITION_REPRESENTATION(#992,#980);
#973=PROPERTY_DEFINITION_REPRESENTATION(#993,#981);
#974=PROPERTY_DEFINITION_REPRESENTATION(#994,#982);
#975=PROPERTY_DEFINITION_REPRESENTATION(#995,#983);
#976=REPRESENTATION('material name',(#984),#1583);
#977=REPRESENTATION('density',(#964),#1583);
#978=REPRESENTATION('material name',(#985),#1584);
#979=REPRESENTATION('density',(#965),#1584);
#980=REPRESENTATION('material name',(#986),#1585);
#981=REPRESENTATION('density',(#966),#1585);
#982=REPRESENTATION('material name',(#987),#1586);
#983=REPRESENTATION('density',(#967),#1586);
#984=DESCRIPTIVE_REPRESENTATION_ITEM('Steel','Steel');
#985=DESCRIPTIVE_REPRESENTATION_ITEM('Steel','Steel');
#986=DESCRIPTIVE_REPRESENTATION_ITEM('Steel','Steel');
#987=DESCRIPTIVE_REPRESENTATION_ITEM('Steel','Steel');
#988=PROPERTY_DEFINITION('material property','material name',#1613);
#989=PROPERTY_DEFINITION('material property','density of part',#1613);
#990=PROPERTY_DEFINITION('material property','material name',#1614);
#991=PROPERTY_DEFINITION('material property','density of part',#1614);
#992=PROPERTY_DEFINITION('material property','material name',#1615);
#993=PROPERTY_DEFINITION('material property','density of part',#1615);
#994=PROPERTY_DEFINITION('material property','material name',#1616);
#995=PROPERTY_DEFINITION('material property','density of part',#1616);
#996=AXIS2_PLACEMENT_3D('',#1319,#1069,#1070);
#997=AXIS2_PLACEMENT_3D('',#1320,#1071,#1072);
#998=AXIS2_PLACEMENT_3D('',#1321,#1073,#1074);
#999=AXIS2_PLACEMENT_3D('',#1323,#1075,#1076);
#1000=AXIS2_PLACEMENT_3D('',#1326,#1078,#1079);
#1001=AXIS2_PLACEMENT_3D('',#1327,#1080,#1081);
#1002=AXIS2_PLACEMENT_3D('',#1329,#1082,#1083);
#1003=AXIS2_PLACEMENT_3D('',#1332,#1085,#1086);
#1004=AXIS2_PLACEMENT_3D('',#1333,#1087,#1088);
#1005=AXIS2_PLACEMENT_3D('',#1342,#1093,#1094);
#1006=AXIS2_PLACEMENT_3D('',#1348,#1098,#1099);
#1007=AXIS2_PLACEMENT_3D('',#1354,#1103,#1104);
#1008=AXIS2_PLACEMENT_3D('',#1357,#1107,#1108);
#1009=AXIS2_PLACEMENT_3D('',#1366,#1113,#1114);
#1010=AXIS2_PLACEMENT_3D('',#1375,#1119,#1120);
#1011=AXIS2_PLACEMENT_3D('',#1378,#1123,#1124);
#1012=AXIS2_PLACEMENT_3D('',#1380,#1126,#1127);
#1013=AXIS2_PLACEMENT_3D('',#1382,#1129,#1130);
#1014=AXIS2_PLACEMENT_3D('',#1383,#1131,#1132);
#1015=AXIS2_PLACEMENT_3D('',#1384,#1133,#1134);
#1016=AXIS2_PLACEMENT_3D('',#1386,#1135,#1136);
#1017=AXIS2_PLACEMENT_3D('',#1389,#1138,#1139);
#1018=AXIS2_PLACEMENT_3D('',#1390,#1140,#1141);
#1019=AXIS2_PLACEMENT_3D('',#1392,#1142,#1143);
#1020=AXIS2_PLACEMENT_3D('',#1395,#1145,#1146);
#1021=AXIS2_PLACEMENT_3D('',#1396,#1147,#1148);
#1022=AXIS2_PLACEMENT_3D('',#1405,#1153,#1154);
#1023=AXIS2_PLACEMENT_3D('',#1411,#1158,#1159);
#1024=AXIS2_PLACEMENT_3D('',#1417,#1163,#1164);
#1025=AXIS2_PLACEMENT_3D('',#1420,#1167,#1168);
#1026=AXIS2_PLACEMENT_3D('',#1429,#1173,#1174);
#1027=AXIS2_PLACEMENT_3D('',#1438,#1179,#1180);
#1028=AXIS2_PLACEMENT_3D('',#1441,#1183,#1184);
#1029=AXIS2_PLACEMENT_3D('',#1443,#1186,#1187);
#1030=AXIS2_PLACEMENT_3D('',#1445,#1189,#1190);
#1031=AXIS2_PLACEMENT_3D('',#1446,#1191,#1192);
#1032=AXIS2_PLACEMENT_3D('',#1447,#1193,#1194);
#1033=AXIS2_PLACEMENT_3D('',#1449,#1195,#1196);
#1034=AXIS2_PLACEMENT_3D('',#1452,#1198,#1199);
#1035=AXIS2_PLACEMENT_3D('',#1453,#1200,#1201);
#1036=AXIS2_PLACEMENT_3D('',#1455,#1202,#1203);
#1037=AXIS2_PLACEMENT_3D('',#1458,#1205,#1206);
#1038=AXIS2_PLACEMENT_3D('',#1459,#1207,#1208);
#1039=AXIS2_PLACEMENT_3D('',#1468,#1213,#1214);
#1040=AXIS2_PLACEMENT_3D('',#1474,#1218,#1219);
#1041=AXIS2_PLACEMENT_3D('',#1480,#1223,#1224);
#1042=AXIS2_PLACEMENT_3D('',#1483,#1227,#1228);
#1043=AXIS2_PLACEMENT_3D('',#1492,#1233,#1234);
#1044=AXIS2_PLACEMENT_3D('',#1501,#1239,#1240);
#1045=AXIS2_PLACEMENT_3D('',#1504,#1243,#1244);
#1046=AXIS2_PLACEMENT_3D('',#1506,#1246,#1247);
#1047=AXIS2_PLACEMENT_3D('',#1508,#1249,#1250);
#1048=AXIS2_PLACEMENT_3D('',#1509,#1251,#1252);
#1049=AXIS2_PLACEMENT_3D('',#1510,#1253,#1254);
#1050=AXIS2_PLACEMENT_3D('',#1512,#1255,#1256);
#1051=AXIS2_PLACEMENT_3D('',#1515,#1258,#1259);
#1052=AXIS2_PLACEMENT_3D('',#1516,#1260,#1261);
#1053=AXIS2_PLACEMENT_3D('',#1518,#1262,#1263);
#1054=AXIS2_PLACEMENT_3D('',#1521,#1265,#1266);
#1055=AXIS2_PLACEMENT_3D('',#1522,#1267,#1268);
#1056=AXIS2_PLACEMENT_3D('',#1531,#1273,#1274);
#1057=AXIS2_PLACEMENT_3D('',#1537,#1278,#1279);
#1058=AXIS2_PLACEMENT_3D('',#1543,#1283,#1284);
#1059=AXIS2_PLACEMENT_3D('',#1546,#1287,#1288);
#1060=AXIS2_PLACEMENT_3D('',#1555,#1293,#1294);
#1061=AXIS2_PLACEMENT_3D('',#1564,#1299,#1300);
#1062=AXIS2_PLACEMENT_3D('',#1567,#1303,#1304);
#1063=AXIS2_PLACEMENT_3D('',#1569,#1306,#1307);
#1064=AXIS2_PLACEMENT_3D('',#1571,#1309,#1310);
#1065=AXIS2_PLACEMENT_3D('',#1572,#1311,#1312);
#1066=AXIS2_PLACEMENT_3D('',#1573,#1313,#1314);
#1067=AXIS2_PLACEMENT_3D('',#1574,#1315,#1316);
#1068=AXIS2_PLACEMENT_3D('',#1575,#1317,#1318);
#1069=DIRECTION('axis',(0.,0.,1.));
#1070=DIRECTION('refdir',(1.,0.,0.));
#1071=DIRECTION('axis',(0.,0.,1.));
#1072=DIRECTION('refdir',(1.,0.,0.));
#1073=DIRECTION('center_axis',(-2.17662862999183E-16,7.09435850581994E-18,
1.));
#1074=DIRECTION('ref_axis',(1.,-9.9579925010296E-17,3.61864843853753E-15));
#1075=DIRECTION('center_axis',(-1.0496972147008E-16,1.59002462636534E-16,
1.));
#1076=DIRECTION('ref_axis',(1.,-9.9579925010296E-17,3.61864843853753E-15));
#1077=DIRECTION('',(-2.17662862999183E-16,7.09435850581994E-18,1.));
#1078=DIRECTION('center_axis',(1.0496972147008E-16,-1.59002462636534E-16,
-1.));
#1079=DIRECTION('ref_axis',(1.,-9.9579925010296E-17,3.61864843853753E-15));
#1080=DIRECTION('center_axis',(-2.17662862999183E-16,7.09435850581994E-18,
1.));
#1081=DIRECTION('ref_axis',(1.,-9.9579925010296E-17,3.61864843853753E-15));
#1082=DIRECTION('center_axis',(-1.0496972147008E-16,1.59002462636534E-16,
1.));
#1083=DIRECTION('ref_axis',(1.,-9.9579925010296E-17,3.61864843853753E-15));
#1084=DIRECTION('',(-2.17662862999183E-16,7.09435850581994E-18,1.));
#1085=DIRECTION('center_axis',(1.0496972147008E-16,-1.59002462636534E-16,
-1.));
#1086=DIRECTION('ref_axis',(1.,-9.9579925010296E-17,3.61864843853753E-15));
#1087=DIRECTION('center_axis',(3.52400993217601E-17,1.,-1.41347936570929E-16));
#1088=DIRECTION('ref_axis',(0.,1.41347936570929E-16,1.));
#1089=DIRECTION('',(-1.,3.52400993217601E-17,-1.0496972147008E-16));
#1090=DIRECTION('',(1.47087526142289E-16,-1.41347936570929E-16,-1.));
#1091=DIRECTION('',(1.,-3.52400993217601E-17,1.0496972147008E-16));
#1092=DIRECTION('',(-1.47087526142289E-16,1.41347936570929E-16,1.));
#1093=DIRECTION('center_axis',(1.,-1.06395825460669E-16,1.47087526142289E-16));
#1094=DIRECTION('ref_axis',(1.47087526142289E-16,0.,-1.));
#1095=DIRECTION('',(-1.06395825460669E-16,-1.,1.59002462636534E-16));
#1096=DIRECTION('',(1.06395825460669E-16,1.,-1.59002462636534E-16));
#1097=DIRECTION('',(1.47087526142289E-16,-1.41347936570929E-16,-1.));
#1098=DIRECTION('center_axis',(3.52400993217601E-17,1.,-1.41347936570929E-16));
#1099=DIRECTION('ref_axis',(0.,1.41347936570929E-16,1.));
#1100=DIRECTION('',(1.,-3.52400993217601E-17,1.0496972147008E-16));
#1101=DIRECTION('',(-1.,3.52400993217601E-17,-1.0496972147008E-16));
#1102=DIRECTION('',(-1.47087526142289E-16,1.41347936570929E-16,1.));
#1103=DIRECTION('center_axis',(-1.,1.06395825460669E-16,-1.47087526142289E-16));
#1104=DIRECTION('ref_axis',(-1.47087526142289E-16,0.,1.));
#1105=DIRECTION('',(1.06395825460669E-16,1.,-1.59002462636534E-16));
#1106=DIRECTION('',(-1.06395825460669E-16,-1.,1.59002462636534E-16));
#1107=DIRECTION('center_axis',(3.52082881647533E-17,1.,1.91090539842772E-15));
#1108=DIRECTION('ref_axis',(0.,-1.91090539842772E-15,1.));
#1109=DIRECTION('',(-1.46957624073083E-16,-1.91090539842772E-15,1.));
#1110=DIRECTION('',(1.,-3.52082881647535E-17,1.0496972147008E-16));
#1111=DIRECTION('',(1.46957624073083E-16,1.91090539842772E-15,-1.));
#1112=DIRECTION('',(-1.,3.52082881647535E-17,-1.0496972147008E-16));
#1113=DIRECTION('center_axis',(3.52082881647533E-17,1.,1.91090539842772E-15));
#1114=DIRECTION('ref_axis',(0.,-1.91090539842772E-15,1.));
#1115=DIRECTION('',(1.46957624073083E-16,1.91090539842772E-15,-1.));
#1116=DIRECTION('',(1.,-3.52082881647535E-17,1.0496972147008E-16));
#1117=DIRECTION('',(-1.46957624073083E-16,-1.91090539842772E-15,1.));
#1118=DIRECTION('',(-1.,3.52082881647535E-17,-1.0496972147008E-16));
#1119=DIRECTION('center_axis',(-1.0496972147008E-16,1.59002462636534E-16,
1.));
#1120=DIRECTION('ref_axis',(1.,0.,1.0496972147008E-16));
#1121=DIRECTION('',(-1.06491955505185E-16,-1.,1.59002462636534E-16));
#1122=DIRECTION('',(-1.06491955505185E-16,-1.,1.59002462636534E-16));
#1123=DIRECTION('center_axis',(-1.,1.06491955505185E-16,-1.46957624073083E-16));
#1124=DIRECTION('ref_axis',(-1.46957624073083E-16,0.,1.));
#1125=DIRECTION('',(-1.06491955505185E-16,-1.,1.59002462636534E-16));
#1126=DIRECTION('center_axis',(1.0496972147008E-16,-1.59002462636534E-16,
-1.));
#1127=DIRECTION('ref_axis',(-1.,0.,-1.0496972147008E-16));
#1128=DIRECTION('',(-1.06491955505185E-16,-1.,1.59002462636534E-16));
#1129=DIRECTION('center_axis',(1.,-1.06491955505185E-16,1.46957624073083E-16));
#1130=DIRECTION('ref_axis',(1.46957624073083E-16,0.,-1.));
#1131=DIRECTION('axis',(0.,0.,1.));
#1132=DIRECTION('refdir',(1.,0.,0.));
#1133=DIRECTION('center_axis',(-2.17662862999183E-16,7.09435850581994E-18,
1.));
#1134=DIRECTION('ref_axis',(1.,-9.9579925010296E-17,3.61864843853753E-15));
#1135=DIRECTION('center_axis',(-1.0496972147008E-16,1.59002462636534E-16,
1.));
#1136=DIRECTION('ref_axis',(1.,-9.9579925010296E-17,3.61864843853753E-15));
#1137=DIRECTION('',(-2.17662862999183E-16,7.09435850581994E-18,1.));
#1138=DIRECTION('center_axis',(1.0496972147008E-16,-1.59002462636534E-16,
-1.));
#1139=DIRECTION('ref_axis',(1.,-9.9579925010296E-17,3.61864843853753E-15));
#1140=DIRECTION('center_axis',(-2.17662862999183E-16,7.09435850581994E-18,
1.));
#1141=DIRECTION('ref_axis',(1.,-9.9579925010296E-17,3.61864843853753E-15));
#1142=DIRECTION('center_axis',(-1.0496972147008E-16,1.59002462636534E-16,
1.));
#1143=DIRECTION('ref_axis',(1.,-9.9579925010296E-17,3.61864843853753E-15));
#1144=DIRECTION('',(-2.17662862999183E-16,7.09435850581994E-18,1.));
#1145=DIRECTION('center_axis',(1.0496972147008E-16,-1.59002462636534E-16,
-1.));
#1146=DIRECTION('ref_axis',(1.,-9.9579925010296E-17,3.61864843853753E-15));
#1147=DIRECTION('center_axis',(3.52400993217601E-17,1.,-1.41347936570929E-16));
#1148=DIRECTION('ref_axis',(0.,1.41347936570929E-16,1.));
#1149=DIRECTION('',(-1.,3.52400993217601E-17,-1.0496972147008E-16));
#1150=DIRECTION('',(1.47087526142289E-16,-1.41347936570929E-16,-1.));
#1151=DIRECTION('',(1.,-3.52400993217601E-17,1.0496972147008E-16));
#1152=DIRECTION('',(-1.47087526142289E-16,1.41347936570929E-16,1.));
#1153=DIRECTION('center_axis',(1.,-1.06395825460669E-16,1.47087526142289E-16));
#1154=DIRECTION('ref_axis',(1.47087526142289E-16,0.,-1.));
#1155=DIRECTION('',(-1.06395825460669E-16,-1.,1.59002462636534E-16));
#1156=DIRECTION('',(1.06395825460669E-16,1.,-1.59002462636534E-16));
#1157=DIRECTION('',(1.47087526142289E-16,-1.41347936570929E-16,-1.));
#1158=DIRECTION('center_axis',(3.52400993217601E-17,1.,-1.41347936570929E-16));
#1159=DIRECTION('ref_axis',(0.,1.41347936570929E-16,1.));
#1160=DIRECTION('',(1.,-3.52400993217601E-17,1.0496972147008E-16));
#1161=DIRECTION('',(-1.,3.52400993217601E-17,-1.0496972147008E-16));
#1162=DIRECTION('',(-1.47087526142289E-16,1.41347936570929E-16,1.));
#1163=DIRECTION('center_axis',(-1.,1.06395825460669E-16,-1.47087526142289E-16));
#1164=DIRECTION('ref_axis',(-1.47087526142289E-16,0.,1.));
#1165=DIRECTION('',(1.06395825460669E-16,1.,-1.59002462636534E-16));
#1166=DIRECTION('',(-1.06395825460669E-16,-1.,1.59002462636534E-16));
#1167=DIRECTION('center_axis',(3.52082881647533E-17,1.,1.91090539842772E-15));
#1168=DIRECTION('ref_axis',(0.,-1.91090539842772E-15,1.));
#1169=DIRECTION('',(-1.46957624073083E-16,-1.91090539842772E-15,1.));
#1170=DIRECTION('',(1.,-3.52082881647535E-17,1.0496972147008E-16));
#1171=DIRECTION('',(1.46957624073083E-16,1.91090539842772E-15,-1.));
#1172=DIRECTION('',(-1.,3.52082881647535E-17,-1.0496972147008E-16));
#1173=DIRECTION('center_axis',(3.52082881647533E-17,1.,1.91090539842772E-15));
#1174=DIRECTION('ref_axis',(0.,-1.91090539842772E-15,1.));
#1175=DIRECTION('',(1.46957624073083E-16,1.91090539842772E-15,-1.));
#1176=DIRECTION('',(1.,-3.52082881647535E-17,1.0496972147008E-16));
#1177=DIRECTION('',(-1.46957624073083E-16,-1.91090539842772E-15,1.));
#1178=DIRECTION('',(-1.,3.52082881647535E-17,-1.0496972147008E-16));
#1179=DIRECTION('center_axis',(-1.0496972147008E-16,1.59002462636534E-16,
1.));
#1180=DIRECTION('ref_axis',(1.,0.,1.0496972147008E-16));
#1181=DIRECTION('',(-1.06491955505185E-16,-1.,1.59002462636534E-16));
#1182=DIRECTION('',(-1.06491955505185E-16,-1.,1.59002462636534E-16));
#1183=DIRECTION('center_axis',(-1.,1.06491955505185E-16,-1.46957624073083E-16));
#1184=DIRECTION('ref_axis',(-1.46957624073083E-16,0.,1.));
#1185=DIRECTION('',(-1.06491955505185E-16,-1.,1.59002462636534E-16));
#1186=DIRECTION('center_axis',(1.0496972147008E-16,-1.59002462636534E-16,
-1.));
#1187=DIRECTION('ref_axis',(-1.,0.,-1.0496972147008E-16));
#1188=DIRECTION('',(-1.06491955505185E-16,-1.,1.59002462636534E-16));
#1189=DIRECTION('center_axis',(1.,-1.06491955505185E-16,1.46957624073083E-16));
#1190=DIRECTION('ref_axis',(1.46957624073083E-16,0.,-1.));
#1191=DIRECTION('axis',(0.,0.,1.));
#1192=DIRECTION('refdir',(1.,0.,0.));
#1193=DIRECTION('center_axis',(-2.17662862999183E-16,7.09435850581994E-18,
1.));
#1194=DIRECTION('ref_axis',(1.,-9.9579925010296E-17,3.61864843853753E-15));
#1195=DIRECTION('center_axis',(-1.0496972147008E-16,1.59002462636534E-16,
1.));
#1196=DIRECTION('ref_axis',(1.,-9.9579925010296E-17,3.61864843853753E-15));
#1197=DIRECTION('',(-2.17662862999183E-16,7.09435850581994E-18,1.));
#1198=DIRECTION('center_axis',(1.0496972147008E-16,-1.59002462636534E-16,
-1.));
#1199=DIRECTION('ref_axis',(1.,-9.9579925010296E-17,3.61864843853753E-15));
#1200=DIRECTION('center_axis',(-2.17662862999183E-16,7.09435850581994E-18,
1.));
#1201=DIRECTION('ref_axis',(1.,-9.9579925010296E-17,3.61864843853753E-15));
#1202=DIRECTION('center_axis',(-1.0496972147008E-16,1.59002462636534E-16,
1.));
#1203=DIRECTION('ref_axis',(1.,-9.9579925010296E-17,3.61864843853753E-15));
#1204=DIRECTION('',(-2.17662862999183E-16,7.09435850581994E-18,1.));
#1205=DIRECTION('center_axis',(1.0496972147008E-16,-1.59002462636534E-16,
-1.));
#1206=DIRECTION('ref_axis',(1.,-9.9579925010296E-17,3.61864843853753E-15));
#1207=DIRECTION('center_axis',(3.52400993217601E-17,1.,-1.41347936570929E-16));
#1208=DIRECTION('ref_axis',(0.,1.41347936570929E-16,1.));
#1209=DIRECTION('',(-1.,3.52400993217601E-17,-1.0496972147008E-16));
#1210=DIRECTION('',(1.47087526142289E-16,-1.41347936570929E-16,-1.));
#1211=DIRECTION('',(1.,-3.52400993217601E-17,1.0496972147008E-16));
#1212=DIRECTION('',(-1.47087526142289E-16,1.41347936570929E-16,1.));
#1213=DIRECTION('center_axis',(1.,-1.06395825460669E-16,1.47087526142289E-16));
#1214=DIRECTION('ref_axis',(1.47087526142289E-16,0.,-1.));
#1215=DIRECTION('',(-1.06395825460669E-16,-1.,1.59002462636534E-16));
#1216=DIRECTION('',(1.06395825460669E-16,1.,-1.59002462636534E-16));
#1217=DIRECTION('',(1.47087526142289E-16,-1.41347936570929E-16,-1.));
#1218=DIRECTION('center_axis',(3.52400993217601E-17,1.,-1.41347936570929E-16));
#1219=DIRECTION('ref_axis',(0.,1.41347936570929E-16,1.));
#1220=DIRECTION('',(1.,-3.52400993217601E-17,1.0496972147008E-16));
#1221=DIRECTION('',(-1.,3.52400993217601E-17,-1.0496972147008E-16));
#1222=DIRECTION('',(-1.47087526142289E-16,1.41347936570929E-16,1.));
#1223=DIRECTION('center_axis',(-1.,1.06395825460669E-16,-1.47087526142289E-16));
#1224=DIRECTION('ref_axis',(-1.47087526142289E-16,0.,1.));
#1225=DIRECTION('',(1.06395825460669E-16,1.,-1.59002462636534E-16));
#1226=DIRECTION('',(-1.06395825460669E-16,-1.,1.59002462636534E-16));
#1227=DIRECTION('center_axis',(3.52082881647533E-17,1.,1.91090539842772E-15));
#1228=DIRECTION('ref_axis',(0.,-1.91090539842772E-15,1.));
#1229=DIRECTION('',(-1.46957624073083E-16,-1.91090539842772E-15,1.));
#1230=DIRECTION('',(1.,-3.52082881647535E-17,1.0496972147008E-16));
#1231=DIRECTION('',(1.46957624073083E-16,1.91090539842772E-15,-1.));
#1232=DIRECTION('',(-1.,3.52082881647535E-17,-1.0496972147008E-16));
#1233=DIRECTION('center_axis',(3.52082881647533E-17,1.,1.91090539842772E-15));
#1234=DIRECTION('ref_axis',(0.,-1.91090539842772E-15,1.));
#1235=DIRECTION('',(1.46957624073083E-16,1.91090539842772E-15,-1.));
#1236=DIRECTION('',(1.,-3.52082881647535E-17,1.0496972147008E-16));
#1237=DIRECTION('',(-1.46957624073083E-16,-1.91090539842772E-15,1.));
#1238=DIRECTION('',(-1.,3.52082881647535E-17,-1.0496972147008E-16));
#1239=DIRECTION('center_axis',(-1.0496972147008E-16,1.59002462636534E-16,
1.));
#1240=DIRECTION('ref_axis',(1.,0.,1.0496972147008E-16));
#1241=DIRECTION('',(-1.06491955505185E-16,-1.,1.59002462636534E-16));
#1242=DIRECTION('',(-1.06491955505185E-16,-1.,1.59002462636534E-16));
#1243=DIRECTION('center_axis',(-1.,1.06491955505185E-16,-1.46957624073083E-16));
#1244=DIRECTION('ref_axis',(-1.46957624073083E-16,0.,1.));
#1245=DIRECTION('',(-1.06491955505185E-16,-1.,1.59002462636534E-16));
#1246=DIRECTION('center_axis',(1.0496972147008E-16,-1.59002462636534E-16,
-1.));
#1247=DIRECTION('ref_axis',(-1.,0.,-1.0496972147008E-16));
#1248=DIRECTION('',(-1.06491955505185E-16,-1.,1.59002462636534E-16));
#1249=DIRECTION('center_axis',(1.,-1.06491955505185E-16,1.46957624073083E-16));
#1250=DIRECTION('ref_axis',(1.46957624073083E-16,0.,-1.));
#1251=DIRECTION('axis',(0.,0.,1.));
#1252=DIRECTION('refdir',(1.,0.,0.));
#1253=DIRECTION('center_axis',(-2.17662862999183E-16,7.09435850581994E-18,
1.));
#1254=DIRECTION('ref_axis',(1.,-9.9579925010296E-17,3.61864843853753E-15));
#1255=DIRECTION('center_axis',(-1.0496972147008E-16,1.59002462636534E-16,
1.));
#1256=DIRECTION('ref_axis',(1.,-9.9579925010296E-17,3.61864843853753E-15));
#1257=DIRECTION('',(-2.17662862999183E-16,7.09435850581994E-18,1.));
#1258=DIRECTION('center_axis',(1.0496972147008E-16,-1.59002462636534E-16,
-1.));
#1259=DIRECTION('ref_axis',(1.,-9.9579925010296E-17,3.61864843853753E-15));
#1260=DIRECTION('center_axis',(-2.17662862999183E-16,7.09435850581994E-18,
1.));
#1261=DIRECTION('ref_axis',(1.,-9.9579925010296E-17,3.61864843853753E-15));
#1262=DIRECTION('center_axis',(-1.0496972147008E-16,1.59002462636534E-16,
1.));
#1263=DIRECTION('ref_axis',(1.,-9.9579925010296E-17,3.61864843853753E-15));
#1264=DIRECTION('',(-2.17662862999183E-16,7.09435850581994E-18,1.));
#1265=DIRECTION('center_axis',(1.0496972147008E-16,-1.59002462636534E-16,
-1.));
#1266=DIRECTION('ref_axis',(1.,-9.9579925010296E-17,3.61864843853753E-15));
#1267=DIRECTION('center_axis',(3.52400993217601E-17,1.,-1.41347936570929E-16));
#1268=DIRECTION('ref_axis',(0.,1.41347936570929E-16,1.));
#1269=DIRECTION('',(-1.,3.52400993217601E-17,-1.0496972147008E-16));
#1270=DIRECTION('',(1.47087526142289E-16,-1.41347936570929E-16,-1.));
#1271=DIRECTION('',(1.,-3.52400993217601E-17,1.0496972147008E-16));
#1272=DIRECTION('',(-1.47087526142289E-16,1.41347936570929E-16,1.));
#1273=DIRECTION('center_axis',(1.,-1.06395825460669E-16,1.47087526142289E-16));
#1274=DIRECTION('ref_axis',(1.47087526142289E-16,0.,-1.));
#1275=DIRECTION('',(-1.06395825460669E-16,-1.,1.59002462636534E-16));
#1276=DIRECTION('',(1.06395825460669E-16,1.,-1.59002462636534E-16));
#1277=DIRECTION('',(1.47087526142289E-16,-1.41347936570929E-16,-1.));
#1278=DIRECTION('center_axis',(3.52400993217601E-17,1.,-1.41347936570929E-16));
#1279=DIRECTION('ref_axis',(0.,1.41347936570929E-16,1.));
#1280=DIRECTION('',(1.,-3.52400993217601E-17,1.0496972147008E-16));
#1281=DIRECTION('',(-1.,3.52400993217601E-17,-1.0496972147008E-16));
#1282=DIRECTION('',(-1.47087526142289E-16,1.41347936570929E-16,1.));
#1283=DIRECTION('center_axis',(-1.,1.06395825460669E-16,-1.47087526142289E-16));
#1284=DIRECTION('ref_axis',(-1.47087526142289E-16,0.,1.));
#1285=DIRECTION('',(1.06395825460669E-16,1.,-1.59002462636534E-16));
#1286=DIRECTION('',(-1.06395825460669E-16,-1.,1.59002462636534E-16));
#1287=DIRECTION('center_axis',(3.52082881647533E-17,1.,1.91090539842772E-15));
#1288=DIRECTION('ref_axis',(0.,-1.91090539842772E-15,1.));
#1289=DIRECTION('',(-1.46957624073083E-16,-1.91090539842772E-15,1.));
#1290=DIRECTION('',(1.,-3.52082881647535E-17,1.0496972147008E-16));
#1291=DIRECTION('',(1.46957624073083E-16,1.91090539842772E-15,-1.));
#1292=DIRECTION('',(-1.,3.52082881647535E-17,-1.0496972147008E-16));
#1293=DIRECTION('center_axis',(3.52082881647533E-17,1.,1.91090539842772E-15));
#1294=DIRECTION('ref_axis',(0.,-1.91090539842772E-15,1.));
#1295=DIRECTION('',(1.46957624073083E-16,1.91090539842772E-15,-1.));
#1296=DIRECTION('',(1.,-3.52082881647535E-17,1.0496972147008E-16));
#1297=DIRECTION('',(-1.46957624073083E-16,-1.91090539842772E-15,1.));
#1298=DIRECTION('',(-1.,3.52082881647535E-17,-1.0496972147008E-16));
#1299=DIRECTION('center_axis',(-1.0496972147008E-16,1.59002462636534E-16,
1.));
#1300=DIRECTION('ref_axis',(1.,0.,1.0496972147008E-16));
#1301=DIRECTION('',(-1.06491955505185E-16,-1.,1.59002462636534E-16));
#1302=DIRECTION('',(-1.06491955505185E-16,-1.,1.59002462636534E-16));
#1303=DIRECTION('center_axis',(-1.,1.06491955505185E-16,-1.46957624073083E-16));
#1304=DIRECTION('ref_axis',(-1.46957624073083E-16,0.,1.));
#1305=DIRECTION('',(-1.06491955505185E-16,-1.,1.59002462636534E-16));
#1306=DIRECTION('center_axis',(1.0496972147008E-16,-1.59002462636534E-16,
-1.));
#1307=DIRECTION('ref_axis',(-1.,0.,-1.0496972147008E-16));
#1308=DIRECTION('',(-1.06491955505185E-16,-1.,1.59002462636534E-16));
#1309=DIRECTION('center_axis',(1.,-1.06491955505185E-16,1.46957624073083E-16));
#1310=DIRECTION('ref_axis',(1.46957624073083E-16,0.,-1.));
#1311=DIRECTION('',(0.,0.,1.));
#1312=DIRECTION('',(1.,0.,0.));
#1313=DIRECTION('',(0.,0.,1.));
#1314=DIRECTION('',(1.,0.,0.));
#1315=DIRECTION('',(0.,0.,1.));
#1316=DIRECTION('',(1.,0.,0.));
#1317=DIRECTION('',(0.,0.,1.));
#1318=DIRECTION('',(1.,0.,0.));
#1319=CARTESIAN_POINT('',(0.,0.,0.));
#1320=CARTESIAN_POINT('',(0.,0.,0.));
#1321=CARTESIAN_POINT('Origin',(-0.529299255371089,0.727137866859552,-1.34775017700195));
#1322=CARTESIAN_POINT('',(-0.595149255371089,0.727137866859552,-3.10048039926676E-5));
#1323=CARTESIAN_POINT('Origin',(-0.529299255371089,0.727137866859552,-3.10048039924293E-5));
#1324=CARTESIAN_POINT('',(-0.595149255371089,0.727137866859552,0.023761623410937));
#1325=CARTESIAN_POINT('',(-0.595149255371089,0.727137866859552,-1.34775017700195));
#1326=CARTESIAN_POINT('Origin',(-0.529299255371089,0.727137866859552,0.0237616234109372));
#1327=CARTESIAN_POINT('Origin',(-1.74229925537108,0.727137866859552,-1.34775017700195));
#1328=CARTESIAN_POINT('',(-1.80814925537108,0.727137866859552,-3.10048039931117E-5));
#1329=CARTESIAN_POINT('Origin',(-1.74229925537108,0.727137866859552,-3.10048039928734E-5));
#1330=CARTESIAN_POINT('',(-1.80814925537108,0.727137866859552,0.0237616234109366));
#1331=CARTESIAN_POINT('',(-1.80814925537108,0.727137866859552,-1.34775017700195));
#1332=CARTESIAN_POINT('Origin',(-1.74229925537108,0.727137866859552,0.0237616234109368));
#1333=CARTESIAN_POINT('Origin',(-1.12508218761394,1.05402846074196,0.260805694003943));
#1334=CARTESIAN_POINT('',(-0.634232140883893,1.05402846074196,-3.10048039926514E-5));
#1335=CARTESIAN_POINT('',(-1.61593223434399,1.05402846074196,-3.10048039927624E-5));
#1336=CARTESIAN_POINT('',(-1.12010411072872,1.05402846074196,-3.10048039927069E-5));
#1337=CARTESIAN_POINT('',(-0.634232140883893,1.05402846074196,0.0237616234109369));
#1338=CARTESIAN_POINT('',(-0.634232140883893,1.05402846074196,0.260805694003943));
#1339=CARTESIAN_POINT('',(-1.61593223434399,1.05402846074196,0.0237616234109368));
#1340=CARTESIAN_POINT('',(-1.12010411072872,1.05402846074196,0.0237616234109369));
#1341=CARTESIAN_POINT('',(-1.61593223434399,1.05402846074196,0.260805694003943));
#1342=CARTESIAN_POINT('Origin',(-1.61593223434399,0.731181240542388,0.260805694003943));
#1343=CARTESIAN_POINT('',(-1.61593223434399,0.408334020342816,-3.10048039926514E-5));
#1344=CARTESIAN_POINT('',(-1.61593223434399,0.731181240542388,-3.10048039927069E-5));
#1345=CARTESIAN_POINT('',(-1.61593223434399,0.408334020342816,0.0237616234109369));
#1346=CARTESIAN_POINT('',(-1.61593223434399,0.731181240542388,0.0237616234109369));
#1347=CARTESIAN_POINT('',(-1.61593223434399,0.408334020342816,0.260805694003943));
#1348=CARTESIAN_POINT('Origin',(-1.12508218761394,0.408334020342816,0.260805694003943));
#1349=CARTESIAN_POINT('',(-0.634232140883893,0.408334020342816,-3.10048039925404E-5));
#1350=CARTESIAN_POINT('',(-1.12010411072872,0.408334020342816,-3.10048039925959E-5));
#1351=CARTESIAN_POINT('',(-0.634232140883893,0.408334020342816,0.023761623410937));
#1352=CARTESIAN_POINT('',(-1.12010411072872,0.408334020342816,0.023761623410937));
#1353=CARTESIAN_POINT('',(-0.634232140883893,0.408334020342816,0.260805694003943));
#1354=CARTESIAN_POINT('Origin',(-0.634232140883893,0.731181240542388,0.260805694003943));
#1355=CARTESIAN_POINT('',(-0.634232140883893,0.731181240542388,-3.10048039925959E-5));
#1356=CARTESIAN_POINT('',(-0.634232140883893,0.731181240542388,0.023761623410937));
#1357=CARTESIAN_POINT('Origin',(-1.11512603384351,1.13367776579185,0.0118653093034721));
#1358=CARTESIAN_POINT('',(-1.81512610060072,1.13367776579185,-3.10048039927889E-5));
#1359=CARTESIAN_POINT('',(-1.81512610060072,1.13367776579185,0.0237616234109368));
#1360=CARTESIAN_POINT('',(-1.81512610060072,1.13367776579185,0.011865309303472));
#1361=CARTESIAN_POINT('',(-0.4151259670863,1.13367776579185,0.0237616234109369));
#1362=CARTESIAN_POINT('',(-1.11512603384351,1.13367776579185,0.0237616234109369));
#1363=CARTESIAN_POINT('',(-0.4151259670863,1.13367776579185,-3.10048039926419E-5));
#1364=CARTESIAN_POINT('',(-0.4151259670863,1.13367776579185,0.0118653093034722));
#1365=CARTESIAN_POINT('',(-1.11512603384351,1.13367776579185,-3.10048039927154E-5));
#1366=CARTESIAN_POINT('Origin',(-1.11512603384351,0.328684715292923,0.0118653093034722));
#1367=CARTESIAN_POINT('',(-1.81512610060072,0.328684715292923,0.0237616234109369));
#1368=CARTESIAN_POINT('',(-1.81512610060072,0.328684715292923,-3.10048039926609E-5));
#1369=CARTESIAN_POINT('',(-1.81512610060072,0.328684715292923,0.0118653093034721));
#1370=CARTESIAN_POINT('',(-0.4151259670863,0.328684715292923,-3.10048039925139E-5));
#1371=CARTESIAN_POINT('',(-1.11512603384351,0.328684715292923,-3.10048039925874E-5));
#1372=CARTESIAN_POINT('',(-0.4151259670863,0.328684715292923,0.0237616234109371));
#1373=CARTESIAN_POINT('',(-0.4151259670863,0.328684715292923,0.0118653093034723));
#1374=CARTESIAN_POINT('',(-1.11512603384351,0.328684715292923,0.023761623410937));
#1375=CARTESIAN_POINT('Origin',(-1.11512603384351,0.731181240542388,-3.10048039926514E-5));
#1376=CARTESIAN_POINT('',(-0.4151259670863,0.731181240542388,-3.10048039925779E-5));
#1377=CARTESIAN_POINT('',(-1.81512610060072,0.731181240542388,-3.10048039927249E-5));
#1378=CARTESIAN_POINT('Origin',(-0.4151259670863,0.731181240542388,0.0118653093034722));
#1379=CARTESIAN_POINT('',(-0.4151259670863,0.731181240542388,0.023761623410937));
#1380=CARTESIAN_POINT('Origin',(-1.11512603384351,0.731181240542388,0.0237616234109369));
#1381=CARTESIAN_POINT('',(-1.81512610060072,0.731181240542388,0.0237616234109369));
#1382=CARTESIAN_POINT('Origin',(-1.81512610060072,0.731181240542388,0.0118653093034721));
#1383=CARTESIAN_POINT('',(0.,0.,0.));
#1384=CARTESIAN_POINT('Origin',(-0.529299255371089,-0.672862133140448,-1.34775017700195));
#1385=CARTESIAN_POINT('',(-0.595149255371089,-0.672862133140448,-3.10048039926676E-5));
#1386=CARTESIAN_POINT('Origin',(-0.529299255371089,-0.672862133140448,-3.10048039924293E-5));
#1387=CARTESIAN_POINT('',(-0.595149255371089,-0.672862133140448,0.023761623410937));
#1388=CARTESIAN_POINT('',(-0.595149255371089,-0.672862133140448,-1.34775017700195));
#1389=CARTESIAN_POINT('Origin',(-0.529299255371089,-0.672862133140448,0.0237616234109372));
#1390=CARTESIAN_POINT('Origin',(-1.74229925537108,-0.672862133140448,-1.34775017700195));
#1391=CARTESIAN_POINT('',(-1.80814925537108,-0.672862133140448,-3.10048039931117E-5));
#1392=CARTESIAN_POINT('Origin',(-1.74229925537108,-0.672862133140448,-3.10048039928734E-5));
#1393=CARTESIAN_POINT('',(-1.80814925537108,-0.672862133140448,0.0237616234109366));
#1394=CARTESIAN_POINT('',(-1.80814925537108,-0.672862133140448,-1.34775017700195));
#1395=CARTESIAN_POINT('Origin',(-1.74229925537108,-0.672862133140448,0.0237616234109368));
#1396=CARTESIAN_POINT('Origin',(-1.12508218761394,-0.34597153925804,0.260805694003943));
#1397=CARTESIAN_POINT('',(-0.634232140883893,-0.34597153925804,-3.10048039926514E-5));
#1398=CARTESIAN_POINT('',(-1.61593223434399,-0.34597153925804,-3.10048039927624E-5));
#1399=CARTESIAN_POINT('',(-1.12010411072872,-0.34597153925804,-3.10048039927069E-5));
#1400=CARTESIAN_POINT('',(-0.634232140883893,-0.34597153925804,0.0237616234109369));
#1401=CARTESIAN_POINT('',(-0.634232140883893,-0.34597153925804,0.260805694003943));
#1402=CARTESIAN_POINT('',(-1.61593223434399,-0.34597153925804,0.0237616234109368));
#1403=CARTESIAN_POINT('',(-1.12010411072872,-0.34597153925804,0.0237616234109369));
#1404=CARTESIAN_POINT('',(-1.61593223434399,-0.34597153925804,0.260805694003943));
#1405=CARTESIAN_POINT('Origin',(-1.61593223434399,-0.668818759457612,0.260805694003943));
#1406=CARTESIAN_POINT('',(-1.61593223434399,-0.991665979657184,-3.10048039926514E-5));
#1407=CARTESIAN_POINT('',(-1.61593223434399,-0.668818759457612,-3.10048039927069E-5));
#1408=CARTESIAN_POINT('',(-1.61593223434399,-0.991665979657184,0.0237616234109369));
#1409=CARTESIAN_POINT('',(-1.61593223434399,-0.668818759457612,0.0237616234109369));
#1410=CARTESIAN_POINT('',(-1.61593223434399,-0.991665979657184,0.260805694003943));
#1411=CARTESIAN_POINT('Origin',(-1.12508218761394,-0.991665979657184,0.260805694003943));
#1412=CARTESIAN_POINT('',(-0.634232140883893,-0.991665979657184,-3.10048039925404E-5));
#1413=CARTESIAN_POINT('',(-1.12010411072872,-0.991665979657185,-3.10048039925959E-5));
#1414=CARTESIAN_POINT('',(-0.634232140883893,-0.991665979657184,0.023761623410937));
#1415=CARTESIAN_POINT('',(-1.12010411072872,-0.991665979657185,0.023761623410937));
#1416=CARTESIAN_POINT('',(-0.634232140883893,-0.991665979657184,0.260805694003943));
#1417=CARTESIAN_POINT('Origin',(-0.634232140883893,-0.668818759457612,0.260805694003943));
#1418=CARTESIAN_POINT('',(-0.634232140883893,-0.668818759457612,-3.10048039925959E-5));
#1419=CARTESIAN_POINT('',(-0.634232140883893,-0.668818759457612,0.023761623410937));
#1420=CARTESIAN_POINT('Origin',(-1.11512603384351,-0.266322234208147,0.0118653093034721));
#1421=CARTESIAN_POINT('',(-1.81512610060072,-0.266322234208147,-3.10048039927889E-5));
#1422=CARTESIAN_POINT('',(-1.81512610060072,-0.266322234208147,0.0237616234109368));
#1423=CARTESIAN_POINT('',(-1.81512610060072,-0.266322234208147,0.011865309303472));
#1424=CARTESIAN_POINT('',(-0.4151259670863,-0.266322234208147,0.0237616234109369));
#1425=CARTESIAN_POINT('',(-1.11512603384351,-0.266322234208147,0.0237616234109369));
#1426=CARTESIAN_POINT('',(-0.4151259670863,-0.266322234208147,-3.10048039926419E-5));
#1427=CARTESIAN_POINT('',(-0.4151259670863,-0.266322234208147,0.0118653093034722));
#1428=CARTESIAN_POINT('',(-1.11512603384351,-0.266322234208147,-3.10048039927154E-5));
#1429=CARTESIAN_POINT('Origin',(-1.11512603384351,-1.07131528470708,0.0118653093034722));
#1430=CARTESIAN_POINT('',(-1.81512610060072,-1.07131528470708,0.0237616234109369));
#1431=CARTESIAN_POINT('',(-1.81512610060072,-1.07131528470708,-3.10048039926609E-5));
#1432=CARTESIAN_POINT('',(-1.81512610060072,-1.07131528470708,0.0118653093034721));
#1433=CARTESIAN_POINT('',(-0.4151259670863,-1.07131528470708,-3.10048039925139E-5));
#1434=CARTESIAN_POINT('',(-1.11512603384351,-1.07131528470708,-3.10048039925874E-5));
#1435=CARTESIAN_POINT('',(-0.4151259670863,-1.07131528470708,0.0237616234109371));
#1436=CARTESIAN_POINT('',(-0.4151259670863,-1.07131528470708,0.0118653093034723));
#1437=CARTESIAN_POINT('',(-1.11512603384351,-1.07131528470708,0.023761623410937));
#1438=CARTESIAN_POINT('Origin',(-1.11512603384351,-0.668818759457612,-3.10048039926514E-5));
#1439=CARTESIAN_POINT('',(-0.4151259670863,-0.668818759457612,-3.10048039925779E-5));
#1440=CARTESIAN_POINT('',(-1.81512610060072,-0.668818759457612,-3.10048039927249E-5));
#1441=CARTESIAN_POINT('Origin',(-0.4151259670863,-0.668818759457612,0.0118653093034722));
#1442=CARTESIAN_POINT('',(-0.4151259670863,-0.668818759457612,0.023761623410937));
#1443=CARTESIAN_POINT('Origin',(-1.11512603384351,-0.668818759457612,0.0237616234109369));
#1444=CARTESIAN_POINT('',(-1.81512610060072,-0.668818759457612,0.0237616234109369));
#1445=CARTESIAN_POINT('Origin',(-1.81512610060072,-0.668818759457612,0.0118653093034721));
#1446=CARTESIAN_POINT('',(0.,0.,0.));
#1447=CARTESIAN_POINT('Origin',(1.77070074462891,-0.672862133140448,-1.34775017700195));
#1448=CARTESIAN_POINT('',(1.70485074462891,-0.672862133140448,-3.10048039926676E-5));
#1449=CARTESIAN_POINT('Origin',(1.77070074462891,-0.672862133140448,-3.10048039924293E-5));
#1450=CARTESIAN_POINT('',(1.70485074462891,-0.672862133140448,0.023761623410937));
#1451=CARTESIAN_POINT('',(1.70485074462891,-0.672862133140448,-1.34775017700195));
#1452=CARTESIAN_POINT('Origin',(1.77070074462891,-0.672862133140448,0.0237616234109372));
#1453=CARTESIAN_POINT('Origin',(0.557700744628916,-0.672862133140448,-1.34775017700195));
#1454=CARTESIAN_POINT('',(0.491850744628916,-0.672862133140448,-3.10048039931117E-5));
#1455=CARTESIAN_POINT('Origin',(0.557700744628916,-0.672862133140448,-3.10048039928734E-5));
#1456=CARTESIAN_POINT('',(0.491850744628916,-0.672862133140448,0.0237616234109366));
#1457=CARTESIAN_POINT('',(0.491850744628916,-0.672862133140448,-1.34775017700195));
#1458=CARTESIAN_POINT('Origin',(0.557700744628916,-0.672862133140448,0.0237616234109368));
#1459=CARTESIAN_POINT('Origin',(1.17491781238606,-0.34597153925804,0.260805694003943));
#1460=CARTESIAN_POINT('',(1.66576785911611,-0.34597153925804,-3.10048039926514E-5));
#1461=CARTESIAN_POINT('',(0.684067765656016,-0.34597153925804,-3.10048039927624E-5));
#1462=CARTESIAN_POINT('',(1.17989588927128,-0.34597153925804,-3.10048039927069E-5));
#1463=CARTESIAN_POINT('',(1.66576785911611,-0.34597153925804,0.0237616234109369));
#1464=CARTESIAN_POINT('',(1.66576785911611,-0.34597153925804,0.260805694003943));
#1465=CARTESIAN_POINT('',(0.684067765656016,-0.34597153925804,0.0237616234109368));
#1466=CARTESIAN_POINT('',(1.17989588927128,-0.34597153925804,0.0237616234109369));
#1467=CARTESIAN_POINT('',(0.684067765656016,-0.34597153925804,0.260805694003943));
#1468=CARTESIAN_POINT('Origin',(0.684067765656016,-0.668818759457612,0.260805694003943));
#1469=CARTESIAN_POINT('',(0.684067765656016,-0.991665979657184,-3.10048039926514E-5));
#1470=CARTESIAN_POINT('',(0.684067765656016,-0.668818759457612,-3.10048039927069E-5));
#1471=CARTESIAN_POINT('',(0.684067765656016,-0.991665979657184,0.0237616234109369));
#1472=CARTESIAN_POINT('',(0.684067765656016,-0.668818759457612,0.0237616234109369));
#1473=CARTESIAN_POINT('',(0.684067765656016,-0.991665979657184,0.260805694003943));
#1474=CARTESIAN_POINT('Origin',(1.17491781238606,-0.991665979657184,0.260805694003943));
#1475=CARTESIAN_POINT('',(1.66576785911611,-0.991665979657184,-3.10048039925404E-5));
#1476=CARTESIAN_POINT('',(1.17989588927128,-0.991665979657185,-3.10048039925959E-5));
#1477=CARTESIAN_POINT('',(1.66576785911611,-0.991665979657184,0.023761623410937));
#1478=CARTESIAN_POINT('',(1.17989588927128,-0.991665979657185,0.023761623410937));
#1479=CARTESIAN_POINT('',(1.66576785911611,-0.991665979657184,0.260805694003943));
#1480=CARTESIAN_POINT('Origin',(1.66576785911611,-0.668818759457612,0.260805694003943));
#1481=CARTESIAN_POINT('',(1.66576785911611,-0.668818759457612,-3.10048039925959E-5));
#1482=CARTESIAN_POINT('',(1.66576785911611,-0.668818759457612,0.023761623410937));
#1483=CARTESIAN_POINT('Origin',(1.18487396615649,-0.266322234208147,0.0118653093034721));
#1484=CARTESIAN_POINT('',(0.484873899399284,-0.266322234208147,-3.10048039927889E-5));
#1485=CARTESIAN_POINT('',(0.484873899399284,-0.266322234208147,0.0237616234109368));
#1486=CARTESIAN_POINT('',(0.484873899399284,-0.266322234208147,0.011865309303472));
#1487=CARTESIAN_POINT('',(1.8848740329137,-0.266322234208147,0.0237616234109369));
#1488=CARTESIAN_POINT('',(1.18487396615649,-0.266322234208147,0.0237616234109369));
#1489=CARTESIAN_POINT('',(1.8848740329137,-0.266322234208147,-3.10048039926419E-5));
#1490=CARTESIAN_POINT('',(1.8848740329137,-0.266322234208147,0.0118653093034722));
#1491=CARTESIAN_POINT('',(1.18487396615649,-0.266322234208147,-3.10048039927154E-5));
#1492=CARTESIAN_POINT('Origin',(1.18487396615649,-1.07131528470708,0.0118653093034722));
#1493=CARTESIAN_POINT('',(0.484873899399284,-1.07131528470708,0.0237616234109369));
#1494=CARTESIAN_POINT('',(0.484873899399284,-1.07131528470708,-3.10048039926609E-5));
#1495=CARTESIAN_POINT('',(0.484873899399284,-1.07131528470708,0.0118653093034721));
#1496=CARTESIAN_POINT('',(1.8848740329137,-1.07131528470708,-3.10048039925139E-5));
#1497=CARTESIAN_POINT('',(1.18487396615649,-1.07131528470708,-3.10048039925874E-5));
#1498=CARTESIAN_POINT('',(1.8848740329137,-1.07131528470708,0.0237616234109371));
#1499=CARTESIAN_POINT('',(1.8848740329137,-1.07131528470708,0.0118653093034723));
#1500=CARTESIAN_POINT('',(1.18487396615649,-1.07131528470708,0.023761623410937));
#1501=CARTESIAN_POINT('Origin',(1.18487396615649,-0.668818759457612,-3.10048039926514E-5));
#1502=CARTESIAN_POINT('',(1.8848740329137,-0.668818759457612,-3.10048039925779E-5));
#1503=CARTESIAN_POINT('',(0.484873899399284,-0.668818759457612,-3.10048039927249E-5));
#1504=CARTESIAN_POINT('Origin',(1.8848740329137,-0.668818759457612,0.0118653093034722));
#1505=CARTESIAN_POINT('',(1.8848740329137,-0.668818759457612,0.023761623410937));
#1506=CARTESIAN_POINT('Origin',(1.18487396615649,-0.668818759457612,0.0237616234109369));
#1507=CARTESIAN_POINT('',(0.484873899399284,-0.668818759457612,0.0237616234109369));
#1508=CARTESIAN_POINT('Origin',(0.484873899399284,-0.668818759457612,0.0118653093034721));
#1509=CARTESIAN_POINT('',(0.,0.,0.));
#1510=CARTESIAN_POINT('Origin',(1.77070074462891,0.727137866859552,-1.34775017700195));
#1511=CARTESIAN_POINT('',(1.70485074462891,0.727137866859552,-3.10048039926676E-5));
#1512=CARTESIAN_POINT('Origin',(1.77070074462891,0.727137866859552,-3.10048039924293E-5));
#1513=CARTESIAN_POINT('',(1.70485074462891,0.727137866859552,0.023761623410937));
#1514=CARTESIAN_POINT('',(1.70485074462891,0.727137866859552,-1.34775017700195));
#1515=CARTESIAN_POINT('Origin',(1.77070074462891,0.727137866859552,0.0237616234109372));
#1516=CARTESIAN_POINT('Origin',(0.557700744628916,0.727137866859552,-1.34775017700195));
#1517=CARTESIAN_POINT('',(0.491850744628916,0.727137866859552,-3.10048039931117E-5));
#1518=CARTESIAN_POINT('Origin',(0.557700744628916,0.727137866859552,-3.10048039928734E-5));
#1519=CARTESIAN_POINT('',(0.491850744628916,0.727137866859552,0.0237616234109366));
#1520=CARTESIAN_POINT('',(0.491850744628916,0.727137866859552,-1.34775017700195));
#1521=CARTESIAN_POINT('Origin',(0.557700744628916,0.727137866859552,0.0237616234109368));
#1522=CARTESIAN_POINT('Origin',(1.17491781238606,1.05402846074196,0.260805694003943));
#1523=CARTESIAN_POINT('',(1.66576785911611,1.05402846074196,-3.10048039926514E-5));
#1524=CARTESIAN_POINT('',(0.684067765656016,1.05402846074196,-3.10048039927624E-5));
#1525=CARTESIAN_POINT('',(1.17989588927128,1.05402846074196,-3.10048039927069E-5));
#1526=CARTESIAN_POINT('',(1.66576785911611,1.05402846074196,0.0237616234109369));
#1527=CARTESIAN_POINT('',(1.66576785911611,1.05402846074196,0.260805694003943));
#1528=CARTESIAN_POINT('',(0.684067765656016,1.05402846074196,0.0237616234109368));
#1529=CARTESIAN_POINT('',(1.17989588927128,1.05402846074196,0.0237616234109369));
#1530=CARTESIAN_POINT('',(0.684067765656016,1.05402846074196,0.260805694003943));
#1531=CARTESIAN_POINT('Origin',(0.684067765656016,0.731181240542388,0.260805694003943));
#1532=CARTESIAN_POINT('',(0.684067765656016,0.408334020342816,-3.10048039926514E-5));
#1533=CARTESIAN_POINT('',(0.684067765656016,0.731181240542388,-3.10048039927069E-5));
#1534=CARTESIAN_POINT('',(0.684067765656016,0.408334020342816,0.0237616234109369));
#1535=CARTESIAN_POINT('',(0.684067765656016,0.731181240542388,0.0237616234109369));
#1536=CARTESIAN_POINT('',(0.684067765656016,0.408334020342816,0.260805694003943));
#1537=CARTESIAN_POINT('Origin',(1.17491781238606,0.408334020342816,0.260805694003943));
#1538=CARTESIAN_POINT('',(1.66576785911611,0.408334020342816,-3.10048039925404E-5));
#1539=CARTESIAN_POINT('',(1.17989588927128,0.408334020342816,-3.10048039925959E-5));
#1540=CARTESIAN_POINT('',(1.66576785911611,0.408334020342816,0.023761623410937));
#1541=CARTESIAN_POINT('',(1.17989588927128,0.408334020342816,0.023761623410937));
#1542=CARTESIAN_POINT('',(1.66576785911611,0.408334020342816,0.260805694003943));
#1543=CARTESIAN_POINT('Origin',(1.66576785911611,0.731181240542388,0.260805694003943));
#1544=CARTESIAN_POINT('',(1.66576785911611,0.731181240542388,-3.10048039925959E-5));
#1545=CARTESIAN_POINT('',(1.66576785911611,0.731181240542388,0.023761623410937));
#1546=CARTESIAN_POINT('Origin',(1.18487396615649,1.13367776579185,0.0118653093034721));
#1547=CARTESIAN_POINT('',(0.484873899399284,1.13367776579185,-3.10048039927889E-5));
#1548=CARTESIAN_POINT('',(0.484873899399284,1.13367776579185,0.0237616234109368));
#1549=CARTESIAN_POINT('',(0.484873899399284,1.13367776579185,0.011865309303472));
#1550=CARTESIAN_POINT('',(1.8848740329137,1.13367776579185,0.0237616234109369));
#1551=CARTESIAN_POINT('',(1.18487396615649,1.13367776579185,0.0237616234109369));
#1552=CARTESIAN_POINT('',(1.8848740329137,1.13367776579185,-3.10048039926419E-5));
#1553=CARTESIAN_POINT('',(1.8848740329137,1.13367776579185,0.0118653093034722));
#1554=CARTESIAN_POINT('',(1.18487396615649,1.13367776579185,-3.10048039927154E-5));
#1555=CARTESIAN_POINT('Origin',(1.18487396615649,0.328684715292923,0.0118653093034722));
#1556=CARTESIAN_POINT('',(0.484873899399284,0.328684715292923,0.0237616234109369));
#1557=CARTESIAN_POINT('',(0.484873899399284,0.328684715292923,-3.10048039926609E-5));
#1558=CARTESIAN_POINT('',(0.484873899399284,0.328684715292923,0.0118653093034721));
#1559=CARTESIAN_POINT('',(1.8848740329137,0.328684715292923,-3.10048039925139E-5));
#1560=CARTESIAN_POINT('',(1.18487396615649,0.328684715292923,-3.10048039925874E-5));
#1561=CARTESIAN_POINT('',(1.8848740329137,0.328684715292923,0.0237616234109371));
#1562=CARTESIAN_POINT('',(1.8848740329137,0.328684715292923,0.0118653093034723));
#1563=CARTESIAN_POINT('',(1.18487396615649,0.328684715292923,0.023761623410937));
#1564=CARTESIAN_POINT('Origin',(1.18487396615649,0.731181240542388,-3.10048039926514E-5));
#1565=CARTESIAN_POINT('',(1.8848740329137,0.731181240542388,-3.10048039925779E-5));
#1566=CARTESIAN_POINT('',(0.484873899399284,0.731181240542388,-3.10048039927249E-5));
#1567=CARTESIAN_POINT('Origin',(1.8848740329137,0.731181240542388,0.0118653093034722));
#1568=CARTESIAN_POINT('',(1.8848740329137,0.731181240542388,0.023761623410937));
#1569=CARTESIAN_POINT('Origin',(1.18487396615649,0.731181240542388,0.0237616234109369));
#1570=CARTESIAN_POINT('',(0.484873899399284,0.731181240542388,0.0237616234109369));
#1571=CARTESIAN_POINT('Origin',(0.484873899399284,0.731181240542388,0.0118653093034721));
#1572=CARTESIAN_POINT('',(0.,0.,0.));
#1573=CARTESIAN_POINT('',(0.,0.,0.));
#1574=CARTESIAN_POINT('',(0.,0.,0.));
#1575=CARTESIAN_POINT('',(0.,0.,0.));
#1576=UNCERTAINTY_MEASURE_WITH_UNIT(LENGTH_MEASURE(0.001),#1588,
'DISTANCE_ACCURACY_VALUE',
'Maximum model space distance between geometric entities at asserted c
onnectivities');
#1577=UNCERTAINTY_MEASURE_WITH_UNIT(LENGTH_MEASURE(0.001),#1588,
'DISTANCE_ACCURACY_VALUE',
'Maximum model space distance between geometric entities at asserted c
onnectivities');
#1578=UNCERTAINTY_MEASURE_WITH_UNIT(LENGTH_MEASURE(0.001),#1588,
'DISTANCE_ACCURACY_VALUE',
'Maximum model space distance between geometric entities at asserted c
onnectivities');
#1579=UNCERTAINTY_MEASURE_WITH_UNIT(LENGTH_MEASURE(0.001),#1588,
'DISTANCE_ACCURACY_VALUE',
'Maximum model space distance between geometric entities at asserted c
onnectivities');
#1580=UNCERTAINTY_MEASURE_WITH_UNIT(LENGTH_MEASURE(0.001),#1588,
'DISTANCE_ACCURACY_VALUE',
'Maximum model space distance between geometric entities at asserted c
onnectivities');
#1581=UNCERTAINTY_MEASURE_WITH_UNIT(LENGTH_MEASURE(0.001),#1588,
'DISTANCE_ACCURACY_VALUE',
'Maximum model space distance between geometric entities at asserted c
onnectivities');
#1582=(
GEOMETRIC_REPRESENTATION_CONTEXT(3)
GLOBAL_UNCERTAINTY_ASSIGNED_CONTEXT((#1576))
GLOBAL_UNIT_ASSIGNED_CONTEXT((#1588,#1590,#1591))
REPRESENTATION_CONTEXT('','3D')
);
#1583=(
GEOMETRIC_REPRESENTATION_CONTEXT(3)
GLOBAL_UNCERTAINTY_ASSIGNED_CONTEXT((#1577))
GLOBAL_UNIT_ASSIGNED_CONTEXT((#1588,#1590,#1591))
REPRESENTATION_CONTEXT('','3D')
);
#1584=(
GEOMETRIC_REPRESENTATION_CONTEXT(3)
GLOBAL_UNCERTAINTY_ASSIGNED_CONTEXT((#1578))
GLOBAL_UNIT_ASSIGNED_CONTEXT((#1588,#1590,#1591))
REPRESENTATION_CONTEXT('','3D')
);
#1585=(
GEOMETRIC_REPRESENTATION_CONTEXT(3)
GLOBAL_UNCERTAINTY_ASSIGNED_CONTEXT((#1579))
GLOBAL_UNIT_ASSIGNED_CONTEXT((#1588,#1590,#1591))
REPRESENTATION_CONTEXT('','3D')
);
#1586=(
GEOMETRIC_REPRESENTATION_CONTEXT(3)
GLOBAL_UNCERTAINTY_ASSIGNED_CONTEXT((#1580))
GLOBAL_UNIT_ASSIGNED_CONTEXT((#1588,#1590,#1591))
REPRESENTATION_CONTEXT('','3D')
);
#1587=(
GEOMETRIC_REPRESENTATION_CONTEXT(3)
GLOBAL_UNCERTAINTY_ASSIGNED_CONTEXT((#1581))
GLOBAL_UNIT_ASSIGNED_CONTEXT((#1588,#1590,#1591))
REPRESENTATION_CONTEXT('','3D')
);
#1588=(
LENGTH_UNIT()
NAMED_UNIT(*)
SI_UNIT(.CENTI.,.METRE.)
);
#1589=(
LENGTH_UNIT()
NAMED_UNIT(*)
SI_UNIT($,.METRE.)
);
#1590=(
NAMED_UNIT(*)
PLANE_ANGLE_UNIT()
SI_UNIT($,.RADIAN.)
);
#1591=(
NAMED_UNIT(*)
SI_UNIT($,.STERADIAN.)
SOLID_ANGLE_UNIT()
);
#1592=SHAPE_DEFINITION_REPRESENTATION(#1597,#1606);
#1593=SHAPE_DEFINITION_REPRESENTATION(#1598,#1607);
#1594=SHAPE_DEFINITION_REPRESENTATION(#1599,#1608);
#1595=SHAPE_DEFINITION_REPRESENTATION(#1600,#1609);
#1596=SHAPE_DEFINITION_REPRESENTATION(#1601,#1610);
#1597=PRODUCT_DEFINITION_SHAPE('',$,#1612);
#1598=PRODUCT_DEFINITION_SHAPE('',$,#1613);
#1599=PRODUCT_DEFINITION_SHAPE('',$,#1614);
#1600=PRODUCT_DEFINITION_SHAPE('',$,#1615);
#1601=PRODUCT_DEFINITION_SHAPE('',$,#1616);
#1602=PRODUCT_DEFINITION_SHAPE($,$,#23);
#1603=PRODUCT_DEFINITION_SHAPE($,$,#24);
#1604=PRODUCT_DEFINITION_SHAPE($,$,#25);
#1605=PRODUCT_DEFINITION_SHAPE($,$,#26);
#1606=SHAPE_REPRESENTATION('',(#996,#1065,#1066,#1067,#1068),#1582);
#1607=SHAPE_REPRESENTATION('',(#997),#1583);
#1608=SHAPE_REPRESENTATION('',(#1014),#1584);
#1609=SHAPE_REPRESENTATION('',(#1031),#1585);
#1610=SHAPE_REPRESENTATION('',(#1048),#1586);
#1611=PRODUCT_DEFINITION_CONTEXT('part definition',#1628,'design');
#1612=PRODUCT_DEFINITION('2026-06-09-12-04-19-006','(Unsaved)',#1617,#1611);
#1613=PRODUCT_DEFINITION('2026-06-09-12-04-19-532','Component1',#1618,#1611);
#1614=PRODUCT_DEFINITION('2026-06-09-12-04-19-973','Component2',#1619,#1611);
#1615=PRODUCT_DEFINITION('2026-06-09-12-04-20-386','Component3',#1620,#1611);
#1616=PRODUCT_DEFINITION('2026-06-09-12-04-20-824','Component4',#1621,#1611);
#1617=PRODUCT_DEFINITION_FORMATION('',$,#1630);
#1618=PRODUCT_DEFINITION_FORMATION('',$,#1631);
#1619=PRODUCT_DEFINITION_FORMATION('',$,#1632);
#1620=PRODUCT_DEFINITION_FORMATION('',$,#1633);
#1621=PRODUCT_DEFINITION_FORMATION('',$,#1634);
#1622=PRODUCT_RELATED_PRODUCT_CATEGORY('(Unsaved)','(Unsaved)',(#1630));
#1623=PRODUCT_RELATED_PRODUCT_CATEGORY('Component1','Component1',(#1631));
#1624=PRODUCT_RELATED_PRODUCT_CATEGORY('Component2','Component2',(#1632));
#1625=PRODUCT_RELATED_PRODUCT_CATEGORY('Component3','Component3',(#1633));
#1626=PRODUCT_RELATED_PRODUCT_CATEGORY('Component4','Component4',(#1634));
#1627=APPLICATION_PROTOCOL_DEFINITION('international standard',
'automotive_design',2009,#1628);
#1628=APPLICATION_CONTEXT(
'Core Data for Automotive Mechanical Design Process');
#1629=PRODUCT_CONTEXT('part definition',#1628,'mechanical');
#1630=PRODUCT('2026-06-09-12-04-19-006','(Unsaved)',$,(#1629));
#1631=PRODUCT('2026-06-09-12-04-19-532','Component1',$,(#1629));
#1632=PRODUCT('2026-06-09-12-04-19-973','Component2',$,(#1629));
#1633=PRODUCT('2026-06-09-12-04-20-386','Component3',$,(#1629));
#1634=PRODUCT('2026-06-09-12-04-20-824','Component4',$,(#1629));
#1635=PRESENTATION_STYLE_ASSIGNMENT((#1637));
#1636=PRESENTATION_STYLE_ASSIGNMENT((#1638));
#1637=SURFACE_STYLE_USAGE(.BOTH.,#1639);
#1638=SURFACE_STYLE_USAGE(.BOTH.,#1640);
#1639=SURFACE_SIDE_STYLE('',(#1641));
#1640=SURFACE_SIDE_STYLE('',(#1642));
#1641=SURFACE_STYLE_FILL_AREA(#1643);
#1642=SURFACE_STYLE_FILL_AREA(#1644);
#1643=FILL_AREA_STYLE('Steel - Satin',(#1645));
#1644=FILL_AREA_STYLE('Base Material - Opaque',(#1646));
#1645=FILL_AREA_STYLE_COLOUR('Steel - Satin',#1647);
#1646=FILL_AREA_STYLE_COLOUR('Base Material - Opaque',#1648);
#1647=COLOUR_RGB('Steel - Satin',0.627450980392157,0.627450980392157,0.627450980392157);
#1648=COLOUR_RGB('Base Material - Opaque',0.913725490196078,0.113725490196078,
0.176470588235294);
ENDSEC;
END-ISO-10303-21;
