ISO-10303-21;
HEADER;
/* Generated by software containing ST-Developer
 * from STEP Tools, Inc. (www.steptools.com) 
 */

FILE_DESCRIPTION(
/* description */ (''),
/* implementation_level */ '2;1');

FILE_NAME(
/* name */ 'Shootex2 top base.step',
/* time_stamp */ '2026-06-09T11:53:03+05:30',
/* author */ (''),
/* organization */ (''),
/* preprocessor_version */ 'ST-DEVELOPER v20.1',
/* originating_system */ 'Autodesk Translation Framework v15.8.0.0',
/* authorisation */ '');

FILE_SCHEMA (('AUTOMOTIVE_DESIGN { 1 0 10303 214 3 1 1 }'));
ENDSEC;

DATA;
#10=MECHANICAL_DESIGN_GEOMETRIC_PRESENTATION_REPRESENTATION('',(#17),#897);
#11=ITEM_DEFINED_TRANSFORMATION($,$,#569,#604);
#12=(
REPRESENTATION_RELATIONSHIP($,$,#908,#907)
REPRESENTATION_RELATIONSHIP_WITH_TRANSFORMATION(#11)
SHAPE_REPRESENTATION_RELATIONSHIP()
);
#13=CONTEXT_DEPENDENT_SHAPE_REPRESENTATION(#12,#906);
#14=NEXT_ASSEMBLY_USAGE_OCCURRENCE('Component1:1','Component1:1',
'Component1:1',#910,#911,'Component1:1');
#15=SHAPE_REPRESENTATION_RELATIONSHIP('SRR','None',#908,#16);
#16=ADVANCED_BREP_SHAPE_REPRESENTATION('',(#18),#896);
#17=STYLED_ITEM('',(#922),#18);
#18=MANIFOLD_SOLID_BREP('Body1',#555);
#19=FACE_BOUND('',#96,.T.);
#20=FACE_BOUND('',#97,.T.);
#21=FACE_BOUND('',#98,.T.);
#22=FACE_BOUND('',#99,.T.);
#23=FACE_BOUND('',#100,.T.);
#24=FACE_BOUND('',#101,.T.);
#25=FACE_BOUND('',#102,.T.);
#26=FACE_BOUND('',#103,.T.);
#27=FACE_BOUND('',#106,.T.);
#28=FACE_BOUND('',#107,.T.);
#29=FACE_BOUND('',#108,.T.);
#30=FACE_BOUND('',#109,.T.);
#31=FACE_BOUND('',#110,.T.);
#32=FACE_BOUND('',#111,.T.);
#33=FACE_BOUND('',#112,.T.);
#34=FACE_BOUND('',#113,.T.);
#35=CIRCLE('',#587,0.25085);
#36=CIRCLE('',#588,0.25085);
#37=CIRCLE('',#590,0.25085);
#38=CIRCLE('',#591,0.25085);
#39=CIRCLE('',#593,0.25085);
#40=CIRCLE('',#594,0.25085);
#41=CIRCLE('',#596,0.25085);
#42=CIRCLE('',#597,0.25085);
#43=CYLINDRICAL_SURFACE('',#586,0.25085);
#44=CYLINDRICAL_SURFACE('',#589,0.25085);
#45=CYLINDRICAL_SURFACE('',#592,0.25085);
#46=CYLINDRICAL_SURFACE('',#595,0.25085);
#47=FACE_OUTER_BOUND('',#73,.T.);
#48=FACE_OUTER_BOUND('',#74,.T.);
#49=FACE_OUTER_BOUND('',#75,.T.);
#50=FACE_OUTER_BOUND('',#76,.T.);
#51=FACE_OUTER_BOUND('',#77,.T.);
#52=FACE_OUTER_BOUND('',#78,.T.);
#53=FACE_OUTER_BOUND('',#79,.T.);
#54=FACE_OUTER_BOUND('',#80,.T.);
#55=FACE_OUTER_BOUND('',#81,.T.);
#56=FACE_OUTER_BOUND('',#82,.T.);
#57=FACE_OUTER_BOUND('',#83,.T.);
#58=FACE_OUTER_BOUND('',#84,.T.);
#59=FACE_OUTER_BOUND('',#85,.T.);
#60=FACE_OUTER_BOUND('',#86,.T.);
#61=FACE_OUTER_BOUND('',#87,.T.);
#62=FACE_OUTER_BOUND('',#88,.T.);
#63=FACE_OUTER_BOUND('',#89,.T.);
#64=FACE_OUTER_BOUND('',#90,.T.);
#65=FACE_OUTER_BOUND('',#91,.T.);
#66=FACE_OUTER_BOUND('',#92,.T.);
#67=FACE_OUTER_BOUND('',#93,.T.);
#68=FACE_OUTER_BOUND('',#94,.T.);
#69=FACE_OUTER_BOUND('',#95,.T.);
#70=FACE_OUTER_BOUND('',#104,.T.);
#71=FACE_OUTER_BOUND('',#105,.T.);
#72=FACE_OUTER_BOUND('',#114,.T.);
#73=EDGE_LOOP('',(#363,#364,#365,#366));
#74=EDGE_LOOP('',(#367,#368,#369,#370));
#75=EDGE_LOOP('',(#371,#372,#373,#374));
#76=EDGE_LOOP('',(#375,#376,#377,#378));
#77=EDGE_LOOP('',(#379,#380,#381,#382));
#78=EDGE_LOOP('',(#383,#384,#385,#386));
#79=EDGE_LOOP('',(#387,#388,#389,#390));
#80=EDGE_LOOP('',(#391,#392,#393,#394));
#81=EDGE_LOOP('',(#395,#396,#397,#398));
#82=EDGE_LOOP('',(#399,#400,#401,#402));
#83=EDGE_LOOP('',(#403,#404,#405,#406));
#84=EDGE_LOOP('',(#407,#408,#409,#410));
#85=EDGE_LOOP('',(#411,#412,#413,#414));
#86=EDGE_LOOP('',(#415,#416,#417,#418));
#87=EDGE_LOOP('',(#419,#420,#421,#422));
#88=EDGE_LOOP('',(#423,#424,#425,#426));
#89=EDGE_LOOP('',(#427,#428,#429,#430));
#90=EDGE_LOOP('',(#431,#432,#433,#434));
#91=EDGE_LOOP('',(#435,#436,#437,#438));
#92=EDGE_LOOP('',(#439,#440,#441,#442));
#93=EDGE_LOOP('',(#443,#444,#445,#446));
#94=EDGE_LOOP('',(#447,#448,#449,#450));
#95=EDGE_LOOP('',(#451,#452,#453,#454));
#96=EDGE_LOOP('',(#455));
#97=EDGE_LOOP('',(#456));
#98=EDGE_LOOP('',(#457));
#99=EDGE_LOOP('',(#458));
#100=EDGE_LOOP('',(#459,#460,#461,#462));
#101=EDGE_LOOP('',(#463,#464,#465,#466));
#102=EDGE_LOOP('',(#467,#468,#469,#470));
#103=EDGE_LOOP('',(#471,#472,#473,#474));
#104=EDGE_LOOP('',(#475,#476,#477,#478));
#105=EDGE_LOOP('',(#479,#480,#481,#482));
#106=EDGE_LOOP('',(#483));
#107=EDGE_LOOP('',(#484));
#108=EDGE_LOOP('',(#485));
#109=EDGE_LOOP('',(#486));
#110=EDGE_LOOP('',(#487,#488,#489,#490));
#111=EDGE_LOOP('',(#491,#492,#493,#494));
#112=EDGE_LOOP('',(#495,#496,#497,#498));
#113=EDGE_LOOP('',(#499,#500,#501,#502));
#114=EDGE_LOOP('',(#503,#504,#505,#506));
#115=LINE('',#748,#179);
#116=LINE('',#750,#180);
#117=LINE('',#752,#181);
#118=LINE('',#753,#182);
#119=LINE('',#756,#183);
#120=LINE('',#758,#184);
#121=LINE('',#759,#185);
#122=LINE('',#762,#186);
#123=LINE('',#764,#187);
#124=LINE('',#765,#188);
#125=LINE('',#767,#189);
#126=LINE('',#768,#190);
#127=LINE('',#772,#191);
#128=LINE('',#774,#192);
#129=LINE('',#776,#193);
#130=LINE('',#777,#194);
#131=LINE('',#780,#195);
#132=LINE('',#782,#196);
#133=LINE('',#783,#197);
#134=LINE('',#786,#198);
#135=LINE('',#788,#199);
#136=LINE('',#789,#200);
#137=LINE('',#791,#201);
#138=LINE('',#792,#202);
#139=LINE('',#796,#203);
#140=LINE('',#798,#204);
#141=LINE('',#800,#205);
#142=LINE('',#801,#206);
#143=LINE('',#804,#207);
#144=LINE('',#806,#208);
#145=LINE('',#807,#209);
#146=LINE('',#810,#210);
#147=LINE('',#812,#211);
#148=LINE('',#813,#212);
#149=LINE('',#815,#213);
#150=LINE('',#816,#214);
#151=LINE('',#820,#215);
#152=LINE('',#822,#216);
#153=LINE('',#824,#217);
#154=LINE('',#825,#218);
#155=LINE('',#828,#219);
#156=LINE('',#830,#220);
#157=LINE('',#831,#221);
#158=LINE('',#834,#222);
#159=LINE('',#836,#223);
#160=LINE('',#837,#224);
#161=LINE('',#839,#225);
#162=LINE('',#840,#226);
#163=LINE('',#845,#227);
#164=LINE('',#851,#228);
#165=LINE('',#857,#229);
#166=LINE('',#863,#230);
#167=LINE('',#868,#231);
#168=LINE('',#870,#232);
#169=LINE('',#872,#233);
#170=LINE('',#873,#234);
#171=LINE('',#877,#235);
#172=LINE('',#879,#236);
#173=LINE('',#881,#237);
#174=LINE('',#882,#238);
#175=LINE('',#884,#239);
#176=LINE('',#885,#240);
#177=LINE('',#887,#241);
#178=LINE('',#889,#242);
#179=VECTOR('',#611,1.);
#180=VECTOR('',#612,0.0525850000000001);
#181=VECTOR('',#613,1.);
#182=VECTOR('',#614,0.0525850000000001);
#183=VECTOR('',#617,1.);
#184=VECTOR('',#618,1.);
#185=VECTOR('',#619,0.0525850000000001);
#186=VECTOR('',#622,1.);
#187=VECTOR('',#623,1.);
#188=VECTOR('',#624,0.0525850000000001);
#189=VECTOR('',#627,1.);
#190=VECTOR('',#628,1.);
#191=VECTOR('',#631,1.);
#192=VECTOR('',#632,0.0425850000000001);
#193=VECTOR('',#633,1.);
#194=VECTOR('',#634,0.0425850000000001);
#195=VECTOR('',#637,1.);
#196=VECTOR('',#638,1.);
#197=VECTOR('',#639,0.0425850000000001);
#198=VECTOR('',#642,1.);
#199=VECTOR('',#643,1.);
#200=VECTOR('',#644,0.0425850000000001);
#201=VECTOR('',#647,1.);
#202=VECTOR('',#648,1.);
#203=VECTOR('',#651,1.);
#204=VECTOR('',#652,0.050085);
#205=VECTOR('',#653,1.);
#206=VECTOR('',#654,0.050085);
#207=VECTOR('',#657,1.);
#208=VECTOR('',#658,1.);
#209=VECTOR('',#659,0.050085);
#210=VECTOR('',#662,1.);
#211=VECTOR('',#663,1.);
#212=VECTOR('',#664,0.050085);
#213=VECTOR('',#667,1.);
#214=VECTOR('',#668,1.);
#215=VECTOR('',#671,1.);
#216=VECTOR('',#672,0.062585);
#217=VECTOR('',#673,1.);
#218=VECTOR('',#674,0.062585);
#219=VECTOR('',#677,1.);
#220=VECTOR('',#678,1.);
#221=VECTOR('',#679,0.062585);
#222=VECTOR('',#682,1.);
#223=VECTOR('',#683,1.);
#224=VECTOR('',#684,0.062585);
#225=VECTOR('',#687,1.);
#226=VECTOR('',#688,1.);
#227=VECTOR('',#693,0.25085);
#228=VECTOR('',#700,0.25085);
#229=VECTOR('',#707,0.25085);
#230=VECTOR('',#714,0.25085);
#231=VECTOR('',#719,0.01);
#232=VECTOR('',#720,1.);
#233=VECTOR('',#721,0.01);
#234=VECTOR('',#722,1.);
#235=VECTOR('',#725,0.01);
#236=VECTOR('',#726,1.);
#237=VECTOR('',#727,0.01);
#238=VECTOR('',#728,1.);
#239=VECTOR('',#731,1.025);
#240=VECTOR('',#732,1.025);
#241=VECTOR('',#735,1.025);
#242=VECTOR('',#738,1.025);
#243=VERTEX_POINT('',#746);
#244=VERTEX_POINT('',#747);
#245=VERTEX_POINT('',#749);
#246=VERTEX_POINT('',#751);
#247=VERTEX_POINT('',#755);
#248=VERTEX_POINT('',#757);
#249=VERTEX_POINT('',#761);
#250=VERTEX_POINT('',#763);
#251=VERTEX_POINT('',#770);
#252=VERTEX_POINT('',#771);
#253=VERTEX_POINT('',#773);
#254=VERTEX_POINT('',#775);
#255=VERTEX_POINT('',#779);
#256=VERTEX_POINT('',#781);
#257=VERTEX_POINT('',#785);
#258=VERTEX_POINT('',#787);
#259=VERTEX_POINT('',#794);
#260=VERTEX_POINT('',#795);
#261=VERTEX_POINT('',#797);
#262=VERTEX_POINT('',#799);
#263=VERTEX_POINT('',#803);
#264=VERTEX_POINT('',#805);
#265=VERTEX_POINT('',#809);
#266=VERTEX_POINT('',#811);
#267=VERTEX_POINT('',#818);
#268=VERTEX_POINT('',#819);
#269=VERTEX_POINT('',#821);
#270=VERTEX_POINT('',#823);
#271=VERTEX_POINT('',#827);
#272=VERTEX_POINT('',#829);
#273=VERTEX_POINT('',#833);
#274=VERTEX_POINT('',#835);
#275=VERTEX_POINT('',#842);
#276=VERTEX_POINT('',#844);
#277=VERTEX_POINT('',#848);
#278=VERTEX_POINT('',#850);
#279=VERTEX_POINT('',#854);
#280=VERTEX_POINT('',#856);
#281=VERTEX_POINT('',#860);
#282=VERTEX_POINT('',#862);
#283=VERTEX_POINT('',#866);
#284=VERTEX_POINT('',#867);
#285=VERTEX_POINT('',#869);
#286=VERTEX_POINT('',#871);
#287=VERTEX_POINT('',#875);
#288=VERTEX_POINT('',#876);
#289=VERTEX_POINT('',#878);
#290=VERTEX_POINT('',#880);
#291=EDGE_CURVE('',#243,#244,#115,.T.);
#292=EDGE_CURVE('',#243,#245,#116,.T.);
#293=EDGE_CURVE('',#246,#245,#117,.T.);
#294=EDGE_CURVE('',#244,#246,#118,.T.);
#295=EDGE_CURVE('',#244,#247,#119,.T.);
#296=EDGE_CURVE('',#248,#246,#120,.T.);
#297=EDGE_CURVE('',#247,#248,#121,.T.);
#298=EDGE_CURVE('',#247,#249,#122,.T.);
#299=EDGE_CURVE('',#250,#248,#123,.T.);
#300=EDGE_CURVE('',#249,#250,#124,.T.);
#301=EDGE_CURVE('',#249,#243,#125,.T.);
#302=EDGE_CURVE('',#245,#250,#126,.T.);
#303=EDGE_CURVE('',#251,#252,#127,.T.);
#304=EDGE_CURVE('',#251,#253,#128,.T.);
#305=EDGE_CURVE('',#254,#253,#129,.T.);
#306=EDGE_CURVE('',#252,#254,#130,.T.);
#307=EDGE_CURVE('',#252,#255,#131,.T.);
#308=EDGE_CURVE('',#256,#254,#132,.T.);
#309=EDGE_CURVE('',#255,#256,#133,.T.);
#310=EDGE_CURVE('',#255,#257,#134,.T.);
#311=EDGE_CURVE('',#258,#256,#135,.T.);
#312=EDGE_CURVE('',#257,#258,#136,.T.);
#313=EDGE_CURVE('',#257,#251,#137,.T.);
#314=EDGE_CURVE('',#253,#258,#138,.T.);
#315=EDGE_CURVE('',#259,#260,#139,.T.);
#316=EDGE_CURVE('',#259,#261,#140,.T.);
#317=EDGE_CURVE('',#262,#261,#141,.T.);
#318=EDGE_CURVE('',#260,#262,#142,.T.);
#319=EDGE_CURVE('',#260,#263,#143,.T.);
#320=EDGE_CURVE('',#264,#262,#144,.T.);
#321=EDGE_CURVE('',#263,#264,#145,.T.);
#322=EDGE_CURVE('',#263,#265,#146,.T.);
#323=EDGE_CURVE('',#266,#264,#147,.T.);
#324=EDGE_CURVE('',#265,#266,#148,.T.);
#325=EDGE_CURVE('',#265,#259,#149,.T.);
#326=EDGE_CURVE('',#261,#266,#150,.T.);
#327=EDGE_CURVE('',#267,#268,#151,.T.);
#328=EDGE_CURVE('',#267,#269,#152,.T.);
#329=EDGE_CURVE('',#270,#269,#153,.T.);
#330=EDGE_CURVE('',#268,#270,#154,.T.);
#331=EDGE_CURVE('',#268,#271,#155,.T.);
#332=EDGE_CURVE('',#272,#270,#156,.T.);
#333=EDGE_CURVE('',#271,#272,#157,.T.);
#334=EDGE_CURVE('',#271,#273,#158,.T.);
#335=EDGE_CURVE('',#274,#272,#159,.T.);
#336=EDGE_CURVE('',#273,#274,#160,.T.);
#337=EDGE_CURVE('',#273,#267,#161,.T.);
#338=EDGE_CURVE('',#269,#274,#162,.T.);
#339=EDGE_CURVE('',#275,#275,#35,.T.);
#340=EDGE_CURVE('',#275,#276,#163,.T.);
#341=EDGE_CURVE('',#276,#276,#36,.T.);
#342=EDGE_CURVE('',#277,#277,#37,.T.);
#343=EDGE_CURVE('',#277,#278,#164,.T.);
#344=EDGE_CURVE('',#278,#278,#38,.T.);
#345=EDGE_CURVE('',#279,#279,#39,.T.);
#346=EDGE_CURVE('',#279,#280,#165,.T.);
#347=EDGE_CURVE('',#280,#280,#40,.T.);
#348=EDGE_CURVE('',#281,#281,#41,.T.);
#349=EDGE_CURVE('',#281,#282,#166,.T.);
#350=EDGE_CURVE('',#282,#282,#42,.T.);
#351=EDGE_CURVE('',#283,#284,#167,.T.);
#352=EDGE_CURVE('',#284,#285,#168,.T.);
#353=EDGE_CURVE('',#285,#286,#169,.T.);
#354=EDGE_CURVE('',#286,#283,#170,.T.);
#355=EDGE_CURVE('',#287,#288,#171,.T.);
#356=EDGE_CURVE('',#288,#289,#172,.T.);
#357=EDGE_CURVE('',#289,#290,#173,.T.);
#358=EDGE_CURVE('',#290,#287,#174,.T.);
#359=EDGE_CURVE('',#286,#289,#175,.T.);
#360=EDGE_CURVE('',#283,#288,#176,.T.);
#361=EDGE_CURVE('',#285,#290,#177,.T.);
#362=EDGE_CURVE('',#284,#287,#178,.T.);
#363=ORIENTED_EDGE('',*,*,#291,.F.);
#364=ORIENTED_EDGE('',*,*,#292,.T.);
#365=ORIENTED_EDGE('',*,*,#293,.F.);
#366=ORIENTED_EDGE('',*,*,#294,.F.);
#367=ORIENTED_EDGE('',*,*,#295,.F.);
#368=ORIENTED_EDGE('',*,*,#294,.T.);
#369=ORIENTED_EDGE('',*,*,#296,.F.);
#370=ORIENTED_EDGE('',*,*,#297,.F.);
#371=ORIENTED_EDGE('',*,*,#298,.F.);
#372=ORIENTED_EDGE('',*,*,#297,.T.);
#373=ORIENTED_EDGE('',*,*,#299,.F.);
#374=ORIENTED_EDGE('',*,*,#300,.F.);
#375=ORIENTED_EDGE('',*,*,#301,.F.);
#376=ORIENTED_EDGE('',*,*,#300,.T.);
#377=ORIENTED_EDGE('',*,*,#302,.F.);
#378=ORIENTED_EDGE('',*,*,#292,.F.);
#379=ORIENTED_EDGE('',*,*,#303,.F.);
#380=ORIENTED_EDGE('',*,*,#304,.T.);
#381=ORIENTED_EDGE('',*,*,#305,.F.);
#382=ORIENTED_EDGE('',*,*,#306,.F.);
#383=ORIENTED_EDGE('',*,*,#307,.F.);
#384=ORIENTED_EDGE('',*,*,#306,.T.);
#385=ORIENTED_EDGE('',*,*,#308,.F.);
#386=ORIENTED_EDGE('',*,*,#309,.F.);
#387=ORIENTED_EDGE('',*,*,#310,.F.);
#388=ORIENTED_EDGE('',*,*,#309,.T.);
#389=ORIENTED_EDGE('',*,*,#311,.F.);
#390=ORIENTED_EDGE('',*,*,#312,.F.);
#391=ORIENTED_EDGE('',*,*,#313,.F.);
#392=ORIENTED_EDGE('',*,*,#312,.T.);
#393=ORIENTED_EDGE('',*,*,#314,.F.);
#394=ORIENTED_EDGE('',*,*,#304,.F.);
#395=ORIENTED_EDGE('',*,*,#315,.F.);
#396=ORIENTED_EDGE('',*,*,#316,.T.);
#397=ORIENTED_EDGE('',*,*,#317,.F.);
#398=ORIENTED_EDGE('',*,*,#318,.F.);
#399=ORIENTED_EDGE('',*,*,#319,.F.);
#400=ORIENTED_EDGE('',*,*,#318,.T.);
#401=ORIENTED_EDGE('',*,*,#320,.F.);
#402=ORIENTED_EDGE('',*,*,#321,.F.);
#403=ORIENTED_EDGE('',*,*,#322,.F.);
#404=ORIENTED_EDGE('',*,*,#321,.T.);
#405=ORIENTED_EDGE('',*,*,#323,.F.);
#406=ORIENTED_EDGE('',*,*,#324,.F.);
#407=ORIENTED_EDGE('',*,*,#325,.F.);
#408=ORIENTED_EDGE('',*,*,#324,.T.);
#409=ORIENTED_EDGE('',*,*,#326,.F.);
#410=ORIENTED_EDGE('',*,*,#316,.F.);
#411=ORIENTED_EDGE('',*,*,#327,.F.);
#412=ORIENTED_EDGE('',*,*,#328,.T.);
#413=ORIENTED_EDGE('',*,*,#329,.F.);
#414=ORIENTED_EDGE('',*,*,#330,.F.);
#415=ORIENTED_EDGE('',*,*,#331,.F.);
#416=ORIENTED_EDGE('',*,*,#330,.T.);
#417=ORIENTED_EDGE('',*,*,#332,.F.);
#418=ORIENTED_EDGE('',*,*,#333,.F.);
#419=ORIENTED_EDGE('',*,*,#334,.F.);
#420=ORIENTED_EDGE('',*,*,#333,.T.);
#421=ORIENTED_EDGE('',*,*,#335,.F.);
#422=ORIENTED_EDGE('',*,*,#336,.F.);
#423=ORIENTED_EDGE('',*,*,#337,.F.);
#424=ORIENTED_EDGE('',*,*,#336,.T.);
#425=ORIENTED_EDGE('',*,*,#338,.F.);
#426=ORIENTED_EDGE('',*,*,#328,.F.);
#427=ORIENTED_EDGE('',*,*,#339,.F.);
#428=ORIENTED_EDGE('',*,*,#340,.T.);
#429=ORIENTED_EDGE('',*,*,#341,.F.);
#430=ORIENTED_EDGE('',*,*,#340,.F.);
#431=ORIENTED_EDGE('',*,*,#342,.F.);
#432=ORIENTED_EDGE('',*,*,#343,.T.);
#433=ORIENTED_EDGE('',*,*,#344,.F.);
#434=ORIENTED_EDGE('',*,*,#343,.F.);
#435=ORIENTED_EDGE('',*,*,#345,.F.);
#436=ORIENTED_EDGE('',*,*,#346,.T.);
#437=ORIENTED_EDGE('',*,*,#347,.F.);
#438=ORIENTED_EDGE('',*,*,#346,.F.);
#439=ORIENTED_EDGE('',*,*,#348,.F.);
#440=ORIENTED_EDGE('',*,*,#349,.T.);
#441=ORIENTED_EDGE('',*,*,#350,.F.);
#442=ORIENTED_EDGE('',*,*,#349,.F.);
#443=ORIENTED_EDGE('',*,*,#351,.T.);
#444=ORIENTED_EDGE('',*,*,#352,.T.);
#445=ORIENTED_EDGE('',*,*,#353,.T.);
#446=ORIENTED_EDGE('',*,*,#354,.T.);
#447=ORIENTED_EDGE('',*,*,#355,.T.);
#448=ORIENTED_EDGE('',*,*,#356,.T.);
#449=ORIENTED_EDGE('',*,*,#357,.T.);
#450=ORIENTED_EDGE('',*,*,#358,.T.);
#451=ORIENTED_EDGE('',*,*,#359,.T.);
#452=ORIENTED_EDGE('',*,*,#356,.F.);
#453=ORIENTED_EDGE('',*,*,#360,.F.);
#454=ORIENTED_EDGE('',*,*,#354,.F.);
#455=ORIENTED_EDGE('',*,*,#348,.T.);
#456=ORIENTED_EDGE('',*,*,#345,.T.);
#457=ORIENTED_EDGE('',*,*,#342,.T.);
#458=ORIENTED_EDGE('',*,*,#339,.T.);
#459=ORIENTED_EDGE('',*,*,#334,.T.);
#460=ORIENTED_EDGE('',*,*,#337,.T.);
#461=ORIENTED_EDGE('',*,*,#327,.T.);
#462=ORIENTED_EDGE('',*,*,#331,.T.);
#463=ORIENTED_EDGE('',*,*,#322,.T.);
#464=ORIENTED_EDGE('',*,*,#325,.T.);
#465=ORIENTED_EDGE('',*,*,#315,.T.);
#466=ORIENTED_EDGE('',*,*,#319,.T.);
#467=ORIENTED_EDGE('',*,*,#310,.T.);
#468=ORIENTED_EDGE('',*,*,#313,.T.);
#469=ORIENTED_EDGE('',*,*,#303,.T.);
#470=ORIENTED_EDGE('',*,*,#307,.T.);
#471=ORIENTED_EDGE('',*,*,#298,.T.);
#472=ORIENTED_EDGE('',*,*,#301,.T.);
#473=ORIENTED_EDGE('',*,*,#291,.T.);
#474=ORIENTED_EDGE('',*,*,#295,.T.);
#475=ORIENTED_EDGE('',*,*,#361,.T.);
#476=ORIENTED_EDGE('',*,*,#357,.F.);
#477=ORIENTED_EDGE('',*,*,#359,.F.);
#478=ORIENTED_EDGE('',*,*,#353,.F.);
#479=ORIENTED_EDGE('',*,*,#362,.T.);
#480=ORIENTED_EDGE('',*,*,#358,.F.);
#481=ORIENTED_EDGE('',*,*,#361,.F.);
#482=ORIENTED_EDGE('',*,*,#352,.F.);
#483=ORIENTED_EDGE('',*,*,#350,.T.);
#484=ORIENTED_EDGE('',*,*,#347,.T.);
#485=ORIENTED_EDGE('',*,*,#344,.T.);
#486=ORIENTED_EDGE('',*,*,#341,.T.);
#487=ORIENTED_EDGE('',*,*,#335,.T.);
#488=ORIENTED_EDGE('',*,*,#332,.T.);
#489=ORIENTED_EDGE('',*,*,#329,.T.);
#490=ORIENTED_EDGE('',*,*,#338,.T.);
#491=ORIENTED_EDGE('',*,*,#323,.T.);
#492=ORIENTED_EDGE('',*,*,#320,.T.);
#493=ORIENTED_EDGE('',*,*,#317,.T.);
#494=ORIENTED_EDGE('',*,*,#326,.T.);
#495=ORIENTED_EDGE('',*,*,#311,.T.);
#496=ORIENTED_EDGE('',*,*,#308,.T.);
#497=ORIENTED_EDGE('',*,*,#305,.T.);
#498=ORIENTED_EDGE('',*,*,#314,.T.);
#499=ORIENTED_EDGE('',*,*,#299,.T.);
#500=ORIENTED_EDGE('',*,*,#296,.T.);
#501=ORIENTED_EDGE('',*,*,#293,.T.);
#502=ORIENTED_EDGE('',*,*,#302,.T.);
#503=ORIENTED_EDGE('',*,*,#360,.T.);
#504=ORIENTED_EDGE('',*,*,#355,.F.);
#505=ORIENTED_EDGE('',*,*,#362,.F.);
#506=ORIENTED_EDGE('',*,*,#351,.F.);
#507=PLANE('',#570);
#508=PLANE('',#571);
#509=PLANE('',#572);
#510=PLANE('',#573);
#511=PLANE('',#574);
#512=PLANE('',#575);
#513=PLANE('',#576);
#514=PLANE('',#577);
#515=PLANE('',#578);
#516=PLANE('',#579);
#517=PLANE('',#580);
#518=PLANE('',#581);
#519=PLANE('',#582);
#520=PLANE('',#583);
#521=PLANE('',#584);
#522=PLANE('',#585);
#523=PLANE('',#598);
#524=PLANE('',#599);
#525=PLANE('',#600);
#526=PLANE('',#601);
#527=PLANE('',#602);
#528=PLANE('',#603);
#529=ADVANCED_FACE('',(#47),#507,.T.);
#530=ADVANCED_FACE('',(#48),#508,.T.);
#531=ADVANCED_FACE('',(#49),#509,.T.);
#532=ADVANCED_FACE('',(#50),#510,.T.);
#533=ADVANCED_FACE('',(#51),#511,.T.);
#534=ADVANCED_FACE('',(#52),#512,.T.);
#535=ADVANCED_FACE('',(#53),#513,.T.);
#536=ADVANCED_FACE('',(#54),#514,.T.);
#537=ADVANCED_FACE('',(#55),#515,.T.);
#538=ADVANCED_FACE('',(#56),#516,.T.);
#539=ADVANCED_FACE('',(#57),#517,.T.);
#540=ADVANCED_FACE('',(#58),#518,.T.);
#541=ADVANCED_FACE('',(#59),#519,.T.);
#542=ADVANCED_FACE('',(#60),#520,.T.);
#543=ADVANCED_FACE('',(#61),#521,.T.);
#544=ADVANCED_FACE('',(#62),#522,.T.);
#545=ADVANCED_FACE('',(#63),#43,.F.);
#546=ADVANCED_FACE('',(#64),#44,.F.);
#547=ADVANCED_FACE('',(#65),#45,.F.);
#548=ADVANCED_FACE('',(#66),#46,.F.);
#549=ADVANCED_FACE('',(#67),#523,.T.);
#550=ADVANCED_FACE('',(#68),#524,.F.);
#551=ADVANCED_FACE('',(#69,#19,#20,#21,#22,#23,#24,#25,#26),#525,.F.);
#552=ADVANCED_FACE('',(#70),#526,.F.);
#553=ADVANCED_FACE('',(#71,#27,#28,#29,#30,#31,#32,#33,#34),#527,.F.);
#554=ADVANCED_FACE('',(#72),#528,.F.);
#555=CLOSED_SHELL('',(#529,#530,#531,#532,#533,#534,#535,#536,#537,#538,
#539,#540,#541,#542,#543,#544,#545,#546,#547,#548,#549,#550,#551,#552,#553,
#554));
#556=DERIVED_UNIT_ELEMENT(#558,1.);
#557=DERIVED_UNIT_ELEMENT(#899,-3.);
#558=(
MASS_UNIT()
NAMED_UNIT(*)
SI_UNIT(.KILO.,.GRAM.)
);
#559=DERIVED_UNIT((#556,#557));
#560=MEASURE_REPRESENTATION_ITEM('density measure',
POSITIVE_RATIO_MEASURE(7850.),#559);
#561=PROPERTY_DEFINITION_REPRESENTATION(#566,#563);
#562=PROPERTY_DEFINITION_REPRESENTATION(#567,#564);
#563=REPRESENTATION('material name',(#565),#896);
#564=REPRESENTATION('density',(#560),#896);
#565=DESCRIPTIVE_REPRESENTATION_ITEM('Steel','Steel');
#566=PROPERTY_DEFINITION('material property','material name',#911);
#567=PROPERTY_DEFINITION('material property','density of part',#911);
#568=AXIS2_PLACEMENT_3D('',#743,#605,#606);
#569=AXIS2_PLACEMENT_3D('',#744,#607,#608);
#570=AXIS2_PLACEMENT_3D('',#745,#609,#610);
#571=AXIS2_PLACEMENT_3D('',#754,#615,#616);
#572=AXIS2_PLACEMENT_3D('',#760,#620,#621);
#573=AXIS2_PLACEMENT_3D('',#766,#625,#626);
#574=AXIS2_PLACEMENT_3D('',#769,#629,#630);
#575=AXIS2_PLACEMENT_3D('',#778,#635,#636);
#576=AXIS2_PLACEMENT_3D('',#784,#640,#641);
#577=AXIS2_PLACEMENT_3D('',#790,#645,#646);
#578=AXIS2_PLACEMENT_3D('',#793,#649,#650);
#579=AXIS2_PLACEMENT_3D('',#802,#655,#656);
#580=AXIS2_PLACEMENT_3D('',#808,#660,#661);
#581=AXIS2_PLACEMENT_3D('',#814,#665,#666);
#582=AXIS2_PLACEMENT_3D('',#817,#669,#670);
#583=AXIS2_PLACEMENT_3D('',#826,#675,#676);
#584=AXIS2_PLACEMENT_3D('',#832,#680,#681);
#585=AXIS2_PLACEMENT_3D('',#838,#685,#686);
#586=AXIS2_PLACEMENT_3D('',#841,#689,#690);
#587=AXIS2_PLACEMENT_3D('',#843,#691,#692);
#588=AXIS2_PLACEMENT_3D('',#846,#694,#695);
#589=AXIS2_PLACEMENT_3D('',#847,#696,#697);
#590=AXIS2_PLACEMENT_3D('',#849,#698,#699);
#591=AXIS2_PLACEMENT_3D('',#852,#701,#702);
#592=AXIS2_PLACEMENT_3D('',#853,#703,#704);
#593=AXIS2_PLACEMENT_3D('',#855,#705,#706);
#594=AXIS2_PLACEMENT_3D('',#858,#708,#709);
#595=AXIS2_PLACEMENT_3D('',#859,#710,#711);
#596=AXIS2_PLACEMENT_3D('',#861,#712,#713);
#597=AXIS2_PLACEMENT_3D('',#864,#715,#716);
#598=AXIS2_PLACEMENT_3D('',#865,#717,#718);
#599=AXIS2_PLACEMENT_3D('',#874,#723,#724);
#600=AXIS2_PLACEMENT_3D('',#883,#729,#730);
#601=AXIS2_PLACEMENT_3D('',#886,#733,#734);
#602=AXIS2_PLACEMENT_3D('',#888,#736,#737);
#603=AXIS2_PLACEMENT_3D('',#890,#739,#740);
#604=AXIS2_PLACEMENT_3D('',#891,#741,#742);
#605=DIRECTION('axis',(0.,0.,1.));
#606=DIRECTION('refdir',(1.,0.,0.));
#607=DIRECTION('axis',(0.,0.,1.));
#608=DIRECTION('refdir',(1.,0.,0.));
#609=DIRECTION('center_axis',(-3.39549031155157E-17,1.,-2.84560183232012E-16));
#610=DIRECTION('ref_axis',(0.,2.84560183232012E-16,1.));
#611=DIRECTION('',(1.,3.39549031155157E-17,1.18643615766281E-32));
#612=DIRECTION('',(3.02391307077823E-16,2.84560183232012E-16,1.));
#613=DIRECTION('',(-1.,-3.39549031155157E-17,-1.18643615766281E-32));
#614=DIRECTION('',(3.02391307077823E-16,2.84560183232012E-16,1.));
#615=DIRECTION('center_axis',(-1.,-7.8129300609538E-16,3.02391307077824E-16));
#616=DIRECTION('ref_axis',(3.02391307077824E-16,0.,1.));
#617=DIRECTION('',(-7.8129300609538E-16,1.,-2.22641993607542E-16));
#618=DIRECTION('',(7.8129300609538E-16,-1.,2.22641993607542E-16));
#619=DIRECTION('',(3.02391307077823E-16,2.84560183232012E-16,1.));
#620=DIRECTION('center_axis',(3.39549031155157E-17,-1.,2.84560183232012E-16));
#621=DIRECTION('ref_axis',(0.,-2.84560183232012E-16,-1.));
#622=DIRECTION('',(-1.,-3.39549031155157E-17,-1.18643615766281E-32));
#623=DIRECTION('',(1.,3.39549031155157E-17,1.18643615766281E-32));
#624=DIRECTION('',(3.02391307077823E-16,2.84560183232012E-16,1.));
#625=DIRECTION('center_axis',(1.,7.8129300609538E-16,-3.02391307077824E-16));
#626=DIRECTION('ref_axis',(-3.02391307077824E-16,0.,-1.));
#627=DIRECTION('',(7.8129300609538E-16,-1.,2.22641993607542E-16));
#628=DIRECTION('',(-7.8129300609538E-16,1.,-2.22641993607542E-16));
#629=DIRECTION('center_axis',(-3.39549031155157E-17,1.,-2.99157696544751E-16));
#630=DIRECTION('ref_axis',(0.,2.99157696544751E-16,1.));
#631=DIRECTION('',(1.,3.39549031155157E-17,1.18643615766281E-32));
#632=DIRECTION('',(3.73400185104787E-16,2.99157696544751E-16,1.));
#633=DIRECTION('',(-1.,-3.39549031155157E-17,-1.18643615766281E-32));
#634=DIRECTION('',(3.73400185104787E-16,2.99157696544751E-16,1.));
#635=DIRECTION('center_axis',(-1.,-7.8129300609538E-16,3.73400185104787E-16));
#636=DIRECTION('ref_axis',(3.73400185104787E-16,0.,1.));
#637=DIRECTION('',(-7.8129300609538E-16,1.,-2.22641993607542E-16));
#638=DIRECTION('',(7.8129300609538E-16,-1.,2.22641993607542E-16));
#639=DIRECTION('',(3.73400185104787E-16,2.99157696544751E-16,1.));
#640=DIRECTION('center_axis',(3.39549031155157E-17,-1.,2.99157696544751E-16));
#641=DIRECTION('ref_axis',(0.,-2.99157696544751E-16,-1.));
#642=DIRECTION('',(-1.,-3.39549031155157E-17,-1.18643615766281E-32));
#643=DIRECTION('',(1.,3.39549031155157E-17,1.18643615766281E-32));
#644=DIRECTION('',(3.73400185104787E-16,2.99157696544751E-16,1.));
#645=DIRECTION('center_axis',(1.,7.8129300609538E-16,-3.73400185104787E-16));
#646=DIRECTION('ref_axis',(-3.73400185104787E-16,0.,-1.));
#647=DIRECTION('',(7.8129300609538E-16,-1.,2.22641993607542E-16));
#648=DIRECTION('',(-7.8129300609538E-16,1.,-2.22641993607542E-16));
#649=DIRECTION('center_axis',(-3.39549031155157E-17,1.,-2.87663083823122E-16));
#650=DIRECTION('ref_axis',(0.,2.87663083823122E-16,1.));
#651=DIRECTION('',(1.,3.39549031155157E-17,1.18643615766281E-32));
#652=DIRECTION('',(3.17485212792001E-16,2.87663083823122E-16,1.));
#653=DIRECTION('',(-1.,-3.39549031155157E-17,-1.18643615766281E-32));
#654=DIRECTION('',(3.17485212792001E-16,2.87663083823122E-16,1.));
#655=DIRECTION('center_axis',(-1.,-7.8129300609538E-16,3.17485212792001E-16));
#656=DIRECTION('ref_axis',(3.17485212792001E-16,0.,1.));
#657=DIRECTION('',(-7.8129300609538E-16,1.,-2.22641993607542E-16));
#658=DIRECTION('',(7.8129300609538E-16,-1.,2.22641993607542E-16));
#659=DIRECTION('',(3.17485212792001E-16,2.87663083823122E-16,1.));
#660=DIRECTION('center_axis',(3.39549031155157E-17,-1.,2.87663083823122E-16));
#661=DIRECTION('ref_axis',(0.,-2.87663083823122E-16,-1.));
#662=DIRECTION('',(-1.,-3.39549031155157E-17,-1.18643615766281E-32));
#663=DIRECTION('',(1.,3.39549031155157E-17,1.18643615766281E-32));
#664=DIRECTION('',(3.17485212792001E-16,2.87663083823122E-16,1.));
#665=DIRECTION('center_axis',(1.,7.8129300609538E-16,-3.17485212792001E-16));
#666=DIRECTION('ref_axis',(-3.17485212792001E-16,0.,-1.));
#667=DIRECTION('',(7.8129300609538E-16,-1.,2.22641993607542E-16));
#668=DIRECTION('',(-7.8129300609538E-16,1.,-2.22641993607542E-16));
#669=DIRECTION('center_axis',(-3.39549031155157E-17,1.,-2.74627529969682E-16));
#670=DIRECTION('ref_axis',(0.,2.74627529969682E-16,1.));
#671=DIRECTION('',(1.,3.39549031155157E-17,1.18643615766281E-32));
#672=DIRECTION('',(2.54074408926857E-16,2.74627529969682E-16,1.));
#673=DIRECTION('',(-1.,-3.39549031155157E-17,-1.18643615766281E-32));
#674=DIRECTION('',(2.54074408926857E-16,2.74627529969682E-16,1.));
#675=DIRECTION('center_axis',(-1.,-7.8129300609538E-16,2.54074408926858E-16));
#676=DIRECTION('ref_axis',(2.54074408926858E-16,0.,1.));
#677=DIRECTION('',(-7.8129300609538E-16,1.,-2.22641993607542E-16));
#678=DIRECTION('',(7.8129300609538E-16,-1.,2.22641993607542E-16));
#679=DIRECTION('',(2.54074408926857E-16,2.74627529969682E-16,1.));
#680=DIRECTION('center_axis',(3.39549031155157E-17,-1.,2.74627529969682E-16));
#681=DIRECTION('ref_axis',(0.,-2.74627529969682E-16,-1.));
#682=DIRECTION('',(-1.,-3.39549031155157E-17,-1.18643615766281E-32));
#683=DIRECTION('',(1.,3.39549031155157E-17,1.18643615766281E-32));
#684=DIRECTION('',(2.54074408926857E-16,2.74627529969682E-16,1.));
#685=DIRECTION('center_axis',(1.,7.8129300609538E-16,-2.54074408926858E-16));
#686=DIRECTION('ref_axis',(-2.54074408926858E-16,0.,-1.));
#687=DIRECTION('',(7.8129300609538E-16,-1.,2.22641993607542E-16));
#688=DIRECTION('',(-7.8129300609538E-16,1.,-2.22641993607542E-16));
#689=DIRECTION('center_axis',(-4.77761655689377E-33,1.82304840799958E-16,
1.));
#690=DIRECTION('ref_axis',(1.,-2.44929359829471E-16,7.37677618276407E-32));
#691=DIRECTION('center_axis',(-1.94241488990174E-32,2.22641993607542E-16,
1.));
#692=DIRECTION('ref_axis',(1.,-2.44929359829471E-16,7.37677618276407E-32));
#693=DIRECTION('',(-4.77761655689377E-33,1.82304840799958E-16,1.));
#694=DIRECTION('center_axis',(1.94241488990174E-32,-2.22641993607542E-16,
-1.));
#695=DIRECTION('ref_axis',(1.,-2.44929359829471E-16,7.37677618276407E-32));
#696=DIRECTION('center_axis',(-4.77761655689377E-33,1.82304840799958E-16,
1.));
#697=DIRECTION('ref_axis',(1.,-2.44929359829471E-16,7.37677618276407E-32));
#698=DIRECTION('center_axis',(-1.94241488990174E-32,2.22641993607542E-16,
1.));
#699=DIRECTION('ref_axis',(1.,-2.44929359829471E-16,7.37677618276407E-32));
#700=DIRECTION('',(-4.77761655689377E-33,1.82304840799958E-16,1.));
#701=DIRECTION('center_axis',(1.94241488990174E-32,-2.22641993607542E-16,
-1.));
#702=DIRECTION('ref_axis',(1.,-2.44929359829471E-16,7.37677618276407E-32));
#703=DIRECTION('center_axis',(-4.77761655689377E-33,1.82304840799958E-16,
1.));
#704=DIRECTION('ref_axis',(1.,-2.44929359829471E-16,7.37677618276407E-32));
#705=DIRECTION('center_axis',(-1.94241488990174E-32,2.22641993607542E-16,
1.));
#706=DIRECTION('ref_axis',(1.,-2.44929359829471E-16,7.37677618276407E-32));
#707=DIRECTION('',(-4.77761655689377E-33,1.82304840799958E-16,1.));
#708=DIRECTION('center_axis',(1.94241488990174E-32,-2.22641993607542E-16,
-1.));
#709=DIRECTION('ref_axis',(1.,-2.44929359829471E-16,7.37677618276407E-32));
#710=DIRECTION('center_axis',(-4.77761655689377E-33,1.82304840799958E-16,
1.));
#711=DIRECTION('ref_axis',(1.,-2.44929359829471E-16,7.37677618276407E-32));
#712=DIRECTION('center_axis',(-1.94241488990174E-32,2.22641993607542E-16,
1.));
#713=DIRECTION('ref_axis',(1.,-2.44929359829471E-16,7.37677618276407E-32));
#714=DIRECTION('',(-4.77761655689377E-33,1.82304840799958E-16,1.));
#715=DIRECTION('center_axis',(1.94241488990174E-32,-2.22641993607542E-16,
-1.));
#716=DIRECTION('ref_axis',(1.,-2.44929359829471E-16,7.37677618276407E-32));
#717=DIRECTION('center_axis',(-2.44929359829471E-16,-1.,6.49835945055522E-15));
#718=DIRECTION('ref_axis',(0.,-6.49835945055522E-15,-1.));
#719=DIRECTION('',(1.54233521358997E-30,6.49835945055522E-15,1.));
#720=DIRECTION('',(-1.,2.44929359829471E-16,-7.39557098644699E-32));
#721=DIRECTION('',(-1.54233521358997E-30,-6.49835945055522E-15,-1.));
#722=DIRECTION('',(1.,-2.44929359829471E-16,7.39557098644699E-32));
#723=DIRECTION('center_axis',(-2.44929359829471E-16,-1.,6.49835945055522E-15));
#724=DIRECTION('ref_axis',(0.,-6.49835945055522E-15,-1.));
#725=DIRECTION('',(-1.54233521358997E-30,-6.49835945055522E-15,-1.));
#726=DIRECTION('',(-1.,2.44929359829471E-16,-7.39557098644699E-32));
#727=DIRECTION('',(1.54233521358997E-30,6.49835945055522E-15,1.));
#728=DIRECTION('',(1.,-2.44929359829471E-16,7.39557098644699E-32));
#729=DIRECTION('center_axis',(-1.94241488990174E-32,2.22641993607542E-16,
1.));
#730=DIRECTION('ref_axis',(1.,0.,1.94241488990174E-32));
#731=DIRECTION('',(2.44929359829471E-16,1.,-2.22641993607542E-16));
#732=DIRECTION('',(2.44929359829471E-16,1.,-2.22641993607542E-16));
#733=DIRECTION('center_axis',(1.,-2.44929359829471E-16,4.93038065763132E-32));
#734=DIRECTION('ref_axis',(4.93038065763132E-32,0.,-1.));
#735=DIRECTION('',(2.44929359829471E-16,1.,-2.22641993607542E-16));
#736=DIRECTION('center_axis',(1.94241488990174E-32,-2.22641993607542E-16,
-1.));
#737=DIRECTION('ref_axis',(-1.,0.,-1.94241488990174E-32));
#738=DIRECTION('',(2.44929359829471E-16,1.,-2.22641993607542E-16));
#739=DIRECTION('center_axis',(-1.,2.44929359829471E-16,-4.93038065763132E-32));
#740=DIRECTION('ref_axis',(-4.93038065763132E-32,0.,1.));
#741=DIRECTION('',(0.,0.,1.));
#742=DIRECTION('',(1.,0.,0.));
#743=CARTESIAN_POINT('',(0.,0.,0.));
#744=CARTESIAN_POINT('',(0.,0.,0.));
#745=CARTESIAN_POINT('Origin',(6.43911978451885,-1.03910768756763,0.231799983978276));
#746=CARTESIAN_POINT('',(4.84228720194327,-1.03910768756763,0.099990247484287));
#747=CARTESIAN_POINT('',(8.03595236709443,-1.03910768756763,0.099990247484287));
#748=CARTESIAN_POINT('',(3.26955981596551,-1.03910768756763,0.099990247484287));
#749=CARTESIAN_POINT('',(4.84228720194327,-1.03910768756763,0.299990247484287));
#750=CARTESIAN_POINT('',(4.84228720194327,-1.03910768756763,0.231799983978276));
#751=CARTESIAN_POINT('',(8.03595236709443,-1.03910768756763,0.299990247484287));
#752=CARTESIAN_POINT('',(3.26955981596551,-1.03910768756763,0.299990247484287));
#753=CARTESIAN_POINT('',(8.03595236709443,-1.03910768756763,0.231799983978276));
#754=CARTESIAN_POINT('Origin',(8.03595236709443,-0.502173786938594,0.231799983978275));
#755=CARTESIAN_POINT('',(8.03595236709443,0.0347601136904444,0.0999902474842868));
#756=CARTESIAN_POINT('',(8.03595236709443,-0.276086817175352,0.0999902474842869));
#757=CARTESIAN_POINT('',(8.03595236709443,0.0347601136904444,0.299990247484287));
#758=CARTESIAN_POINT('',(8.03595236709443,-0.276086817175351,0.299990247484287));
#759=CARTESIAN_POINT('',(8.03595236709443,0.0347601136904444,0.231799983978275));
#760=CARTESIAN_POINT('Origin',(6.43911978451885,0.0347601136904443,0.231799983978275));
#761=CARTESIAN_POINT('',(4.84228720194327,0.0347601136904443,0.0999902474842868));
#762=CARTESIAN_POINT('',(3.26955981596551,0.0347601136904442,0.0999902474842868));
#763=CARTESIAN_POINT('',(4.84228720194327,0.0347601136904443,0.299990247484287));
#764=CARTESIAN_POINT('',(3.26955981596551,0.0347601136904442,0.299990247484287));
#765=CARTESIAN_POINT('',(4.84228720194327,0.0347601136904443,0.231799983978275));
#766=CARTESIAN_POINT('Origin',(4.84228720194327,-0.502173786938595,0.231799983978275));
#767=CARTESIAN_POINT('',(4.84228720194327,-0.276086817175353,0.0999902474842869));
#768=CARTESIAN_POINT('',(4.84228720194327,-0.276086817175353,0.299990247484287));
#769=CARTESIAN_POINT('Origin',(2.19313720194327,0.510892312432367,0.356799983978274));
#770=CARTESIAN_POINT('',(0.596304619367686,0.510892312432367,0.0999902474842867));
#771=CARTESIAN_POINT('',(3.78996978451885,0.510892312432367,0.0999902474842867));
#772=CARTESIAN_POINT('',(1.14656852467772,0.510892312432367,0.0999902474842867));
#773=CARTESIAN_POINT('',(0.596304619367686,0.510892312432367,0.299990247484287));
#774=CARTESIAN_POINT('',(0.596304619367686,0.510892312432367,0.356799983978274));
#775=CARTESIAN_POINT('',(3.78996978451885,0.510892312432367,0.299990247484287));
#776=CARTESIAN_POINT('',(1.14656852467772,0.510892312432367,0.299990247484287));
#777=CARTESIAN_POINT('',(3.78996978451885,0.510892312432367,0.356799983978274));
#778=CARTESIAN_POINT('Origin',(3.78996978451885,1.04782621306141,0.356799983978274));
#779=CARTESIAN_POINT('',(3.78996978451885,1.58476011369045,0.0999902474842864));
#780=CARTESIAN_POINT('',(3.78996978451885,0.498913182824647,0.0999902474842867));
#781=CARTESIAN_POINT('',(3.78996978451885,1.58476011369045,0.299990247484286));
#782=CARTESIAN_POINT('',(3.78996978451885,0.498913182824647,0.299990247484287));
#783=CARTESIAN_POINT('',(3.78996978451885,1.58476011369045,0.356799983978274));
#784=CARTESIAN_POINT('Origin',(2.19313720194327,1.58476011369045,0.356799983978274));
#785=CARTESIAN_POINT('',(0.596304619367685,1.58476011369045,0.0999902474842864));
#786=CARTESIAN_POINT('',(1.14656852467772,1.58476011369045,0.0999902474842864));
#787=CARTESIAN_POINT('',(0.596304619367685,1.58476011369045,0.299990247484286));
#788=CARTESIAN_POINT('',(1.14656852467772,1.58476011369045,0.299990247484286));
#789=CARTESIAN_POINT('',(0.596304619367685,1.58476011369045,0.356799983978274));
#790=CARTESIAN_POINT('Origin',(0.596304619367686,1.04782621306141,0.356799983978274));
#791=CARTESIAN_POINT('',(0.596304619367686,0.498913182824645,0.0999902474842867));
#792=CARTESIAN_POINT('',(0.596304619367686,0.498913182824646,0.299990247484287));
#793=CARTESIAN_POINT('Origin',(-1.70284538063231,-1.78910768756763,0.181799983978276));
#794=CARTESIAN_POINT('',(-3.2996779632079,-1.78910768756763,0.0999902474842872));
#795=CARTESIAN_POINT('',(-0.106012798056732,-1.78910768756763,0.0999902474842872));
#796=CARTESIAN_POINT('',(-0.801422766610076,-1.78910768756763,0.0999902474842872));
#797=CARTESIAN_POINT('',(-3.2996779632079,-1.78910768756763,0.299990247484287));
#798=CARTESIAN_POINT('',(-3.2996779632079,-1.78910768756763,0.181799983978276));
#799=CARTESIAN_POINT('',(-0.106012798056732,-1.78910768756763,0.299990247484287));
#800=CARTESIAN_POINT('',(-0.801422766610076,-1.78910768756763,0.299990247484287));
#801=CARTESIAN_POINT('',(-0.106012798056732,-1.78910768756763,0.181799983978275));
#802=CARTESIAN_POINT('Origin',(-0.106012798056732,-1.25217378693859,0.181799983978275));
#803=CARTESIAN_POINT('',(-0.106012798056733,-0.715239886309555,0.0999902474842869));
#804=CARTESIAN_POINT('',(-0.106012798056733,-0.651086817175355,0.0999902474842869));
#805=CARTESIAN_POINT('',(-0.106012798056733,-0.715239886309555,0.299990247484287));
#806=CARTESIAN_POINT('',(-0.106012798056733,-0.651086817175355,0.299990247484287));
#807=CARTESIAN_POINT('',(-0.106012798056733,-0.715239886309555,0.181799983978275));
#808=CARTESIAN_POINT('Origin',(-1.70284538063232,-0.715239886309555,0.181799983978275));
#809=CARTESIAN_POINT('',(-3.2996779632079,-0.715239886309555,0.0999902474842869));
#810=CARTESIAN_POINT('',(-0.801422766610076,-0.715239886309555,0.0999902474842869));
#811=CARTESIAN_POINT('',(-3.2996779632079,-0.715239886309555,0.299990247484287));
#812=CARTESIAN_POINT('',(-0.801422766610076,-0.715239886309555,0.299990247484287));
#813=CARTESIAN_POINT('',(-3.2996779632079,-0.715239886309555,0.181799983978275));
#814=CARTESIAN_POINT('Origin',(-3.2996779632079,-1.25217378693859,0.181799983978275));
#815=CARTESIAN_POINT('',(-3.2996779632079,-0.651086817175356,0.0999902474842869));
#816=CARTESIAN_POINT('',(-3.2996779632079,-0.651086817175356,0.299990247484287));
#817=CARTESIAN_POINT('Origin',(-5.8988279632079,-4.23910768756763,0.156799983978274));
#818=CARTESIAN_POINT('',(-7.49566054578348,-4.23910768756763,0.0999902474842877));
#819=CARTESIAN_POINT('',(-4.30199538063232,-4.23910768756763,0.0999902474842877));
#820=CARTESIAN_POINT('',(-2.89941405789787,-4.23910768756763,0.0999902474842877));
#821=CARTESIAN_POINT('',(-7.49566054578348,-4.23910768756763,0.299990247484288));
#822=CARTESIAN_POINT('',(-7.49566054578348,-4.23910768756763,0.156799983978275));
#823=CARTESIAN_POINT('',(-4.30199538063232,-4.23910768756763,0.299990247484288));
#824=CARTESIAN_POINT('',(-2.89941405789787,-4.23910768756763,0.299990247484288));
#825=CARTESIAN_POINT('',(-4.30199538063232,-4.23910768756763,0.156799983978274));
#826=CARTESIAN_POINT('Origin',(-4.30199538063232,-3.70217378693859,0.156799983978274));
#827=CARTESIAN_POINT('',(-4.30199538063232,-3.16523988630956,0.0999902474842875));
#828=CARTESIAN_POINT('',(-4.30199538063232,-1.87608681717536,0.0999902474842872));
#829=CARTESIAN_POINT('',(-4.30199538063232,-3.16523988630956,0.299990247484287));
#830=CARTESIAN_POINT('',(-4.30199538063232,-1.87608681717536,0.299990247484287));
#831=CARTESIAN_POINT('',(-4.30199538063232,-3.16523988630956,0.156799983978274));
#832=CARTESIAN_POINT('Origin',(-5.8988279632079,-3.16523988630956,0.156799983978274));
#833=CARTESIAN_POINT('',(-7.49566054578348,-3.16523988630956,0.0999902474842875));
#834=CARTESIAN_POINT('',(-2.89941405789787,-3.16523988630956,0.0999902474842875));
#835=CARTESIAN_POINT('',(-7.49566054578348,-3.16523988630956,0.299990247484287));
#836=CARTESIAN_POINT('',(-2.89941405789787,-3.16523988630956,0.299990247484287));
#837=CARTESIAN_POINT('',(-7.49566054578348,-3.16523988630956,0.156799983978274));
#838=CARTESIAN_POINT('Origin',(-7.49566054578348,-3.70217378693859,0.156799983978274));
#839=CARTESIAN_POINT('',(-7.49566054578348,-1.87608681717536,0.0999902474842872));
#840=CARTESIAN_POINT('',(-7.49566054578348,-1.87608681717536,0.299990247484287));
#841=CARTESIAN_POINT('Origin',(9.32231017313304,-8.98616201144134,-1.12585975251571));
#842=CARTESIAN_POINT('',(9.07146017313304,-8.98616201144134,0.0999902474842884));
#843=CARTESIAN_POINT('Origin',(9.32231017313304,-8.98616201144134,0.0999902474842884));
#844=CARTESIAN_POINT('',(9.07146017313304,-8.98616201144134,0.299990247484288));
#845=CARTESIAN_POINT('',(9.07146017313304,-8.98616201144134,-1.12585975251571));
#846=CARTESIAN_POINT('Origin',(9.32231017313304,-8.98616201144134,0.299990247484288));
#847=CARTESIAN_POINT('Origin',(-9.31468982686693,-9.1271620114414,-0.725859752515712));
#848=CARTESIAN_POINT('',(-9.56553982686693,-9.1271620114414,0.0999902474842884));
#849=CARTESIAN_POINT('Origin',(-9.31468982686693,-9.1271620114414,0.0999902474842884));
#850=CARTESIAN_POINT('',(-9.56553982686693,-9.1271620114414,0.299990247484288));
#851=CARTESIAN_POINT('',(-9.56553982686693,-9.1271620114414,-0.725859752515712));
#852=CARTESIAN_POINT('Origin',(-9.31468982686693,-9.1271620114414,0.299990247484288));
#853=CARTESIAN_POINT('Origin',(-9.26068982686706,9.6728379885586,-1.02585975251572));
#854=CARTESIAN_POINT('',(-9.51153982686706,9.6728379885586,0.0999902474842851));
#855=CARTESIAN_POINT('Origin',(-9.26068982686706,9.6728379885586,0.0999902474842851));
#856=CARTESIAN_POINT('',(-9.51153982686706,9.6728379885586,0.299990247484285));
#857=CARTESIAN_POINT('',(-9.51153982686706,9.6728379885586,-1.02585975251572));
#858=CARTESIAN_POINT('Origin',(-9.26068982686706,9.6728379885586,0.299990247484285));
#859=CARTESIAN_POINT('Origin',(9.45131017313298,9.54283798855861,-0.100859752515718));
#860=CARTESIAN_POINT('',(9.20046017313298,9.54283798855861,0.099990247484285));
#861=CARTESIAN_POINT('Origin',(9.45131017313298,9.54283798855861,0.099990247484285));
#862=CARTESIAN_POINT('',(9.20046017313298,9.54283798855861,0.299990247484285));
#863=CARTESIAN_POINT('',(9.20046017313298,9.54283798855861,-0.100859752515718));
#864=CARTESIAN_POINT('Origin',(9.45131017313298,9.54283798855861,0.299990247484285));
#865=CARTESIAN_POINT('Origin',(0.0999998474121611,-10.2999998474121,0.199990247484289));
#866=CARTESIAN_POINT('',(10.0999998474122,-10.2999998474121,0.0999902474842891));
#867=CARTESIAN_POINT('',(10.0999998474122,-10.2999998474121,0.299990247484289));
#868=CARTESIAN_POINT('',(10.0999998474122,-10.2999998474121,0.199990247484289));
#869=CARTESIAN_POINT('',(-9.90000015258784,-10.2999998474121,0.299990247484289));
#870=CARTESIAN_POINT('',(0.0999998474121611,-10.2999998474121,0.299990247484289));
#871=CARTESIAN_POINT('',(-9.90000015258784,-10.2999998474121,0.0999902474842891));
#872=CARTESIAN_POINT('',(-9.90000015258784,-10.2999998474121,0.199990247484289));
#873=CARTESIAN_POINT('',(0.0999998474121611,-10.2999998474121,0.0999902474842891));
#874=CARTESIAN_POINT('Origin',(0.0999998474121661,10.2000001525879,0.199990247484285));
#875=CARTESIAN_POINT('',(10.0999998474122,10.2000001525879,0.299990247484285));
#876=CARTESIAN_POINT('',(10.0999998474122,10.2000001525879,0.0999902474842845));
#877=CARTESIAN_POINT('',(10.0999998474122,10.2000001525879,0.199990247484285));
#878=CARTESIAN_POINT('',(-9.90000015258784,10.2000001525879,0.0999902474842845));
#879=CARTESIAN_POINT('',(0.0999998474121661,10.2000001525879,0.0999902474842845));
#880=CARTESIAN_POINT('',(-9.90000015258784,10.2000001525879,0.299990247484285));
#881=CARTESIAN_POINT('',(-9.90000015258784,10.2000001525879,0.199990247484285));
#882=CARTESIAN_POINT('',(0.0999998474121661,10.2000001525879,0.299990247484285));
#883=CARTESIAN_POINT('Origin',(0.0999998474121636,-0.0499998474121158,0.0999902474842868));
#884=CARTESIAN_POINT('',(-9.90000015258784,-0.0499998474121134,0.0999902474842868));
#885=CARTESIAN_POINT('',(10.0999998474122,-0.0499998474121183,0.0999902474842868));
#886=CARTESIAN_POINT('Origin',(-9.90000015258784,-0.0499998474121127,0.199990247484287));
#887=CARTESIAN_POINT('',(-9.90000015258784,-0.0499998474121121,0.299990247484287));
#888=CARTESIAN_POINT('Origin',(0.0999998474121636,-0.0499998474121145,0.299990247484287));
#889=CARTESIAN_POINT('',(10.0999998474122,-0.049999847412117,0.299990247484287));
#890=CARTESIAN_POINT('Origin',(10.0999998474122,-0.0499998474121176,0.199990247484287));
#891=CARTESIAN_POINT('',(0.,0.,0.));
#892=UNCERTAINTY_MEASURE_WITH_UNIT(LENGTH_MEASURE(0.001),#898,
'DISTANCE_ACCURACY_VALUE',
'Maximum model space distance between geometric entities at asserted c
onnectivities');
#893=UNCERTAINTY_MEASURE_WITH_UNIT(LENGTH_MEASURE(0.001),#898,
'DISTANCE_ACCURACY_VALUE',
'Maximum model space distance between geometric entities at asserted c
onnectivities');
#894=UNCERTAINTY_MEASURE_WITH_UNIT(LENGTH_MEASURE(0.001),#898,
'DISTANCE_ACCURACY_VALUE',
'Maximum model space distance between geometric entities at asserted c
onnectivities');
#895=(
GEOMETRIC_REPRESENTATION_CONTEXT(3)
GLOBAL_UNCERTAINTY_ASSIGNED_CONTEXT((#892))
GLOBAL_UNIT_ASSIGNED_CONTEXT((#898,#900,#901))
REPRESENTATION_CONTEXT('','3D')
);
#896=(
GEOMETRIC_REPRESENTATION_CONTEXT(3)
GLOBAL_UNCERTAINTY_ASSIGNED_CONTEXT((#893))
GLOBAL_UNIT_ASSIGNED_CONTEXT((#898,#900,#901))
REPRESENTATION_CONTEXT('','3D')
);
#897=(
GEOMETRIC_REPRESENTATION_CONTEXT(3)
GLOBAL_UNCERTAINTY_ASSIGNED_CONTEXT((#894))
GLOBAL_UNIT_ASSIGNED_CONTEXT((#898,#900,#901))
REPRESENTATION_CONTEXT('','3D')
);
#898=(
LENGTH_UNIT()
NAMED_UNIT(*)
SI_UNIT(.CENTI.,.METRE.)
);
#899=(
LENGTH_UNIT()
NAMED_UNIT(*)
SI_UNIT($,.METRE.)
);
#900=(
NAMED_UNIT(*)
PLANE_ANGLE_UNIT()
SI_UNIT($,.RADIAN.)
);
#901=(
NAMED_UNIT(*)
SI_UNIT($,.STERADIAN.)
SOLID_ANGLE_UNIT()
);
#902=SHAPE_DEFINITION_REPRESENTATION(#904,#907);
#903=SHAPE_DEFINITION_REPRESENTATION(#905,#908);
#904=PRODUCT_DEFINITION_SHAPE('',$,#910);
#905=PRODUCT_DEFINITION_SHAPE('',$,#911);
#906=PRODUCT_DEFINITION_SHAPE($,$,#14);
#907=SHAPE_REPRESENTATION('',(#568,#604),#895);
#908=SHAPE_REPRESENTATION('',(#569),#896);
#909=PRODUCT_DEFINITION_CONTEXT('part definition',#917,'design');
#910=PRODUCT_DEFINITION('2026-06-09-11-52-26-226','(Unsaved)',#912,#909);
#911=PRODUCT_DEFINITION('2026-06-09-11-52-28-158','Component1',#913,#909);
#912=PRODUCT_DEFINITION_FORMATION('',$,#919);
#913=PRODUCT_DEFINITION_FORMATION('',$,#920);
#914=PRODUCT_RELATED_PRODUCT_CATEGORY('(Unsaved)','(Unsaved)',(#919));
#915=PRODUCT_RELATED_PRODUCT_CATEGORY('Component1','Component1',(#920));
#916=APPLICATION_PROTOCOL_DEFINITION('international standard',
'automotive_design',2009,#917);
#917=APPLICATION_CONTEXT(
'Core Data for Automotive Mechanical Design Process');
#918=PRODUCT_CONTEXT('part definition',#917,'mechanical');
#919=PRODUCT('2026-06-09-11-52-26-226','(Unsaved)',$,(#918));
#920=PRODUCT('2026-06-09-11-52-28-158','Component1',$,(#918));
#921=PRESENTATION_STYLE_ASSIGNMENT((#923));
#922=PRESENTATION_STYLE_ASSIGNMENT((#924));
#923=SURFACE_STYLE_USAGE(.BOTH.,#925);
#924=SURFACE_STYLE_USAGE(.BOTH.,#926);
#925=SURFACE_SIDE_STYLE('',(#927));
#926=SURFACE_SIDE_STYLE('',(#928));
#927=SURFACE_STYLE_FILL_AREA(#929);
#928=SURFACE_STYLE_FILL_AREA(#930);
#929=FILL_AREA_STYLE('Steel - Satin',(#931));
#930=FILL_AREA_STYLE('Base Material - Opaque',(#932));
#931=FILL_AREA_STYLE_COLOUR('Steel - Satin',#933);
#932=FILL_AREA_STYLE_COLOUR('Base Material - Opaque',#934);
#933=COLOUR_RGB('Steel - Satin',0.627450980392157,0.627450980392157,0.627450980392157);
#934=COLOUR_RGB('Base Material - Opaque',0.168627450980392,0.180392156862745,
0.192156862745098);
ENDSEC;
END-ISO-10303-21;
